<?xml version="1.0" encoding="UTF-8" standalone="no"?>
<svg width="32px" height="32px" viewBox="0 0 32 32" version="1.1" xmlns="http://www.w3.org/2000/svg" xmlns:xlink="http://www.w3.org/1999/xlink">
    <!-- Generator: Sketch 3.8.3 (29802) - http://www.bohemiancoding.com/sketch -->
    <title>air-conditioner</title>
    <desc>Created with Sketch.</desc>
    <defs></defs>
    <g id="Ãtomos" stroke="none" stroke-width="1" fill="none" fill-rule="evenodd">
        <g id="03_Iconos" transform="translate(-518.000000, -732.000000)" fill="#60605D">
            <g id="ico-aireacondicionado" transform="translate(518.000000, 732.000000)">
                <path d="M28.3621053,14.43123 L25.6343158,14.43123 L26.1810526,13.57373 C26.52,13.0414887 26.3578947,12.3185274 25.8141053,11.9784843 C25.2658947,11.6221783 24.5452632,11.7848076 24.2077895,12.3318335 L22.8652632,14.43123 L18.2821053,14.447493 L20.5663158,10.4246352 L23.7347368,10.2472214 C24.3831579,10.2176524 24.8694737,9.67210503 24.84,9.03489383 C24.8105263,8.38585503 24.2505263,7.89648865 23.6168421,7.92605762 L21.9368421,8.01624296 L22.6736842,6.74477745 C22.9978947,6.18148865 22.8063158,5.47183348 22.2463158,5.14805331 C21.6863158,4.83757917 20.9642105,5.02977745 20.6547368,5.59010934 L19.9193684,6.87783779 L19.4610526,6.06469124 C19.1515789,5.48809641 18.4309474,5.29589814 17.8694737,5.60637227 C17.3094737,5.91684641 17.1031579,6.61023865 17.4111579,7.17352745 L18.5621053,9.25666107 L16.2631579,13.2632559 L13.9642105,9.25666107 L15.1151579,7.17352745 C15.4231579,6.61023865 15.2168421,5.91684641 14.6568421,5.60637227 C14.0821053,5.29589814 13.3747368,5.50140245 13.0652632,6.06469124 L12.6084211,6.87783779 L11.8715789,5.59010934 C11.5621053,5.02977745 10.84,4.83757917 10.28,5.14805331 C9.72147368,5.47183348 9.52842105,6.18148865 9.85263158,6.74477745 L10.5762105,8.01624296 L8.90947368,7.92605762 C8.27578947,7.89648865 7.71578947,8.38585503 7.68631579,9.03489383 C7.65684211,9.67210503 8.14315789,10.2176524 8.79157895,10.2472214 L11.96,10.4246352 L14.2442105,14.447493 L9.66105263,14.43123 L8.31852632,12.3318335 C7.98105263,11.7848076 7.26042105,11.6221783 6.71368421,11.9784843 C6.16842105,12.3185274 6.00631579,13.0414887 6.34526316,13.57373 L6.892,14.43123 L4.16421053,14.43123 C3.52905263,14.43123 3,14.9486869 3,15.5858981 C3,16.2364154 3.51578947,16.7538723 4.16421053,16.7538723 L6.84484211,16.7538723 L6.00631579,18.1140447 C5.66736842,18.6610706 5.82947368,19.3707257 6.37473684,19.7107688 C6.92,20.0493335 7.64210526,19.8881826 7.98105263,19.3411568 L9.58884211,16.7538723 L14.2604211,16.7671783 L12.0336842,20.6554973 L9.61684211,20.7885576 C8.96842105,20.8329111 8.48357895,21.3814154 8.52631579,22.0156697 C8.55578947,22.6514024 9.11578947,23.1540749 9.74947368,23.1097214 L10.6484211,23.0668464 L9.27789474,25.4323637 C8.96842105,25.994174 9.16,26.7023507 9.72147368,27.0290878 C10.28,27.3380835 10.9873684,27.1473637 11.3130526,26.5840749 L12.7263158,24.1150662 L13.5663158,25.6245619 C13.8757895,26.1863723 14.5816842,26.3770921 15.1431579,26.066618 C15.7178947,25.7576223 15.9094737,25.0479671 15.6,24.4846783 L14.0821053,21.7643335 L16.2631579,17.9647214 L18.4442105,21.7643335 L16.9263158,24.4846783 C16.6168421,25.0479671 16.8231579,25.7576223 17.3831579,26.066618 C17.9446316,26.3770921 18.6505263,26.1863723 18.96,25.6245619 L19.8,24.1150662 L21.2132632,26.5840749 C21.5389474,27.1473637 22.2463158,27.3380835 22.8063158,27.0290878 C23.3663158,26.7023507 23.5578947,25.994174 23.2484211,25.4323637 L21.8778947,23.0668464 L22.7768421,23.1097214 C23.4105263,23.1540749 23.9705263,22.6514024 24,22.0156697 C24.0427368,21.3814154 23.5431579,20.8329111 22.9094737,20.7885576 L20.4926316,20.6554973 L18.2658947,16.7671783 L22.9374737,16.7538723 L24.5452632,19.3411568 C24.8842105,19.8881826 25.6063158,20.0493335 26.1515789,19.7107688 C26.6968421,19.3707257 26.8589474,18.6610706 26.52,18.1140447 L25.6814737,16.7538723 L28.3621053,16.7538723 C29.0105263,16.7538723 29.5263158,16.2364154 29.5263158,15.5858981 C29.5263158,14.9486869 28.9972632,14.43123 28.3621053,14.43123" id="aireacondicionado"></path>
            </g>
        </g>
    </g>
</svg>