<?xml version="1.0" encoding="UTF-8"?>
<svg width="32px" height="32px" viewBox="0 0 32 32" version="1.1" xmlns="http://www.w3.org/2000/svg" xmlns:xlink="http://www.w3.org/1999/xlink">
    <!-- Generator: Sketch 41.1 (35376) - http://www.bohemiancoding.com/sketch -->
    <title>all-inclusive</title>
    <desc>Created with Sketch.</desc>
    <defs></defs>
    <g id="Ãtomos" stroke="none" stroke-width="1" fill="none" fill-rule="evenodd">
        <g id="Iconos" transform="translate(-123.000000, -4953.000000)" fill="#666666">
            <g id="ico-all-inclusive" transform="translate(123.000000, 4953.000000)">
                <path d="M6.62760543,11.2757521 C6.51028173,11.256065 6.3887303,11.2457333 6.26414261,11.2457333 L2.67663,11.2457333 C2.55431838,11.2457333 2.43479041,11.2557996 2.31922489,11.2749932 L2.31922489,4.89859557 L0.878835214,4.89859557 L0.878835214,12.7265077 L0.878835214,14.2005514 C0.878835214,15.0149773 1.68653036,15.674595 2.67663,15.674595 L3.03268894,15.674595 L3.03268894,27.6621372 C3.03268894,28.382332 3.67951814,28.967911 4.47307862,28.967911 C5.26058139,28.967911 5.90673751,28.382332 5.90673751,27.6621372 L5.90673751,15.674595 L6.26414261,15.674595 C7.25962688,15.674595 8.06126432,15.0149773 8.06126432,14.2005514 L8.06126432,12.7265077 L8.06126432,4.89859557 L6.62760543,4.89859557 L6.62760543,11.2757521 Z M15.2154241,3.84186109 C11.8500276,3.84186109 10.3692532,10.4986153 10.3961764,13.7361266 C10.4170418,16.7171948 10.9346398,17.1284463 12.3682987,17.1284463 L12.3682987,27.2380972 C12.3682987,28.1938698 13.0009932,28.967911 13.8490731,28.967911 C14.697153,28.967911 15.2423473,28.1938698 15.2423473,27.2380972 C15.2423473,27.2380972 15.2362895,3.84186109 15.2154241,3.84186109 Z M3.75288378,4.89859557 L5.18654267,4.89859557 L5.18654267,11.2457333 L3.75288378,11.2457333 L3.75288378,4.89859557 Z" id="food"></path>
                <g id="ico-stars" transform="translate(17.000000, 9.000000)">
                    <polygon id="star" points="8.87739983 5.30388837 14.2799997 5.37350994 9.96029981 8.41365186 11.5548998 13.2639546 7.13999987 10.3398486 2.72509995 13.2639546 4.31969992 8.41365186 0 5.37350994 5.4025999 5.30388837 7.13999987 0.5"></polygon>
                </g>
            </g>
        </g>
    </g>
</svg>