<?xml version="1.0" encoding="UTF-8"?>
<svg width="32px" height="32px" viewBox="0 0 32 32" version="1.1" xmlns="http://www.w3.org/2000/svg" xmlns:xlink="http://www.w3.org/1999/xlink">
    <!-- Generator: Sketch 41 (35326) - http://www.bohemiancoding.com/sketch -->
    <title>arrow-down</title>
    <desc>Created with Sketch.</desc>
    <defs></defs>
    <g id="Ãtomos" stroke="none" stroke-width="1" fill="none" fill-rule="evenodd">
        <g id="Iconos" transform="translate(-432.000000, -1616.000000)" fill="#666666">
            <g id="ico-arrow-down" transform="translate(432.000000, 1616.000000)">
                <path d="M15.2973307,15.9970353 L23.8132713,24.1399679 C24.6692495,24.9585734 24.6692495,26.2888971 23.8132713,27.1003156 L23.0370695,27.8413009 C22.1825287,28.6599063 20.7954272,28.6599063 19.9408865,27.8413009 L9.92069535,18.2609575 C9.89985289,18.2458646 9.88619749,18.2458646 9.87110467,18.2314905 L9.09490281,17.4919426 C8.66296084,17.0750935 8.45525497,16.5360644 8.45525497,15.9970353 C8.45525497,15.4644746 8.66296084,14.9189772 9.09490281,14.5085964 L9.87110467,13.7690485 C9.88619749,13.7539557 9.90703994,13.7539557 9.92069535,13.7395816 L19.9408865,4.15923817 C20.7954272,3.33991398 22.1825287,3.33991398 23.0370695,4.15923817 L23.8132713,4.89231771 C24.6692495,5.71164191 24.6692495,7.04124695 23.8132713,7.86057115 L15.2973307,15.9970353" id="ico_arrow" transform="translate(16.455255, 16.000000) rotate(-90.000000) translate(-16.455255, -16.000000) "></path>
            </g>
        </g>
    </g>
</svg>