<?xml version="1.0" encoding="UTF-8" standalone="no"?>
<svg width="32px" height="32px" viewBox="0 0 32 32" version="1.1" xmlns="http://www.w3.org/2000/svg" xmlns:xlink="http://www.w3.org/1999/xlink">
    <!-- Generator: Sketch 39.1 (31720) - http://www.bohemiancoding.com/sketch -->
    <title>arrow-bold-left</title>
    <desc>Created with Sketch.</desc>
    <defs></defs>
    <g id="Ãtomos" stroke="none" stroke-width="1" fill="none" fill-rule="evenodd">
        <g id="03_Iconos" transform="translate(-438.000000, -592.000000)" fill="#666666">
            <g id="ico-arrow-bold-left" transform="translate(438.000000, 592.000000)">
                <path d="M17.580198,5.49735275 C18.3722772,6.25843812 18.3405941,7.48279285 17.5485149,8.24387823 L13.2079208,12.1485771 C12.3841584,12.8765718 12.6059406,13.4722038 13.6831683,13.4722038 L28.0356436,13.4722038 C29.1128713,13.4722038 30,14.1671079 30,14.9943746 L30,18.0056254 C30,18.8328921 29.1128713,19.5277962 28.0356436,19.5277962 L22.649505,19.5277962 L13.6831683,19.5277962 C12.6059406,19.5277962 12.3841584,20.1234282 13.2079208,20.8514229 L17.5485149,24.7892124 C18.3405941,25.5172071 18.3722772,26.7415619 17.580198,27.5026473 L16.629703,28.429186 C15.8376238,29.1902713 14.5386139,29.1902713 13.7465347,28.429186 L2.59405941,17.8732627 C1.8019802,17.1121774 1.8019802,15.8878226 2.59405941,15.1267373 L13.7465347,4.57081403 C14.5386139,3.80972866 15.8376238,3.80972866 16.629703,4.57081403 L17.580198,5.49735275 Z" id="arrow-bold"></path>
            </g>
        </g>
    </g>
</svg>