<?xml version="1.0" encoding="UTF-8" standalone="no"?>
<svg width="32px" height="32px" viewBox="0 0 32 32" version="1.1" xmlns="http://www.w3.org/2000/svg" xmlns:xlink="http://www.w3.org/1999/xlink">
    <!-- Generator: Sketch 39.1 (31720) - http://www.bohemiancoding.com/sketch -->
    <title>arrow-bold-down</title>
    <desc>Created with Sketch.</desc>
    <defs></defs>
    <g id="Ãtomos" stroke="none" stroke-width="1" fill="none" fill-rule="evenodd">
        <g id="03_Iconos" transform="translate(-499.000000, -592.000000)" fill="#666666">
            <g id="ico-arrow-bold-down" transform="translate(499.000000, 592.000000)">
                <path d="M16.629703,4.07081403 L17.580198,4.99735275 C18.3722772,5.75843812 18.3405941,6.98279285 17.5485149,7.74387823 L13.2079208,11.6485771 C12.3841584,12.3765718 12.6059406,12.9722038 13.6831683,12.9722038 L28.0356436,12.9722038 C29.1128713,12.9722038 30,13.6671079 30,14.4943746 L30,17.5056254 C30,18.3328921 29.1128713,19.0277962 28.0356436,19.0277962 L22.649505,19.0277962 L13.6831683,19.0277962 C12.6059406,19.0277962 12.3841584,19.6234282 13.2079208,20.3514229 L17.5485149,24.2892124 C18.3405941,25.0172071 18.3722772,26.2415619 17.580198,27.0026473 L16.629703,27.929186 C15.8376238,28.6902713 14.5386139,28.6902713 13.7465347,27.929186 L2.59405941,17.3732627 C1.8019802,16.6121774 1.8019802,15.3878226 2.59405941,14.6267373 L13.7465347,4.07081403 C14.5386139,3.30972866 15.8376238,3.30972866 16.629703,4.07081403 L16.629703,4.07081403 Z" id="arrow-bold" transform="translate(16.000000, 16.000000) scale(-1, -1) rotate(-270.000000) translate(-16.000000, -16.000000) "></path>
            </g>
        </g>
    </g>
</svg>