<?xml version="1.0" encoding="UTF-8" standalone="no"?>
<svg width="32px" height="32px" viewBox="0 0 32 32" version="1.1" xmlns="http://www.w3.org/2000/svg" xmlns:xlink="http://www.w3.org/1999/xlink">
    <!-- Generator: Sketch 3.7.2 (28276) - http://www.bohemiancoding.com/sketch -->
    <title>assistances</title>
    <desc>Created with Sketch.</desc>
    <defs></defs>
    <g id="Ãtomos" stroke="none" stroke-width="1" fill="none" fill-rule="evenodd">
        <g id="03_Iconos" transform="translate(-509.000000, -426.000000)" fill="#666666">
            <g id="ico-assistances" transform="translate(509.000000, 426.000000)">
                <path d="M14.4444444,13.8920335 L17.5555556,13.8920335 L17.5555556,17.0227114 L20.6666667,17.0227114 L20.6666667,20.1533892 L17.5555556,20.1533892 L17.5555556,23.2840671 L14.4444444,23.2840671 L14.4444444,20.1533892 L11.3333333,20.1533892 L11.3333333,17.0227114 L14.4444444,17.0227114 L14.4444444,13.8920335 L14.4444444,13.8920335 Z M12.8888889,6.06533892 L19.1111111,6.06533892 L19.1111111,9.19601677 L12.8888889,9.19601677 L12.8888889,6.06533892 Z M8.22222222,27.9800839 L23.7777778,27.9800839 L23.7777778,9.19601677 L20.6666667,9.19601677 L20.6666667,4.5 L11.3333333,4.5 L11.3333333,9.19601677 L8.22222222,9.19601677 L8.22222222,27.9800839 L8.22222222,27.9800839 Z M5.11111111,9.19601677 C3.40175769,9.19601677 2,10.6065905 2,12.3266946 L2,24.849406 C2,26.5695101 3.40175769,27.9800839 5.11111111,27.9800839 L6.66666667,27.9800839 L6.66666667,9.19601677 L5.11111111,9.19601677 L5.11111111,9.19601677 Z M25.3333333,27.9800839 L26.8888889,27.9800839 C28.5982423,27.9800839 30,26.5695101 30,24.849406 L30,12.3266946 C30,10.6065905 28.5982423,9.19601677 26.8888889,9.19601677 L25.3333333,9.19601677 L25.3333333,27.9800839 L25.3333333,27.9800839 Z" id="assistances"></path>
            </g>
        </g>
    </g>
</svg>