<?xml version="1.0" encoding="UTF-8" standalone="no"?>
<svg width="32px" height="32px" viewBox="0 0 32 32" version="1.1" xmlns="http://www.w3.org/2000/svg" xmlns:xlink="http://www.w3.org/1999/xlink">
    <!-- Generator: Sketch 3.8.3 (29802) - http://www.bohemiancoding.com/sketch -->
    <title>automatic-transmision</title>
    <desc>Created with Sketch.</desc>
    <defs></defs>
    <g id="Ãtomos" stroke="none" stroke-width="1" fill="none" fill-rule="evenodd">
        <g id="03_Iconos" transform="translate(-414.000000, -732.000000)" fill="#666666">
            <g id="ico-transmisionauto" transform="translate(414.000000, 732.000000)">
                <path d="M15.7341145,13.615245 C15.992439,12.8655172 16.2502128,12.1593466 16.4925642,11.5 L17.3435481,13.884755 L18.6472886,17.5005445 L14.3389415,17.5005445 L15.7341145,13.615245 L15.7341145,13.615245 Z M23.6608965,30 L8.34027429,30 C4.84437197,30 2,27.1568582 2,23.6604436 L2,8.34014174 C2,4.8443125 4.84437197,2 8.34027429,2 L23.6608965,2 C27.1567988,2 30,4.8443125 30,8.34014174 L30,23.6604436 C30,27.1568582 27.1567988,30 23.6608965,30 Z M12.3208152,22 L13.7617045,19 L19.2228732,19 L20.6345701,22 L22,22 L17.494467,10 L15.4901107,10 L11,22 L12.3208152,22 Z M8.34027429,3.17073987 C6.3043151,3.17073987 3.17076434,5.16685134 3.17076434,8.34014174 L3.17076434,23.6604436 C3.17252049,26.1593879 5.75581201,28.8520896 8.34027429,28.8292601 L23.6608965,28.8292601 C26.4783409,28.7426254 28.8959692,26.1043631 28.8292357,23.6604436 L28.8292357,8.34014174 C28.8292357,5.87690507 26.4777555,3.23922815 23.6608965,3.17073987 L8.34027429,3.17073987 Z" id="transmisionauto"></path>
            </g>
        </g>
    </g>
</svg>