<?xml version="1.0" encoding="UTF-8"?>
<svg width="32px" height="32px" viewBox="0 0 32 32" version="1.1" xmlns="http://www.w3.org/2000/svg" xmlns:xlink="http://www.w3.org/1999/xlink">
    <!-- Generator: Sketch 41.1 (35376) - http://www.bohemiancoding.com/sketch -->
    <title>atm</title>
    <desc>Created with Sketch.</desc>
    <defs></defs>
    <g id="Ãtomos" stroke="none" stroke-width="1" fill="none" fill-rule="evenodd">
        <g id="Iconos" transform="translate(-355.000000, -4880.000000)" fill="#666666">
            <g id="ico-atm" transform="translate(343.000000, 4880.000000)">
                <path d="M38.003,14.2959613 L38.003,14.0055822 C38.0044,13.8396513 37.933,13.4248241 37.807,13.2989931 C37.681,13.1883725 37.009,13.1192347 36.8424,13.1192347 L18.655,13.1192347 C18.291,13.1192347 17.997,13.3957862 17.997,13.727648 L17.997,14.2959613 L15.498,14.2959613 L15.498,11.8899632 L40.502,11.8899632 L40.502,14.2959613 L38.003,14.2959613 Z M38.003,15.7340292 L38.003,23.102744 C38.003,23.4346058 37.695,23.7111573 37.331,23.7111573 L36.295,23.7111573 C36.183,24.3610534 20.321,23.7111573 20.321,23.7111573 L18.655,23.7111573 C18.291,23.7111573 17.997,23.4346058 17.997,23.102744 L17.997,15.7340292 L14,15.7340292 L14,14.5379439 L14,11.4059981 L14,10.4380678 L42,10.4380678 L42,11.4059981 L42,14.5379439 L42,15.7340292 L38.003,15.7340292 Z M27.4974,20.0077682 C27.3859834,19.9786451 27.2885023,19.9249309 27.2174,19.8684742 C27.1488,19.8145466 26.8828,19.7578536 26.8534,19.6900984 L26.7274,19.384509 C26.7134,19.3305815 26.6714,19.2738884 26.6154,19.2462333 C26.5734,19.2047505 26.5034,19.190923 26.4194,19.190923 C26.3354,19.190923 26.2514,19.2185781 26.1814,19.2863332 C26.1254,19.3430263 26.082,19.4107814 26.082,19.4951296 C26.082,19.5919226 26.1114,19.7025432 26.152,19.8131639 C26.2094,19.9113396 26.278,20.0219602 26.376,20.1173705 C26.488,20.2141635 26.8254,20.297129 26.978,20.3676496 C27.1194,20.4354047 27.3,20.4768875 27.4974,20.4934806 L27.4974,20.9497905 C27.4974,21.0161629 27.51,21.072856 27.538,21.1005111 C27.5646,21.1406111 27.384,21.1558214 27.4526,21.1558214 C27.524,21.1558214 27.4526,21.1406111 27.468,21.0866835 C27.4974,21.043818 27.4974,20.9760629 27.4974,20.8917147 L27.4974,20.490715 C27.748,20.4755047 27.958,20.4063668 28.1386,20.3095738 C28.308,20.2127808 28.56,20.0883326 28.658,19.9237845 C28.7406,19.7716811 28.798,19.6057502 28.798,19.4107814 C28.798,19.2738884 28.7714,19.1356127 28.7,19.0249921 C28.6454,18.9019266 28.56,18.791306 28.462,18.7069578 C28.364,18.6239924 28.14,18.5548545 28.014,18.5133718 C27.888,18.4718891 27.706,18.4179615 27.4974,18.3612684 L27.4974,17.3808934 C27.72,17.4348209 27.8474,17.5730967 27.902,17.7666827 C27.9594,17.9326136 28.1834,18.0155791 28.35,18.0155791 C28.434,18.0155791 28.5194,17.9879239 28.574,17.9326136 C28.644,17.8773033 28.672,17.8095482 28.672,17.7265827 C28.672,17.6560621 28.644,17.5744794 28.6006,17.491514 C28.56,17.4071658 28.5026,17.3242003 28.434,17.2412349 C28.336,17.1306143 28.098,17.0614764 27.972,17.0061661 C27.8474,16.9508558 27.678,16.9245834 27.4974,16.8955455 L27.4974,16.5360285 C27.4974,16.4101976 27.6654,16.3438252 27.5534,16.3438252 C27.4414,16.3438252 27.4988,16.4101976 27.4988,16.5498561 L27.4988,16.8969282 C27.1488,16.9259661 26.8674,17.0365867 26.6868,17.2011349 C26.5034,17.3822761 26.1828,17.6035173 26.1828,17.8786861 C26.1828,18.0860997 26.2388,18.2658582 26.3368,18.3903064 C26.4334,18.5285821 26.7708,18.6239924 26.9248,18.7069578 C27.0774,18.7774785 27.2748,18.831406 27.4988,18.9019266 L27.4988,18.9853104 C27.6787236,19.0391058 27.8182172,19.0943444 27.902,19.1770954 C28,19.2462333 28.1526,19.3568539 28.1526,19.4951296 C28.1526,19.6195778 28,19.744026 27.902,19.840819 C27.804,19.937612 27.678,19.9929223 27.4974,20.0357878 L27.4974,20.0077682 Z M36.4196,22.3837101 C36.4196,22.6630271 36.1592,22.8967131 35.854,22.8967131 L34.9818,22.8967131 C34.888,23.4442851 21.5376,22.8967131 21.5376,22.8967131 L20.1348,22.8967131 C19.8282,22.8967131 19.5804,22.6630271 19.5804,22.3837101 L19.5804,14.4936956 C19.5804,14.2143786 19.8282,13.9820754 20.1348,13.9820754 L35.441,13.9820754 C35.5824,13.9820754 36.148,14.0401512 36.253,14.1327959 C36.3594,14.2378855 36.4182,14.5863404 36.4182,14.7259989 L36.4182,22.3837101 L36.4196,22.3837101 Z M27.4974,22.1361965 C29.5386,22.1361965 31.2074,20.6027184 31.2074,18.7069578 C31.2074,17.7943379 30.814,16.938411 30.114,16.2871322 C29.414,15.6524465 28.49,15.2915467 27.4974,15.2915467 C25.452,15.2915467 23.8,16.8264076 23.8,18.7069578 C23.8,20.6027184 25.452,22.1361965 27.4974,22.1361965 Z M14,9 L42,9 L42,10.4380678 L14,10.4380678 L14,9 Z M27.4974,17.365683 C27.356,17.4071658 27.244,17.4624761 27.1614,17.5177864 C27.076,17.5869242 26.8254,17.6823345 26.8254,17.821993 C26.8254,17.9478239 27.0774,18.0432342 27.1614,18.0985445 C27.2314,18.1676824 27.342,18.2229927 27.4974,18.278303 L27.4974,17.365683 Z" id="Combined-Shape"></path>
            </g>
        </g>
    </g>
</svg>