<?xml version="1.0" encoding="UTF-8" standalone="no"?>
<svg width="32px" height="32px" viewBox="0 0 32 32" version="1.1" xmlns="http://www.w3.org/2000/svg" xmlns:xlink="http://www.w3.org/1999/xlink">
    <!-- Generator: Sketch 3.8.3 (29802) - http://www.bohemiancoding.com/sketch -->
    <title>baby-car</title>
    <desc>Created with Sketch.</desc>
    <defs></defs>
    <g id="Ãtomos" stroke="none" stroke-width="1" fill="none" fill-rule="evenodd">
        <g id="03_Iconos" transform="translate(-980.000000, -732.000000)" fill="#666666">
            <g id="ico-babycar" transform="translate(980.000000, 732.000000)">
                <path d="M18.5389187,11.9130652 L18.5389187,1.06727829 C25.3832824,1.06727829 31,5.24272498 31,11.9130652 L18.5389187,11.9130652 L18.5389187,11.9130652 Z M30.5945031,13.5367261 C30.5945031,18.9794203 24.9777855,20.8635586 17.93151,20.8635586 C10.884119,20.8635586 5.26795915,19.1339219 5.26795915,13.5367261 L30.5945031,13.5367261 L30.5945031,13.5367261 Z M8.53480276,11.9130652 C8.53480276,11.9130652 8.53480276,11.9130652 6.29202008,11.9130652 C6.29202008,9.56430673 4.50326005,8.45211855 2,8.45211855 L2,6.00686631 C4.19481469,6.00686631 8.53480276,7.17650453 8.53480276,11.9130652 L8.53480276,11.9130652 Z M27.9356259,26.3542208 C27.9356259,28.9456081 25.8384206,31.0428135 23.2386667,31.0428135 C20.6472794,31.0428135 18.5389187,28.9450503 18.5389187,26.3542208 C18.5389187,23.773431 20.6467217,21.6756679 23.2386667,21.6756679 C25.8384206,21.6756679 27.9356259,23.773431 27.9356259,26.3542208 L27.9356259,26.3542208 Z M26.0615275,26.3542208 C26.0615275,24.8080896 24.7948378,23.5514396 23.2386667,23.5514396 C21.6808224,23.5514396 20.425288,24.8080896 20.425288,26.3542208 C20.425288,27.9115073 21.6808224,29.1670417 23.2386667,29.1670417 C24.79428,29.1670417 26.0615275,27.9115073 26.0615275,26.3542208 L26.0615275,26.3542208 Z M17.1093609,26.3542208 C17.1093609,28.9456081 15.0115977,31.0428135 12.4112861,31.0428135 C9.8204566,31.0428135 7.72325121,28.9450503 7.72325121,26.3542208 C7.72325121,23.773431 9.82101437,21.6756679 12.4112861,21.6756679 C15.0115977,21.6756679 17.1093609,23.773431 17.1093609,26.3542208 L17.1093609,26.3542208 Z M15.2335891,26.3542208 C15.2335891,24.8080896 13.9668994,23.5514396 12.4107284,23.5514396 C10.8545573,23.5514396 9.59790741,24.8080896 9.59790741,26.3542208 C9.59790741,27.9115073 10.8545573,29.1670417 12.4107284,29.1670417 C13.9668994,29.1670417 15.2335891,27.9115073 15.2335891,26.3542208 L15.2335891,26.3542208 Z" id="babycar"></path>
            </g>
        </g>
    </g>
</svg>