<?xml version="1.0" encoding="UTF-8" standalone="no"?>
<svg width="32px" height="32px" viewBox="0 0 32 32" version="1.1" xmlns="http://www.w3.org/2000/svg" xmlns:xlink="http://www.w3.org/1999/xlink">
    <!-- Generator: Sketch 3.8.3 (29802) - http://www.bohemiancoding.com/sketch -->
    <title>bag</title>
    <desc>Created with Sketch.</desc>
    <defs></defs>
    <g id="Ãtomos" stroke="none" stroke-width="1" fill="none" fill-rule="evenodd">
        <g id="03_Iconos" transform="translate(-570.000000, -732.000000)" fill="#666666">
            <g id="ico-bag" transform="translate(570.000000, 732.000000)">
                <path d="M2,11.4305908 L2,24.2753154 C2,26.8173447 3.33,28 6.13,28 L7.6,28 L7.6,7.69231245 L6.13,7.69231245 C3.33,7.69231245 2,8.87360842 2,11.4305908 Z M22.2813333,17.1175923 L22.2813333,6.23518459 C22.2393333,3.98051845 20.2373333,4.00000563 17.7719333,4.00000563 L14.2873333,4.00000563 C13.3642468,4.00000563 12.5045576,3.99723931 11.7893593,4.1143812 C10.6063218,4.30815017 9.81863647,4.83000906 9.79333333,6.23518459 L9.77793333,28 L22.2813333,28 L22.2813333,17.1175923 Z M13.2143555,5.78057913 L18.855485,5.84232791 C20.438885,5.84232791 20.6153333,6.67135496 20.6587333,7.69231245 L11.3333333,7.69231245 C11.3767333,6.67135496 11.6323555,5.78057913 13.2143555,5.78057913 Z M24.4,7.69231245 L24.4,28 L26.3973742,28 C28.84814,28 30,26.8173447 30,24.2753154 L29.9469001,11.4305908 C30,8.87360842 28.84814,7.69231245 26.3973742,7.69231245 L24.4,7.69231245 Z" id="bag"></path>
            </g>
        </g>
    </g>
</svg>