<?xml version="1.0" encoding="UTF-8"?>
<svg width="32px" height="32px" viewBox="0 0 32 32" version="1.1" xmlns="http://www.w3.org/2000/svg" xmlns:xlink="http://www.w3.org/1999/xlink">
    <!-- Generator: Sketch 43.1 (39012) - http://www.bohemiancoding.com/sketch -->
    <title>balcony</title>
    <desc>Created with Sketch.</desc>
    <defs></defs>
    <g id="Ãtomos" stroke="none" stroke-width="1" fill="none" fill-rule="evenodd">
        <g id="Iconos" transform="translate(-356.000000, -4960.000000)">
            <g id="ico-grill-copy" transform="translate(344.000000, 4960.000000)"></g>
            <g id="bal" transform="translate(358.000000, 4969.000000)" fill="#666666">
                <path d="M26.1538462,0 L0,0 L0,1.17692308 L1.43846154,1.17692308 C1.30769231,1.43846154 1.30769231,1.56923077 1.30769231,1.83076923 C1.30769231,2.61538462 1.96153846,2.87692308 2.87692308,3.00769231 L2.87692308,5.88461538 C2.48461538,5.88461538 2.35384615,6.14615385 2.35384615,6.40769231 C2.35384615,6.66923077 2.48461538,6.8 2.74615385,6.93076923 C2.22307692,8.5 1.7,11.6384615 1.7,12.2923077 C1.7,12.9461538 2.09230769,13.4692308 2.74615385,13.7307692 C1.96153846,13.8615385 1.30769231,14.5153846 1.30769231,15.1692308 C1.30769231,15.3 1.30769231,15.5615385 1.43846154,15.6923077 L0,15.6923077 L0,16.8692308 L26.1538462,16.8692308 L26.1538462,15.6923077 L24.7153846,15.6923077 C24.8461538,15.5615385 24.8461538,15.3 24.8461538,15.1692308 C24.8461538,14.3846154 24.1923077,13.8615385 23.4076923,13.6 C24.0615385,13.3384615 24.4538462,12.8153846 24.4538462,12.1615385 C24.4538462,11.5076923 24.0615385,8.36923077 23.4076923,6.8 C23.6692308,6.66923077 23.8,6.53846154 23.8,6.27692308 C23.8,6.01538462 23.5384615,5.88461538 23.2769231,5.75384615 L23.2769231,2.87692308 C24.1923077,2.87692308 24.8461538,2.48461538 24.8461538,1.83076923 C24.8461538,1.7 24.8461538,1.43846154 24.7153846,1.30769231 L26.1538462,1.30769231 L26.1538462,0 L26.1538462,0 Z M12.4230769,5.75384615 C12.1615385,5.88461538 11.9,6.14615385 11.9,6.40769231 C11.9,6.66923077 12.0307692,6.8 12.2923077,6.93076923 C11.7692308,8.5 11.3769231,11.5076923 11.3769231,12.1615385 C11.3769231,12.8153846 11.7692308,13.3384615 12.4230769,13.6 C11.5076923,13.8615385 10.9846154,14.3846154 10.9846154,15.1692308 C10.9846154,15.3 10.9846154,15.5615385 11.1153846,15.6923077 L5.49230769,15.6923077 C5.62307692,15.5615385 5.62307692,15.3 5.62307692,15.1692308 C5.62307692,14.3846154 4.96923077,13.8615385 4.18461538,13.6 C4.83846154,13.3384615 5.23076923,12.8153846 5.23076923,12.1615385 C5.23076923,11.5076923 4.70769231,8.5 4.18461538,6.8 C4.44615385,6.66923077 4.57692308,6.53846154 4.57692308,6.27692308 C4.57692308,6.01538462 4.31538462,5.88461538 4.05384615,5.75384615 L4.05384615,2.87692308 C4.96923077,2.74615385 5.62307692,2.48461538 5.62307692,1.7 C5.62307692,1.56923077 5.62307692,1.30769231 5.49230769,1.17692308 L10.9846154,1.17692308 L10.9846154,1.83076923 C10.9846154,2.61538462 11.6384615,2.87692308 12.5538462,3.00769231 L12.5538462,5.75384615 L12.4230769,5.75384615 Z M22.1,5.75384615 C21.8384615,5.88461538 21.5769231,6.01538462 21.5769231,6.27692308 C21.5769231,6.53846154 21.7076923,6.66923077 21.9692308,6.8 C21.4461538,8.36923077 20.9230769,11.5076923 20.9230769,12.1615385 C20.9230769,12.8153846 21.3153846,13.3384615 21.9692308,13.6 C21.0538462,13.8615385 20.5307692,14.3846154 20.5307692,15.1692308 C20.5307692,15.3 20.5307692,15.5615385 20.6615385,15.6923077 L15.0384615,15.6923077 C15.1692308,15.5615385 15.1692308,15.3 15.1692308,15.1692308 C15.1692308,14.3846154 14.5153846,13.8615385 13.7307692,13.6 C14.3846154,13.3384615 14.7769231,12.8153846 14.7769231,12.1615385 C14.7769231,11.5076923 14.3846154,8.36923077 13.7307692,6.8 C13.9923077,6.66923077 14.1230769,6.53846154 14.1230769,6.27692308 C14.1230769,6.01538462 13.8615385,5.88461538 13.6,5.75384615 L13.6,2.87692308 C14.5153846,2.74615385 15.1692308,2.48461538 15.1692308,1.7 C15.1692308,1.56923077 15.1692308,1.30769231 15.0384615,1.17692308 L20.6615385,1.17692308 C20.5307692,1.30769231 20.5307692,1.56923077 20.5307692,1.7 C20.5307692,2.48461538 21.1846154,2.74615385 22.1,2.87692308 L22.1,5.75384615 L22.1,5.75384615 Z" id="Shape"></path>
            </g>
        </g>
    </g>
</svg>