<?xml version="1.0" encoding="UTF-8" standalone="no"?>
<svg width="32px" height="32px" viewBox="0 0 32 32" version="1.1" xmlns="http://www.w3.org/2000/svg" xmlns:xlink="http://www.w3.org/1999/xlink">
    <!-- Generator: Sketch 3.7 (28169) - http://www.bohemiancoding.com/sketch -->
    <title>bathroom</title>
    <desc>Created with Sketch.</desc>
    <defs></defs>
    <g id="Ãtomos" stroke="none" stroke-width="1" fill="none" fill-rule="evenodd">
        <g id="03_Iconos" transform="translate(-144.000000, -652.000000)" fill="#666666">
            <g id="ico-amenitie-bathroom" transform="translate(144.000000, 652.000000)">
                <path d="M9.12474702,8.99449053 C9.05879481,8.99405355 9.02282736,8.99475098 9.02282736,8.99475098 C8.06144215,9.0144934 4.0267318,9.24927697 4.0267318,11.8766146 C4.0267318,14.8593083 4.0267318,18.1681161 4.0267318,18.1681161 C4.0267318,18.1681161 3.86291719,19.8777608 5.65745577,20.2315885 C5.6574558,20.2315883 6.76687444,30 6.76687444,30 L9.12474702,30 L11.4826196,30 C11.4826196,30 12.5920382,20.2315883 12.5920383,20.2315885 C14.3865768,19.8777608 14.2227622,18.1681161 14.2227622,18.1681161 C14.2227622,18.1681161 14.2227622,14.8593083 14.2227622,11.8766146 C14.2227622,9.24927697 10.1880519,9.0144934 9.22666667,8.99584239 C9.22666667,8.99475098 9.19069922,8.99405355 9.12474702,8.99449053 Z M9.17333333,8.34666667 C10.9259169,8.34666667 12.3466667,6.92591694 12.3466667,5.17333333 C12.3466667,3.42074973 10.9259169,2 9.17333333,2 C7.42074973,2 6,3.42074973 6,5.17333333 C6,6.92591694 7.42074973,8.34666667 9.17333333,8.34666667 Z M22.1733333,8.34666667 C23.9259169,8.34666667 25.3466667,6.92591694 25.3466667,5.17333333 C25.3466667,3.42074973 23.9259169,2 22.1733333,2 C20.4207497,2 19,3.42074973 19,5.17333333 C19,6.92591694 20.4207497,8.34666667 22.1733333,8.34666667 Z M22,18.8635254 L22,9 C22,9 18.7577105,9 18.4755528,11.9672721 C17.202966,17.8741601 16,22.4311979 16,22.4311979 L18.7577105,22.8896615 C18.7577105,22.8896615 19.5912339,27.6560916 20.0079956,30 C20.0079956,30.0393066 22,30 22,30 L22,18.8635254 Z M22,18.8635254 L22,9 C22,9 25.2422895,9 25.5244472,11.9672721 C26.797034,17.8741601 28,22.4311979 28,22.4311979 L25.2422895,22.8896615 C25.2422895,22.8896615 24.4087661,27.6560916 23.9920044,30 C23.9920044,30.0393066 22,30 22,30 L22,18.8635254 Z" id="bathroom"></path>
            </g>
        </g>
    </g>
</svg>