<?xml version="1.0" encoding="UTF-8"?>
<svg width="32px" height="32px" viewBox="0 0 32 32" version="1.1" xmlns="http://www.w3.org/2000/svg" xmlns:xlink="http://www.w3.org/1999/xlink">
    <!-- Generator: Sketch 41.1 (35376) - http://www.bohemiancoding.com/sketch -->
    <title>beach-umbrella</title>
    <desc>Created with Sketch.</desc>
    <defs></defs>
    <g id="Ãtomos" stroke="none" stroke-width="1" fill="none" fill-rule="evenodd">
        <g id="Iconos" transform="translate(-69.000000, -4960.000000)" fill="#666666">
            <g id="ico-beach-umbrella" transform="translate(54.000000, 4960.000000)">
                <path d="M36.8467097,21.2617163 C36.7427215,21.103817 36.6010376,20.9603918 36.4424557,20.8538098 C36.1447895,21.1156595 35.806828,21.3669825 35.4415695,21.5630408 C35.0373155,21.7998897 34.6226627,21.9722631 34.1937115,22.10253 C34.2210084,22.2880616 34.2834013,22.4709616 34.3873895,22.6551775 L37.9242871,28.3395517 C38.3285411,28.9711488 39.1981422,29.1948394 39.8740653,28.8119337 L39.8870638,28.7987754 C40.5629869,28.4185013 40.7826619,27.5882142 40.3823074,26.9579329 L36.8467097,21.2617163 Z M43.8009185,8.09028446 C43.5799436,7.4718456 43.2939762,6.89288157 42.8390279,6.44550026 C42.6180531,6.24812616 42.372381,6.0770686 42.0721152,5.94548587 C39.3177285,4.78755779 36.835011,4.4849175 35.4181722,4.41912613 C35.0139182,4.40596786 34.610964,4.40596786 34.1833127,4.41912613 C31.8175818,4.47175923 29.477848,4.99809017 27.2810979,5.99811896 C27.4370802,5.60337075 27.4110832,5.12967291 27.1511127,4.7349247 C26.709163,4.02437793 25.7472724,3.787529 25.0063567,4.20859376 C24.2524425,4.62965851 24.0184691,5.55073766 24.4604188,6.26128443 C24.6943922,6.64287437 25.0843479,6.87972329 25.5132991,6.95867293 C22.120685,9.02452188 19.7289571,12.0903996 18.5200947,15.5773421 C17.9741568,17.1431767 17.6621923,18.9195436 18.5980858,20.4209026 C20.0409217,22.7367588 23.1995623,23.4999386 25.6302858,22.1301624 C26.709163,21.5261976 27.4630772,20.6051185 27.8530329,19.5524566 C29.8028111,20.8406516 32.4545094,21.0248674 34.6382609,19.7893055 C36.5490435,18.7103271 37.6279208,16.8286939 37.7059119,14.8549529 C38.8224849,14.9207443 39.9936516,14.6838953 41.0205348,14.091773 C43.0080087,12.972004 44.5678312,10.2745579 43.8009185,8.09028446 Z M20.0006262,18.1300472 C20.2865937,14.8141623 22.1453822,11.4588025 25.3300199,9.03768016 C24.485116,11.5640687 24.6280998,14.5641551 25.9019548,17.4050263 C23.83519,18.024781 21.8204192,18.2747882 20.0006262,18.1300472 Z M36.3657644,15.1299608 C36.3267688,15.2878601 36.2877733,15.4589177 36.2487777,15.6168169 C35.8848191,16.8010616 35.0269167,17.8392493 33.9090439,18.459004 C32.5299008,19.2353422 30.9323825,19.3406084 29.5285423,18.8800688 C29.2425748,18.7748026 28.8656177,18.6563781 28.6966369,18.3918968 C28.5016591,18.06294 28.6186458,17.6431911 28.9566073,17.445817 C29.0865925,17.3787098 29.2425748,17.3537091 29.398557,17.3655515 C30.5684239,17.5366091 31.816282,17.3523932 32.9211563,16.7339544 C33.9220424,16.1549903 34.6356612,15.3260191 35.0646124,14.3786234 C35.129605,14.2338824 35.2335932,14.1022997 35.3765769,14.02335 C35.7145385,13.8259759 36.1577881,13.9312421 36.351466,14.2601989 C36.4294571,14.3786234 36.4411558,14.4970479 36.4411558,14.6286306 C36.4437555,14.801004 36.3917614,14.9720615 36.3657644,15.1299608 Z M36.2227807,11.4982773 C34.0520276,9.09031325 31.21835,7.59027006 28.3976709,7.18236358 C32.1802406,5.49810457 36.2877733,5.39283838 39.6153947,6.66919091 C38.9264731,8.32713338 37.7696047,9.97191758 36.2227807,11.4982773 Z" id="beach-umbrella"></path>
            </g>
        </g>
    </g>
</svg>