<?xml version="1.0" encoding="UTF-8"?>
<svg width="32px" height="32px" viewBox="0 0 32 32" version="1.1" xmlns="http://www.w3.org/2000/svg" xmlns:xlink="http://www.w3.org/1999/xlink">
    <!-- Generator: Sketch 39.1 (31720) - http://www.bohemiancoding.com/sketch -->
    <title>beach</title>
    <desc>Created with Sketch.</desc>
    <defs></defs>
    <g id="Ãtomos" stroke="none" stroke-width="1" fill="none" fill-rule="evenodd">
        <g id="03_Iconos" transform="translate(-595.000000, -1263.000000)" fill="#666666">
            <g id="ico-playa" transform="translate(595.000000, 1263.000000)">
                <path d="M19.5271546,22.4749085 C19.280643,22.2097923 18.8434337,22.1772341 18.5550616,22.4097923 C18.5504104,22.4190946 18.4620383,22.4842109 18.3132011,22.5911876 L15.4294802,23.4051411 L5.42017784,16.1074667 L5.3504104,15.9632806 C5.22017784,15.6656062 4.87599179,15.5074667 4.5504104,15.5818853 C4.3876197,15.572583 4.21552668,15.6423504 4.10854993,15.7679318 C4.00157319,15.9028155 3.97366621,16.0702574 4.024829,16.2144434 C4.024829,16.2981644 4.04343365,16.3772341 4.07599179,16.4656062 C5.95971272,20.7493272 8.28529412,23.4935132 11.0015732,24.6516527 L5.65273598,26.1679318 C5.38296854,26.2423504 5.22948016,26.516769 5.30854993,26.772583 C5.37831737,26.9865365 5.58296854,27.1214202 5.80622435,27.1214202 C5.85738714,27.1214202 5.89924761,27.116769 5.9504104,27.1028155 L12.7597127,25.1818853 C13.196922,25.2563039 13.6294802,25.288862 14.052736,25.288862 C14.7457592,25.288862 15.3922709,25.1958388 15.9876197,25.0470016 L18.6945964,27.0190946 C18.7876197,27.0842109 18.8992476,27.1214202 19.0108755,27.1214202 C19.1597127,27.1214202 19.3178523,27.0563039 19.4201778,26.9307225 C19.5922709,26.716769 19.5457592,26.4097923 19.3271546,26.2470016 L17.169015,24.6749085 C18.5318057,24.144676 19.3922709,23.4470016 19.4620383,23.3958388 C19.7457592,23.1632806 19.7783174,22.7493272 19.5271546,22.4749085 L19.5271546,22.4749085 Z M12.6945964,23.8423504 C10.2992476,23.3074667 8.17831737,21.3493272 6.36436389,18.0330481 L14.2108755,23.7539783 L13.480643,23.9539783 C13.224829,23.9353737 12.9643639,23.8981644 12.6945964,23.8423504 L12.6945964,23.8423504 Z M19.4899453,13.2190946 C19.3783174,12.8702574 18.9922709,12.6795597 18.6294802,12.7865365 C18.2620383,12.888862 18.0620383,13.2516527 18.169015,13.5958388 L22.4713406,26.8237458 C22.5597127,27.1074667 22.8294802,27.2842109 23.1271546,27.2842109 C23.1922709,27.2842109 23.2620383,27.2749085 23.3271546,27.2516527 C23.6899453,27.1493272 23.8992476,26.7865365 23.7829685,26.4423504 L19.4899453,13.2190946 L19.4899453,13.2190946 Z M27.880643,6.83769925 C26.7318057,5.85165273 24.7178523,5.28421087 22.3504104,5.28421087 C20.5922709,5.28421087 18.6713406,5.58188529 16.6341313,6.17258297 L16.4945964,6.21444343 L16.3504104,6.25165273 C10.569015,7.9307225 7.93645691,10.8051411 7.42948016,12.772583 C7.42017784,12.8144434 7.22017784,13.888862 7.70854993,14.4423504 C7.90389877,14.6609551 8.17366621,14.772583 8.50389877,14.772583 C9.18296854,14.772583 10.1225034,14.316769 11.3736662,13.3818853 C11.4015732,13.3772341 11.4341313,13.3679318 11.4573871,13.3493272 C11.4992476,13.316769 11.5271546,13.2749085 11.5271546,13.2283969 C11.5643639,12.316769 12.0015732,11.4702574 12.8201778,10.7121179 C12.6294802,11.372583 12.3457592,12.516769 12.3364569,13.4609551 C12.3364569,13.5400248 12.396922,13.6097923 12.480643,13.6237458 C12.9271546,13.6935132 13.480643,13.7818853 14.0480848,13.7818853 C15.6341313,13.7818853 16.7783174,13.0563039 17.480643,11.5632806 C17.4899453,11.5353737 17.4945964,11.5121179 17.4899453,11.488862 L17.4899453,8.90281553 L18.824829,11.0051411 C18.8434337,11.0283969 18.7271546,11.0470016 18.7457592,11.0609551 C19.5132011,11.5121179 20.2713406,11.744676 20.996922,11.744676 C22.3411081,11.744676 23.3736662,10.9772341 24.2108755,10.2283969 C24.2713406,10.1679318 24.280643,10.0795597 24.2387825,10.0144434 C23.6666895,9.23769925 22.7504104,8.44235041 22.2015732,7.99583878 C23.3271546,8.18653646 24.1922709,8.6563039 24.7643639,9.38653646 C24.796922,9.42839692 24.852736,9.44235041 24.9038988,9.44235041 C24.9225034,9.44700157 24.9504104,9.44235041 24.969015,9.43304808 C25.3550616,9.46095506 25.7178523,9.48886204 26.0341313,9.47955971 C27.4992476,9.47955971 28.3318057,9.20048994 28.5783174,8.63304808 C28.9225034,7.85165273 27.9318057,6.88421087 27.880643,6.83769925 L27.880643,6.83769925 Z" id="playa"></path>
            </g>
        </g>
    </g>
</svg>