<?xml version="1.0" encoding="UTF-8"?>
<svg width="32px" height="32px" viewBox="0 0 32 32" version="1.1" xmlns="http://www.w3.org/2000/svg" xmlns:xlink="http://www.w3.org/1999/xlink">
    <!-- Generator: Sketch 41.1 (35376) - http://www.bohemiancoding.com/sketch -->
    <title>billing-error</title>
    <desc>Created with Sketch.</desc>
    <defs></defs>
    <g id="Page-1" stroke="none" stroke-width="1" fill="none" fill-rule="evenodd">
        <g id="Artboard" transform="translate(-109.000000, -48.000000)" fill="#666666">
            <g id="ico_billingerror" transform="translate(98.000000, 48.000000)">
                <path d="M27.9406842,28.2867507 L25.0937951,26 L21.5367965,28.8571429 L17.979798,26 L14.4227994,28.8571429 L13,28.8571429 L13,4.57142857 C13,2.55767857 14.5535884,1 16.5569986,1 L33.6305916,1 C35.6472271,1 37.1875902,2.55767857 37.1875902,4.57142857 L37.1875902,16.9089319 C36.6150128,16.7814887 36.0198682,16.7142857 35.4090909,16.7142857 C34.2186844,16.7142857 33.0876603,16.9695636 32.0673582,17.4285714 L18.6911977,17.4285714 L18.6911977,20.2857143 L28.6592246,20.2857143 C27.756336,21.6064859 27.2279942,23.2055779 27.2279942,24.9285714 C27.2279942,26.1249312 27.4827191,27.2615554 27.9406842,28.2867507 Z M32.2077922,8.85714286 L18.6911977,8.85714286 L18.6911977,6 L32.2077922,6 L32.2077922,8.85714286 Z M32.2077922,14.5714286 L18.6911977,14.5714286 L18.6911977,11.7142857 L32.2077922,11.7142857 L32.2077922,14.5714286 Z M35.8484848,18.6470588 C32.452165,18.6470588 29.6969697,21.4137745 29.6969697,24.8235294 C29.6969697,28.2360294 32.452165,31 35.8484848,31 C39.247197,31 42,28.2360294 42,24.8235294 C42,21.4137745 39.247197,18.6470588 35.8484848,18.6470588 Z M38.9242424,26.4294118 L37.4478788,27.9117647 L35.8484848,26.3082843 L34.2542172,27.9117647 L32.7727273,26.4294118 L34.3721212,24.8235294 L32.7727273,23.222451 L34.2542172,21.7352941 L35.8484848,23.3411765 L37.4478788,21.7352941 L38.9242424,23.222451 L37.3275825,24.8235294 L38.9242424,26.4294118 Z" id="billingerror"></path>
            </g>
        </g>
    </g>
</svg>