<?xml version="1.0" encoding="UTF-8" standalone="no"?>
<svg width="32px" height="32px" viewBox="0 0 32 32" version="1.1" xmlns="http://www.w3.org/2000/svg" xmlns:xlink="http://www.w3.org/1999/xlink">
    <!-- Generator: Sketch 39.1 (31720) - http://www.bohemiancoding.com/sketch -->
    <title>boat</title>
    <desc>Created with Sketch.</desc>
    <defs></defs>
    <g id="Ãtomos" stroke="none" stroke-width="1" fill="none" fill-rule="evenodd">
        <g id="03_Iconos" transform="translate(-871.000000, -592.000000)" fill="#666666">
            <g id="ico-boat" transform="translate(871.000000, 592.000000)">
                <g id="icon-boat" transform="translate(0.900024, 3.000000)">
                    <path d="M5.82919355,20.8979032 L16.2164516,20.8979032 C16.3108065,20.8979032 16.4051613,20.8514516 16.4506452,20.7730645 C16.5145161,20.6956452 16.5145161,20.6017742 16.4820968,20.5083871 C16.1085484,19.496129 16.4506452,7.94032258 16.7787097,0.417580645 C16.7787097,0.308709677 16.7148387,0.215322581 16.6224194,0.152903226 C16.5295161,0.106451613 16.4046774,0.106451613 16.3103226,0.168387097 C7.46516129,6.2433871 5.56451613,20.4314516 5.54951613,20.5712903 C5.53354839,20.6646774 5.56451613,20.7430645 5.61193548,20.8045161 C5.6733871,20.8669355 5.75177419,20.8979032 5.82919355,20.8979032 L5.82919355,20.8979032 Z M17.3390323,20.5398387 C17.3235484,20.6182258 17.3390323,20.7116129 17.3845161,20.7895161 C17.4483871,20.8519355 17.5258065,20.8983871 17.6187097,20.8983871 L23.6462903,20.8983871 C23.7387097,20.8983871 23.8330645,20.8519355 23.8954839,20.7895161 C23.9429032,20.7120968 23.9579032,20.6182258 23.9274194,20.5248387 C23.9124194,20.4624194 21.8085484,13.8270968 17.8833871,5.86887097 C17.8224194,5.74403226 17.6825806,5.6816129 17.5412903,5.71306452 C17.4014516,5.76048387 17.3235484,5.88483871 17.3390323,6.02516129 C17.3390323,6.11854839 18.3972581,16.7559677 17.3390323,20.5398387 L17.3390323,20.5398387 Z M29.7358065,23.9356452 C28.2406452,22.0040323 23.8954839,21.5995161 20.5156452,21.5995161 C18.3198387,21.5995161 16.575,21.7708065 16.5140323,21.7867742 C10.8440323,23.3743548 2.34048387,23.4537097 0.689516129,23.4537097 L0.502741935,23.4537097 C0.377903226,23.4537097 0.269516129,23.5291935 0.222096774,23.6390323 C0.175645161,23.763871 0.222096774,23.8887097 0.315483871,23.9680645 C1.28129032,24.6827419 3.32177419,25.0417742 6.37403226,25.0417742 C9.34887097,25.0417742 13.2106452,24.6827419 16.6998387,24.0759677 C18.0551613,23.8437097 19.6291935,23.718871 21.4025806,23.718871 C25.5609677,23.718871 29.4237097,24.3880645 29.4546774,24.3880645 C29.5645161,24.4185484 29.6883871,24.3575806 29.7527419,24.2632258 C29.8132258,24.1529032 29.8132258,24.0280645 29.7358065,23.9356452 L29.7358065,23.9356452 Z" id="Shape"></path>
                </g>
            </g>
        </g>
    </g>
</svg>