<?xml version="1.0" encoding="UTF-8" standalone="no"?>
<svg width="32px" height="32px" viewBox="0 0 32 32" version="1.1" xmlns="http://www.w3.org/2000/svg" xmlns:xlink="http://www.w3.org/1999/xlink">
    <!-- Generator: Sketch 39.1 (31720) - http://www.bohemiancoding.com/sketch -->
    <title>booking</title>
    <desc>Created with Sketch.</desc>
    <defs></defs>
    <g id="Ãtomos" stroke="none" stroke-width="1" fill="none" fill-rule="evenodd">
        <g id="03_Iconos" transform="translate(-809.000000, -592.000000)" fill="#666666">
            <g id="ico-booking" transform="translate(809.000000, 592.000000)">
                <path d="M7.42857143,2 C5.54373928,2 4,3.56592593 4,5.5 L4,30 L5.71428571,30 L9.14285714,27.375 L12.5714286,30 L16,27.375 L19.4285714,30 L22.8571429,27.375 L26.2857143,30 L28,30 L28,5.5 C28,3.56592593 26.4665523,2 24.5714286,2 L7.42857143,2 Z M9.14285714,17.75 L22.8571429,17.75 L22.8571429,20.375 L9.14285714,20.375 L9.14285714,17.75 Z M9.14285714,12.5 L22.8571429,12.5 L22.8571429,15.125 L9.14285714,15.125 L9.14285714,12.5 Z M9.14285714,7.25 L22.8571429,7.25 L22.8571429,9.875 L9.14285714,9.875 L9.14285714,7.25 Z" id="booking"></path>
            </g>
        </g>
    </g>
</svg>