<?xml version="1.0" encoding="UTF-8"?>
<svg width="32px" height="32px" viewBox="0 0 32 32" version="1.1" xmlns="http://www.w3.org/2000/svg" xmlns:xlink="http://www.w3.org/1999/xlink">
    <!-- Generator: Sketch 41.1 (35376) - http://www.bohemiancoding.com/sketch -->
    <title>breakfast</title>
    <desc>Created with Sketch.</desc>
    <defs></defs>
    <g id="Ãtomos" stroke="none" stroke-width="1" fill="none" fill-rule="evenodd">
        <g id="Iconos" transform="translate(-139.000000, -4643.000000)" fill="#666666">
            <g id="ico-breakfast" transform="translate(139.000000, 4643.000000)">
                <path d="M22.9812792,18.4975945 C23.1716792,17.7401021 23.3060792,16.953097 23.3956792,16.1464167 C23.7652792,15.8119396 24.2916792,15.5955132 24.8628792,15.5955132 C26.0500792,15.5955132 27.0132792,16.4808939 27.0132792,17.5531883 C27.0132792,18.6254828 26.0500792,19.4911884 24.8628792,19.4911884 C24.0564792,19.4911884 23.3396792,19.0976859 22.9812792,18.4975945 L22.9812792,18.4975945 Z M11.4900792,24.7444475 L20.2932792,24.7444475 C21.0436792,23.9967926 21.7156792,23.0523865 22.2084792,21.9702545 C22.9364792,22.4818078 23.8660792,21.4291885 24.8628792,21.4291885 C27.2484792,21.4291885 29.1748792,19.6879397 29.1748792,17.5531883 C29.1748792,15.3987619 27.2484792,13.6575131 24.8628792,13.6575131 C24.3588792,13.6575131 23.8548792,14.6117568 23.3956792,14.7494827 C23.3732792,14.4641933 23.3396792,14.1690664 23.2948792,13.8739395 L8.48847916,13.8739395 C8.39887916,14.5035436 8.34287916,16.5300817 8.34287916,17.1891985 C8.34287916,20.6520209 9.59727916,22.8556352 11.4900792,24.7444475 Z M1.89167916,26.0036556 C1.89167916,27.981006 8.16367916,28.5614222 15.8916792,28.5614222 C23.6196792,28.5614222 29.8916792,27.981006 29.8916792,26.0036556 C29.8916792,25.8954424 29.8804792,25.7970668 29.8244792,25.6888536 L1.95887916,25.6888536 C1.90287916,25.7970668 1.89167916,25.8954424 1.89167916,26.0036556 L1.89167916,26.0036556 Z M11.9380792,12.4573303 L14.8164792,12.4573303 C14.8164792,12.4573303 13.8644792,10.0668023 16.9668792,8.57149261 C21.0996792,6.57446716 19.1284792,2 19.1284792,2 C19.1284792,2 19.5316792,6.1022641 16.2500792,7.28277175 C11.3332792,9.03385811 11.9380792,12.4573303 11.9380792,12.4573303 L11.9380792,12.4573303 Z M17.6836792,12.4573303 L19.8452792,12.4573303 C19.8452792,12.4573303 19.4420792,11.6900003 20.5620792,10.5193302 C21.6820792,9.33882258 21.2788792,7.18439612 21.2788792,7.18439612 C21.2788792,7.18439612 21.2788792,9.29947233 19.8452792,9.87005103 C17.8964792,10.6275434 17.6836792,12.4573303 17.6836792,12.4573303 L17.6836792,12.4573303 Z" id="breakfast"></path>
            </g>
        </g>
    </g>
</svg>