<?xml version="1.0" encoding="UTF-8"?>
<svg width="32px" height="32px" viewBox="0 0 32 32" version="1.1" xmlns="http://www.w3.org/2000/svg" xmlns:xlink="http://www.w3.org/1999/xlink">
    <!-- Generator: Sketch 39.1 (31720) - http://www.bohemiancoding.com/sketch -->
    <title>budget</title>
    <desc>Created with Sketch.</desc>
    <defs></defs>
    <g id="Ãtomos" stroke="none" stroke-width="1" fill="none" fill-rule="evenodd">
        <g id="03_Iconos" transform="translate(-881.000000, -1263.000000)" fill="#666666">
            <g id="ico-presupuesto" transform="translate(881.000000, 1263.000000)">
                <path d="M16,30 C23.7233333,30 30,23.7175 30,16 C30,12.2608333 28.5475,8.74916667 25.8991667,6.10083333 C23.2566667,3.45833333 19.7391667,2 16,2 C8.2825,2 2,8.2825 2,16 C2,23.7175 8.2825,30 16,30 Z M11.0241667,18.3391667 C11.2691667,18.0941667 11.5725,17.9658333 11.9341667,17.9658333 C12.2258333,17.9658333 12.4708333,18.0358333 12.675,18.17 C12.8791667,18.31 13.0191667,18.4966667 13.095,18.7475 C13.27,19.2783333 13.4216667,19.6866667 13.55,19.9725 C13.6841667,20.2525 13.8766667,20.5091667 14.145,20.7425 C14.4075,20.9758333 14.7516667,21.1566667 15.1891667,21.2791667 L15.1891667,16.7466667 C14.32,16.5075 13.5908333,16.2391667 13.0075,15.9475 C12.4241667,15.65 11.9458333,15.23 11.5841667,14.6816667 C11.2225,14.1391667 11.0358333,13.4391667 11.0358333,12.5816667 C11.0358333,11.4616667 11.3916667,10.5458333 12.1033333,9.82833333 C12.815,9.11666667 13.8416667,8.7025 15.1891667,8.58583333 L15.1891667,7.145 C15.1891667,6.6025 15.3933333,6.32833333 15.8016667,6.32833333 C16.2158333,6.32833333 16.4258333,6.59666667 16.4258333,7.1275 L16.4258333,8.58583333 C17.12,8.65583333 17.7208333,8.80166667 18.2166667,9.01166667 C18.7125,9.2275 19.1441667,9.55416667 19.5175,9.98583333 C19.8033333,10.3183333 20.0308333,10.6625 20.1941667,11.0125 C20.3516667,11.3625 20.4333333,11.6833333 20.4333333,11.975 C20.4333333,12.3016667 20.3108333,12.5816667 20.0775,12.815 C19.8383333,13.0541667 19.5525,13.1766667 19.2141667,13.1766667 C18.5783333,13.1766667 18.1641667,12.8266667 17.9716667,12.1383333 C17.7616667,11.3275 17.2425,10.785 16.4258333,10.5225 L16.4258333,14.5766667 C17.2308333,14.7983333 17.8725,14.9966667 18.3508333,15.1775 C18.8291667,15.3641667 19.255,15.6266667 19.6341667,15.9708333 C20.0366667,16.3266667 20.3458333,16.7525 20.5616667,17.2483333 C20.7833333,17.7441667 20.8883333,18.2925 20.8883333,18.8816667 C20.8883333,19.6225 20.7133333,20.3166667 20.3691667,20.9641667 C20.0191667,21.6058333 19.5058333,22.1366667 18.8291667,22.545 C18.1583333,22.9533333 17.3591667,23.1983333 16.4258333,23.2741667 L16.4258333,24.8841667 C16.4258333,25.2691667 16.3908333,25.5491667 16.315,25.7241667 C16.2391667,25.8991667 16.0758333,25.9866667 15.825,25.9866667 C15.5916667,25.9866667 15.4225,25.9166667 15.3291667,25.7708333 C15.2358333,25.6308333 15.1891667,25.4091667 15.1891667,25.1116667 L15.1891667,23.2975 C14.4308333,23.21 13.7658333,23.035 13.2,22.7608333 C12.6283333,22.4866667 12.1558333,22.1483333 11.7708333,21.74 C11.3916667,21.3375 11.1116667,20.9116667 10.9308333,20.4741667 C10.75,20.0366667 10.6566667,19.605 10.6566667,19.185 C10.6566667,18.87 10.7791667,18.59 11.0241667,18.3391667 Z M15.1891667,10.4816667 C14.6466667,10.645 14.215,10.8608333 13.9116667,11.1233333 C13.6083333,11.3916667 13.4508333,11.7941667 13.4508333,12.3366667 C13.4508333,12.85 13.5966667,13.2408333 13.8825,13.4975 C14.1683333,13.7658333 14.6058333,13.9991667 15.1891667,14.215 L15.1891667,10.4816667 Z M18.485,19.2025 C18.485,18.6366667 18.31,18.205 17.96,17.89 C17.61,17.5866667 17.1025,17.3241667 16.4258333,17.1083333 L16.4258333,21.3783333 C17.085,21.25 17.5866667,20.9816667 17.9483333,20.585 C18.3041667,20.1941667 18.485,19.7275 18.485,19.2025 Z" id="presupuesto"></path>
            </g>
        </g>
    </g>
</svg>