<?xml version="1.0" encoding="UTF-8" standalone="no"?>
<svg width="32px" height="32px" viewBox="0 0 32 32" version="1.1" xmlns="http://www.w3.org/2000/svg" xmlns:xlink="http://www.w3.org/1999/xlink">
    <!-- Generator: Sketch 3.7.2 (28276) - http://www.bohemiancoding.com/sketch -->
    <title>buses</title>
    <desc>Created with Sketch.</desc>
    <defs></defs>
    <g id="Ãtomos" stroke="none" stroke-width="1" fill="none" fill-rule="evenodd">
        <g id="03_Iconos" transform="translate(-561.000000, -426.000000)" fill="#666666">
            <g id="ico-buses" transform="translate(561.000000, 426.000000)">
                <path d="M24.317193,14.4682353 C24.317193,15.2423529 23.7235088,15.8682353 22.9649123,15.8682353 L8.12280702,15.8682353 C7.36421053,15.8682353 6.77052632,15.2423529 6.77052632,14.4682353 L6.77052632,7.48470588 C6.77052632,6.71058824 7.36421053,6.08470588 8.12280702,6.08470588 L22.9649123,6.08470588 C23.7235088,6.08470588 24.317193,6.71058824 24.317193,7.48470588 L24.317193,14.4682353 L24.317193,14.4682353 Z M22.5526316,22.4564706 C21.5796491,22.4564706 20.7880702,21.6329412 20.7880702,20.6282353 C20.7880702,19.6235294 21.5796491,18.8 22.5526316,18.8 C23.5421053,18.8 24.317193,19.6235294 24.317193,20.6282353 C24.317193,21.6329412 23.525614,22.4564706 22.5526316,22.4564706 L22.5526316,22.4564706 Z M8.51859649,22.4564706 C7.54561404,22.4564706 6.75403509,21.6329412 6.75403509,20.6282353 C6.75403509,19.6235294 7.54561404,18.8 8.51859649,18.8 C9.49157895,18.8 10.2831579,19.6235294 10.2831579,20.6282353 C10.2831579,21.6329412 9.49157895,22.4564706 8.51859649,22.4564706 L8.51859649,22.4564706 Z M11.0582456,3.30117647 L20.0294737,3.30117647 L20.0294737,4.70117647 L11.0582456,4.70117647 L11.0582456,3.30117647 Z M21.6621053,2 L9.42561404,2 C6.42421053,2 4,4.52 4,7.61647059 L4,23.56 C4,25.1082353 5.22035088,26.3764706 6.7045614,26.3764706 L6.73754386,26.3764706 L6.73754386,28.6 C6.73754386,29.3741176 7.33122807,30 8.08982456,30 L9.44210526,30 C10.2007018,30 10.8108772,29.3741176 10.8108772,28.6 L10.8108772,26.3764706 L20.2768421,26.3764706 L20.2768421,28.6 C20.2768421,29.3741176 20.8705263,30 21.6291228,30 L22.9978947,30 C23.74,30 24.3501754,29.3741176 24.3501754,28.6 L24.3501754,26.3764706 L24.3831579,26.3764706 C25.8673684,26.3764706 27.0877193,25.1082353 27.0877193,23.56 L27.0877193,7.61647059 C27.0877193,4.52 24.6635088,2 21.6621053,2 L21.6621053,2 Z" id="buses"></path>
            </g>
        </g>
    </g>
</svg>