<?xml version="1.0" encoding="UTF-8"?>
<svg width="32px" height="32px" viewBox="0 0 32 32" version="1.1" xmlns="http://www.w3.org/2000/svg" xmlns:xlink="http://www.w3.org/1999/xlink">
    <!-- Generator: Sketch 39.1 (31720) - http://www.bohemiancoding.com/sketch -->
    <title>business</title>
    <desc>Created with Sketch.</desc>
    <defs></defs>
    <g id="Ãtomos" stroke="none" stroke-width="1" fill="none" fill-rule="evenodd">
        <g id="03_Iconos" transform="translate(-637.000000, -1352.000000)" fill="#5D5D5D">
            <g id="ico-negocios" transform="translate(637.000000, 1352.000000)">
                <path d="M13.3915857,4.67497998 C13.3915857,4.84702227 13.5328462,4.98576604 13.6958392,4.98576604 L13.7012723,4.98576604 C13.7664694,5.80157944 14.4347405,6.44535055 15.2497052,6.44535055 C16.070103,6.44535055 16.7383741,5.80157944 16.7981381,4.98576604 L16.8035712,4.98576604 C16.9719973,4.98576604 17.1078247,4.84702227 17.1078247,4.67497998 C17.1078247,4.55288546 17.0317613,4.44189044 16.9285325,4.39194268 C16.9882966,4.2088009 17.0208951,4.01455961 17.0208951,3.80921883 C17.0208951,2.81026365 16.2276628,2 15.2497052,2 C14.2717476,2 13.4785153,2.81026365 13.4785153,3.80921883 C13.4785153,4.01455961 13.5111138,4.2088009 13.576311,4.39194268 C13.4676491,4.44189044 13.3915857,4.55288546 13.3915857,4.67497998 Z M19.5038209,11.429027 C19.5038209,9.26462406 18.3954689,7.74954204 16.8035712,7.74954204 L15.8093143,7.74954204 L15.8636453,7.7994898 C16.0375044,7.96598233 15.8256136,8.31561664 15.6897861,8.63195245 C15.4181312,8.57645494 15.1356101,8.58200469 14.8639552,8.6375022 C14.7281278,8.32671614 14.5108039,7.96598233 14.6792299,7.7994898 L14.738994,7.74954204 L13.7012723,7.74954204 C12.1148077,7.74954204 11.0064557,9.26462406 11.0064557,11.4234772 C11.0064557,11.5899697 10.9358254,15.3194024 11.2618113,17.0176262 C11.5008676,18.2663202 11.9409485,18.627054 12.2615013,18.7103003 L12.690716,29.704357 C12.6961491,29.8431008 12.8048111,29.9485461 12.9406385,29.9485461 L14.3967088,29.9485461 C14.5325363,29.9485461 14.6411982,29.8431008 14.6466313,29.704357 L15.0812792,20.3641261 L15.2551383,20.164335 L15.4235643,20.3641261 L15.8636453,29.704357 C15.8690784,29.8431008 15.9777403,29.9485461 16.1135678,29.9485461 L17.569638,29.9485461 C17.7054655,29.9485461 17.8141275,29.8431008 17.8195606,29.704357 L18.2487753,18.71585 C18.5584619,18.6326038 19.0420076,18.2940689 19.2484653,17.0065267 C19.5201202,15.3083029 19.5038209,11.5899697 19.5038209,11.429027 Z M20.6013067,19.4040191 L19.1887013,19.4040191 C18.9768104,19.4040191 18.8083844,19.7314545 18.8083844,19.942345 L18.8083844,25.6752378 C18.8083844,25.8916781 18.9768104,26.0637204 19.1887013,26.0637204 L20.6013067,26.0637204 C20.8131976,26.0637204 20.9816236,25.8916781 20.9816236,25.6752378 L20.9816236,19.7925017 C20.9816236,19.5760614 20.8131976,19.4040191 20.6013067,19.4040191 Z M14.9019869,14.6700815 L14.6085996,13.7987706 L14.9508848,9.1702783 C15.1627756,9.13143004 15.3312017,9.13143004 15.5430925,9.16472855 L15.5485256,9.25907431 L15.5485256,13.7987706 L14.9019869,14.6700815 Z" id="negocios"></path>
            </g>
        </g>
    </g>
</svg>