<?xml version="1.0" encoding="UTF-8"?>
<svg width="32px" height="32px" viewBox="0 0 32 32" version="1.1" xmlns="http://www.w3.org/2000/svg" xmlns:xlink="http://www.w3.org/1999/xlink">
    <!-- Generator: Sketch 41 (35326) - http://www.bohemiancoding.com/sketch -->
    <title>calendar</title>
    <desc>Created with Sketch.</desc>
    <defs></defs>
    <g id="Ãtomos" stroke="none" stroke-width="1" fill="none" fill-rule="evenodd">
        <g id="Iconos" transform="translate(-510.000000, -3475.000000)" fill="#666666">
            <g id="ico_calendar_pixel-perfect" transform="translate(510.000000, 3475.000000)">
                <path d="M30,9.96153846 L30,5.0957088 C30,3.92932466 29.0577605,2.98120117 27.8954492,2.98120117 L4.10455084,2.98120117 C2.94765431,2.98120117 2,3.92789848 2,5.0957088 L2,9.96153846 L2,27.9124022 C2,29.033403 2.94223951,29.9230769 4.10455084,29.9230769 L27.8954492,29.9230769 C29.0523457,29.9230769 30,29.0228672 30,27.9124022 L30,9.96153846 Z M10.4277939,7.92307692 C11.3575295,7.70099249 12.0463867,6.86840318 12.0463867,5.87524249 L12.0463867,2.98120117 L6,2.98120117 L6,5.87524249 C6,6.87026242 6.69007876,7.70126429 7.61869646,7.92307692 L10.4277939,7.92307692 Z M24.4277939,7.92307692 C25.3575295,7.70099249 26.0463867,6.86840318 26.0463867,5.87524249 L26.0463867,2.98120117 L20,2.98120117 L20,5.87524249 C20,6.87026242 20.6900788,7.70126429 21.6186965,7.92307692 L24.4277939,7.92307692 Z M4,12 L28,12 L28,28 L4,28 L4,12 Z M8,16 L12,16 L12,20 L8,20 L8,16 Z" id="Combined-Shape"></path>
                <rect id="Rectangle-87-Copy" x="22" y="1" width="2" height="4.61538462" rx="1"></rect>
                <rect id="Rectangle-87" x="8" y="1" width="2" height="4.61538462" rx="1"></rect>
            </g>
        </g>
    </g>
</svg>