<?xml version="1.0" encoding="UTF-8" standalone="no"?>
<svg width="16px" height="16px" viewBox="0 0 16 16" version="1.1" xmlns="http://www.w3.org/2000/svg" xmlns:xlink="http://www.w3.org/1999/xlink">
    <!-- Generator: Sketch 3.7 (28169) - http://www.bohemiancoding.com/sketch -->
    <title>ico_camera</title>
    <desc>Created with Sketch.</desc>
    <defs></defs>
    <g id="Ãtomos" stroke="none" stroke-width="1" fill="none" fill-rule="evenodd">
        <g id="03_Iconos" transform="translate(-226.000000, -320.000000)" fill="#666666">
            <g id="camera" transform="translate(226.000000, 320.000000)">
                <g id="Group" transform="translate(0.000000, 3.000000)">
                    <path d="M13.9437832,2.11212891 L11.8694799,2.11212891 C11.7811692,1.18003495 11.3314813,0.0465080181 10.0735062,0.0465080181 L5.99445568,0.0465080181 C5.85527316,0.0671556332 4.69898315,0.139467516 4.57587106,2.1121176 L2.12415531,2.1121176 C1.56475311,2.1301984 0.507498901,2.49941303 0.507498901,3.64581928 L0.507498901,9.31590769 C0.496773626,9.44245066 0.488756044,9.83490234 0.866156777,10.2144295 C1.13646886,10.4958861 1.49512674,10.6327303 1.98230037,10.6327303 L14.029433,10.6327303 C14.5379634,10.5836554 15.4961817,10.3358162 15.4961817,9.33656661 L15.4961817,3.48055921 C15.4560234,3.00549445 15.041137,2.11212891 13.9437832,2.11212891 Z M7.90010842,9.36499383 C6.1041348,9.36499383 4.64809963,8.0042866 4.64809963,6.34663137 C4.64809963,4.67608553 6.10415824,3.32569079 7.90010842,3.32569079 C9.6853685,3.32569079 11.1414271,4.67608553 11.1414271,6.34663137 C11.1414271,8.0042979 9.6853685,9.36499383 7.90010842,9.36499383 L7.90010842,9.36499383 L7.90010842,9.36499383 Z M12.7767795,5.12271176 C12.4288469,5.12271176 12.1397451,4.84902344 12.1397451,4.52110403 C12.1397451,4.1906065 12.4287883,3.9194963 12.7767795,3.9194963 C13.1354374,3.9194963 13.4271648,4.1906065 13.4271648,4.52110403 C13.4271648,4.84902344 13.1354022,5.12271176 12.7767795,5.12271176 L12.7767795,5.12271176 L12.7767795,5.12271176 Z" id="Shape"></path>
                    <path d="M7.90010842,4.12092928 C6.57254212,4.12092928 5.50728205,5.12275699 5.50728205,6.34662007 C5.50728205,7.56790502 6.57254212,8.56715461 7.90010842,8.56715461 C9.21698462,8.56715461 10.2849172,7.56790502 10.2849172,6.34662007 C10.2822447,5.12275699 9.21698462,4.12092928 7.90010842,4.12092928 L7.90010842,4.12092928 Z" id="Shape"></path>
                </g>
            </g>
        </g>
    </g>
</svg>