<?xml version="1.0" encoding="UTF-8" standalone="no"?>
<svg width="32px" height="32px" viewBox="0 0 32 32" version="1.1" xmlns="http://www.w3.org/2000/svg" xmlns:xlink="http://www.w3.org/1999/xlink">
    <!-- Generator: Sketch 3.7.2 (28276) - http://www.bohemiancoding.com/sketch -->
    <title>card</title>
    <desc>Created with Sketch.</desc>
    <defs></defs>
    <g id="Ãtomos" stroke="none" stroke-width="1" fill="none" fill-rule="evenodd">
        <g id="03_Iconos" transform="translate(-611.000000, -478.000000)" fill="#666666">
            <g id="ico-card" transform="translate(611.000000, 478.000000)">
                <path d="M4.91846154,6 C3.30846154,6 2,7.31384615 2,8.92923077 L2,22.9938462 C2,24.6092308 3.30846154,25.9230769 4.91846154,25.9230769 L27.0815385,25.9230769 C28.6915385,25.9230769 30,24.6092308 30,22.9938462 L30,8.92923077 C30,7.31384615 28.6915385,6 27.0815385,6 L4.91846154,6 L4.91846154,6 Z M3.75,10.69 L28.25,10.69 L28.25,14.7876923 L3.75,14.7876923 L3.75,10.69 Z M22.4184615,20.6515385 L28.25,20.6515385 L28.25,21.82 L22.4184615,21.82 L22.4184615,20.6515385 Z" id="card"></path>
            </g>
        </g>
    </g>
</svg>