<?xml version="1.0" encoding="UTF-8" standalone="no"?>
<svg width="32px" height="32px" viewBox="0 0 32 32" version="1.1" xmlns="http://www.w3.org/2000/svg" xmlns:xlink="http://www.w3.org/1999/xlink">
    <!-- Generator: Sketch 3.7.2 (28276) - http://www.bohemiancoding.com/sketch -->
    <title>cars</title>
    <desc>Created with Sketch.</desc>
    <defs></defs>
    <g id="Ãtomos" stroke="none" stroke-width="1" fill="none" fill-rule="evenodd">
        <g id="03_Iconos" transform="translate(-353.000000, -426.000000)" fill="#666666">
            <g id="ico-cars" transform="translate(353.000000, 426.000000)">
                <path d="M2,24.3392857 L4.54464286,24.3392857 L4.54464286,27.1791071 C4.54464286,28.5125 5.63883929,29.5914286 6.93151786,29.5914286 C8.22928571,29.5914286 9.125,28.5125 9.125,27.1791071 L9.125,24.3392857 L23.375,24.3392857 L23.375,27.051875 C23.375,28.3801786 24.1638393,29.5914286 25.4565179,29.5914286 C26.7542857,29.5914286 27.9553571,28.5125 27.9553571,27.1791071 L27.9553571,24.3392857 L30.5,24.3392857 L30.5,17.2091964 C30.5,15.4584821 29.3396429,14.1149107 27.7619643,13.6925 C27.3599107,12.7000893 25.6091964,8.44544643 25.1409821,7.25964286 C24.6116964,5.92116071 23.8025,5 22.5047321,5 L9.95964286,5 C8.65678571,5 7.85267857,5.92116071 7.32339286,7.25964286 C6.845,8.455625 5.07392857,12.7866071 4.68714286,13.7077679 C3.14,14.1454464 2,15.6060714 2,17.3364286 L2,24.3392857 L2,24.3392857 Z M25.1409821,13.1428571 L7.32339286,13.1428571 C7.81705357,11.6924107 9.15044643,8.39455357 9.36928571,8.00267857 C9.59321429,7.60571429 9.91892857,7.11714286 10.5449107,7.09678571 C10.8095536,7.08660714 21.6141071,7.08660714 21.9194643,7.09678571 C22.5403571,7.11714286 22.8711607,7.173125 23.09,7.57008929 C23.3088393,7.96705357 24.6473214,11.6924107 25.1409821,13.1428571 L25.1409821,13.1428571 Z M4.53955357,18.2423214 C4.53955357,16.9954464 5.52178571,15.9826786 6.73303571,15.9826786 C7.949375,15.9826786 8.93160714,16.9954464 8.93160714,18.2423214 C8.93160714,19.4891964 7.949375,20.5019643 6.73303571,20.5019643 C5.52178571,20.5019643 4.53955357,19.4891964 4.53955357,18.2423214 L4.53955357,18.2423214 Z M23.6752679,18.2423214 C23.6752679,16.9954464 24.6575,15.9826786 25.8738393,15.9826786 C27.0850893,15.9826786 28.0673214,16.9954464 28.0673214,18.2423214 C28.0673214,19.4891964 27.0850893,20.5019643 25.8738393,20.5019643 C24.6575,20.5019643 23.6752679,19.4891964 23.6752679,18.2423214 L23.6752679,18.2423214 Z" id="cars"></path>
            </g>
        </g>
    </g>
</svg>