<?xml version="1.0" encoding="UTF-8" standalone="no"?>
<svg width="32px" height="32px" viewBox="0 0 32 32" version="1.1" xmlns="http://www.w3.org/2000/svg" xmlns:xlink="http://www.w3.org/1999/xlink">
    <!-- Generator: Sketch 39.1 (31720) - http://www.bohemiancoding.com/sketch -->
    <title>cash</title>
    <desc>Created with Sketch.</desc>
    <defs></defs>
    <g id="Ãtomos" stroke="none" stroke-width="1" fill="none" fill-rule="evenodd">
        <g id="03_Iconos" transform="translate(-995.000000, -592.000000)" fill="#666666">
            <g id="ico-cash" transform="translate(995.000000, 592.000000)">
                <g id="cash" transform="translate(2.000000, 6.000000)">
                    <path d="M2.912,0 C1.30666667,0 0,1.30902858 0,2.93108573 L0,16.9889144 C0,18.6109715 1.30666667,19.9200001 2.912,19.9200001 L25.088,19.9200001 C26.6933333,19.9200001 28,18.6109715 28,16.9889144 L28,2.93108573 C28,1.30902858 26.6933333,0 25.088,0 L2.912,0 Z M18.9495833,5.05041667 C17.6280417,3.72916667 15.8695833,3 14,3 C10.14125,3 7,6.14125 7,10 C7,13.8590417 10.14125,17 14,17 C17.8616667,17 21,13.8590417 21,10 C21,8.13041667 20.27375,6.37458333 18.9495833,5.05041667 Z" id="Combined-Shape"></path>
                    <path d="M16.2462942,12.4451039 C16.0752566,12.7715134 15.8244014,13.041543 15.4934436,13.2495549 C15.1659065,13.4569733 14.7753706,13.5816024 14.3192702,13.6204748 L14.3192702,14.4394659 C14.3192702,14.6353116 14.3021665,14.7774481 14.2651083,14.8664688 C14.2280502,14.9557864 14.1482326,15 14.0256556,15 C13.9116306,15 13.8289624,14.9643917 13.7833523,14.8902077 C13.7377423,14.8189911 13.7149373,14.7062315 13.7149373,14.5548961 L13.7149373,13.6320475 C13.3443558,13.5875371 13.0193843,13.4988131 12.7428734,13.3590504 C12.463512,13.2195846 12.2326112,13.0474777 12.0444698,12.8397626 C11.859179,12.6353116 11.7223489,12.4183976 11.6339795,12.1958457 C11.54561,11.9732938 11.5,11.7537092 11.5,11.5400593 C11.5,11.379822 11.5598632,11.2373887 11.6795895,11.1097923 C11.7993158,10.9851632 11.9475485,10.9198813 12.1242873,10.9198813 C12.2668187,10.9198813 12.386545,10.9554896 12.486317,11.0237389 C12.5860889,11.0949555 12.654504,11.189911 12.6915621,11.3175074 C12.777081,11.5875371 12.8511973,11.795549 12.9139111,11.9409496 C12.9794755,12.0830861 13.0735462,12.2139466 13.204675,12.3323442 C13.3329532,12.4510386 13.5011403,12.5430267 13.7149373,12.6053412 L13.7149373,10.2997033 C13.2901938,10.1780415 12.9338655,10.041543 12.6488027,9.89317507 C12.36374,9.74183976 12.1299886,9.52818991 11.9532497,9.24925816 C11.7765108,8.97329377 11.6852908,8.61721068 11.6852908,8.1810089 C11.6852908,7.61127596 11.859179,7.14540059 12.2069555,6.78041543 C12.554732,6.41839763 13.0564424,6.20771513 13.7149373,6.14836795 L13.7149373,5.41543027 C13.7149373,5.13946588 13.8147092,5 14.0142531,5 C14.2166477,5 14.3192702,5.13649852 14.3192702,5.40652819 L14.3192702,6.14836795 C14.6584949,6.18397626 14.9521095,6.25816024 15.1944128,6.36498516 C15.4367161,6.47477745 15.6476625,6.64094955 15.8298176,6.86053412 C15.9694983,7.02967359 16.0809578,7.20474777 16.1604903,7.38278932 C16.2377423,7.56083086 16.277366,7.72403561 16.277366,7.87240356 C16.277366,8.03857567 16.2177879,8.1810089 16.1037628,8.29970326 C15.9868871,8.42136499 15.8472064,8.48367953 15.68187,8.48367953 C15.3711517,8.48367953 15.1687571,8.30563798 15.0746864,7.95548961 C14.9717788,7.54302671 14.718358,7.26706231 14.3192702,7.13353116 L14.3192702,9.1958457 C14.7123717,9.30860534 15.0262258,9.40949555 15.2596921,9.50148368 C15.4934436,9.59643917 15.7018244,9.72997033 15.8871152,9.90504451 C16.0838084,10.0860534 16.2348917,10.3026706 16.3403649,10.5548961 C16.4486887,10.8071217 16.5,11.0860534 16.5,11.3857567 C16.5,11.7626113 16.4144812,12.1160237 16.2462942,12.4451039 Z M12.8653649,8.05649852 C12.8653649,8.31762611 12.9366306,8.51643917 13.0763113,8.64700297 C13.215992,8.78350148 13.4297891,8.90219585 13.7148518,9.01198813 L13.7148518,7.11287834 C13.4497434,7.19596439 13.238797,7.30575668 13.0905644,7.43928783 C12.9423318,7.57578635 12.8653649,7.78053412 12.8653649,8.05649852 Z M14.3192132,10.4837092 L14.3192132,12.6561128 C14.6413341,12.5905341 14.8867731,12.4540356 15.0632269,12.2519585 C15.2371152,12.0534421 15.3254846,11.8163501 15.3254846,11.5489911 C15.3254846,11.2611573 15.2399658,11.0415727 15.0686431,10.8813353 C14.8978905,10.7270326 14.649886,10.5935015 14.3192132,10.4837092 Z" id="Combined-Shape"></path>
                </g>
            </g>
        </g>
    </g>
</svg>