<?xml version="1.0" encoding="UTF-8"?>
<svg width="32px" height="32px" viewBox="0 0 32 32" version="1.1" xmlns="http://www.w3.org/2000/svg" xmlns:xlink="http://www.w3.org/1999/xlink">
    <!-- Generator: Sketch 41.1 (35376) - http://www.bohemiancoding.com/sketch -->
    <title>catv</title>
    <desc>Created with Sketch.</desc>
    <defs></defs>
    <g id="Ãtomos" stroke="none" stroke-width="1" fill="none" fill-rule="evenodd">
        <g id="Iconos" transform="translate(-501.000000, -4720.000000)" fill="#666666">
            <g id="ico-catv" transform="translate(501.000000, 4720.000000)">
                <path d="M28.5487719,25.5128205 C29.6245614,25.5128205 30.5087719,23.1612051 30.5087719,22.0650513 L30.5087719,8.49905128 C30.5087719,7.40289744 29.6245614,6.51282051 28.5487719,6.51282051 L4.46877193,6.51282051 C3.39298246,6.51282051 2.50877193,7.40289744 2.50877193,8.49905128 L2.50877193,21.9305897 C2.50877193,23.0267436 3.39298246,25.511359 4.46877193,25.511359 L12.8245614,25.511359 L18.7192982,25.511359 L28.5487719,25.511359 L28.5487719,25.5128205 Z M29.0350877,9.96058974 L29.0350877,19.1405128 C29.0350877,20.2366667 28.1508772,21.1267436 27.0750877,21.1267436 L5.94245614,21.1267436 C4.86666667,21.1267436 3.98245614,20.2366667 3.98245614,19.1405128 L3.98245614,9.96058974 C3.98245614,8.8644359 4.86666667,7.97435897 5.94245614,7.97435897 L27.0750877,7.97435897 C28.1508772,7.97435897 29.0350877,8.8644359 29.0350877,9.96058974 Z M15.7719298,22.5897436 L17.245614,22.5897436 L17.245614,24.0512821 L15.7719298,24.0512821 L15.7719298,22.5897436 Z M25.0561404,16.7435897 L23.5824561,16.7435897 L23.5824561,10.8974359 L25.0561404,10.8974359 L25.0561404,16.7435897 L26.5298246,16.7435897 L26.5298246,18.2051282 L25.0561404,18.2051282 L25.0561404,16.7435897 Z M26.5298246,10.8974359 L28.0035088,10.8974359 L28.0035088,16.7435897 L26.5298246,16.7435897 L26.5298246,10.8974359 Z M17.6729825,10.8974359 L21.8272982,10.8974359 L21.8272982,12.3589744 L20.4877193,12.3589744 L20.4877193,18.2051282 L19.0140351,18.2051282 L19.0140351,12.3589744 L17.6729825,12.3589744 L17.6729825,10.8974359 Z M12.9719298,18.2051282 L11.4982456,18.2051282 L11.4982456,10.8974359 L15.9192982,10.8974359 L15.9192982,17.9128205 L14.445614,17.9128205 L14.445614,15.2820513 L12.9719298,15.2820513 L12.9719298,18.2051282 Z M12.9719298,13.8205128 L14.445614,13.8205128 L14.445614,12.3589744 L12.9719298,12.3589744 L12.9719298,13.8205128 Z M9.58245614,10.8974359 L9.58245614,12.3589744 L6.92982456,12.3589744 L6.92982456,16.7435897 L9.58245614,16.7435897 L9.58245614,18.2051282 L5.45614035,18.2051282 L5.45614035,10.8974359 L9.58245614,10.8974359 Z" id="catv"></path>
            </g>
        </g>
    </g>
</svg>