<?xml version="1.0" encoding="UTF-8"?>
<svg width="32px" height="32px" viewBox="0 0 32 32" version="1.1" xmlns="http://www.w3.org/2000/svg" xmlns:xlink="http://www.w3.org/1999/xlink">
    <!-- Generator: Sketch 41.1 (35376) - http://www.bohemiancoding.com/sketch -->
    <title>cell-phone</title>
    <desc>Created with Sketch.</desc>
    <defs></defs>
    <g id="Ãtomos" stroke="none" stroke-width="1" fill="none" fill-rule="evenodd">
        <g id="Iconos" transform="translate(-730.000000, -3479.000000)" fill="#666666">
            <g id="ico-cell-phone" transform="translate(730.000000, 3479.000000)">
                <path d="M21.9438867,2 L10.0561133,2 C8.91840412,2 8,2.91421908 8,4.03964726 L8,27.9623934 C8,29.0868013 8.91840412,30 10.0561133,30 L21.9438867,30 C23.0795367,30 24,29.0868013 24,27.9623934 L24,4.03964726 C24,2.91421908 23.0795367,2 21.9438867,2 Z M14.5136416,3.5 L17.532764,3.5 C17.80024,3.5 18,3.72065062 18,3.99300822 C18,4.26536583 17.7806013,4.48601644 17.532764,4.48601644 L14.4781148,4.48601644 C14.2016785,4.48601644 14,4.26536583 14,3.99300822 C14,3.72065062 14.220057,3.5 14.5136416,3.5 Z M16.0742445,28 C14.9606103,28 14.0544953,27.1027451 14.0544953,25.9984314 C14.0544953,24.8941176 14.9606103,24 16.0742445,24 C17.1847106,24 18.0908255,24.8941176 18.0908255,25.9984314 C18.0908255,27.1027451 17.1847106,28 16.0742445,28 Z M22.1271557,22 L10.0181651,22 L10.0181651,6 L22.1271557,6 L22.1271557,22 Z" id="Shape"></path>
            </g>
        </g>
    </g>
</svg>