<?xml version="1.0" encoding="UTF-8" standalone="no"?>
<svg width="32px" height="32px" viewBox="0 0 32 32" version="1.1" xmlns="http://www.w3.org/2000/svg" xmlns:xlink="http://www.w3.org/1999/xlink">
    <!-- Generator: Sketch 3.8.3 (29802) - http://www.bohemiancoding.com/sketch -->
    <title>chat</title>
    <desc>Created with Sketch.</desc>
    <defs></defs>
    <g id="Ãtomos" stroke="none" stroke-width="1" fill="none" fill-rule="evenodd">
        <g id="03_Iconos" transform="translate(-501.000000, -592.000000)" fill="#666666">
            <g id="ico-chat" transform="translate(501.000000, 592.000000)">
                <g id="chat" transform="translate(1.000000, 4.000000)">
                    <path d="M17.5,16.7142857 C17.3,16.5728571 14.1185751,20.0005875 14.1185751,19.5377304 C14.5124,20.7606479 16.0875,21.9471429 17.5,21.8571429 C17.75,22.1914286 21.25,25.714286 21.25,25.7142857 C21.6470337,26.1261598 22.3831177,26.0342409 22.5,25.7142857 C22.5,25.714286 22.5,21.8571429 22.5,21.8571429 C22.5,21.8571429 23.0780277,21.8571426 23.75,21.8571429 C27.1973486,21.8571426 30,19.5042857 30,16.7142857 C30,12.9342857 27.3,10.2857143 23.75,10.2857143 C23.2375,13.5257143 20.6375,16.0971429 17.5,16.7142857 Z" id="SvgjsPath1009"></path>
                    <path d="M0,7.71428571 C0,11.896907 2.88089375,15.2313645 6.46794257,15.4513516 C6.80628739,15.4721017 10,15.4285714 10,15.4285714 L10,20.5714286 C10,20.3657143 10.325,20.9442857 11.25,20.5714286 C11.1125,20.2242857 15.8625,15.8785714 16.25,15.4285714 C19.6625,15.3128571 22.5,11.9314286 22.5,7.71428571 C22.5,3.54857143 19.0125,0 15,0 L7.5,0 C3.4875,0 0,3.53571429 0,7.71428571 Z M6.25,7.71428571 L16.25,7.71428571 L16.25,9 L6.25,9 L6.25,7.71428571 Z M6.25,11.5714286 L10,11.5714286 L10,12.8571429 L6.25,12.8571429 L6.25,11.5714286 Z M6.25,3.85714286 L16.25,3.85714286 L16.25,5.14285714 L6.25,5.14285714 L6.25,3.85714286 Z" id="SvgjsPath1010"></path>
                </g>
            </g>
        </g>
    </g>
</svg>