<?xml version="1.0" encoding="UTF-8"?>
<svg width="32px" height="32px" viewBox="0 0 32 32" version="1.1" xmlns="http://www.w3.org/2000/svg" xmlns:xlink="http://www.w3.org/1999/xlink">
    <!-- Generator: Sketch 39.1 (31720) - http://www.bohemiancoding.com/sketch -->
    <title>check-out</title>
    <desc>Created with Sketch.</desc>
    <defs></defs>
    <g id="Ãtomos" stroke="none" stroke-width="1" fill="none" fill-rule="evenodd">
        <g id="03_Iconos" transform="translate(-315.000000, -676.000000)" fill="#666666">
            <g id="ico-check-out" transform="translate(306.000000, 676.000000)">
                <g transform="translate(24.500000, 16.500000) scale(-1, 1) translate(-24.500000, -16.500000) translate(11.000000, 2.000000)">
                    <path d="M15.5892857,3.13068182 L4.01785714,3.13068182 L4.01785714,27.3468973 C4.01785714,28.1659106 3.37026901,28.8298519 2.57142857,28.8298519 C1.77258813,28.8298519 1.125,28.1659106 1.125,27.3468973 L1.125,1.64772727 C1.125,0.828714097 1.77258813,0.164772727 2.57142857,0.164772727 L17.0357143,0.164772727 C17.8345547,0.164772727 18.4821429,0.828714097 18.4821429,1.64772727 L18.4821429,6.59090909 L15.5892857,6.59090909 L15.5892857,3.13068182 Z M15.5892857,22.6957964 L15.5892857,27.3522727 C15.5892857,28.1712858 16.2368739,28.8352273 17.0357143,28.8352273 C17.8345547,28.8352273 18.4821429,28.1712858 18.4821429,27.3522727 L18.4821429,22.6957964 L15.5892857,22.6957964 L15.5892857,22.6957964 Z" id="Combined-Shape"></path>
                    <path d="M19.3112649,7.90201831 L19.835007,8.42545253 C20.2714588,8.85541634 20.2540008,9.54709726 19.817549,9.97706107 L17.4257931,12.1829624 C16.9718832,12.5942322 17.0940897,12.9307255 17.6876641,12.9307255 L25.596171,12.9307255 C26.1897454,12.9307255 26.6785714,13.3233011 26.6785714,13.7906531 L26.6785714,15.4918144 C26.6785714,15.9591664 26.1897454,16.351742 25.596171,16.351742 L22.6282986,16.351742 L17.6876641,16.351742 C17.0940897,16.351742 16.9718832,16.6882355 17.4257931,17.0995052 L19.817549,19.3241006 C20.2540008,19.7353703 20.2714588,20.4270512 19.835007,20.857015 L19.3112649,21.3804492 C18.8748131,21.8104131 18.1590322,21.8104131 17.7225803,21.3804492 L11.5773389,15.417038 C11.140887,14.9870742 11.140887,14.2953933 11.5773389,13.8654295 L17.7225803,7.90201831 C18.1590322,7.4720545 18.8748131,7.4720545 19.3112649,7.90201831 L19.3112649,7.90201831 L19.3112649,7.90201831 Z" id="arrow-bold" transform="translate(18.964286, 14.641234) scale(-1, 1) translate(-18.964286, -14.641234) "></path>
                </g>
            </g>
        </g>
    </g>
</svg>