<?xml version="1.0" encoding="UTF-8"?>
<svg width="32px" height="32px" viewBox="0 0 32 32" version="1.1" xmlns="http://www.w3.org/2000/svg" xmlns:xlink="http://www.w3.org/1999/xlink">
    <!-- Generator: Sketch 39.1 (31720) - http://www.bohemiancoding.com/sketch -->
    <title>check-in</title>
    <desc>Created with Sketch.</desc>
    <defs></defs>
    <g id="Ãtomos" stroke="none" stroke-width="1" fill="none" fill-rule="evenodd">
        <g id="03_Iconos" transform="translate(-253.000000, -676.000000)" fill="#666666">
            <g id="ico-check-in" transform="translate(245.000000, 676.000000)">
                <g id="ico-check-out" transform="translate(10.000000, 2.000000)">
                    <path d="M8.51785714,1.64772727 C8.51785714,0.828714097 9.16544528,0.164772727 9.96428571,0.164772727 L24.4285714,0.164772727 C25.2274118,0.164772727 25.875,0.828714097 25.875,1.64772727 L25.875,27.3468973 C25.875,28.1659106 25.2274118,28.8298519 24.4285714,28.8298519 C23.629731,28.8298519 22.9821429,28.1659106 22.9821429,27.3468973 L22.9821429,3.13068182 L11.4107143,3.13068182 L11.4107143,6.59090909 L8.51785714,6.59090909 L8.51785714,1.64772727 Z M8.51785714,22.6957964 L8.51785714,27.3522727 C8.51785714,28.1712858 9.16544528,28.8352273 9.96428571,28.8352273 C10.7631261,28.8352273 11.4107143,28.1712858 11.4107143,27.3522727 L11.4107143,22.6957964 L8.51785714,22.6957964 L8.51785714,22.6957964 Z" id="Combined-Shape"></path>
                    <path d="M8.38269347,7.90201831 L8.90643564,8.42545253 C9.34288745,8.85541634 9.32542938,9.54709726 8.88897757,9.97706107 L6.49722167,12.1829624 C6.04331178,12.5942322 6.16551828,12.9307255 6.75909275,12.9307255 L14.6675996,12.9307255 C15.261174,12.9307255 15.75,13.3233011 15.75,13.7906531 L15.75,15.4918144 C15.75,15.9591664 15.261174,16.351742 14.6675996,16.351742 L11.6997272,16.351742 L6.75909275,16.351742 C6.16551828,16.351742 6.04331178,16.6882355 6.49722167,17.0995052 L8.88897757,19.3241006 C9.32542938,19.7353703 9.34288745,20.4270512 8.90643564,20.857015 L8.38269347,21.3804492 C7.94624166,21.8104131 7.23046069,21.8104131 6.79400889,21.3804492 L0.64876743,15.417038 C0.212315619,14.9870742 0.212315619,14.2953933 0.64876743,13.8654295 L6.79400889,7.90201831 C7.23046069,7.4720545 7.94624166,7.4720545 8.38269347,7.90201831 L8.38269347,7.90201831 L8.38269347,7.90201831 Z" id="arrow-bold" transform="translate(8.035714, 14.641234) scale(-1, 1) translate(-8.035714, -14.641234) "></path>
                </g>
            </g>
        </g>
    </g>
</svg>