<?xml version="1.0" encoding="UTF-8"?>
<svg width="32px" height="32px" viewBox="0 0 32 32" version="1.1" xmlns="http://www.w3.org/2000/svg" xmlns:xlink="http://www.w3.org/1999/xlink">
    <!-- Generator: Sketch 41.1 (35376) - http://www.bohemiancoding.com/sketch -->
    <title>children-games</title>
    <desc>Created with Sketch.</desc>
    <defs></defs>
    <g id="Ãtomos" stroke="none" stroke-width="1" fill="none" fill-rule="evenodd">
        <g id="Iconos" transform="translate(-69.000000, -4880.000000)" fill="#666666">
            <g id="ico-children-games" transform="translate(57.000000, 4880.000000)">
                <path d="M41.8871035,12.1882353 C41.2431415,10.2964706 40.1932034,7.51529412 40.1932034,7.51529412 L40.1932034,4.86117647 C40.1932034,4.86117647 34.1875574,3.61882353 30.5897694,12.4705882 L29.1058569,12.4705882 C28.5472898,12.3576471 27.9439254,12.2870588 27.3139625,12.2870588 C26.7679947,12.2870588 26.236026,12.8235294 25.7320557,12.9223529 C25.3400788,12.8235294 24.9201036,12.7811765 24.5001284,12.7811765 C23.6601779,12.7811765 22.8762241,12.9647059 22.1902645,13.2894118 C21.826286,12.7388235 19.4044287,9.47764706 14.8966944,11.6094118 C13.342786,12.3435294 13.986748,15.1952941 15.4706606,14.5317647 C16.9405739,13.8823529 19.9783949,12.3435294 20.5383619,13.9529412 C20.5943586,14.0941176 20.6363561,14.2352941 20.6643545,14.3905882 C19.8943998,15.2094118 19.4184279,16.2823529 19.4184279,17.4682353 C19.4184279,18.6117647 19.8664015,19.6705882 20.6223569,20.4894118 L17.4025467,24.1458824 C16.9685723,24.6414118 16.9825715,25.4037647 17.4165459,25.9105882 C17.9205162,26.3905882 18.6624724,26.3496471 19.0964469,25.8131765 L21.1403264,24.3294118 C21.4385088,22.4348235 23.5929818,20.9115294 26.4040161,20.5049412 L26.4040161,20.9411765 L27.7899344,20.9411765 L27.7899344,20.3948235 C27.8235325,20.3948235 27.8543307,20.3891765 27.8879287,20.3891765 L28.4478957,20.4047059 C29.833814,20.4752941 31.0937397,20.8282353 32.1142796,21.3505882 C32.9122325,21.7741176 33.5715937,22.2964706 34.0055681,22.9049412 L37.1693816,25.5025882 C37.6607526,25.8964706 38.401309,25.8258824 38.8492826,25.3472941 C39.2552586,24.7967059 39.1586643,24.0484706 38.6252958,23.6531765 L34.6775285,19.6296471 L34.6775285,19.2188235 L34.6775285,14.5317647 L36.9313956,12.1882353 L40.3051968,13.9529412 C40.3051968,13.9529412 42.5170664,14.0941176 41.8871035,12.1882353 Z M27.1039749,8.09411765 C28.1819113,8.09411765 29.0764586,7.17647059 29.0764586,6.04705882 C29.0764586,4.91764706 28.1805114,4 27.1039749,4 C26.0106393,4 25.1146921,4.91764706 25.1146921,6.04705882 C25.1146921,7.17647059 26.0120392,8.09411765 27.1039749,8.09411765 Z M26.4040161,8.23529412 L27.7899344,8.23529412 L27.7899344,11.0588235 L26.4040161,11.0588235 L26.4040161,8.23529412 Z M26.4040161,22.3529412 L27.7899344,22.3529412 L27.7899344,28 L26.4040161,28 L26.4040161,22.3529412 Z" id="Combined-Shape"></path>
            </g>
        </g>
    </g>
</svg>