<?xml version="1.0" encoding="UTF-8"?>
<svg width="32px" height="32px" viewBox="0 0 32 32" version="1.1" xmlns="http://www.w3.org/2000/svg" xmlns:xlink="http://www.w3.org/1999/xlink">
    <!-- Generator: Sketch 41.1 (35376) - http://www.bohemiancoding.com/sketch -->
    <title>ciga</title>
    <desc>Created with Sketch.</desc>
    <defs></defs>
    <g id="Ãtomos" stroke="none" stroke-width="1" fill="none" fill-rule="evenodd">
        <g id="Iconos" transform="translate(-645.000000, -4720.000000)" fill="#666666">
            <g id="ico-ciga" transform="translate(645.000000, 4720.000000)">
                <path d="M8.94166667,18.6985714 C8.48958333,17.9285714 8.0375,17.1557143 7.6,16.3728571 C8.89791667,15.6428571 10.1958333,14.8428571 11.1291667,13.6857143 C10.2395833,12.7 8.83958333,12.87 7.62916667,12.7142857 C8.5625,11.8857143 9.77291667,11.2285714 10.3125,10.0714286 C9.35,9.4 8.13958333,9.89857143 7.04583333,9.94428571 L9.46666667,10.3571429 C8.50416667,11.1714286 7.38125,11.8857143 6.71041667,12.9714286 C7.76041667,13.3871429 8.89791667,13.5428571 10.0208333,13.7857143 C8.88333333,14.5871429 7.52708333,15.1142857 6.57916667,16.1142857 C5.85,17.1857143 7.06041667,18.3285714 7.39583333,19.3442857 L8.94166667,18.6985714 Z M28.0166667,9.14285714 C22.0666667,12.5428571 16.0583333,15.8571429 10.0645833,19.2142857 L11.8729167,22.1857143 C17.8652083,18.8428571 23.861875,15.5142857 29.8541667,12.1557143 L28.0166667,9.14285714 Z M4.59583333,17.6428571 C5.03333333,16.7428571 5.7625,16.0142857 6.33125,15.2 C5.20833333,15.0857143 4.08541667,14.9857143 2.9625,14.8857143 C2.7875,13.3 4.30416667,12.6428571 5.4125,11.8285714 C3.95416667,12.27 1.81041667,12.9714286 2.18958333,14.8571429 C2.33541667,15.97 3.80833333,15.6428571 4.58125,16 L3.1375,17.3428571 C3.575,18.5142857 3.99791667,19.7428571 4.87291667,20.7 L6.18541667,20.2557143 C5.64583333,19.4 5.04791667,18.5571429 4.59583333,17.6428571 Z M8.50416667,19.9285714 C9.14583333,21.0714286 9.55416667,22.8157143 11.1145833,23.0142857 C10.575,21.8857143 10.0354167,20.7271429 9.175,19.7857143 L8.50416667,19.9285714 Z M6.82708333,20.5857143 C7.36666667,21.73 8.0375,22.8014286 8.69375,23.8871429 L9.55416667,23.5714286 C8.7375,22.5285714 8.37291667,20.8414286 6.82708333,20.5857143 Z M5.29583333,21.4714286 C5.82083333,22.6571429 6.50625,23.7585714 7.19166667,24.8571429 L7.93541667,24.4128571 C7.1625,23.3714286 6.78333333,21.7571429 5.29583333,21.4714286 Z" id="ciga"></path>
            </g>
        </g>
    </g>
</svg>