<?xml version="1.0" encoding="UTF-8" standalone="no"?>
<svg width="32px" height="32px" viewBox="0 0 32 32" version="1.1" xmlns="http://www.w3.org/2000/svg" xmlns:xlink="http://www.w3.org/1999/xlink">
    <!-- Generator: Sketch 3.8.3 (29802) - http://www.bohemiancoding.com/sketch -->
    <title>city</title>
    <desc>Created with Sketch.</desc>
    <defs></defs>
    <g id="Ãtomos" stroke="none" stroke-width="1" fill="none" fill-rule="evenodd">
        <g id="03_Iconos" transform="translate(-147.000000, -631.000000)" fill="#666666">
            <g id="ico-city" transform="translate(147.000000, 631.000000)">
                <path d="M2.65959821,15.75 L2.65959821,29.3404018 L10.4258929,29.3404018 L10.4258929,15.75 L2.65959821,15.75 L2.65959821,15.75 Z M8.4846875,27.3987054 L4.60129464,27.3987054 L4.60129464,23.5158036 L8.48419643,23.5158036 L8.48419643,27.3987054 L8.4846875,27.3987054 Z M8.4846875,21.5745982 L4.60129464,21.5745982 L4.60129464,17.6916964 L8.48419643,17.6916964 L8.48419643,21.5745982 L8.4846875,21.5745982 Z M12.3670982,2.15959821 L12.3670982,29.3404018 L20.1329018,29.3404018 L20.1329018,2.15959821 L12.3670982,2.15959821 Z M18.1912054,27.3987054 L14.3087946,27.3987054 L14.3087946,23.5158036 L18.1912054,23.5158036 L18.1912054,27.3987054 Z M18.1912054,21.5745982 L14.3087946,21.5745982 L14.3087946,17.6916964 L18.1912054,17.6916964 L18.1912054,21.5745982 Z M18.1912054,15.75 L14.3087946,15.75 L14.3087946,11.8675893 L18.1912054,11.8675893 L18.1912054,15.75 Z M18.1912054,9.92589286 L14.3087946,9.92589286 L14.3087946,6.04299107 L18.1912054,6.04299107 L18.1912054,9.92589286 Z M22.0745982,7.9846875 L22.0745982,29.3404018 L29.8399107,29.3404018 L29.8399107,7.9846875 L22.0745982,7.9846875 Z M27.8987054,27.3987054 L24.0158036,27.3987054 L24.0158036,23.5158036 L27.8987054,23.5158036 L27.8987054,27.3987054 L27.8987054,27.3987054 Z M27.8987054,21.5745982 L24.0158036,21.5745982 L24.0158036,17.6916964 L27.8987054,17.6916964 L27.8987054,21.5745982 L27.8987054,21.5745982 Z M27.8987054,15.75 L24.0158036,15.75 L24.0158036,11.8675893 L27.8987054,11.8675893 L27.8987054,15.75 L27.8987054,15.75 Z" id="city"></path>
            </g>
        </g>
    </g>
</svg>