<?xml version="1.0" encoding="UTF-8"?>
<svg width="32px" height="32px" viewBox="0 0 32 32" version="1.1" xmlns="http://www.w3.org/2000/svg" xmlns:xlink="http://www.w3.org/1999/xlink">
    <!-- Generator: Sketch 39.1 (31720) - http://www.bohemiancoding.com/sketch -->
    <title>cloudy</title>
    <desc>Created with Sketch.</desc>
    <defs></defs>
    <g id="Ãtomos" stroke="none" stroke-width="1" fill="none" fill-rule="evenodd">
        <g id="03_Iconos" transform="translate(-753.000000, -1041.000000)" fill="#666666">
            <g id="ico-nublado" transform="translate(753.000000, 1041.000000)">
                <path d="M22.125,22.5 C24.8875,22.5 27.125,20.2625 27.125,17.5 C27.125,14.7375 24.8875,12.5 22.125,12.5 C21.125,12.5 20.2,12.8 19.41875,13.30625 C18.64375,9.98125 15.68125,7.5 12.125,7.5 C7.98125,7.5 4.625,10.85625 4.625,15 C4.625,19.14375 7.98125,22.5 12.125,22.5 L22.125,22.5 L22.125,22.5 Z M12.125,25 C6.6,25 2.125,20.525 2.125,15 C2.125,9.475 6.6,5 12.125,5 C15.875,5 19.14375,7.06875 20.85625,10.13125 C21.26875,10.05625 21.6875,10 22.125,10 C26.26875,10 29.625,13.35625 29.625,17.5 C29.625,21.64375 26.26875,25 22.125,25 L12.125,25 L12.125,25 Z" id="nublado"></path>
            </g>
        </g>
    </g>
</svg>