<?xml version="1.0" encoding="UTF-8" standalone="no"?>
<svg width="32px" height="32px" viewBox="0 0 32 32" version="1.1" xmlns="http://www.w3.org/2000/svg" xmlns:xlink="http://www.w3.org/1999/xlink">
    <!-- Generator: Sketch 3.7 (28169) - http://www.bohemiancoding.com/sketch -->
    <title>coffee</title>
    <desc>Created with Sketch.</desc>
    <defs></defs>
    <g id="Ãtomos" stroke="none" stroke-width="1" fill="none" fill-rule="evenodd">
        <g id="03_Iconos" transform="translate(-96.000000, -652.000000)" fill="#666666">
            <g id="ico-amenitie-coffee" transform="translate(96.000000, 652.000000)">
                <path d="M12.8658823,23.844344 L15.4921735,23.844344 L15.4921735,22.2887884 L12.8658823,22.2887884 L12.8658823,23.844344 Z M5.88265335,16.8287886 C6.77052326,14.3414553 8.02846853,12.5198998 9.56630274,11.3998998 L17.8245813,11.3998998 C19.3484211,12.5198998 20.5612731,14.2776775 21.4320387,16.7494552 C21.727477,17.5910108 21.8674215,18.3547885 21.8518721,19.1776774 L15.4921735,19.1776774 L15.4921735,17.6221219 L12.3822964,17.6221219 L12.3822964,19.1776774 L7.70193144,19.1776774 C7.60863513,20.4221218 8.43275255,26.1325661 9.58340707,26.955455 L8.63489456,26.955455 C2.55213136,25.111179 5.5094681,17.9161219 5.88265335,16.8287886 Z M7.96627099,28.5110105 L9.78554908,28.5110105 L17.5306979,28.5110105 L19.3484211,28.5110105 C19.9866071,28.5110104 20.6155212,28.3911496 21.2025331,28.1496955 C23.5461097,27.185718 25.2218024,24.2836495 24.1531812,19.333233 C23.5928856,16.7376487 22.4443037,13.7954553 20.8567115,11.3998998 L25.3349344,11.3998998 L27.7124355,19.3970107 C27.9161324,20.0954552 28.6780523,20.4532329 29.3917691,20.3132329 L30.0448433,20.1887885 C30.7772193,20.0332329 31.0415589,19.347233 30.8394169,18.6643441 L27.9316818,8.28878877 L27.6673423,8.28878877 L22.5344901,8.28878877 L22.1784092,8.28878877 L20.8722608,8.28878877 L21.525335,5.17767773 L17.5757911,5.17767773 C17.3580998,3.68434443 15.6787661,2.9999 13.657346,2.9999 C11.6359259,2.9999 9.9721417,3.68434443 9.75600525,5.17767773 L3.1770603,5.17767773 L7.65528328,10.2021221 C5.4006224,12.7532331 3.93354581,16.0196969 3.1770603,19.2554552 C1.86672088,24.8602441 5.59063919,28.5110099 7.96627099,28.5110105 Z M12.3822964,14.5110108 L15.4921735,14.5110108 L15.4921735,12.9554553 L12.3822964,12.9554553 L12.3822964,14.5110108 Z" id="coffee"></path>
            </g>
        </g>
    </g>
</svg>