<?xml version="1.0" encoding="UTF-8"?>
<svg width="32px" height="32px" viewBox="0 0 32 32" version="1.1" xmlns="http://www.w3.org/2000/svg" xmlns:xlink="http://www.w3.org/1999/xlink">
    <!-- Generator: Sketch 39.1 (31720) - http://www.bohemiancoding.com/sketch -->
    <title>couple</title>
    <desc>Created with Sketch.</desc>
    <defs></defs>
    <g id="Ãtomos" stroke="none" stroke-width="1" fill="none" fill-rule="evenodd">
        <g id="03_Iconos" transform="translate(-575.000000, -1352.000000)" fill="#5D5D5D">
            <g id="ico-en-pareja" transform="translate(575.000000, 1352.000000)">
                <path d="M17.9256786,5.24298186 C17.9256786,5.41195314 18.0564951,5.54276962 18.2254664,5.54276962 L18.230917,5.54276962 C18.2908746,6.33856985 18.961309,6.97084948 19.7734613,6.97084948 C20.5856136,6.97084948 21.2505974,6.33856985 21.3105549,5.54276962 L21.3160056,5.54276962 C21.4849769,5.54276962 21.6212441,5.41195314 21.6212441,5.24298186 C21.6212441,5.11761607 21.5449344,5.01405302 21.4413714,4.96499685 C21.5013289,4.78512419 21.5340331,4.59435016 21.5340331,4.39812545 C21.5340331,3.42245256 20.7436835,2.63210302 19.7734613,2.63210302 C18.7977884,2.63210302 18.0074389,3.42245256 18.0074389,4.39812545 C18.0074389,4.59435016 18.040143,4.78512419 18.1001006,4.96499685 C17.9965375,5.01405302 17.9256786,5.11761607 17.9256786,5.24298186 Z M23.9977434,11.7838057 C23.9977434,9.66893931 22.8967047,8.19725395 21.3160056,8.19725395 L20.7491342,8.19725395 L19.7734613,10.7481752 L18.7977884,8.19725395 L18.2254664,8.19725395 C16.6447673,8.19725395 15.5437286,9.66893931 15.5437286,11.778355 C15.5382779,11.9418756 15.4728697,15.6156383 15.7944602,17.2671963 C16.0342904,18.4826994 16.4703453,18.836994 16.7919358,18.924205 L17.2170893,29.7601698 C17.22254,29.896437 17.3315538,30 17.4678209,30 L18.9177035,30 C19.04852,30 19.1575337,29.896437 19.1684351,29.7656205 L19.60449,20.5267068 L19.7734613,20.3359328 L19.9424326,20.5267068 L20.3784875,29.7656205 C20.3839382,29.896437 20.4929519,30 20.6237684,30 L22.0791017,30 C22.2099182,30 22.3189319,29.896437 22.3243826,29.7601698 L22.7495362,18.924205 C23.065676,18.8478954 23.5453364,18.5154035 23.7470118,17.2617456 C24.0195461,15.6047369 24.0031941,11.9418756 23.9977434,11.7838057 Z M15.4565176,20.853748 L14.2246625,15.4521177 C14.28462,15.2013861 14.3445776,14.9670066 14.4263379,14.6508668 C14.5898584,14.0403899 14.8296887,13.1137732 15.2602929,11.1896808 C15.483771,9.72889686 15.0749695,8.88949114 14.6934215,8.44253484 C14.3336762,8.02283198 13.8431144,7.77755109 13.3525526,7.77755109 L13.1127224,7.77755109 L11.7391494,11.1297233 L10.3655764,7.77755109 L10.1802531,7.77755109 C9.66788853,7.77755109 9.16097468,8.01738129 8.80122937,8.43708415 C8.41968132,8.87313908 8.01087983,9.70709411 8.2234566,11.2060329 C8.67586358,13.2772938 8.93749654,14.2311639 9.1119185,14.8634436 C9.17187606,15.0760203 9.21548155,15.2449916 9.25908704,15.4085122 L8.00542914,20.9028042 C7.98907708,20.9736631 8.01087983,21.1262824 8.05448532,21.1862399 C8.1035415,21.2461975 8.17440042,21.2789016 8.25071003,21.2789016 L9.32449528,21.2789016 L9.66243784,29.8310287 C9.66788853,29.9672959 9.77690226,30 9.91316942,30 L10.8779409,30 C11.0142081,30 11.1232218,29.9672959 11.1286725,29.8310287 L11.5320233,21.2789016 L11.9517262,21.2789016 L12.355077,29.8310287 C12.3605277,29.9672959 12.4695414,30 12.6058086,30 L13.5705801,30 C13.7068472,30 13.815861,29.9672959 13.8213117,29.8310287 L14.1538035,21.2789016 L15.2275888,21.2789016 C15.3693066,21.2789016 15.4783204,21.0935782 15.4783204,20.9573111 C15.4783204,20.9191563 15.4728697,20.8864522 15.4565176,20.853748 Z M9.61883235,6.9653988 C9.88591599,6.9653988 10.2456613,6.91089193 10.4636888,6.64380829 L10.5890545,6.46938632 C10.8506875,6.98720154 11.3576013,7.34149617 11.7391494,7.34149617 C12.1479509,7.34149617 12.6385127,6.98720154 12.8892443,6.47483701 C12.9273991,6.52934388 12.9655539,6.58385074 13.01461,6.64380829 C13.2326375,6.91089193 13.5923828,6.9653988 13.8594665,6.9653988 C14.1047473,6.9653988 14.5680557,6.89453987 14.5680557,6.75827271 C14.5680557,6.74737134 14.562605,6.70376584 14.5026475,6.68741378 C14.4699433,6.67651241 14.4317885,6.67651241 14.3118734,6.6819631 C14.1647049,6.6819631 14.0175364,6.4802877 13.8867199,6.16959857 C13.9085226,6.17504925 13.9248747,6.18049994 13.9412268,6.18049994 C14.1210994,6.18049994 14.2737186,6.09873964 14.3445776,6.04968346 C14.3936337,6.01697934 14.546253,5.9134163 14.546253,5.80985326 C14.546253,5.74444502 14.4862954,5.68448747 14.3282255,5.73354364 L14.3009721,5.73354364 C14.0556912,5.73354364 13.6795938,4.74696939 13.4888198,4.01112671 L13.4724677,3.96752121 L13.4724677,3.95661984 C13.2871444,3.1662703 12.5840058,2.57759615 11.7391494,2.57759615 C10.894293,2.57759615 10.1911544,3.1662703 10.0058311,3.95116915 L10.0003804,3.96752121 L9.98947903,4.01112671 C9.79325432,4.74696939 9.42260763,5.73354364 9.17187606,5.73354364 L9.15007331,5.73354364 C8.9920034,5.68448747 8.93204585,5.74444502 8.93204585,5.80985326 C8.93204585,5.94066973 9.24273498,6.18049994 9.53162137,6.18049994 C9.55342411,6.18049994 9.56432548,6.17504925 9.58067754,6.16959857 C9.44986107,6.4802877 9.30269253,6.6819631 9.15007331,6.6819631 L9.05196095,6.67651241 C9.01925683,6.67651241 8.9102431,6.67651241 8.9102431,6.75827271 C8.9102431,6.89453987 9.37355146,6.9653988 9.61883235,6.9653988 Z" id="en-pareja"></path>
            </g>
        </g>
    </g>
</svg>