<?xml version="1.0" encoding="UTF-8" standalone="no"?>
<svg width="32px" height="32px" viewBox="0 0 32 32" version="1.1" xmlns="http://www.w3.org/2000/svg" xmlns:xlink="http://www.w3.org/1999/xlink">
    <!-- Generator: Sketch 3.7.2 (28276) - http://www.bohemiancoding.com/sketch -->
    <title>cruises</title>
    <desc>Created with Sketch.</desc>
    <defs></defs>
    <g id="Ãtomos" stroke="none" stroke-width="1" fill="none" fill-rule="evenodd">
        <g id="03_Iconos" transform="translate(-405.000000, -426.000000)" fill="#666666">
            <g id="ico-cruises" transform="translate(405.000000, 426.000000)">
                <path d="M18.595,8.535 C17.635,8.505 17,8.51 17,8.51 L17,6.17 C17,6.17 17.67,6.175 18.595,6.22 C20.225,6.305 22.605,6.53 23.57,7.16 C24.06,7.475 24.395,8.425 24.435,9.13 C22.49,8.73 20.145,8.59 18.595,8.535 L18.595,8.535 L18.595,8.535 Z M15,8.51 C15,8.51 14.235,8.51 13.14,8.55 C11.59,8.605 9.54,8.75 7.7,9.13 C7.74,8.425 8.075,7.475 8.56,7.16 C9.48,6.565 11.52,6.33 13.14,6.235 C14.2,6.175 15,6.17 15,6.17 L15,8.51 L15,8.51 L15,8.51 Z M24.425,6.285 C23.355,5.755 21.065,5.435 18.5,5.32 L18.5,3 L13.5,3 L13.5,5.445 C11.2,5.585 9.185,5.815 8.19,6.285 C7.245,6.735 5.725,11.985 5.155,14.345 C7.125,13.24 9.57,12.02 12.015,11.23 C12.085,11.205 13.865,10.615 16.285,10.615 C17.625,10.615 18.905,10.8 20.09,11.16 C20.18,11.195 23.27,12.375 26.805,14.305 C26.39,11.92 25.355,6.75 24.425,6.285 Z M26.45,15.5 C22.9,13.735 19.035,11.79 16.5,11.765 L16.5,29.8 C18.715,29.775 20.945,29.525 23.13,29.025 C24.015,25.125 28.895,19.2 30.37,17.405 C29.22,16.775 27.7,16.12 26.45,15.5 Z M15.5,15.5 L15.5,11.755 C13.655,11.855 12.38,12.285 12.365,12.29 C9.895,13.09 7.38,14.37 5.41,15.5 C3.98,16.315 2.83,17.05 2.215,17.46 C3.595,19.11 8.035,24.605 9.37,28.94 C10.115,29.155 12.355,29.71 15.5,29.8 L15.5,15.5 Z" id="cruises"></path>
            </g>
        </g>
    </g>
</svg>