<?xml version="1.0" encoding="UTF-8"?>
<svg width="32px" height="32px" viewBox="0 0 32 32" version="1.1" xmlns="http://www.w3.org/2000/svg" xmlns:xlink="http://www.w3.org/1999/xlink">
    <!-- Generator: Sketch 39.1 (31720) - http://www.bohemiancoding.com/sketch -->
    <title>cultural</title>
    <desc>Created with Sketch.</desc>
    <defs></defs>
    <g id="Ãtomos" stroke="none" stroke-width="1" fill="none" fill-rule="evenodd">
        <g id="03_Iconos" transform="translate(-523.000000, -1263.000000)" fill="#666666">
            <g id="ico-culturales" transform="translate(523.000000, 1263.000000)">
                <path d="M12.3333333,5.83333333 L18.2444444,5.83333333 L18.2444444,9.58333333 L12.3333333,9.58333333 L12.3333333,5.83333333 Z M6.88244444,9.58333333 L24.1555556,9.58333333 L24.1555556,5.83333333 L6.86555556,5.83333333 L6.88244444,9.58333333 L6.88244444,9.58333333 Z M6,8.75 L25,8.75 L25,5 L6,5 L6,8.75 Z M6,28.75 L25,28.75 L25,25 L6,25 L6,28.75 Z M6.84444444,27.0833333 L24.1555556,27.0833333 L24.1555556,23.3333333 L6.84444444,23.3333333 L6.84444444,27.0833333 Z M18.5231111,23.3333333 L23.7333333,23.3333333 L23.7333333,10.0775194 L7.26666667,10.0775194 L7.26666667,23.3333333 L12.3333333,23.3333333 C12.3122222,23.1927414 12.3333333,23.0561663 12.3333333,22.9155743 L12.3333333,16.488513 C12.3333333,14.869697 13.6844444,13.5601832 15.3564444,13.5601832 C17.0284444,13.5601832 18.5231111,14.869697 18.5231111,16.488513 L18.5231111,23.3333333 L18.5231111,23.3333333 Z" id="culturales"></path>
            </g>
        </g>
    </g>
</svg>