<?xml version="1.0" encoding="UTF-8"?>
<svg width="32px" height="32px" viewBox="0 0 32 32" version="1.1" xmlns="http://www.w3.org/2000/svg" xmlns:xlink="http://www.w3.org/1999/xlink">
    <!-- Generator: Sketch 41.1 (35376) - http://www.bohemiancoding.com/sketch -->
    <title>customerservice</title>
    <desc>Created with Sketch.</desc>
    <defs></defs>
    <g id="Ãtomos" stroke="none" stroke-width="1" fill="none" fill-rule="evenodd">
        <g id="Iconos" transform="translate(-440.000000, -3403.000000)" fill="#666666">
            <g id="ico-customer-service" transform="translate(440.000000, 3403.000000)">
                <path d="M15.4710943,21.0063566 C18.2240019,21.0063566 20.3121207,18.4210961 20.7723592,15.8186862 C21.3476572,15.544297 21.756758,14.922634 21.756758,14.2152244 C21.756758,13.7864914 21.6033452,13.3706203 21.3306113,13.0619324 C21.4541939,12.5603147 21.50107,12.0629843 21.50107,11.5613666 C21.50107,8.04575524 18.8035614,5.18181818 15.4753557,5.18181818 C12.1599344,5.18181818 9.46242583,8.04575524 9.46242583,11.5613666 C9.46242583,12.0629843 9.50930197,12.5603147 9.62862305,13.0619324 C9.36015063,13.3706203 9.20673782,13.7864914 9.20673782,14.2152244 C9.20673782,14.922634 9.61157718,15.544297 10.1911367,15.8186862 C10.6300678,18.4210961 12.7394939,21.0063566 15.4710943,21.0063566 Z M7.47115854,9.8969698 C7.47115854,10.5332994 8.35645614,10.5282877 8.4188398,10.0981801 C8.47458088,9.71387014 8.55784007,9.33057831 8.6823078,8.95566847 C9.59471759,6.20739463 12.4090299,3.87078682 15.64607,3.99441052 C19.4363407,4.13916229 22.069773,7.05975604 22.4527948,9.89696984 L22.4527948,14.750063 C22.4527948,14.7802531 22.4573741,14.8101948 22.4615687,14.838301 C22.4575257,15.4617211 22.3933205,16.1006031 22.2685433,16.7177717 C21.7085879,16.8282147 21.2858683,17.322343 21.2858683,17.9178092 C21.2858683,18.5945449 21.8325818,19.1443182 22.5054381,19.1443182 C23.178345,19.1443182 23.7250079,18.5945449 23.7250079,17.9178092 C23.7250079,17.4505236 23.4671843,17.039085 23.0845144,16.8324811 C23.1924624,16.2838753 23.2475907,15.7345422 23.2687659,15.1824295 C23.8877492,15.1602697 24.4620141,14.7296191 24.4620141,14.0971014 L24.4620141,10.6822885 C24.4620141,10.0376233 24.0321014,9.63516933 23.4010902,9.62510596 C23.0565256,6.48442239 19.8911934,3 15.6460704,3 C11.1758458,3 7.74373009,6.4493929 7.47115854,9.8969698 Z M20.4469388,22.0570025 C20.3469388,22.019656 19.5102041,22.019656 19.3673469,22.0786241 C18.4285714,22.4914005 17.122449,24.7469287 15.7755102,24.7469287 C14.4489796,24.7469287 13.1632653,22.4914005 12.2040816,22.0786241 C12.0816327,22.019656 11.3877551,22 11.3877551,22 C7.95918367,22.6879607 4.93877551,24.2014742 2.34693878,26.3439803 C2.12244898,26.5208845 2,26.7764128 2,27.0515971 L2,29.0938575 C2,29.6068796 2.42857143,30 2.95918367,30 L29.0408163,30 C29.5714286,30 30,29.585258 30,29.0938575 L30,27.0515971 C30,26.7764128 29.8795918,26.5208845 29.6530612,26.3439803 C27.122449,24.2604423 23.7755102,22.7685504 20.4469388,22.0570025 Z" id="customer-service"></path>
            </g>
        </g>
    </g>
</svg>