<?xml version="1.0" encoding="UTF-8"?>
<svg width="32px" height="32px" viewBox="0 0 32 32" version="1.1" xmlns="http://www.w3.org/2000/svg" xmlns:xlink="http://www.w3.org/1999/xlink">
    <!-- Generator: Sketch 43.1 (39012) - http://www.bohemiancoding.com/sketch -->
    <title>dashboard</title>
    <desc>Created with Sketch.</desc>
    <defs></defs>
    <g id="Ãtomos" stroke="none" stroke-width="1" fill="none" fill-rule="evenodd">
        <g id="Iconos" transform="translate(-229.000000, -3559.000000)" fill="#666666">
            <g id="ico-dashboard" transform="translate(229.000000, 3559.000000)">
                <path d="M3,3.99104643 C3,3.4437066 3.44394487,3 4.0084404,3 L14.0629882,3 C14.6199344,3 15.0714286,3.44010728 15.0714286,3.99104643 L15.0714286,14.3748072 C15.0714286,14.9221471 14.6274837,15.3658537 14.0629882,15.3658537 L4.0084404,15.3658537 C3.45149414,15.3658537 3,14.9257464 3,14.3748072 L3,3.99104643 Z M16.9285714,3.99104643 C16.9285714,3.4437066 17.3725163,3 17.9370118,3 L27.9915596,3 C28.5485059,3 29,3.44010728 29,3.99104643 L29,14.3748072 C29,14.9221471 28.5560551,15.3658537 27.9915596,15.3658537 L17.9370118,15.3658537 C17.3800656,15.3658537 16.9285714,14.9257464 16.9285714,14.3748072 L16.9285714,3.99104643 Z M3,17.6251928 C3,17.0778529 3.44394487,16.6341463 4.0084404,16.6341463 L14.0629882,16.6341463 C14.6199344,16.6341463 15.0714286,17.0742536 15.0714286,17.6251928 L15.0714286,28.0089536 C15.0714286,28.5562934 14.6274837,29 14.0629882,29 L4.0084404,29 C3.45149414,29 3,28.5598927 3,28.0089536 L3,17.6251928 Z M16.9285714,17.6251928 C16.9285714,17.0778529 17.3725163,16.6341463 17.9370118,16.6341463 L27.9915596,16.6341463 C28.5485059,16.6341463 29,17.0742536 29,17.6251928 L29,28.0089536 C29,28.5562934 28.5560551,29 27.9915596,29 L17.9370118,29 C17.3800656,29 16.9285714,28.5598927 16.9285714,28.0089536 L16.9285714,17.6251928 Z" id="dashboard"></path>
            </g>
        </g>
    </g>
</svg>