<?xml version="1.0" encoding="UTF-8" standalone="no"?>
<svg width="32px" height="32px" viewBox="0 0 32 32" version="1.1" xmlns="http://www.w3.org/2000/svg" xmlns:xlink="http://www.w3.org/1999/xlink">
    <!-- Generator: Sketch 3.8.3 (29802) - http://www.bohemiancoding.com/sketch -->
    <title>disability</title>
    <desc>Created with Sketch.</desc>
    <defs></defs>
    <g id="Ãtomos" stroke="none" stroke-width="1" fill="none" fill-rule="evenodd">
        <g id="03_Iconos" transform="translate(-930.000000, -732.000000)" fill="#666666">
            <g id="ico-invalid" transform="translate(930.000000, 732.000000)">
                <path d="M14.9952815,28.8281523 C10.6204965,28.8281523 7.07421324,25.2833485 7.07421324,20.907084 C7.07421324,18.8595012 7.87016668,17.0146054 9.14398808,15.6091114 L9.14398808,12.8143975 C6.63777037,14.6311835 5,17.573844 5,20.9056045 C5.00147947,26.4269767 9.47538877,30.8994066 14.9952815,30.8994066 C18.3004116,30.8994066 21.2253186,29.2853077 23.0450634,26.8071999 L21.793434,24.9060843 C20.4160499,27.2406838 17.9024349,28.8281523 14.9952815,28.8281523 Z M13.1104401,6.5473738 C14.5566845,6.5473738 15.7290973,5.37496103 15.7290973,3.92871657 C15.7290973,2.48247212 14.5566845,1.31005934 13.1104401,1.31005934 C11.6641956,1.31005934 10.4917828,2.48247212 10.4917828,3.92871657 C10.4917828,5.37496103 11.6641956,6.5473738 13.1104401,6.5473738 Z M26.7999516,24.5391764 L22.6500456,16.8873712 C22.3926183,16.4035854 21.9251066,16.1520759 21.4368824,16.1343223 L15.8992361,16.1343223 L15.8992361,14.6252656 L19.4543961,14.6252656 C20.2725416,14.6252656 20.9338635,13.9624642 20.9338635,13.1457982 C20.9338635,12.3291323 20.2725416,11.6663309 19.4543961,11.6663309 L15.8992361,11.6663309 L15.8992361,9.92647726 C15.8992361,8.38487227 14.6505656,7.13620181 13.1089606,7.13620181 C11.5673556,7.13620181 10.3201646,8.38635173 10.3201646,9.92647726 L10.3201646,19.1716688 C10.3201646,19.9898142 10.982966,20.6511362 11.799632,20.6511362 L21.2756204,20.6511362 L24.2094042,26.1162886 C24.6206961,26.8648991 25.5379659,27.14008 26.2436718,26.7125139 C26.9671314,26.2686737 27.212723,25.3055405 26.7999516,24.5391764 Z" id="invalid"></path>
            </g>
        </g>
    </g>
</svg>