<?xml version="1.0" encoding="UTF-8"?>
<svg width="32px" height="32px" viewBox="0 0 32 32" version="1.1" xmlns="http://www.w3.org/2000/svg" xmlns:xlink="http://www.w3.org/1999/xlink">
    <!-- Generator: Sketch 41 (35326) - http://www.bohemiancoding.com/sketch -->
    <title>disney</title>
    <desc>Created with Sketch.</desc>
    <defs></defs>
    <g id="Ãtomos" stroke="none" stroke-width="1" fill="none" fill-rule="evenodd">
        <g id="Iconos" transform="translate(-74.000000, -1616.000000)" fill="#666666">
            <g id="ico-disney" transform="translate(74.000000, 1616.000000)">
                <path d="M19.0401297,10.7547485 C18.0975655,10.4367628 17.0879842,10.2643912 16.0381433,10.2643912 C14.978239,10.2643912 13.9593697,10.4400833 13.0090699,10.763933 C13.4905165,8.91416394 13.1281095,6.98889937 11.8544504,5.62306719 C9.73338194,3.34849974 5.88830784,3.48676038 3.26623703,5.93188096 C0.644166224,8.37700155 0.238023574,12.2030647 2.35909203,14.4776321 C3.62955031,15.8400318 5.51852343,16.3367905 7.39272724,15.9906797 C6.91620607,17.1151319 6.65265111,18.3517294 6.65265111,19.6498835 C6.65265111,24.8333477 10.8546791,29.0353757 16.0381433,29.0353757 C21.2216076,29.0353757 25.4236356,24.8333477 25.4236356,19.6498835 C25.4236356,18.3781264 25.17069,17.1654478 24.7123639,16.059413 C26.4820509,16.3690866 28.262779,15.9177751 29.5134744,14.6670798 C31.712632,12.4679222 31.4402644,8.63001563 28.9051244,6.0948756 C26.3699844,3.55973556 22.5320778,3.287368 20.3329202,5.48652562 C18.972036,6.84740985 18.5575952,8.83583502 19.0401297,10.7547485 Z" id="disney"></path>
            </g>
        </g>
    </g>
</svg>