<?xml version="1.0" encoding="UTF-8"?>
<svg width="32px" height="32px" viewBox="0 0 32 32" version="1.1" xmlns="http://www.w3.org/2000/svg" xmlns:xlink="http://www.w3.org/1999/xlink">
    <!-- Generator: Sketch 41.1 (35376) - http://www.bohemiancoding.com/sketch -->
    <title>doorm</title>
    <desc>Created with Sketch.</desc>
    <defs></defs>
    <g id="Ãtomos" stroke="none" stroke-width="1" fill="none" fill-rule="evenodd">
        <g id="Iconos" transform="translate(-575.000000, -4720.000000)" fill="#666666">
            <g id="ico-doorm" transform="translate(575.000000, 4720.000000)">
                <path d="M6.58544559,17.3747655 C5.34824109,17.3747655 4.34756098,18.411834 4.34756098,19.6672326 L4.34756098,27.818227 C4.34756098,29.0736257 5.34824109,30.1106942 6.58544559,30.1106942 L13.2081285,30.1106942 C12.8988274,29.0554315 12.7168856,27.8000328 12.7168856,26.4718574 C12.7168856,25.3256238 12.8442448,23.2696811 13.0807692,20.9226313 C12.6077205,20.4859709 12.3348077,19.8673687 12.3348077,19.2851548 C12.3348077,18.5410127 12.8078565,17.8660084 13.5720122,17.3747655 L6.58544559,17.3747655 Z M19.3049995,17.3747655 C20.0691553,17.8660084 20.542204,18.5410127 20.542204,19.2851548 C20.542204,19.994728 20.1255572,20.7224953 19.4487336,21.2137383 C19.6670638,23.4334287 19.7944231,25.3802064 19.7944231,26.4718574 C19.7944231,27.8000328 19.6124812,29.0554315 19.2849859,30.1106942 L25.7621154,30.1106942 C27.0047781,30.1106942 28,29.0736257 28,27.818227 L28,19.6672326 C28,18.411834 26.9993199,17.3747655 25.7621154,17.3747655 L19.3049995,17.3747655 Z M16.4466932,18.2298921 C15.4096248,18.2298921 14.5726923,19.0831993 14.5726923,20.1566562 C14.5726923,20.8680488 14.9547702,21.4830122 15.5005957,21.8123269 L15.6461492,21.8869231 L14.9547702,22.8330206 L16.0646154,30.1106942 L16.8105769,30.1106942 L17.9404357,22.8330206 L17.2290432,21.8869231 C17.8658396,21.5794414 18.3025,20.9226313 18.3025,20.1566562 C18.3025,19.0831993 17.4655675,18.2298921 16.4466932,18.2298921 Z M16.6286351,16.7015807 C20.4312195,16.7015807 23.5242308,14.3017678 23.5242308,10.3881989 C23.5242308,9.64223734 23.4150657,8.95085835 23.2149296,8.27767355 L10.0423405,8.27767355 C9.8422045,8.95085835 9.7330394,9.64223734 9.7330394,10.3881989 C9.7330394,14.2999484 12.8078565,16.7015807 16.6286351,16.7015807 Z M23.1603471,6.45825516 L24.6522702,3.40163227 L19.4305394,1 L13.4628471,1 L8.24111632,3.40163227 L10.0969231,6.45825516 L23.1603471,6.45825516 Z" id="doorm"></path>
            </g>
        </g>
    </g>
</svg>