<?xml version="1.0" encoding="UTF-8"?>
<svg width="32px" height="32px" viewBox="0 0 32 32" version="1.1" xmlns="http://www.w3.org/2000/svg" xmlns:xlink="http://www.w3.org/1999/xlink">
    <!-- Generator: Sketch 41.1 (35376) - http://www.bohemiancoding.com/sketch -->
    <title>download</title>
    <desc>Created with Sketch.</desc>
    <defs></defs>
    <g id="Ãtomos" stroke="none" stroke-width="1" fill="none" fill-rule="evenodd">
        <g id="Iconos" transform="translate(-368.000000, -3481.000000)" fill="#666666">
            <g id="ico-download" transform="translate(358.000000, 3481.000000)">
                <g transform="translate(14.000000, 4.000000)">
                    <path d="M13.4247951,2.65924531 C14.0340868,3.22023678 14.0097152,4.12270133 13.4004235,4.68369281 L10.061505,7.56182298 C9.4278416,8.09842353 9.59844327,8.53746033 10.42708,8.53746033 L21.4674456,8.53746033 C22.2960823,8.53746033 22.978489,9.04966994 22.978489,9.65944328 L22.978489,11.8790183 C22.978489,12.4887916 22.2960823,13.0010012 21.4674456,13.0010012 L17.324262,13.0010012 L10.42708,13.0010012 C9.59844327,13.0010012 9.4278416,13.440038 10.061505,13.9766386 L13.4004235,16.8791597 C14.0097152,17.4157602 14.0340868,18.3182248 13.4247951,18.8792162 L12.6936451,19.5621624 C12.0843534,20.1231539 11.085115,20.1231539 10.4758233,19.5621624 L1.8969962,11.7814545 C1.2877045,11.220463 1.2877045,10.3179985 1.8969962,9.75700702 L10.4758233,1.97629916 C11.085115,1.41530769 12.0843534,1.41530769 12.6936451,1.97629916 L13.4247951,2.65924531 Z" id="arrow-bold" transform="translate(12.209258, 10.769231) scale(-1, -1) rotate(-270.000000) translate(-12.209258, -10.769231) "></path>
                    <path d="M2.88005486,23.2095452 L2.88005486,21.2991453 C2.88005486,20.5038401 2.23533262,19.8591179 1.44002743,19.8591179 C0.644722241,19.8591179 -9.96353996e-17,20.5038401 0,21.2991453 L3.98541599e-16,24.6495726 C5.97812398e-16,25.4448778 0.644722241,26.0896001 1.44002743,26.0896001 L22.978489,26.0896001 C23.7737942,26.0896001 24.4185164,25.4448778 24.4185164,24.6495726 L24.4185164,21.4745268 C24.4185164,20.6792216 23.7737942,20.0344994 22.978489,20.0344994 C22.1831838,20.0344994 21.5384615,20.6792216 21.5384615,21.4745268 L21.5384615,23.2095452 L2.88005486,23.2095452 Z" id="Path-2"></path>
                </g>
            </g>
            <g id="ico-download" transform="translate(358.000000, 3481.000000)">
                <g transform="translate(14.000000, 4.000000)">
                    <path d="M13.4247951,2.65924531 C14.0340868,3.22023678 14.0097152,4.12270133 13.4004235,4.68369281 L10.061505,7.56182298 C9.4278416,8.09842353 9.59844327,8.53746033 10.42708,8.53746033 L21.4674456,8.53746033 C22.2960823,8.53746033 22.978489,9.04966994 22.978489,9.65944328 L22.978489,11.8790183 C22.978489,12.4887916 22.2960823,13.0010012 21.4674456,13.0010012 L17.324262,13.0010012 L10.42708,13.0010012 C9.59844327,13.0010012 9.4278416,13.440038 10.061505,13.9766386 L13.4004235,16.8791597 C14.0097152,17.4157602 14.0340868,18.3182248 13.4247951,18.8792162 L12.6936451,19.5621624 C12.0843534,20.1231539 11.085115,20.1231539 10.4758233,19.5621624 L1.8969962,11.7814545 C1.2877045,11.220463 1.2877045,10.3179985 1.8969962,9.75700702 L10.4758233,1.97629916 C11.085115,1.41530769 12.0843534,1.41530769 12.6936451,1.97629916 L13.4247951,2.65924531 Z" id="arrow-bold" transform="translate(12.209258, 10.769231) scale(-1, -1) rotate(-270.000000) translate(-12.209258, -10.769231) "></path>
                    <path d="M2.88005486,23.2095452 L2.88005486,21.2991453 C2.88005486,20.5038401 2.23533262,19.8591179 1.44002743,19.8591179 C0.644722241,19.8591179 -9.96353996e-17,20.5038401 0,21.2991453 L3.98541599e-16,24.6495726 C5.97812398e-16,25.4448778 0.644722241,26.0896001 1.44002743,26.0896001 L22.978489,26.0896001 C23.7737942,26.0896001 24.4185164,25.4448778 24.4185164,24.6495726 L24.4185164,21.4745268 C24.4185164,20.6792216 23.7737942,20.0344994 22.978489,20.0344994 C22.1831838,20.0344994 21.5384615,20.6792216 21.5384615,21.4745268 L21.5384615,23.2095452 L2.88005486,23.2095452 Z" id="Path-2"></path>
                </g>
            </g>
        </g>
    </g>
</svg>