<?xml version="1.0" encoding="UTF-8"?>
<svg width="32px" height="32px" viewBox="0 0 32 32" version="1.1" xmlns="http://www.w3.org/2000/svg" xmlns:xlink="http://www.w3.org/1999/xlink">
    <!-- Generator: Sketch 41.1 (35376) - http://www.bohemiancoding.com/sketch -->
    <title>dry-cleaner</title>
    <desc>Created with Sketch.</desc>
    <defs></defs>
    <g id="Ãtomos" stroke="none" stroke-width="1" fill="none" fill-rule="evenodd">
        <g id="Iconos" transform="translate(-575.000000, -4800.000000)" fill="#666666">
            <g id="ico-dry-cleaner" transform="translate(563.000000, 4800.000000)">
                <path d="M21,10.5 L22.4,10.5 L22.4,7.64 C24.15,7.70875 26.474,7.75 28.294,7.75 C29.918,7.75 32.0474,7.7225 33.6,7.65375 L33.6,10.5 L35,10.5 L35,7.57125 C36.638,7.48875 37.66,7.37875 39.2,7.2275 L39.2,5.5775 C37.66,5.72875 36.638,5.83875 35,5.92125 L35,5 L33.6,5 L33.6,6.00375 C32.0474,6.0725 29.918,6.1 28.294,6.1 C26.474,6.1 24.15,6.05875 22.4,5.99 L22.4,5 L21,5 L21,5.89375 C19.362,5.7975 18.34,5.67375 16.8,5.5225 L16.8,7.1725 C18.34,7.32375 19.362,7.4475 21,7.54375 L21,10.5 Z M35.448,8.85 L35.434,8.86375 C35.812,9.22125 36.036,9.68875 36.036,10.225 C36.036,11.28375 35.112,12.15 33.964,12.15 C32.802,12.15 31.878,11.00875 31.878,9.95 C31.878,9.66125 31.9494,9.3725 32.0754,9.125 L31.2774,9.125 L27.706,12.425 L24.122,9.4 L23.926,9.4 C24.052,9.6475 24.122,9.93625 24.122,10.225 C24.122,11.28375 23.198,12.15 22.036,12.15 C20.888,12.15 19.964,11.28375 19.964,10.225 C19.964,9.68875 20.188,9.22125 20.566,8.86375 L20.552,8.85 L14,14.35 L18.018,19.3 L21,16.7975 L21,27 L35,27 L35,17.30625 L37.38,19.3 L42,14.35 L35.448,8.85 Z" id="Combined-Shape"></path>
            </g>
        </g>
    </g>
</svg>