<?xml version="1.0" encoding="UTF-8"?>
<svg width="32px" height="32px" viewBox="0 0 32 32" version="1.1" xmlns="http://www.w3.org/2000/svg" xmlns:xlink="http://www.w3.org/1999/xlink">
    <!-- Generator: Sketch 41.1 (35376) - http://www.bohemiancoding.com/sketch -->
    <title>dryer</title>
    <desc>Created with Sketch.</desc>
    <defs></defs>
    <g id="Ãtomos" stroke="none" stroke-width="1" fill="none" fill-rule="evenodd">
        <g id="Iconos" transform="translate(-359.000000, -4720.000000)" fill="#666666">
            <g id="ico-dryer" transform="translate(359.000000, 4720.000000)">
                <path d="M4.1884519,6.62510121 C4.03769038,6.77927126 4.03769038,6.9334413 4.03769038,7.24178138 L4.03769038,28.9797571 C3.88692886,29.4422672 4.48997494,29.9047773 4.94225949,29.9047773 L25.7473491,29.9047773 C26.1996337,29.9047773 26.6519183,29.5964372 26.6519183,29.1339271 L26.6519183,7.24178138 C26.6519183,7.08761134 26.6519183,6.77927126 26.5011567,6.62510121 L4.1884519,6.62510121 Z M22.1290727,23.7379757 C20.470696,25.7421862 17.9077501,26.8213765 15.3448043,26.6672065 C12.7818585,26.6672065 10.2189127,25.4338462 8.56053596,23.4296356 C6.90215924,21.4254251 6.14835165,18.6503644 6.75139773,16.1836437 C7.50520532,12.9460729 10.2189127,10.3251822 13.5356661,9.70850202 C15.9478504,9.2459919 18.5107962,9.70850202 20.470696,11.0960324 C22.5813572,12.4835628 23.9382109,14.7961134 24.0889724,17.262834 C24.3904955,19.5753846 23.6366879,22.0421053 22.1290727,23.7379757 Z M25.7473491,2 L5.24378253,2 C5.09302101,2 4.64073646,2 4.48997494,2.15417004 C4.1884519,2.15417004 4.03769038,2.46251012 4.03769038,2.7708502 L4.03769038,4.92923077 C4.03769038,5.08340081 4.03769038,5.08340081 4.1884519,5.23757085 L26.5011567,5.23757085 C26.5011567,5.23757085 26.6519183,5.08340081 26.6519183,4.92923077 L26.6519183,2.7708502 C26.6519183,2.30834008 26.1996337,2 25.7473491,2 Z M14.3499594,4.30357061 C13.7520027,3.81439005 13.9911854,2.83602894 14.5891421,2.59143866 C15.3066901,2.22455325 16.2634208,2.95832408 16.0242381,3.81439005 C15.9046468,4.54816089 14.8283248,4.9150463 14.3499594,4.30357061 Z M12.7818585,24.971336 L12.3295739,25.4338462 C14.2894737,26.3588664 16.5508965,26.2046964 18.5107962,25.4338462 C16.5508965,25.8963563 14.5909967,25.7421862 12.7818585,24.971336 Z M17.4554656,24.3546559 C16.0986119,24.5088259 14.7417582,24.5088259 13.5356661,24.0463158 L13.0833815,24.3546559 C14.4402352,25.1255061 16.0986119,24.817166 17.4554656,24.3546559 Z M16.5508965,23.2754656 C15.7970889,23.2754656 15.0432813,23.3551032 14.2894737,23.2754656 L13.9879506,23.4347408 C14.8925198,23.5143785 15.6463274,23.4347408 16.5508965,23.2754656 Z M20.470696,16.6461538 L20.9229805,16.8003239 C20.6214575,16.0294737 20.1691729,15.4127935 19.5661269,14.9502834 C19.8676499,15.5669636 20.1691729,16.0294737 20.470696,16.6461538 Z M10.5204357,16.3378138 C10.8219587,15.8753036 10.9727203,15.4127935 11.4250048,14.9502834 C11.5757663,14.7961134 11.5757663,14.6419433 11.5757663,14.3336032 C10.9727203,14.7961134 10.6711972,15.5669636 10.5204357,16.3378138 Z M19.8676499,13.7169231 C20.6214575,14.6419433 21.3752651,15.7211336 21.5260266,16.9544939 L21.9783112,17.108664 C21.8275496,15.7211336 21.073742,14.4877733 19.8676499,13.7169231 Z M20.3199345,12.1752227 C21.5260266,13.562753 22.4305957,15.2586235 22.5813572,17.108664 L23.3351648,17.262834 C23.1844033,15.2586235 21.9783112,13.408583 20.3199345,12.1752227 Z M10.8219587,12.6377328 L10.5204357,11.8668826 C8.86205899,13.1002429 7.95748988,14.9502834 7.65596684,16.8003239 C8.25901292,15.2586235 9.31434355,13.7169231 10.8219587,12.6377328 Z M10.9727203,13.1002429 C9.91738963,13.8710931 9.46510507,15.1044534 9.16358203,16.3378138 C9.61586659,15.4127935 10.2189127,14.3336032 11.1234818,13.562753 L10.9727203,13.1002429 Z" id="dryer"></path>
            </g>
        </g>
    </g>
</svg>