<?xml version="1.0" encoding="UTF-8"?>
<svg width="32px" height="32px" viewBox="0 0 32 32" version="1.1" xmlns="http://www.w3.org/2000/svg" xmlns:xlink="http://www.w3.org/1999/xlink">
    <!-- Generator: Sketch 43.1 (39012) - http://www.bohemiancoding.com/sketch -->
    <title>dvd</title>
    <desc>Created with Sketch.</desc>
    <defs></defs>
    <g id="Ãtomos" stroke="none" stroke-width="1" fill="none" fill-rule="evenodd">
        <g id="Iconos" transform="translate(-429.000000, -4960.000000)">
            <g id="ico-grill-copy-2" transform="translate(417.000000, 4960.000000)"></g>
            <g id="dvd" transform="translate(435.000000, 4966.000000)" fill="#666666">
                <g id="Group">
                    <path d="M10.004,8.56 C9.074,8.56 8.315,9.311 8.315,10.24 C8.315,11.17 9.075,11.921 10.004,11.921 C10.934,11.921 11.684,11.17 11.684,10.24 C11.684,9.31 10.934,8.56 10.004,8.56 L10.004,8.56 Z" id="Shape"></path>
                    <path d="M10.005,0.39 C4.685,0.39 0.365,4.69 0.365,10 C0.365,15.311 4.684,19.609 10.005,19.609 C15.324,19.609 19.635,15.31 19.635,10 C19.635,4.69 15.324,0.39 10.005,0.39 L10.005,0.39 Z M6.475,9.639 L6.405,9.82 L2.884,8.35 C3.054,7.11 3.565,5.95 4.424,4.99 C5.325,4.01 6.485,3.39 7.755,3.12 L9.575,6.43 L9.415,6.51 C8.585,6.51 7.785,6.821 7.215,7.45 C6.655,8.05 6.415,8.84 6.475,9.639 L6.475,9.639 Z M10.004,12.88 C8.535,12.88 7.355,11.7 7.355,10.24 C7.355,8.78 8.535,7.6 10.004,7.6 C11.464,7.6 12.652,8.78 12.652,10.24 C12.652,11.7 11.464,12.88 10.004,12.88 L10.004,12.88 Z M15.574,15.011 C14.675,15.99 13.545,16.641 12.335,16.96 L10.785,13.891 L10.945,13.811 C11.724,13.772 12.494,13.432 13.064,12.8 C13.625,12.2 13.883,11.43 13.875,10.68 L13.955,10.5 L17.195,11.721 C16.984,12.921 16.445,14.061 15.574,15.011 L15.574,15.011 Z" id="Shape"></path>
                </g>
            </g>
        </g>
    </g>
</svg>