<?xml version="1.0" encoding="UTF-8" standalone="no"?>
<svg width="32px" height="32px" viewBox="0 0 32 32" version="1.1" xmlns="http://www.w3.org/2000/svg" xmlns:xlink="http://www.w3.org/1999/xlink">
    <!-- Generator: Sketch 3.8.3 (29802) - http://www.bohemiancoding.com/sketch -->
    <title>earth</title>
    <desc>Created with Sketch.</desc>
    <defs></defs>
    <g id="Ãtomos" stroke="none" stroke-width="1" fill="none" fill-rule="evenodd">
        <g id="03_Iconos" transform="translate(-715.000000, -478.000000)" fill="#666666">
            <g id="earth" transform="translate(715.000000, 478.000000)">
                <path d="M16,28.0090184 C12.4879394,28.0090184 9.32322536,26.4842178 7.1233632,24.0756157 C7.21019986,23.8133888 7.81805651,22.074922 8.21364576,21.2785293 C8.64782908,20.4141519 8.79255686,20.3170309 9.74776017,19.4526535 C10.712612,18.5882761 7.82770503,18.1997919 7.16195727,17.5296566 C6.48656099,16.8595213 6.14886285,16.8595213 5.38662991,16.2476587 C4.80771881,15.7911897 4.47002068,17.8113077 4.34458994,18.8602151 C4.1130255,17.937565 3.99724328,16.9857787 3.99724328,15.9951439 C3.99724328,13.4505723 4.7980703,11.0905307 6.15851137,9.1383975 C5.77257064,10.3232744 5.42522398,12.0520291 6.92074431,11.5275754 C8.5513439,10.9545612 8.69607167,10.2844259 8.69607167,10.2844259 L9.65127498,8.5945196 C9.65127498,8.5945196 9.79600276,10.9545612 9.98897312,11.2847728 C10.1819435,11.6246965 10.9538249,12.5861949 11.2432805,11.2362123 C11.773949,8.7693375 11.8607857,8.0700659 12.7677464,8.0700659 C13.6843556,8.0700659 15.5658167,7.3513701 15.758787,9.55601804 C15.9421089,11.7703781 15.5658167,10.4689559 14.3597519,11.0516823 C13.1633356,11.6246965 12.8738801,13.6448144 13.9738112,13.877905 C15.0833908,14.1207076 17.582357,15.1307666 17.582357,15.1307666 L18.8270159,16.5195976 L19.2129566,18.0152619 C19.2129566,18.0152619 19.4541695,19.6954561 19.4541695,19.8314256 L19.4541695,21.3756504 C19.4541695,21.3756504 19.5024121,24.3961152 20.6023432,23.6774194 C21.7119228,22.9587236 24.731909,18.2483524 24.1144039,16.4710371 C23.4872502,14.6937218 23.4390076,14.5091918 24.5871813,13.877905 C25.7450034,13.2563302 26.555479,12.4890739 26.5072364,11.6246965 C26.4782908,11.022546 26.5361819,10.6437738 26.5458305,10.2552896 C27.4817367,11.9549081 28.0124052,13.9167534 28.0124052,15.9951439 C28.0124052,22.6187999 22.628532,28.0090184 16,28.0090184 L16,28.0090184 Z M16,2 C8.28118539,2 2,8.27402012 2,15.9951439 C2,23.7162678 8.28118539,30 16,30 C23.7284631,30 30,23.7162678 30,15.9951439 C30,8.27402012 23.7284631,2 16,2 L16,2 Z" id="Fill-5"></path>
            </g>
        </g>
    </g>
</svg>