<?xml version="1.0" encoding="UTF-8"?>
<svg width="32px" height="32px" viewBox="0 0 32 32" version="1.1" xmlns="http://www.w3.org/2000/svg" xmlns:xlink="http://www.w3.org/1999/xlink">
    <!-- Generator: Sketch 41.1 (35376) - http://www.bohemiancoding.com/sketch -->
    <title> elev</title>
    <desc>Created with Sketch.</desc>
    <defs></defs>
    <g id="Ãtomos" stroke="none" stroke-width="1" fill="none" fill-rule="evenodd">
        <g id="Iconos" transform="translate(-142.000000, -4800.000000)">
            <g id="interc" transform="translate(144.000000, 4805.000000)">
                <g id="Group"></g>
            </g>
            <g id="ico-elev" transform="translate(142.000000, 4800.000000)" fill="#666666">
                <path d="M3,9.32566006 C3,10.6936954 4.09442826,11.6513201 5.32566006,11.6513201 C6.55689185,11.6513201 7.65132012,10.5568919 7.65132012,9.32566006 C7.65132012,8.09442826 6.55689185,7 5.32566006,7 C4.09442826,7 3,8.09442826 3,9.32566006 Z M3,15.7554261 C3,17.1234614 4.09442826,18.0810862 5.32566006,18.0810862 C6.55689185,18.0810862 7.65132012,16.9866579 7.65132012,15.7554261 C7.65132012,14.5241943 6.55689185,13.429766 5.32566006,13.429766 C4.09442826,13.429766 3,14.5241943 3,15.7554261 Z M3,22.1851921 C3,23.5532275 4.09442826,24.5108522 5.32566006,24.5108522 C6.55689185,24.5108522 7.65132012,23.4164239 7.65132012,22.1851921 C7.65132012,20.9539603 6.55689185,19.8595321 5.32566006,19.8595321 C4.09442826,19.8595321 3,20.9539603 3,22.1851921 Z M9.29296251,22.1851921 C9.29296251,23.5532275 10.3873908,24.5108522 11.6186226,24.5108522 C12.8498544,24.5108522 13.9442826,23.4164239 13.9442826,22.1851921 C13.9442826,20.9539603 12.8498544,19.8595321 11.6186226,19.8595321 C10.3873908,19.8595321 9.29296251,20.9539603 9.29296251,22.1851921 Z M14.2178897,9.32566006 C14.2178897,8.09442826 13.1234614,7 11.8922296,7 C10.6609978,7 9.56656958,8.09442826 9.56656958,9.32566006 C9.56656958,10.6936954 10.6609978,11.6513201 11.8922296,11.6513201 C13.1234614,11.6513201 14.2178897,10.5568919 14.2178897,9.32566006 Z M27.7614394,17.260265 L23.794137,13.0193554 C23.5205299,12.7457484 23.1101193,12.7457484 22.8365123,13.0193554 L22.4261017,13.429766 C22.1524946,13.7033731 22.1524946,14.1137837 22.4261017,14.3873908 L23.9309405,16.0290332 C23.5205299,16.0290332 23.2469229,16.1658367 22.8365123,16.1658367 L20.1004416,13.2929625 C19.8268345,13.0193554 19.4164239,13.0193554 19.1428169,13.2929625 L18.7324063,13.7033731 C18.4587992,13.9769802 18.4587992,14.3873908 18.7324063,14.6609978 L21.0580663,17.1234614 C20.7844593,17.3970685 20.3740487,17.6706756 20.1004416,17.9442826 L16.9539603,14.6609978 C16.6803533,14.3873908 16.2699427,14.3873908 16.1331392,14.6609978 L15.7227286,15.208212 C15.585925,15.481819 15.585925,15.8922296 15.7227286,16.1658367 L18.8692098,19.4491215 C18.5956027,19.8595321 18.3219957,20.2699427 18.1851921,20.5435498 L12.4394438,14.5241943 C12.0290332,14.1137837 11.6186226,13.9769802 11.3450155,14.2505872 L10.9346049,14.6609978 C10.6609978,14.9346049 10.7978014,15.481819 11.0714084,15.8922296 L17.2275674,22.4587992 C17.3643709,22.5956027 17.5011745,22.7324063 17.637978,22.7324063 C17.637978,23.1428169 17.637978,23.5532275 17.7747815,23.9636381 L15.9963356,23.4164239 C15.1755144,23.2796204 14.3546932,23.690031 14.2178897,24.5108522 C14.0810862,25.3316734 14.6283003,26.1524946 15.4491215,26.2892981 L19.8268345,27.3837264 C20.3740487,27.5205299 20.7844593,27.3837264 21.1948699,27.1101193 C23.2469229,27.9309405 25.7093865,27.5205299 27.3510288,25.742084 C29.4030818,23.690031 29.5398854,20.4067462 27.7614394,18.0810862 C27.898243,17.8074791 27.898243,17.3970685 27.7614394,17.260265 Z" id="-elev"></path>
            </g>
        </g>
    </g>
</svg>