<?xml version="1.0" encoding="UTF-8"?>
<svg width="32px" height="32px" viewBox="0 0 32 32" version="1.1" xmlns="http://www.w3.org/2000/svg" xmlns:xlink="http://www.w3.org/1999/xlink">
    <!-- Generator: Sketch 39.1 (31720) - http://www.bohemiancoding.com/sketch -->
    <title>entertainment</title>
    <desc>Created with Sketch.</desc>
    <defs></defs>
    <g id="Ãtomos" stroke="none" stroke-width="1" fill="none" fill-rule="evenodd">
        <g id="03_Iconos" transform="translate(-451.000000, -1263.000000)" fill="#666666">
            <g id="ico-entretenimiento" transform="translate(451.000000, 1263.000000)">
                <path d="M8.32511171,28.2739247 L3.00160446,28.2739247 L3.00160446,22.1993344 L11.8577802,11.5531305 L8.01196422,10.0083774 L8.25989026,10.0083774 L13.2860271,7.04111248 L13.2860271,12.126816 L11.9148454,11.576052 L13.8509656,14.0630681 L18.5035822,8.70809308 L28.9010205,21.1303948 L28.9010205,28.2739247 L26.5465282,28.2739247 L26.5465282,22.1522445 L22.3084419,22.1522445 L22.3084419,28.2739247 L20.424848,28.2739247 L20.424848,22.1522445 L16.1867617,22.1522445 L16.1867617,28.2739247 L14.3031678,28.2739247 L14.3031678,22.1522445 L10.0650816,22.1522445 L10.0650816,28.2739247 L8.32511171,28.2739247 Z M14.8524689,6.24118965 L19.8786058,3.27392469 L19.8786058,8.35962821 L14.6045429,6.24118965 L14.8524689,6.24118965 Z M10.1639703,21.1303948 L17.8819962,12.8849625 C17.8819962,12.8849625 14.8494101,21.0550511 14.57158,21.1303948 C14.2984589,21.1963206 10.1639703,21.1303948 10.1639703,21.1303948 Z M26.6972157,21.1303948 C26.6972157,21.1303948 22.5627271,21.1963206 22.289606,21.1303948 C22.0117759,21.0550511 18.9838987,12.8849625 18.9838987,12.8849625 L26.6972157,21.1303948 Z" id="entretenimiento"></path>
            </g>
        </g>
    </g>
</svg>