<?xml version="1.0" encoding="UTF-8" standalone="no"?>
<svg width="16px" height="16px" viewBox="0 0 16 16" version="1.1" xmlns="http://www.w3.org/2000/svg" xmlns:xlink="http://www.w3.org/1999/xlink">
    <!-- Generator: Sketch 3.7 (28169) - http://www.bohemiancoding.com/sketch -->
    <title>ico_error</title>
    <desc>Created with Sketch.</desc>
    <defs></defs>
    <g id="Ãtomos" stroke="none" stroke-width="1" fill="none" fill-rule="evenodd">
        <g id="03_Iconos" transform="translate(-252.000000, -320.000000)" fill="#666666">
            <g id="error" transform="translate(252.000000, 320.000000)">
                <g id="Group" transform="translate(1.000000, 1.000000)">
                    <path d="M10.5,8.82 L8.82,10.5 L7,8.68291211 L5.18583789,10.5 L3.5,8.82 L5.32,7 L3.5,5.18583789 L5.18583789,3.5 L7,5.32 L8.82,3.5 L10.5,5.18583789 L8.68291211,7 L10.5,8.82 L10.5,8.82 Z M7,0 C3.13541211,0 0,3.13541211 0,7 C0,10.8675 3.13541211,14 7,14 C10.8675,14 14,10.8675 14,7 C14,3.13541211 10.8675,0 7,0 L7,0 L7,0 Z" id="Shape"></path>
                </g>
            </g>
        </g>
    </g>
</svg>