<?xml version="1.0" encoding="UTF-8"?>
<svg width="32px" height="32px" viewBox="0 0 32 32" version="1.1" xmlns="http://www.w3.org/2000/svg" xmlns:xlink="http://www.w3.org/1999/xlink">
    <!-- Generator: Sketch 41.1 (35376) - http://www.bohemiancoding.com/sketch -->
    <title>eve</title>
    <desc>Created with Sketch.</desc>
    <defs></defs>
    <g id="Ãtomos" stroke="none" stroke-width="1" fill="none" fill-rule="evenodd">
        <g id="Iconos" transform="translate(-285.000000, -4800.000000)">
            <g id="interc" transform="translate(287.000000, 4805.000000)">
                <g id="Group"></g>
            </g>
            <g id="ico-eve" transform="translate(285.000000, 4800.000000)" fill="#666666">
                <path d="M7.147,24.0377778 C8.24629211,24.0377778 9.13744444,23.1466254 9.13744444,22.0473333 C9.13744444,20.9480412 8.24629211,20.0568889 7.147,20.0568889 C6.04770789,20.0568889 5.15655556,20.9480412 5.15655556,22.0473333 C5.15655556,23.1466254 6.04770789,24.0377778 7.147,24.0377778 Z M4.66111111,24.6444444 C3.86377778,24.6444444 3.21666667,25.2915556 3.21666667,26.0888889 L3.21666667,27.6835556 L4.74055556,27.6835556 L4.74055556,29.5555556 L9.552,29.5555556 L9.552,27.6821111 L11.0773333,27.6821111 L11.0773333,26.0888889 C11.0758889,25.2915556 10.4287778,24.6444444 9.63144444,24.6444444 L4.66111111,24.6444444 Z M16,24.0377778 C17.0992921,24.0377778 17.9904444,23.1466254 17.9904444,22.0473333 C17.9904444,20.9480412 17.0992921,20.0568889 16,20.0568889 C14.9007079,20.0568889 14.0095556,20.9480412 14.0095556,22.0473333 C14.0095556,23.1466254 14.9007079,24.0377778 16,24.0377778 Z M13.5141111,24.6444444 C12.7167778,24.6444444 12.0696667,25.2915556 12.0696667,26.0888889 L12.0696667,27.6835556 L13.595,27.6835556 L13.595,29.5555556 L18.4064444,29.5555556 L18.4064444,27.6821111 L19.9332222,27.6821111 L19.9332222,26.0888889 C19.9332222,25.2915556 19.2832222,24.6444444 18.4887778,24.6444444 L13.5141111,24.6444444 Z M24.853,24.0363333 C25.9514944,24.0363333 26.842,23.1458277 26.842,22.0473333 C26.842,20.948839 25.9514944,20.0583333 24.853,20.0583333 C23.7545056,20.0583333 22.864,20.948839 22.864,22.0473333 C22.864,23.1458277 23.7545056,24.0363333 24.853,24.0363333 Z M22.37,24.6444444 C21.5726667,24.6444444 20.9255556,25.2915556 20.9255556,26.0888889 L20.9255556,27.6835556 L22.4508889,27.6835556 L22.4508889,29.5555556 L27.2608889,29.5555556 L27.2608889,27.6821111 L28.7876667,27.6821111 L28.7876667,26.0888889 C28.7862222,25.2915556 28.1362222,24.6444444 27.3417778,24.6444444 L22.37,24.6444444 Z M4.44444444,2.11111111 C3.64566667,2.11111111 3,2.75822222 3,3.55555556 L3,16.0514444 C3,16.8487778 3.64566667,17.4958889 4.44444444,17.4958889 L24.0354444,17.4958889 L24.0354444,14.2516667 L19.0578889,10.8774444 L20.0314444,9.90388889 L24.918,12.449 L29,12.449 L29,3.55555556 C29,2.75822222 28.3543333,2.11111111 27.5555556,2.11111111 L4.44444444,2.11111111 Z M24.6392222,9.79266667 C24.6392222,8.70788889 25.516,7.82822222 26.6022222,7.82822222 C27.687,7.82822222 28.5666667,8.70788889 28.5666667,9.79266667 C28.5666667,10.8774444 27.687,11.7571111 26.6022222,11.7571111 C25.516,11.7571111 24.6392222,10.8774444 24.6392222,9.79266667 Z" id="eve"></path>
            </g>
        </g>
    </g>
</svg>