<?xml version="1.0" encoding="UTF-8"?>
<svg width="32px" height="32px" viewBox="0 0 32 32" version="1.1" xmlns="http://www.w3.org/2000/svg" xmlns:xlink="http://www.w3.org/1999/xlink">
    <!-- Generator: Sketch 39.1 (31720) - http://www.bohemiancoding.com/sketch -->
    <title>family</title>
    <desc>Created with Sketch.</desc>
    <defs></defs>
    <g id="Ãtomos" stroke="none" stroke-width="1" fill="none" fill-rule="evenodd">
        <g id="03_Iconos" transform="translate(-696.000000, -1352.000000)" fill="#5D5D5D">
            <g id="ico-familia" transform="translate(696.000000, 1352.000000)">
                <path d="M10.2576267,5.57578172 C10.2576267,5.74248158 10.3866846,5.87153953 10.5533845,5.87153953 L10.5587619,5.87153953 C10.6179135,6.6566421 11.2793355,7.28042223 12.0805703,7.28042223 C12.8818051,7.28042223 13.5378497,6.6566421 13.5970013,5.87153953 L13.6023787,5.87153953 C13.7690786,5.87153953 13.903514,5.74248158 13.903514,5.57578172 C13.903514,5.45210118 13.8282302,5.34993029 13.7260593,5.30153356 C13.7852108,5.12407887 13.8174753,4.93586935 13.8174753,4.74228241 C13.8174753,3.77972515 13.0377502,3 12.0805703,3 C11.1180131,3 10.3382879,3.77972515 10.3382879,4.74228241 C10.3382879,4.93586935 10.3705524,5.12407887 10.429704,5.30153356 C10.3275331,5.34993029 10.2576267,5.45210118 10.2576267,5.57578172 Z M16.2480668,12.0286795 C16.2480668,9.94224258 15.161829,8.49034057 13.6023787,8.49034057 L13.0431276,8.49034057 L12.0805703,11.0069707 L11.1180131,8.49034057 L10.5533845,8.49034057 C8.9939342,8.49034057 7.90769639,9.94224258 7.90769639,12.0233021 C7.90231898,12.1846246 7.83779,15.8090022 8.15505748,17.4383589 C8.39166373,18.6375224 8.82185692,18.9870544 9.1391244,19.073093 L9.55856276,29.7633937 C9.56394017,29.8978291 9.67148847,30 9.80592384,30 L11.2363162,30 C11.3653741,30 11.4729224,29.8978291 11.4836773,29.7687712 L11.9138705,20.654053 L12.0805703,20.4658435 L12.2472702,20.654053 L12.6774634,29.7687712 C12.6828408,29.8978291 12.7903891,30 12.919447,30 L14.3552168,30 C14.4842748,30 14.5918231,29.8978291 14.5972005,29.7633937 L15.0166388,19.073093 C15.3285289,18.9978092 15.8017414,18.6697869 16.0007058,17.4329815 C16.2695765,15.7982474 16.2534443,12.1846246 16.2480668,12.0286795 Z M30.2454777,19.0193189 C30.2454777,17.7663812 29.5894331,16.89524 28.6537629,16.89524 L28.4010244,16.89524 L27.7449798,17.7018522 L27.0835578,16.89524 L26.8308193,16.89524 C25.8951491,16.89524 25.2444819,17.7663812 25.2444819,19.0139414 C25.2391045,19.1107349 25.362785,21.3853814 25.5509945,22.3640709 C25.6961847,23.0846445 25.9543007,23.2943637 26.1425102,23.3427604 L26.1425102,29.8601872 C26.1478876,29.935471 26.2124166,30 26.2877004,30 L27.6105444,30 C27.6858282,30 27.7503572,29.9408484 27.7557346,29.8601872 L27.7557346,24.2945628 L27.7664895,24.1762597 L27.7557346,24.2945628 L27.7557346,29.8601872 C27.761112,29.9408484 27.825641,30 27.9009248,30 L29.2237689,30 C29.2990527,30 29.3635817,29.935471 29.3689591,29.8601872 L29.3689591,23.3427604 C29.5517912,23.2943637 29.8367942,23.1007767 29.9604747,22.3586935 C30.1217972,21.380004 30.2454777,19.1107349 30.2454777,19.0193189 Z M23.1634223,15.7659829 C23.2171965,15.5186218 23.2763481,15.2873929 23.3570093,14.9808803 C23.5129543,14.3786098 23.7495606,13.4752041 24.1743763,11.5931089 C24.3948503,10.1627166 23.9915442,9.33997212 23.6205026,8.90440151 C23.2655932,8.49034057 22.7870033,8.25373432 22.303036,8.25373432 L22.0718071,8.25373432 L20.7274534,11.52858 L19.3830997,8.25373432 L19.2002676,8.25373432 C18.700168,8.25373432 18.2108233,8.49034057 17.8559139,8.8990241 C17.4794948,9.32383987 17.0815661,10.1412069 17.2859079,11.6092412 C17.7322333,13.6365266 17.9903493,14.5668194 18.1570491,15.1852221 L18.3022393,15.7229636 L17.0761887,21.095001 C17.0600565,21.1649074 17.0761887,21.2455686 17.1245855,21.3047202 C17.1676048,21.3638717 17.2428886,21.3961362 17.312795,21.3961362 L18.3667683,21.3961362 L18.6947906,29.7687712 C18.700168,29.8978291 18.8077163,30 18.9421517,30 L19.8831993,30 C20.0176347,30 20.125183,29.8978291 20.1305604,29.7687712 L20.5231116,21.3961362 L20.9371726,21.3961362 L21.3297239,29.7687712 C21.3351013,29.8978291 21.4426496,30 21.577085,30 L22.5181326,30 C22.6525679,30 22.7601162,29.8978291 22.7654936,29.7687712 L23.093516,21.3961362 L24.1421118,21.3961362 C24.2765472,21.3961362 24.3894729,21.2832105 24.3894729,21.1487751 C24.3894729,21.1111332 24.3787181,21.0788688 24.3679633,21.0466043 L23.1634223,15.7659829 Z M18.6517713,7.45787692 C18.9098872,7.45787692 19.2647966,7.40410277 19.4798932,7.14060944 L19.6035737,6.97390958 C19.8563122,7.47938658 20.3564118,7.82891854 20.7274534,7.82891854 C21.1307595,7.82891854 21.6093495,7.47938658 21.8513331,6.97928699 C21.888975,7.02768373 21.9266169,7.08145788 21.9750137,7.14060944 C22.1847328,7.40410277 22.5396422,7.45787692 22.7977581,7.45787692 C23.0397418,7.45787692 23.4968221,7.38797052 23.4968221,7.25891257 C23.4968221,7.24278032 23.4914447,7.199761 23.4322931,7.18362876 C23.3946512,7.17825134 23.3623867,7.17287393 23.2440836,7.18362876 C23.0988934,7.18362876 22.9590806,6.98466441 22.8300226,6.68352918 C22.8461549,6.68352918 22.8622871,6.68890659 22.8837968,6.68890659 C23.055874,6.68890659 23.2064417,6.60824537 23.2817255,6.55984864 C23.3247448,6.53296156 23.469935,6.42541326 23.469935,6.3286198 C23.469935,6.26409082 23.4107834,6.20493926 23.2602158,6.25333599 L23.2387062,6.25333599 C22.9913451,6.25333599 22.6256809,5.28540131 22.4374713,4.56482772 L22.4267165,4.5218084 L22.4213391,4.51105357 C22.238507,3.74208325 21.5501979,3.16132245 20.7274534,3.16132245 C19.8993315,3.16132245 19.2110224,3.74208325 19.0281903,4.51105357 L19.0281903,4.5218084 L19.0174355,4.56482772 C18.8238486,5.28540131 18.4635618,6.25333599 18.2162007,6.25333599 L18.194691,6.25333599 C18.038746,6.20493926 17.9795944,6.26409082 17.9795944,6.3286198 C17.9795944,6.45230034 18.2807297,6.68890659 18.5711101,6.68890659 C18.5872423,6.68890659 18.6033745,6.68352918 18.6195068,6.68352918 C18.4850714,6.98466441 18.3452586,7.18362876 18.194691,7.18362876 L18.0978975,7.17825134 C18.0602556,7.17825134 17.9580848,7.17825134 17.9580848,7.25891257 C17.9580848,7.38797052 18.4097876,7.45787692 18.6517713,7.45787692 Z M26.8308193,15.4272057 C26.8684612,15.9004182 27.2610125,16.2714599 27.7449798,16.2714599 C28.2235697,16.2714599 28.616121,15.9004182 28.6537629,15.4272057 C28.7559338,15.4272057 28.836595,15.3465445 28.836595,15.249751 C28.836595,15.1798447 28.7935757,15.1153157 28.7290467,15.0884286 C28.7666886,14.9808803 28.7881983,14.8679546 28.7881983,14.7496515 C28.7881983,14.4216292 28.6322533,14.1312488 28.3902696,13.9376618 C28.4655534,13.862378 28.5569694,13.7817168 28.6752726,13.7118104 C28.6752726,13.7118104 28.4547986,13.7333201 28.2719665,13.8301135 C28.2181923,13.5719976 28.0837569,13.356901 27.7503572,13.3730333 C27.7503572,13.3730333 27.8794152,13.4913364 28.0030957,13.7440749 C27.6535638,13.5020912 27.1857287,13.3837881 26.7447806,13.926907 C26.7447806,13.926907 26.9222353,13.8946425 27.1427093,13.9000199 C26.8738386,14.0882294 26.7017613,14.3947421 26.7017613,14.7496515 C26.7017613,14.8679546 26.7178936,14.9808803 26.7555355,15.0884286 C26.6910065,15.1153157 26.6479872,15.1798447 26.6479872,15.249751 C26.6479872,15.3465445 26.7286484,15.4272057 26.8308193,15.4272057 Z M6.58485234,19.0193189 C6.58485234,17.7663812 5.92880773,16.89524 4.99313754,16.89524 L4.74039904,16.89524 L4.08435443,17.7018522 L3.4229324,16.89524 L3.1701939,16.89524 C2.23452372,16.89524 1.58385652,17.7663812 1.58385652,19.0139414 C1.57847911,19.1107349 1.70215965,21.3853814 1.89036917,22.3640709 C2.03555937,23.0846445 2.29367528,23.2943637 2.4818848,23.3427604 L2.4818848,29.8601872 C2.48726222,29.935471 2.5517912,30 2.627075,30 L3.94991906,30 C4.02520287,30 4.08973184,29.9408484 4.09510926,29.8601872 L4.09510926,24.2945628 L4.10586409,24.1762597 L4.09510926,24.2945628 L4.09510926,29.8601872 C4.10048667,29.9408484 4.16501565,30 4.24029946,30 L5.56314352,30 C5.63842732,30 5.7029563,29.935471 5.70833372,29.8601872 L5.70833372,23.3427604 C5.89116582,23.2943637 6.17616881,23.1007767 6.29984935,22.3586935 C6.4611718,21.380004 6.58485234,19.1107349 6.58485234,19.0193189 Z M3.1701939,15.4272057 C3.20783581,15.9004182 3.60038709,16.2714599 4.08435443,16.2714599 C4.56294435,16.2714599 4.95549564,15.9004182 4.99313754,15.4272057 C5.09530842,15.4272057 5.17596965,15.3465445 5.17596965,15.249751 C5.17596965,15.1798447 5.13295033,15.1153157 5.06842135,15.0884286 C5.10606325,14.9808803 5.12757291,14.8679546 5.12757291,14.7496515 C5.12757291,14.4216292 4.97162788,14.1312488 4.72964421,13.9376618 C4.80492802,13.862378 4.89634407,13.7817168 5.0146472,13.7118104 C5.0146472,13.7118104 4.79417319,13.7333201 4.61134109,13.8301135 C4.55756694,13.5719976 4.42313157,13.356901 4.08973184,13.3730333 C4.08973184,13.3730333 4.2187898,13.4913364 4.34247034,13.7440749 C3.99293838,13.5020912 3.52510328,13.3837881 3.08415527,13.926907 C3.08415527,13.926907 3.26160996,13.8946425 3.48208397,13.9000199 C3.21321322,14.0882294 3.04113595,14.3947421 3.04113595,14.7496515 C3.04113595,14.8679546 3.05726819,14.9808803 3.0949101,15.0884286 C3.03038112,15.1153157 2.9873618,15.1798447 2.9873618,15.249751 C2.9873618,15.3465445 3.06802302,15.4272057 3.1701939,15.4272057 Z" id="familia"></path>
            </g>
        </g>
    </g>
</svg>