<?xml version="1.0" encoding="UTF-8" standalone="no"?>
<svg width="32px" height="32px" viewBox="0 0 32 32" version="1.1" xmlns="http://www.w3.org/2000/svg" xmlns:xlink="http://www.w3.org/1999/xlink">
    <!-- Generator: Sketch 3.7.2 (28276) - http://www.bohemiancoding.com/sketch -->
    <title>filter</title>
    <desc>Created with Sketch.</desc>
    <defs></defs>
    <g id="Ãtomos" stroke="none" stroke-width="1" fill="none" fill-rule="evenodd">
        <g id="03_Iconos" transform="translate(-458.000000, -529.000000)" fill="#666666">
            <g id="ico-filter" transform="translate(458.000000, 529.000000)">
                <path d="M16,3 C8.82030397,3 3,4.81881148 3,7.06247867 L3,9.49997563 L12.7499878,19.2499634 L12.7499878,27.3749695 C12.7499878,28.2724072 14.2050272,28.9999513 16,28.9999513 C17.7948753,28.9999513 19.2500122,28.2724072 19.2500122,27.3749695 L19.2500122,19.2499634 L29,9.49997563 L29,7.06247867 C28.9999513,4.81881148 23.1796473,3 16,3 L16,3 Z M5.3964495,6.52481559 C6.00440999,6.17800853 6.85850893,5.84889769 7.86641392,5.57297303 C10.0994049,4.9616488 12.9878875,4.62498172 16,4.62498172 C19.0120637,4.62498172 21.9006439,4.9616488 24.1335861,5.57297303 C25.1414911,5.84889769 25.9955413,6.17800853 26.6035505,6.52481559 C27.0045675,6.75345281 27.2211635,6.94694132 27.3220271,7.06247867 C27.2211635,7.17806478 27.00447,7.37140704 26.6035505,7.60014175 C25.9955413,7.94694882 25.1414911,8.27605965 24.1335861,8.55198431 C21.9006926,9.16330855 19.0121125,9.49997563 16,9.49997563 C12.9878875,9.49997563 10.0994049,9.16330855 7.86641392,8.55198431 C6.85850893,8.2760109 6.00440999,7.94690007 5.3964495,7.60014175 C4.99548126,7.37145579 4.77883653,7.17806478 4.67792415,7.06247867 C4.77883653,6.94694132 4.99548126,6.75355031 5.3964495,6.52481559 L5.3964495,6.52481559 Z" id="filter"></path>
            </g>
        </g>
    </g>
</svg>