<?xml version="1.0" encoding="UTF-8"?>
<svg width="32px" height="32px" viewBox="0 0 32 32" version="1.1" xmlns="http://www.w3.org/2000/svg" xmlns:xlink="http://www.w3.org/1999/xlink">
    <!-- Generator: Sketch 41.1 (35376) - http://www.bohemiancoding.com/sketch -->
    <title>food</title>
    <desc>Created with Sketch.</desc>
    <defs></defs>
    <g id="Ãtomos" stroke="none" stroke-width="1" fill="none" fill-rule="evenodd">
        <g id="Iconos" transform="translate(-67.000000, -4643.000000)">
            <g id="ico-food" transform="translate(67.000000, 4643.000000)">
                <g id="icon-food" transform="translate(8.529999, 3.360428)">
                    <path d="M14.6854253,0.481433055 C11.3200289,0.481433055 9.83925442,7.13818723 9.86617759,10.3756986 C9.88704305,13.3567668 10.404641,13.7680182 11.8382999,13.7680182 L11.8382999,23.8776692 C11.8382999,24.8334418 12.4709944,25.6074829 13.3190744,25.6074829 C14.1671543,25.6074829 14.7123485,24.8334418 14.7123485,23.8776692 C14.7123485,23.8776692 14.7062908,0.481433055 14.6854253,0.481433055 Z M2.14663122,7.88530524 L5.73414383,7.88530524 C6.7296281,7.88530524 7.53126554,8.54492295 7.53126554,9.36607968 L7.53126554,10.8401233 C7.53126554,11.6545493 6.7296281,12.314167 5.73414383,12.314167 L2.14663122,12.314167 C1.15653158,12.314167 0.348836435,11.6545493 0.348836435,10.8401233 L0.348836435,9.36607968 C0.348836435,8.54492295 1.15653158,7.88530524 2.14663122,7.88530524 Z" id="Combined-Shape" fill="#666666"></path>
                    <path d="M3.94307984,7.88530524 L3.222885,7.88530524 C4.01711856,7.88530524 5.37673873,8.47088423 5.37673873,9.19040599 L5.37673873,24.3017091 C5.37673873,25.021904 4.73058261,25.6074829 3.94307984,25.6074829 C3.14951936,25.6074829 2.50269016,25.021904 2.50269016,24.3017091 L2.50269016,9.19040599 C2.50269016,8.47088423 3.14951936,7.88530524 3.94307984,7.88530524" id="Fill-3" fill="#5E5E5E"></path>
                    <polygon id="Fill-5" fill="#5E5E5E" points="0.348836435 1.53816754 1.78922612 1.53816754 1.78922612 9.36607968 0.348836435 9.36607968"></polygon>
                    <polygon id="Fill-6" fill="#5E5E5E" points="3.222885 1.53816754 4.65654389 1.53816754 4.65654389 7.88530524 3.222885 7.88530524"></polygon>
                    <polygon id="Fill-7" fill="#5E5E5E" points="6.09760665 1.53816754 7.53126554 1.53816754 7.53126554 9.36607968 6.09760665 9.36607968"></polygon>
                </g>
            </g>
        </g>
    </g>
</svg>