<?xml version="1.0" encoding="UTF-8"?>
<svg width="32px" height="32px" viewBox="0 0 32 32" version="1.1" xmlns="http://www.w3.org/2000/svg" xmlns:xlink="http://www.w3.org/1999/xlink">
    <!-- Generator: Sketch 41.1 (35376) - http://www.bohemiancoding.com/sketch -->
    <title>fpl</title>
    <desc>Created with Sketch.</desc>
    <defs></defs>
    <g id="Ãtomos" stroke="none" stroke-width="1" fill="none" fill-rule="evenodd">
        <g id="Iconos" transform="translate(-719.000000, -4720.000000)" fill="#666666">
            <g id="ico-fpl" transform="translate(719.000000, 4720.000000)">
                <path d="M20.333,12.8985 C20.306,12.8445 20.25065,12.8175 20.198,12.831 C18.5375,13.101 17.87465,14.6535 17.64515,15.477 C16.87565,14.1 16.56515,12.642 16.56515,10.563 C16.56515,10.5225 16.5368,10.482 16.49765,10.455 C16.45715,10.428 16.40315,10.428 16.36265,10.455 C15.0545,11.1975 14.78585,12.453 14.52665,13.668 C14.52665,14.8155 14.28365,15.6795 13.71665,16.476 C13.4345,15.4635 12.62315,14.9505 11.82665,14.4645 C11.6255,14.3295 11.41085,14.1945 11.207,14.046 C11.1665,14.019 11.099,14.019 11.0585,14.046 C11.0045,14.0865 10.991,14.1405 11.0045,14.1945 C11.3825,15.1665 11.25965,16.3005 11.1395,17.394 C10.93835,19.24485 10.721,21.16185 12.8405,22.40385 C13.2725,22.60365 13.718,22.76835 14.177,22.8885 L14.2175,22.8885 C14.2985,22.8885 14.35385,22.83585 14.35385,22.767 C14.35385,22.71165 14.3255,22.6725 14.2715,22.6455 C13.475,22.0785 13.5695,21.24015 13.66535,20.34915 C13.718,19.87665 13.77335,19.392 13.67885,18.9465 L13.718,18.96 C14.13785,19.22865 14.5415,19.48785 14.636,20.02785 C14.65085,20.0805 14.69135,20.11965 14.744,20.13585 C14.79935,20.14935 14.852,20.13585 14.88035,20.094 C15.27185,19.59585 15.43385,19.095 15.43385,18.42 C15.5405,17.88 15.6485,17.36835 16.0805,17.01735 C16.10885,17.80035 16.2155,18.69135 16.7555,19.58235 C16.78385,19.6215 16.83785,19.6485 16.8905,19.635 C16.94585,19.635 16.985,19.59585 16.9985,19.5405 C17.05385,19.28535 17.255,18.5415 17.86385,18.25935 C17.5655,18.852 17.83685,19.51485 18.07985,20.121 C18.18785,20.39235 18.29585,20.661 18.3485,20.904 C18.36335,20.9985 18.37685,21.08085 18.36335,21.18885 C18.41735,21.76935 18.0542,22.29585 17.31035,22.74135 C17.25635,22.7805 17.228,22.84935 17.25635,22.902 C17.2847,22.94115 17.32385,22.98435 17.3792,22.98435 L17.4062,22.97085 L17.7572,22.87635 C19.9982,21.8085 21.0782,20.51385 20.9567,19.04235 C20.9702,18.82635 20.9567,18.6225 20.9027,18.4335 C20.82035,17.93535 20.60435,17.4075 20.37485,16.85535 C19.8497,15.53235 19.2962,14.16885 20.3222,13.03485 C20.36,12.993 20.36,12.939 20.333,12.8985 Z M2,6 L2,7.3905 L2,8.781 L2,27.30165 L4.8485,27.30165 L4.8485,8.781 L26.15285,8.781 L26.15285,27.30165 L29,27.30165 L29,8.781 L29,7.3905 L29,6 L2,6 Z M23.4245,20.0535 L16.71095,24.2871 L7.6295,21.59115 L6.995,23.72415 L14.3714,25.9233 L15.75515,27.6 L17.10515,26.73735 L17.282,26.79 L17.34275,26.58615 L24.7205,21.876 L23.4245,20.0535 Z" id="fpl"></path>
            </g>
        </g>
    </g>
</svg>