<?xml version="1.0" encoding="UTF-8"?>
<svg width="32px" height="32px" viewBox="0 0 32 32" version="1.1" xmlns="http://www.w3.org/2000/svg" xmlns:xlink="http://www.w3.org/1999/xlink">
    <!-- Generator: Sketch 39.1 (31720) - http://www.bohemiancoding.com/sketch -->
    <title>friends</title>
    <desc>Created with Sketch.</desc>
    <defs></defs>
    <g id="Ãtomos" stroke="none" stroke-width="1" fill="none" fill-rule="evenodd">
        <g id="03_Iconos" transform="translate(-523.000000, -1352.000000)" fill="#5D5D5D">
            <g id="ico-con-amigos" transform="translate(523.000000, 1352.000000)">
                <path d="M13.6712,5.0968 C13.6712,5.2648 13.8112,5.4048 13.9848,5.4048 L13.9904,5.4048 C14.052,6.2224 14.7352,6.8664 15.5696,6.8664 C16.404,6.8664 17.0872,6.2224 17.1488,5.4048 L17.1544,5.4048 C17.328,5.4048 17.4624,5.2648 17.4624,5.0968 C17.4624,4.968 17.3896,4.8616 17.2832,4.8112 C17.3448,4.632 17.3784,4.436 17.3784,4.2288 C17.3784,3.232 16.5664,2.42 15.5696,2.42 C14.5728,2.42 13.7608,3.232 13.7608,4.2288 C13.7608,4.436 13.7944,4.632 13.856,4.8112 C13.7496,4.8616 13.6712,4.968 13.6712,5.0968 Z M6.2232,8.5352 L6.2288,8.5352 C6.2736,9.1456 6.7888,9.6272 7.4104,9.6272 C8.0376,9.6272 8.5472,9.1456 8.592,8.5352 L8.5976,8.5352 C8.7264,8.5352 8.8328,8.4344 8.8328,8.3056 C8.8328,8.2104 8.7768,8.1264 8.6928,8.0928 C8.7376,7.9528 8.7656,7.8072 8.7656,7.656 C8.7656,6.9056 8.1552,6.3008 7.4104,6.3008 C6.66,6.3008 6.0552,6.9056 6.0552,7.656 C6.0552,7.8072 6.0832,7.9528 6.128,8.0928 C6.0496,8.1264 5.9936,8.2104 5.9936,8.3056 C5.9936,8.4344 6.0944,8.5352 6.2232,8.5352 Z M22.5472,8.5352 L22.5528,8.5352 C22.5976,9.1456 23.1128,9.6272 23.7344,9.6272 C24.3616,9.6272 24.8712,9.1456 24.916,8.5352 L24.9216,8.5352 C25.0504,8.5352 25.1568,8.4344 25.1568,8.3056 C25.1568,8.2104 25.0952,8.1264 25.0168,8.0928 C25.0616,7.9528 25.0896,7.8072 25.0896,7.656 C25.0896,6.9056 24.4848,6.3008 23.7344,6.3008 C22.984,6.3008 22.3792,6.9056 22.3792,7.656 C22.3792,7.8072 22.4072,7.9528 22.452,8.0928 C22.3736,8.1264 22.3176,8.2104 22.3176,8.3056 C22.3176,8.4344 22.4184,8.5352 22.5472,8.5352 Z M17.1544,8.16 L16.572,8.16 L15.5696,10.6016 L14.5672,8.16 L13.9848,8.16 C12.3664,8.16 11.2352,9.672 11.2352,11.828 C11.2296,11.996 11.1624,15.7312 11.4928,17.428 C11.7392,18.6768 12.1872,19.0352 12.512,19.1248 L12.9488,29.7536 C12.96,29.8936 13.0664,30 13.2064,30 L14.696,30 C14.8304,30 14.9424,29.8936 14.948,29.7592 L15.396,20.7712 L15.5696,20.5696 L15.7432,20.7712 L16.1912,29.7592 C16.1968,29.8936 16.3088,30 16.4432,30 L17.9328,30 C18.0672,30 18.1848,29.8936 18.1904,29.7536 L18.6272,19.1248 C18.9464,19.0464 19.4392,18.7048 19.6464,17.4224 C19.9264,15.72 19.904,12.0016 19.904,11.8336 C19.904,9.672 18.7728,8.16 17.1544,8.16 Z M8.5976,10.4 L8.1608,10.4 L7.4104,12.2256 L6.66,10.4 L6.2232,10.4 C5.0136,10.4 4.1624,11.5312 4.1624,13.1496 C4.1624,13.2728 4.1064,16.2688 4.3584,17.54 C4.5432,18.4752 4.8736,18.744 5.12,18.8112 L5.4504,27.0152 C5.456,27.1216 5.54,27.2 5.6408,27.2 L6.7552,27.2 C6.856,27.2 6.94,27.1216 6.9456,27.0208 L7.2816,20.0432 L7.4104,19.8976 L7.5392,20.0432 L7.8752,27.0208 C7.8808,27.1216 7.9648,27.2 8.0656,27.2 L9.18,27.2 C9.2864,27.2 9.3704,27.1216 9.3704,27.0152 L9.7008,18.8112 C9.9416,18.7552 10.3056,18.4976 10.468,17.5344 C10.6752,16.2632 10.6584,13.2784 10.6584,13.1552 C10.6584,11.5312 9.8128,10.4 8.5976,10.4 Z M26.9824,13.1552 C26.9824,11.5312 26.1368,10.4 24.9216,10.4 L24.4848,10.4 L23.7344,12.1864 L22.984,10.4 L22.5472,10.4 C21.3376,10.4 20.4864,11.5312 20.4864,13.1496 C20.4864,13.2728 20.4304,16.2688 20.6824,17.54 C20.8672,18.4752 21.1976,18.744 21.444,18.8112 L21.7744,27.0152 C21.78,27.1216 21.864,27.2 21.9648,27.2 L23.0792,27.2 C23.18,27.2 23.264,27.1216 23.2696,27.0208 L23.6056,20.0432 L23.7344,19.8976 L23.8632,20.0432 L24.1992,27.0208 C24.2048,27.1216 24.2888,27.2 24.3896,27.2 L25.504,27.2 C25.6104,27.2 25.6944,27.1216 25.6944,27.0152 L26.0248,18.8112 C26.2656,18.7552 26.6296,18.4976 26.792,17.5344 C26.9992,16.2632 26.9824,13.2784 26.9824,13.1552 Z" id="con-amigos"></path>
            </g>
        </g>
    </g>
</svg>