<?xml version="1.0" encoding="UTF-8"?>
<svg width="32px" height="32px" viewBox="0 0 32 32" version="1.1" xmlns="http://www.w3.org/2000/svg" xmlns:xlink="http://www.w3.org/1999/xlink">
    <!-- Generator: Sketch 41.1 (35376) - http://www.bohemiancoding.com/sketch -->
    <title>games</title>
    <desc>Created with Sketch.</desc>
    <defs></defs>
    <g id="Ãtomos" stroke="none" stroke-width="1" fill="none" fill-rule="evenodd">
        <g id="Iconos" transform="translate(-142.000000, -4880.000000)" fill="#666666">
            <g id="ico-games" transform="translate(130.000000, 4880.000000)">
                <path d="M14,15.9992798 C14,22.6292095 17.1387202,28 21.0039961,28 C24.491463,28 27.2509212,24.2865143 27.7885723,18.5526768 C27.1201412,18.4647964 26.6130053,17.9484947 26.2192122,17.4745166 C25.9009809,21.1899857 24.2139187,23.5353863 22.1214386,23.5353863 C19.7964606,23.5353863 17.9219472,20.034576 17.9219472,15.7284352 C17.9219472,11.4064472 19.7964606,7.90563684 22.1214386,7.90563684 C24.1281852,7.90563684 25.79781,10.5262023 26.2192122,14.0284533 C26.5970211,13.5530346 27.1492034,13.2072755 27.7885723,13.0920225 C27.0329545,7.86241695 24.2720432,4.00000029 21.0025429,4.00000029 C17.1387202,3.99855963 14,9.37223145 14,15.9992798 Z M20.1611916,15.7269946 C20.1611916,17.873582 21.1623852,19.6311904 22.3975297,19.6311904 C23.5324096,19.6311904 24.4624007,18.1746805 24.622243,16.2730057 L27.6563392,16.2730057 C27.8743059,17.5263823 29.3448544,18.5060329 31.3501479,18.5060329 C32.9180549,18.5060329 34.2563703,17.9312085 34.8942862,17.0797768 C35.4900618,18.3187467 37.4677461,19.6311904 38.3526909,20.0504233 C40.1690799,20.9004143 42,19.4856835 42,18.0925627 C42,17.1690979 41.2734444,16.3623268 40.1995952,15.930128 C41.2734444,15.4979292 42,14.6925988 42,13.769134 C42,12.3860978 40.2591728,11.1759411 38.3526909,11.8112734 C36.7426436,12.3587252 35.2299548,13.6121017 34.8201775,14.8222584 C34.1677306,14.0298939 32.8584773,13.4968487 31.3457886,13.4968487 C29.6456485,13.4968487 28.1925372,14.1869262 27.6563392,15.1665768 L24.6193368,15.1665768 C24.4594945,13.2663427 23.5295033,11.8112734 22.3946235,11.8112734 C21.1638383,11.8083921 20.1611916,13.5660005 20.1611916,15.7269946 Z" id="games"></path>
            </g>
        </g>
    </g>
</svg>