<?xml version="1.0" encoding="UTF-8"?>
<svg width="32px" height="32px" viewBox="0 0 32 32" version="1.1" xmlns="http://www.w3.org/2000/svg" xmlns:xlink="http://www.w3.org/1999/xlink">
    <!-- Generator: Sketch 41.1 (35376) - http://www.bohemiancoding.com/sketch -->
    <title>gard</title>
    <desc>Created with Sketch.</desc>
    <defs></defs>
    <g id="Ãtomos" stroke="none" stroke-width="1" fill="none" fill-rule="evenodd">
        <g id="Iconos" transform="translate(-501.000000, -4800.000000)" fill="#666666">
            <g id="ico-gard" transform="translate(489.000000, 4800.000000)">
                <g id="gard" transform="translate(17.000000, 1.000000)">
                    <path d="M14.2935,16.695 C15.315,16.395 17.55,13.605 19.1385,14.22 C19.335,14.295 17.9985,16.68 15.3735,17.4135 C21.06,19.695 24,12.495 24,12.495 C15.615,11.385 14.445,15.735 14.2935,16.695 Z M12.975,17.565 C12.975,16.2885 12.81,14.1 12.495,13.02 C12.75,13.095 13.02,13.125 13.2885,13.125 C14.9085,13.125 16.215,11.865 16.215,10.305 C16.215,8.865 15.0735,7.665 13.62,7.515 L13.62,7.5 C13.62,7.14 13.59,6.795 13.515,6.465 C14.3565,5.97 14.925,5.085 14.925,4.065 C14.925,2.505 13.605,1.245 12,1.245 C10.935,1.245 10.02,1.8 9.51,2.61 C9.15,2.535 8.805,2.505 8.43,2.505 L8.4135,2.505 C8.25,1.095 7.02,0 5.52,0 C3.9,0 2.595,1.26 2.595,2.805 C2.595,3.78 3.09,4.62 3.855,5.13 C3.6585,5.49 3.495,5.88 3.39,6.285 C3.24,6.27 3.075,6.255 2.925,6.255 C1.305,6.255 0,7.515 0,9.06 C0,10.62 1.305,11.88 2.925,11.88 C3.675,11.88 4.365,11.595 4.875,11.145 C5.025,11.28 5.175,11.4 5.325,11.505 C4.845,12.015 4.5435,12.69 4.5435,13.44 C4.5435,14.985 5.85,16.245 7.455,16.245 C9.0735,16.245 10.3785,14.985 10.3785,13.44 C10.3785,13.005 10.2735,12.6 10.095,12.24 L10.56,12.06 C10.86,13.26 11.025,15.57 11.025,16.935 C11.025,18.375 10.845,19.755 10.5,21 L0.645,21 L2.355,24 L21,24 L22.7115,21 L12.525,21 C12.81,19.95 12.975,18.78 12.975,17.565 Z M5.19,30 L18.1635,30 L20.43,25.5 L2.925,25.5 L5.19,30 Z M8.43,10.62 C7.005,10.62 5.8365,9.51 5.8365,8.13 C5.8365,6.75 7.005,5.625 8.43,5.625 C9.87,5.625 11.0235,6.75 11.0235,8.13 C11.0235,9.51 9.87,10.62 8.43,10.62 Z" id="Combined-Shape"></path>
                </g>
            </g>
        </g>
    </g>
</svg>