<?xml version="1.0" encoding="UTF-8"?>
<svg width="32px" height="32px" viewBox="0 0 32 32" version="1.1" xmlns="http://www.w3.org/2000/svg" xmlns:xlink="http://www.w3.org/1999/xlink">
    <!-- Generator: Sketch 39.1 (31720) - http://www.bohemiancoding.com/sketch -->
    <title>gastronomy</title>
    <desc>Created with Sketch.</desc>
    <defs></defs>
    <g id="Ãtomos" stroke="none" stroke-width="1" fill="none" fill-rule="evenodd">
        <g id="03_Iconos" transform="translate(-738.000000, -1263.000000)" fill="#666666">
            <g id="ico-gastronomia" transform="translate(738.000000, 1263.000000)">
                <path d="M13.7185327,3.23936942 C13.407778,3.23936942 13.0970233,3.48899206 13.0970233,3.79974678 L13.0970233,8.25729395 L13.0817403,8.25729395 C13.0257025,8.50691659 12.5926837,8.71069018 12.2615516,8.71069018 C11.9151365,8.71069018 11.6043818,8.48653923 11.5738158,8.21144489 L11.5687214,8.21144489 L11.5687214,3.79974678 C11.5687214,3.48899206 11.3955139,3.23936942 11.0898535,3.23936942 C10.7790988,3.23936942 10.5498535,3.48899206 10.5498535,3.79974678 L10.5498535,8.21144489 L10.5396648,8.21144489 C10.5090988,8.48653923 10.1474007,8.71069018 9.80098557,8.71069018 C9.46985349,8.71069018 9.0979667,8.50691659 9.03683462,8.25729395 L9.0215516,8.25729395 L9.0215516,3.79974678 C9.0215516,3.48899206 8.77192896,3.23936942 8.46117424,3.23936942 C8.16060821,3.23936942 8.00268368,3.48899206 8.00268368,3.79974678 L8.00268368,9.28125621 L8.00777802,9.30672791 L8.00268368,9.33729395 L8.00268368,10.9827656 C8.00268368,11.7774826 8.73626858,13.0103128 9.53098557,13.1223883 L9.53098557,28.1608789 C9.53098557,28.8689921 9.86721198,29.4395581 10.5855139,29.4395581 C11.2936271,29.4395581 12.0781554,28.8689921 12.0781554,28.1608789 L12.0781554,13.1223883 C12.8728724,13.0103128 14.1158912,11.7774826 14.1158912,10.9827656 L14.1158912,9.33729395 L14.171929,9.30672791 L14.1158912,9.28125621 L14.1158912,3.79974678 C14.1158912,3.48899206 14.0292875,3.23936942 13.7185327,3.23936942 Z M24.3300422,8.20125621 C24.3300422,6.10748263 22.603061,2.51597319 20.4990988,2.51597319 C18.3951365,2.51597319 16.8770233,6.10748263 16.8770233,8.20125621 C16.8770233,9.77540716 17.8449478,11.1254072 19.2102308,11.7010675 L19.2102308,27.9672939 C19.2102308,28.823143 19.841929,29.5159732 20.5907969,29.5159732 C21.3396648,29.5159732 21.7574007,28.823143 21.7574007,27.9672939 L21.7574007,11.7876713 C23.2551365,11.273143 24.3300422,9.86710527 24.3300422,8.20125621 Z" id="gastronomia"></path>
            </g>
        </g>
    </g>
</svg>