<?xml version="1.0" encoding="UTF-8" standalone="no"?>
<svg width="32px" height="32px" viewBox="0 0 32 32" version="1.1" xmlns="http://www.w3.org/2000/svg" xmlns:xlink="http://www.w3.org/1999/xlink">
    <!-- Generator: Sketch 39.1 (31720) - http://www.bohemiancoding.com/sketch -->
    <title>get-invoice</title>
    <desc>Created with Sketch.</desc>
    <defs></defs>
    <g id="Ãtomos" stroke="none" stroke-width="1" fill="none" fill-rule="evenodd">
        <g id="03_Iconos" transform="translate(-747.000000, -592.000000)" fill="#666666">
            <g id="ico-get-invoice" transform="translate(747.000000, 592.000000)">
                <path d="M18.7272727,9.25 L18.7272727,2 L7.81818182,2 C6.75714286,2 6,2.75329852 6,3.8125 L6,25.5625 C6,26.6077515 6.75714286,27.375 7.81818182,27.375 L10.5454545,27.375 L7.81818182,23.75 C7.62857143,23.5666575 7.54285714,22.7715091 7.81818182,21.9375 C8.2,21.4323117 8.87142857,21.0138125 9.63636364,21.03125 L10.5454545,21.03125 L10.5454545,16.5 C10.5454545,15.3316101 11.111084,14.6875 12.3636364,14.6875 L19.6363636,14.6875 C20.8388672,14.6875 21.328571,15.6575213 21.454545,16.5 L21.4545455,21.03125 L22.3636364,21.03125 C23.4714286,21.0138125 24.5147342,21.912426 24.367981,22.8635152 C24.3781102,22.9047463 24.4028209,23.4591268 24.1818182,23.75 C23.9608154,24.0408732 21.4545455,27.375 21.4545455,27.375 L24.1818182,27.375 C25.2571429,27.375 26,26.6077515 26,25.5625 L26,9.25 L18.7272727,9.25 Z M19.6363636,2.90625 L19.6363636,8.34375 L25.0909091,8.34375 L19.6363636,2.90625 Z M19.6363636,16.5 L12.3636364,16.5 L12.3636364,22.84375 L9.63636364,22.84375 L13.2727273,27.375 L16,31 L18.7272727,27.375 L22.3636364,22.84375 L19.6363636,22.84375 L19.6363636,16.5 Z" id="get-invoice"></path>
            </g>
        </g>
    </g>
</svg>