<?xml version="1.0" encoding="UTF-8" standalone="no"?>
<svg width="32px" height="32px" viewBox="0 0 32 32" version="1.1" xmlns="http://www.w3.org/2000/svg" xmlns:xlink="http://www.w3.org/1999/xlink">
    <!-- Generator: Sketch 3.8.3 (29802) - http://www.bohemiancoding.com/sketch -->
    <title>gift</title>
    <desc>Created with Sketch.</desc>
    <defs></defs>
    <g id="Ãtomos" stroke="none" stroke-width="1" fill="none" fill-rule="evenodd">
        <g id="03_Iconos" transform="translate(-103.000000, -785.000000)" fill="#666666">
            <g id="ico-gift" transform="translate(103.000000, 785.000000)">
                <path d="M27.9448864,9.46477491 L19.8392609,9.46477491 C19.9920952,9.3721062 19.6945418,9.2715321 19.8433185,9.17051881 L11.5749403,9.17051881 C11.7507673,9.2715321 11.922086,9.3721062 12.0934046,9.46477491 L4.13204747,9.46477491 C3.55001496,9.46477491 3.07663453,9.908355 3.07663453,10.4485565 L3.07663453,15.823781 C3.07663453,16.3639825 3.55001496,16.8031707 4.13204747,16.8031707 L4.40660811,16.8031707 L4.40660811,28.5562864 C4.40660811,29.1004406 4.87998854,29.5396288 5.46157021,29.5396288 L26.6149128,29.5396288 C27.1964945,29.5396288 27.6698749,29.1004406 27.6698749,28.5562864 L27.6698749,16.8031707 L27.9448864,16.8031707 C28.5309764,16.8031707 29.0048077,16.3639825 29.0048077,15.823781 L29.0048077,10.4485565 C29.0048077,9.908355 28.5309764,9.46477491 27.9448864,9.46477491 L27.9448864,9.46477491 Z M6.52058986,15.9296253 L14.135703,15.9296253 L14.135703,27.5725048 L6.52058986,27.5725048 L6.52058986,15.9296253 Z M18.0534896,15.9296253 L25.5558931,15.9296253 L25.5558931,27.5725048 L18.0534896,27.5725048 L18.0534896,15.9296253 Z" id="Fill-9"></path>
                <path d="M20.6138916,9.46477491 C22.0976012,8.53808779 23.4992581,7.33427291 23.6665191,6.02153935 C23.7476701,5.37988538 23.5898766,4.4404618 22.3721618,3.60117313 C21.7004124,3.13607281 21.0155887,2.90330306 20.3433885,2.90330306 C18.1978481,2.90330306 16.9850925,5.19542633 16.3309259,7.24204338 C15.5469177,4.63370461 14.0316495,1.27391481 11.4352705,1.27391481 C10.6778619,1.27391481 9.92045318,1.55938714 9.18964396,2.12550075 C7.74290321,3.24147799 7.59863489,4.40093486 7.73388644,5.17829799 C8.03594823,6.91265223 10.0421796,8.40633132 11.9713175,9.46477491 L20.6138916,9.46477491 Z M20.3433885,4.86603517 C20.5512251,4.86603517 20.8172198,4.97583222 21.1147732,5.18268987 C21.6016788,5.51647291 21.5746285,5.72245218 21.5656117,5.78833041 C21.4749932,6.50903826 19.9331255,7.63336008 18.1342799,8.56399989 C18.6622118,6.57930837 19.5278217,4.86603517 20.3433885,4.86603517 Z M9.82126871,4.86208248 C9.79376756,4.69914365 9.71712501,4.26917839 10.5376511,3.63630819 C10.7725379,3.45668021 11.124192,3.2370861 11.4352705,3.2370861 C12.5984339,3.2370861 13.7931559,5.90295853 14.4919556,8.4893379 C12.2963721,7.47042125 10.024146,6.02153935 9.82126871,4.86208248 Z" id="Fill-10"></path>
            </g>
        </g>
    </g>
</svg>