<?xml version="1.0" encoding="UTF-8"?>
<svg width="32px" height="32px" viewBox="0 0 32 32" version="1.1" xmlns="http://www.w3.org/2000/svg" xmlns:xlink="http://www.w3.org/1999/xlink">
    <!-- Generator: Sketch 41.1 (35376) - http://www.bohemiancoding.com/sketch -->
    <title>golf</title>
    <desc>Created with Sketch.</desc>
    <defs></defs>
    <g id="Ãtomos" stroke="none" stroke-width="1" fill="none" fill-rule="evenodd">
        <g id="Iconos" transform="translate(-719.000000, -4880.000000)" fill="#666666">
            <g id="ico-golf" transform="translate(704.000000, 4880.000000)">
                <path d="M36.4852,17.4490734 L36.4852,20.4582631 C38.1022,20.9724307 39.1172,21.7292081 39.1172,22.5549089 C39.1172,24.1056823 35.389,25.9280135 31.0546,25.9280135 C26.7356,25.9280135 22.8828,24.1056823 22.8828,22.5549089 C22.8828,21.7292081 23.8978,20.9751876 25.5148,20.4582631 L25.5148,17.4490734 C20.5238,18.4181345 17,20.7546332 17,23.4798591 C17,27.0845459 23.4302,30 31,30 C38.5684,30 45,27.0845459 45,23.4798591 C45,20.7546332 41.4748,18.4181345 36.4852,17.4490734 Z M31,22.5507735 C32.8239756,22.5507735 34.3026,21.9249733 34.3026,21.1530096 C34.3026,20.381046 32.8239756,19.7552458 31,19.7552458 C29.1760244,19.7552458 27.6974,20.381046 27.6974,21.1530096 C27.6974,21.9249733 29.1760244,22.5507735 31,22.5507735 Z M32.3706,11.0033696 L39.61,7.53652933 L29.6294,3 L29.6294,5.14627049 L29.6294,12.3156686 L29.6294,19.2011028 L32.3706,19.2011028 L32.3706,11.0033696 Z" id="golf"></path>
            </g>
        </g>
    </g>
</svg>