<?xml version="1.0" encoding="UTF-8"?>
<svg width="32px" height="32px" viewBox="0 0 32 32" version="1.1" xmlns="http://www.w3.org/2000/svg" xmlns:xlink="http://www.w3.org/1999/xlink">
    <!-- Generator: Sketch 41.1 (35376) - http://www.bohemiancoding.com/sketch -->
    <title>grill</title>
    <desc>Created with Sketch.</desc>
    <defs></defs>
    <g id="Ãtomos" stroke="none" stroke-width="1" fill="none" fill-rule="evenodd">
        <g id="Iconos" transform="translate(-285.000000, -4880.000000)" fill="#666666">
            <g id="ico-grill" transform="translate(273.000000, 4880.000000)">
                <path d="M18.06027,14.2818687 C18.1625679,17.468326 20.2231404,20.2080837 23.2043942,21.5332926 L23.1459383,21.010654 L18.2064099,28.7698264 C17.8118322,29.3803159 18.0018141,30.1248153 18.6156016,30.407725 C19.2293891,30.6757448 20.0185446,31.0613955 20.3692803,30.450906 L21.1876637,29.0378462 L28.2316065,29.0378462 L28.2316065,27.5637374 L21.9475911,27.5637374 L24.855775,23.2456411 C24.9580729,23.0833402 24.9873009,21.6985714 24.9580729,21.5184026 C25.6887724,21.6985714 26.4633138,21.7879113 27.2524692,21.7879113 C27.8078008,21.7879113 28.3631324,21.7432414 28.889236,21.6539015 L30.8621245,23.8129496 L32.5427333,22.8004305 L30.9644225,21.6836814 C34.1049687,20.4165435 36.3277565,17.5874459 36.4446684,14.2818687 L18.06027,14.2818687 L18.06027,14.2818687 Z M20.836928,15.7559775 L23.7158838,15.7559775 C23.9350937,17.8852457 25.7472283,19.0466647 28.0854666,19.4025354 C27.4716791,19.6258852 26.7979741,20.3123136 26.0979641,20.3123136 C23.2482362,20.3138026 20.9246119,18.2857863 20.836928,15.7559775 Z M30.306793,27.6588601 C30.306793,29.5095896 31.8120338,31 33.6533965,31 C35.5108345,31 37,29.5095896 37,27.6588601 C37,25.8081306 35.5093731,24.3177202 33.6533965,24.3177202 C31.8120338,24.3177202 30.306793,25.8081306 30.306793,27.6588601 Z M31.9874017,27.6588601 C31.9874017,26.7416844 32.7327152,25.9866523 33.6533965,25.9866523 C34.5740778,25.9866523 35.3325438,26.7416844 35.3325438,27.6588601 C35.3325438,28.5760358 34.5726164,29.3310679 33.6533965,29.3310679 C32.7341766,29.3310679 31.9874017,28.5760358 31.9874017,27.6588601 Z M21.9768191,12.80776 C21.9768191,12.80776 21.2753476,8.87680331 27.0771013,6.85176503 C30.9483471,5.51166617 30.4660854,1 30.4660854,1 C30.4660854,1 32.8203991,6.04770571 27.9247127,8.34076376 C24.2566014,10.0680023 25.3818786,12.80776 25.3818786,12.80776 L21.9768191,12.80776 Z M28.7723241,12.80776 C28.7723241,12.80776 29.0207619,10.7082718 31.3136968,9.8297625 C33.0089196,9.17460305 33.0089196,6.94110495 33.0089196,6.94110495 C33.0089196,6.94110495 33.4911812,9.21927302 32.1613082,10.5742619 C30.8314352,11.9143607 31.3136968,12.80776 31.3136968,12.80776 L28.7723241,12.80776 Z" id="grill"></path>
            </g>
        </g>
    </g>
</svg>