<?xml version="1.0" encoding="UTF-8"?>
<svg width="32px" height="32px" viewBox="0 0 32 32" version="1.1" xmlns="http://www.w3.org/2000/svg" xmlns:xlink="http://www.w3.org/1999/xlink">
    <!-- Generator: Sketch 41.1 (35376) - http://www.bohemiancoding.com/sketch -->
    <title>gym</title>
    <desc>Created with Sketch.</desc>
    <defs></defs>
    <g id="Ãtomos" stroke="none" stroke-width="1" fill="none" fill-rule="evenodd">
        <g id="Iconos" transform="translate(-429.000000, -4720.000000)" fill="#666666">
            <g id="ico-gym" transform="translate(429.000000, 4720.000000)">
                <path d="M27.312,14.8 L27.2,14.8 L27.2,10.04 C27.2,9.578 26.822,9.2 26.374,9.2 L24.4,9.2 L24.4,8.64 C24.4,8.178 24.022,7.8 23.574,7.8 L22.426,7.8 C21.978,7.8 21.6,8.178 21.6,8.64 L21.6,14.8 L10.4,14.8 L10.4,8.64 C10.4,8.178 10.022,7.8 9.574,7.8 L8.426,7.8 C7.978,7.8 7.6,8.178 7.6,8.64 L7.6,9.2 L5.626,9.2 C5.178,9.2 4.8,9.578 4.8,10.04 L4.8,14.8 L4.688,14.8 L3.778,14.8 C2.798,14.8 2,15.36 2,16.06 L2,16.34 C2,17.04 2.798,17.6 3.778,17.6 L4.688,17.6 L4.8,17.6 L4.8,22.36 C4.8,22.822 5.178,23.2 5.626,23.2 L7.6,23.2 L7.6,23.76 C7.6,24.222 7.978,24.6 8.426,24.6 L9.574,24.6 C10.022,24.6 10.4,24.222 10.4,23.76 L10.4,17.6 L21.6,17.6 L21.6,23.76 C21.6,24.222 21.978,24.6 22.426,24.6 L23.574,24.6 C24.022,24.6 24.4,24.222 24.4,23.76 L24.4,23.2 L26.374,23.2 C26.822,23.2 27.2,22.822 27.2,22.36 L27.2,17.6 L27.312,17.6 L28.222,17.6 C29.202,17.6 30,17.04 30,16.34 L30,16.06 C30,15.36 29.202,14.8 28.222,14.8 L27.312,14.8 Z" id="gym"></path>
            </g>
        </g>
    </g>
</svg>