<?xml version="1.0" encoding="UTF-8"?>
<svg width="32px" height="32px" viewBox="0 0 32 32" version="1.1" xmlns="http://www.w3.org/2000/svg" xmlns:xlink="http://www.w3.org/1999/xlink">
    <!-- Generator: Sketch 39.1 (31720) - http://www.bohemiancoding.com/sketch -->
    <title>hailing</title>
    <desc>Created with Sketch.</desc>
    <defs></defs>
    <g id="Ãtomos" stroke="none" stroke-width="1" fill="none" fill-rule="evenodd">
        <g id="03_Iconos" transform="translate(-567.000000, -1041.000000)" fill="#666666">
            <g id="ico-granizo" transform="translate(567.000000, 1041.000000)">
                <path d="M20.75,25 C21.4375,25 22,25.5625 22,26.25 C22,26.9375 21.4375,27.5 20.75,27.5 C20.0625,27.5 19.5,26.9375 19.5,26.25 C19.5,25.5625 20.0625,25 20.75,25 L20.75,25 Z M20.75,20 C21.4375,20 22,20.5625 22,21.25 C22,21.9375 21.4375,22.5 20.75,22.5 C20.0625,22.5 19.5,21.9375 19.5,21.25 C19.5,20.5625 20.0625,20 20.75,20 L20.75,20 Z M15.75,27.5 C16.4375,27.5 17,28.0625 17,28.75 C17,29.4375 16.4375,30 15.75,30 C15.0625,30 14.5,29.4375 14.5,28.75 C14.5,28.0625 15.0625,27.5 15.75,27.5 L15.75,27.5 Z M15.75,22.5 C16.4375,22.5 17,23.0625 17,23.75 C17,24.4375 16.4375,25 15.75,25 C15.0625,25 14.5,24.4375 14.5,23.75 C14.5,23.0625 15.0625,22.5 15.75,22.5 L15.75,22.5 Z M10.75,25 C11.4375,25 12,25.5625 12,26.25 C12,26.9375 11.4375,27.5 10.75,27.5 C10.0625,27.5 9.5,26.9375 9.5,26.25 C9.5,25.5625 10.0625,25 10.75,25 L10.75,25 Z M10.75,20 C11.4375,20 12,20.5625 12,21.25 C12,21.9375 11.4375,22.5 10.75,22.5 C10.0625,22.5 9.5,21.9375 9.5,21.25 C9.5,20.5625 10.0625,20 10.75,20 L10.75,20 Z M24.5,24.5625 L24.5,21.825 C25.99375,20.9625 27,19.35 27,17.5 C27,14.7375 24.7625,12.5 22,12.5 C21,12.5 20.075,12.8 19.29375,13.30625 C18.51875,9.98125 15.55625,7.5 12,7.5 C7.85625,7.5 4.5,10.85625 4.5,15 C4.5,17.21875 5.46875,19.20625 7,20.58125 L7,23.65 C4.0125,21.91875 2,18.7 2,15 C2,9.475 6.475,5 12,5 C15.75,5 19.01875,7.06875 20.73125,10.13125 C21.14375,10.05625 21.5625,10 22,10 C26.14375,10 29.5,13.35625 29.5,17.5 C29.5,20.7625 27.4125,23.53125 24.5,24.5625 L24.5,24.5625 Z" id="granizo"></path>
            </g>
        </g>
    </g>
</svg>