<?xml version="1.0" encoding="UTF-8"?>
<svg width="32px" height="32px" viewBox="0 0 32 32" version="1.1" xmlns="http://www.w3.org/2000/svg" xmlns:xlink="http://www.w3.org/1999/xlink">
    <!-- Generator: Sketch 41.1 (35376) - http://www.bohemiancoding.com/sketch -->
    <title>hairdresser</title>
    <desc>Created with Sketch.</desc>
    <defs></defs>
    <g id="Ãtomos" stroke="none" stroke-width="1" fill="none" fill-rule="evenodd">
        <g id="Iconos" transform="translate(-501.000000, -4880.000000)" fill="#666666">
            <g id="ico-hairdresser" transform="translate(486.000000, 4880.000000)">
                <path d="M25.1354054,2.36482396 C24.6341651,1.87839201 23.8380776,1.87839201 23.3515797,2.36482396 L19.3401832,6.37420239 C18.8536853,6.86063433 18.8536853,7.65661387 19.3401832,8.14304582 L22.4508215,11.2532622 L25.5467173,14.3634785 C26.0332152,14.8499105 26.8293027,14.8499105 27.330543,14.3487382 L31.3257229,10.3541001 C31.8269632,9.8529278 31.8269632,9.05694825 31.3404652,8.57051631 C30.839225,8.08408437 30.0431375,8.08408437 29.5566395,8.57051631 L26.4460013,11.695473 L25.1044465,10.3526261 L28.229827,7.24240971 C28.716325,6.75597776 28.716325,5.95999822 28.229827,5.45882592 C27.7433291,4.97239397 26.9472416,4.97239397 26.4607437,5.47356628 L23.3353631,8.58525667 L22.0085506,7.2586241 L25.1191888,4.13366738 C25.6219033,3.64723544 25.6219033,2.8512559 25.1354054,2.36482396 Z M38.431541,15.6591563 C37.9450431,15.1727244 37.1489556,15.1727244 36.6477153,15.6738967 L32.6525354,19.6700088 C32.1498209,20.1711811 32.1498209,20.9671607 32.6363188,21.4535926 L35.7484312,24.5490686 L38.856121,27.659285 C39.3426189,28.1457169 40.1387064,28.1457169 40.6222558,27.659285 L44.6351266,23.6484325 C45.1216245,23.1620005 45.1216245,22.367495 44.6351266,21.8663227 C44.1486286,21.3798908 43.3525411,21.3798908 42.8660432,21.8810631 L39.7436111,24.9912795 L38.4167986,23.667595 L41.5289111,20.5426382 C42.0301513,20.0562063 42.0301513,19.2602268 41.5436534,18.7737948 C41.0424131,18.2873629 40.2448514,18.2873629 39.7583535,18.7737948 L36.6477153,21.8958035 L35.3061604,20.5544305 L38.431541,17.4456882 C38.9180389,16.9577822 38.9180389,16.1603286 38.431541,15.6591563 Z M18.4276311,17.031484 C16.7175172,18.7561064 16.5111241,21.3504101 17.9853603,22.8097059 C19.444854,24.2837421 22.0395096,24.077377 23.7496235,22.3527547 L23.8085929,22.3070596 L29.1011006,17.0152696 L29.9856423,17.9011654 L24.6931346,23.1929553 L24.6489075,23.2519168 C22.9240512,24.9617987 22.7176582,27.5561024 24.1918943,29.0153983 C25.6513881,30.4894344 28.2460436,30.2815953 29.9708999,28.5717134 C31.6810138,26.847091 31.8888811,24.2527873 30.4279131,22.7934915 C29.9414152,22.3070596 29.3369784,21.998986 28.6735721,21.8810631 L41.1131765,9.43872363 C42.0861723,8.45111938 42.1009147,6.8591603 41.1131765,5.88629641 C40.1431291,4.89869217 38.5509541,4.91343253 37.5632159,5.88629641 L25.1206631,18.3271618 C25.0027242,17.6638456 24.6931346,17.0594907 24.2066367,16.5730588 C22.7456687,15.113763 20.1524873,15.3216021 18.4276311,17.031484 Z M19.7677117,18.3713829 C20.7407076,17.3837787 22.1412319,17.1759396 22.8783499,17.9129577 C23.615468,18.6499758 23.4090749,20.0355698 22.4213367,21.023174 C21.4483409,22.0107783 20.0478166,22.2200914 19.3106985,21.4830733 C18.5735805,20.7460552 18.7799735,19.3457209 19.7677117,18.3713829 Z M25.9742458,24.5785493 C26.961984,23.5909451 28.3477659,23.3816319 29.084884,24.11865 C29.822002,24.8556681 29.615609,26.2560025 28.6278708,27.2288664 C27.654875,28.2164706 26.2543506,28.4243097 25.5172326,27.6872916 C24.7801145,26.9502736 24.9865076,25.5661536 25.9742458,24.5785493 Z M30.883452,14.3472641 C31.36995,13.8608322 32.1660375,13.8460918 32.6525354,14.3472641 C33.1537757,14.8336961 33.1390333,15.6296756 32.6525354,16.1161076 C32.1660375,16.6172799 31.36995,16.6172799 30.883452,16.1161076 C30.383686,15.6311497 30.383686,14.8336961 30.883452,14.3472641 Z" id="hairdresser"></path>
            </g>
        </g>
    </g>
</svg>