<?xml version="1.0" encoding="UTF-8" standalone="no"?>
<svg width="32px" height="32px" viewBox="0 0 32 32" version="1.1" xmlns="http://www.w3.org/2000/svg" xmlns:xlink="http://www.w3.org/1999/xlink">
    <!-- Generator: Sketch 3.8.3 (29802) - http://www.bohemiancoding.com/sketch -->
    <title>handbag</title>
    <desc>Created with Sketch.</desc>
    <defs></defs>
    <g id="Ãtomos" stroke="none" stroke-width="1" fill="none" fill-rule="evenodd">
        <g id="03_Iconos" transform="translate(-621.000000, -732.000000)" fill="#666666">
            <g id="ico-handbag" transform="translate(621.000000, 732.000000)">
                <path d="M25.4121535,15.6530017 C25.3147301,13.9008534 23.9161401,12.5319059 22.2239135,12.6153846 L21.1958188,12.6153846 C21.1550897,10.0262646 19.0649372,8 16.4999667,8 C15.2476962,8 14.1086188,8.48297835 13.2659622,9.26892114 C12.3826423,10.0927904 11.8250418,11.2495693 11.8042145,12.6153846 L10.7760865,12.6153846 C9.08379323,12.5319059 7.68533652,13.9009515 7.58784651,15.6530017 L7.00283979,26.1645515 C6.9473788,27.1606577 7.71136719,28 8.67343528,28 L24.3265981,28 C25.2886328,27.999902 26.0526212,27.1606577 25.9971602,26.1645515 L25.4121535,15.6530017 Z M19.5223618,12.6293621 L13.5550232,12.6293621 C13.59283,10.615051 14.9143783,9.57592699 16.5271725,9.55243903 C18.1399667,9.55243903 19.4845239,10.615051 19.5223618,12.6293621 Z M19.6666667,14.2097561 L21.25,14.2097561 L21.25,18.8670732 L19.6666667,18.8670732 L19.6666667,14.2097561 Z M11.75,14.2097561 L13.3333333,14.2097561 L13.3333333,18.8670732 L11.75,18.8670732 L11.75,14.2097561 Z" id="handbag"></path>
            </g>
        </g>
    </g>
</svg>