<?xml version="1.0" encoding="UTF-8"?>
<svg width="32px" height="32px" viewBox="0 0 32 32" version="1.1" xmlns="http://www.w3.org/2000/svg" xmlns:xlink="http://www.w3.org/1999/xlink">
    <!-- Generator: Sketch 43.1 (39012) - http://www.bohemiancoding.com/sketch -->
    <title>heating</title>
    <desc>Created with Sketch.</desc>
    <defs></defs>
    <g id="Ãtomos" stroke="none" stroke-width="1" fill="none" fill-rule="evenodd">
        <g id="Iconos" transform="translate(-646.000000, -4960.000000)">
            <g id="ico-grill-copy-5" transform="translate(634.000000, 4960.000000)"></g>
            <g id="hotroom" transform="translate(650.000000, 4966.000000)" fill="#666666">
                <g id="Group">
                    <path d="M7.41391941,5.46910867 C6.15677656,5.46910867 5.14676435,6.5006105 5.14676435,7.77924298 C5.14676435,9.04713065 6.15677656,10.0893773 7.41391941,10.0893773 C8.66031746,10.0893773 9.68,9.04605617 9.68,7.77924298 C9.68107448,6.5006105 8.66139194,5.46910867 7.41391941,5.46910867 L7.41391941,5.46910867 Z" id="Shape"></path>
                    <path d="M19.5233211,12.7003663 L19.5233211,3.16971917 C19.5233211,2.2026862 17.8041514,0.977777778 16.579243,0.977777778 C15.8389255,0.977777778 14.365812,1.95555556 13.8715507,3.16971917 L13.8715507,7.44722833 L11.1531136,6.17826618 L12.7003663,2.6969475 L12.6563126,2.73992674 L9.05787546,3.77142857 L7.49020757,0 L7.49020757,0.0752136752 L5.65177045,4.08302808 L2.28864469,2.51428571 L2.33162393,2.57875458 L3.34056166,6.27496947 L0,7.7040293 L0.0752136752,7.7040293 L3.37387057,9.24053724 L2.33162393,13.0549451 L2.28864469,13.1086691 L5.65177045,11.5506716 L7.49020757,15.5488156 L7.49020757,15.6336996 L9.05787546,11.8622711 L12.6573871,12.8937729 L12.7014408,12.9367521 L11.1434432,9.41245421 L13.8726252,8.23159951 L13.8726252,12.7014408 C11.6581197,14.1616606 11.9063248,15.1405128 11.9063248,16.6018071 C11.9063248,18.8044933 13.6254945,21.490696 16.5803175,21.490696 C19.0301343,21.490696 21.490696,19.2880098 21.490696,16.6018071 C21.4896215,15.6336996 21.2424908,13.4310134 19.5233211,12.7003663 L19.5233211,12.7003663 Z M10.2827839,9.15457875 L10.2827839,9.19863248 L10.2612943,9.20830281 C9.74554335,10.2731136 8.66139194,11.013431 7.41391941,11.013431 C5.65069597,11.013431 4.23238095,9.56288156 4.23238095,7.77924298 C4.23238095,6.30720391 5.18974359,5.07155067 6.51135531,4.67399267 L6.64996337,4.54505495 L6.77997558,4.60952381 C6.98412698,4.56654457 7.18720391,4.54505495 7.41391941,4.54505495 C9.16424908,4.54505495 10.5825641,5.98485958 10.5825641,7.77924298 C10.5836386,8.27350427 10.4761905,8.73553114 10.2827839,9.15457875 L10.2827839,9.15457875 Z M16.579243,20.2636386 C14.1197558,20.2636386 12.8937729,18.0727717 12.8937729,16.6007326 C12.8937729,15.386569 13.8715507,14.1605861 14.8600733,12.9474969 L14.8600733,3.41684982 C15.0964591,2.2026862 16.0860562,2.2026862 16.579243,2.2026862 C17.8052259,2.2026862 18.5455433,2.93333333 18.5455433,3.66398046 L18.5455433,12.7003663 C19.2761905,14.4087912 20.5118437,15.386569 20.5118437,16.6007326 C20.5118437,18.8034188 18.2973382,20.2636386 16.579243,20.2636386 L16.579243,20.2636386 Z" id="Shape"></path>
                    <path d="M17.6977778,14.9137973 L17.6977778,5.85592186 C17.6977778,5.31868132 17.2572405,4.88888889 16.7081807,4.88888889 C16.1709402,4.88888889 15.7314774,5.31868132 15.7314774,5.85592186 L15.7314774,14.9137973 C15.1394383,15.2576313 14.7429548,15.8797558 14.7429548,16.6007326 C14.7429548,17.6859585 15.6229548,18.5552137 16.7081807,18.5552137 C17.7944811,18.5552137 18.6744811,17.684884 18.6744811,16.6007326 C18.6744811,15.8797558 18.2769231,15.2576313 17.6977778,14.9137973 L17.6977778,14.9137973 Z" id="Shape"></path>
                </g>
            </g>
        </g>
    </g>
</svg>