<?xml version="1.0" encoding="UTF-8"?>
<svg width="32px" height="32px" viewBox="0 0 32 32" version="1.1" xmlns="http://www.w3.org/2000/svg" xmlns:xlink="http://www.w3.org/1999/xlink">
    <!-- Generator: Sketch 43.1 (39012) - http://www.bohemiancoding.com/sketch -->
    <title>hot</title>
    <desc>Created with Sketch.</desc>
    <defs></defs>
    <g id="Ãtomos" stroke="none" stroke-width="1" fill="none" fill-rule="evenodd">
        <g id="Iconos" transform="translate(-146.000000, -3895.000000)" fill="#666666">
            <g id="ico-hot" transform="translate(146.000000, 3895.000000)">
                <path d="M11.2328441,30.5 C11.2328441,30.5 9.12879904,27.6207885 11.3731137,23.25 C13.6018429,18.8844086 13.6382091,17.8137993 13.6382091,17.8137993 L13.6382091,22.3456989 C13.6382091,22.3456989 16.8696067,16.8003584 16.6877756,14.1913978 C16.6877756,14.1913978 22.9895204,18.6089606 19.5814869,30.5 C19.5814869,30.5 34.1955083,24.3777778 21.0880871,6.93620072 C21.0880871,6.93620072 21.6595561,10.1116487 21.0880871,11.4681004 C20.5322036,12.8297491 20.9997691,3.53207885 13.5083298,1.5 C13.5083298,1.5 16.2565763,7.27921147 9.70546323,14.1862007 C9.70546323,14.1867204 8.08976446,12.3775986 8.94696799,9.65949821 C8.94696799,9.65949821 -1.30310817,24.502509 11.2328441,30.5" id="hot"></path>
            </g>
        </g>
    </g>
</svg>