<?xml version="1.0" encoding="UTF-8" standalone="no"?>
<svg width="16px" height="16px" viewBox="0 0 16 16" version="1.1" xmlns="http://www.w3.org/2000/svg" xmlns:xlink="http://www.w3.org/1999/xlink">
    <!-- Generator: Sketch 3.7 (28169) - http://www.bohemiancoding.com/sketch -->
    <title>hotels</title>
    <desc>Created with Sketch.</desc>
    <defs></defs>
    <g id="Ãtomos" stroke="none" stroke-width="1" fill="none" fill-rule="evenodd">
        <g id="03_Iconos" transform="translate(-304.000000, -346.000000)" fill="#666666">
            <g id="hotels" transform="translate(304.000000, 346.000000)">
                <g id="Group" transform="translate(1.000000, 2.700012)">
                    <path d="M14,8.75584844 C14,8.23038954 13.578447,7.60291248 13.0885391,6.99586104 C11.9993406,7.54148902 9.94403886,7.97830658 7.02047099,7.98489115 L6.98174507,7.98489115 C4.05596114,7.97830658 2.00059818,7.54156231 0.911460884,6.99586104 C0.423817986,7.60290026 0,8.23038954 0,8.75584844 C0,9.63323396 2.44267109,10.6881709 6.98174507,10.695012 L7.02047099,10.695012 C11.561761,10.6881709 13.9999755,9.63323396 13.9999755,8.75584844 L13.9999755,8.75584844 L14,8.75584844 Z M1.31935019,6.5002343 C2.47918095,6.95952982 4.38872487,7.3050429 6.98174507,7.30735177 L7.02047099,7.30735177 C9.61127513,7.3050429 11.518505,6.95952982 12.6783358,6.5002343 L12.6760218,6.48886094 C12.6760218,2.18270737 8.56307981,1.56876595 8.17798774,1.56876595 C8.17798774,1.14814718 7.42831132,1.22547624 7.18221872,1.22547624 C7.18221872,0.807129691 7.40324905,0.668474901 7.40324905,0.668474901 L7.89312025,0.441093261 L7.79288343,0 L6.20923468,0 L6.10899786,0.441093261 L6.59211069,0.668474901 C6.59211069,0.668474901 6.81999734,0.807117475 6.81999734,1.22547624 C6.5738925,1.22547624 5.82422832,1.14820826 5.82422832,1.56876595 C5.43683448,1.56876595 1.63838905,2.08943607 1.31933795,6.48201982 L1.31933795,6.5002343 L1.31935019,6.5002343 Z" id="Shape"></path>
                </g>
            </g>
        </g>
    </g>
</svg>