<?xml version="1.0" encoding="UTF-8" standalone="no"?>
<svg width="16px" height="16px" viewBox="0 0 16 16" version="1.1" xmlns="http://www.w3.org/2000/svg" xmlns:xlink="http://www.w3.org/1999/xlink">
    <!-- Generator: Sketch 3.7.2 (28276) - http://www.bohemiancoding.com/sketch -->
    <title>info-circle-outline</title>
    <desc>Created with Sketch.</desc>
    <defs></defs>
    <g id="Ãtomos" stroke="none" stroke-width="1" fill="none" fill-rule="evenodd">
        <g id="03_Iconos" transform="translate(-242.000000, -372.000000)" fill="#666666">
            <g id="info-circle-outline" transform="translate(242.000000, 372.000000)">
                <path d="M8,13.95784 C4.717896,13.95784 2.042328,11.282216 2.042328,8 C2.042328,4.733184 4.717896,2.057672 8,2.057672 C11.266816,2.057672 13.942384,4.733184 13.942384,8 C13.942384,11.282216 11.266816,13.95784 8,13.95784 M8,1 C4.142216,1 1,4.142216 1,8 C1,11.857728 4.142216,14.999944 8,14.999944 C11.85784,14.999944 15,11.857728 15,8 C15,4.142216 11.85784,1 8,1 Z M9.5197112,11.4011992 L9.1121432,11.4011992 L9.1121432,8.2871512 L9.1125352,7.8001752 C9.1125352,7.4576792 8.8168552,7.1618312 8.4743032,7.1616632 L8.4738552,7.1608232 L6.8802632,7.1608232 L6.4804232,7.1608232 C6.3896472,7.1608232 6.2577112,7.1901112 6.1346792,7.3308952 C6.0407672,7.4363432 5.9941192,7.5711352 5.9941192,7.7323592 C5.9941192,7.8935832 6.0439032,8.0255752 6.1377032,8.1278312 C6.2606792,8.2597672 6.3927832,8.2862552 6.4804232,8.2862552 L6.8802632,8.2862552 L6.8802632,8.2879912 L6.8878792,8.2879912 L6.8878792,11.4011992 L6.4803112,11.4011992 C6.3896472,11.4011992 6.2579352,11.4304312 6.1345672,11.5711592 C6.0407672,11.6766632 5.9941192,11.8114552 5.9941192,11.9755352 C5.9941192,12.1339032 6.0437912,12.2657832 6.1377032,12.3682072 C6.2605672,12.5001432 6.3927832,12.5265752 6.4803112,12.5265752 L6.8878792,12.5265752 L9.1121432,12.5265752 L9.5197112,12.5265752 C9.6103192,12.5265752 9.7420872,12.4972872 9.8654552,12.3566152 C9.9592552,12.2511112 10.0059032,12.1163192 10.0059032,11.9522392 C10.0059032,11.7938712 9.9562312,11.6619352 9.8622632,11.5595672 C9.7394552,11.4276312 9.6071832,11.4011992 9.5197112,11.4011992 Z M7.8758032,6.117868 C8.6067712,6.117868 9.1979632,5.52662 9.1979632,4.795484 C9.1979632,4.064292 8.6067712,3.473324 7.8758032,3.473324 C7.1602912,3.473324 6.5690992,4.064292 6.5690992,4.795484 C6.5690992,5.52662 7.1602912,6.117868 7.8758032,6.117868 Z"></path>
            </g>
        </g>
    </g>
</svg>