<?xml version="1.0" encoding="UTF-8" standalone="no"?>
<svg width="16px" height="16px" viewBox="0 0 16 16" version="1.1" xmlns="http://www.w3.org/2000/svg" xmlns:xlink="http://www.w3.org/1999/xlink">
    <!-- Generator: Sketch 3.7.2 (28276) - http://www.bohemiancoding.com/sketch -->
    <title>info-circle</title>
    <desc>Created with Sketch.</desc>
    <defs></defs>
    <g id="Ãtomos" stroke="none" stroke-width="1" fill="none" fill-rule="evenodd">
        <g id="03_Iconos" transform="translate(-278.000000, -320.000000)" fill="#666666">
            <g id="info-circle" transform="translate(278.000000, 320.000000)">
                <path d="M9.865472,12.356576 C9.742104,12.49736 9.610336,12.526592 9.519728,12.526592 L9.11216,12.526592 L6.887896,12.526592 L6.480328,12.526592 C6.3928,12.526592 6.260584,12.50016 6.137776,12.368168 C6.043808,12.265856 5.994136,12.133864 5.994136,11.975496 C5.994136,11.811472 6.040784,11.67668 6.134584,11.571232 C6.257952,11.430504 6.38972,11.40116 6.480328,11.40116 L6.887896,11.40116 L6.887896,8.288064 L6.88028,8.288064 L6.88028,8.286272 L6.48044,8.286272 C6.3928,8.286272 6.260696,8.25984 6.137776,8.127848 C6.04392,8.025536 5.994136,7.893656 5.994136,7.732376 C5.994136,7.571152 6.040784,7.43636 6.134696,7.330912 C6.257728,7.190128 6.38972,7.16084 6.48044,7.16084 L6.88028,7.16084 L8.473872,7.16084 L8.47432,7.16168 C8.816872,7.161848 9.112552,7.457696 9.112552,7.800248 L9.11216,8.287168 L9.11216,11.40116 L9.519728,11.40116 C9.607256,11.40116 9.739472,11.427648 9.86228,11.559584 C9.956248,11.661952 10.00592,11.793832 10.00592,11.952256 C10.00592,12.116336 9.959272,12.251128 9.865472,12.356576 M7.875848,3.473352 C8.60676,3.473352 9.198008,4.06432 9.198008,4.795456 C9.198008,5.526648 8.60676,6.117896 7.875848,6.117896 C7.16028,6.117896 6.569144,5.526648 6.569144,4.795456 C6.569144,4.06432 7.16028,3.473352 7.875848,3.473352 M8.000224,1 C4.126648,1 1,4.126816 1,8.000056 C1,11.873352 4.126648,15 8.000224,15 C11.873464,15 15,11.873352 15,8.000056 C15,4.126816 11.873464,1 8.000224,1"></path>
            </g>
        </g>
    </g>
</svg>