<?xml version="1.0" encoding="UTF-8"?>
<svg width="32px" height="32px" viewBox="0 0 32 32" version="1.1" xmlns="http://www.w3.org/2000/svg" xmlns:xlink="http://www.w3.org/1999/xlink">
    <!-- Generator: Sketch 41.1 (35376) - http://www.bohemiancoding.com/sketch -->
    <title>interc</title>
    <desc>Created with Sketch.</desc>
    <defs></defs>
    <g id="Ãtomos" stroke="none" stroke-width="1" fill="none" fill-rule="evenodd">
        <g id="Iconos" transform="translate(-355.000000, -4800.000000)">
            <g id="interc" transform="translate(357.000000, 4805.000000)">
                <g id="Group"></g>
            </g>
            <g id="ico-interc" transform="translate(355.000000, 4800.000000)" fill="#666666">
                <path d="M8.384,13.8733333 C7.66189474,14.6066667 7.20357895,15.6186667 7.20357895,16.7333333 C7.20357895,17.8465333 7.66189474,18.86 8.384,19.5933333 L8.39873684,19.6241333 L9.32863158,18.6986667 L9.29768421,18.6693333 C8.81136842,18.1706667 8.51663158,17.4784 8.51663158,16.7333333 C8.51663158,15.9853333 8.81136842,15.296 9.29768421,14.7973333 L9.32863158,14.768 L8.39726316,13.844 L8.384,13.8733333 L8.384,13.8733333 Z M6.54189474,12.0106667 C5.34673684,13.228 4.60989474,14.9 4.60989474,16.7333333 C4.60989474,18.5666667 5.34673684,20.2401333 6.54189474,21.4574667 L6.57136842,21.4721333 L7.48505263,20.5466667 L7.45410526,20.532 C6.49621053,19.5493333 5.90673684,18.2146667 5.90673684,16.7348 C5.90673684,15.2534667 6.49473684,13.9188 7.45410526,12.9361333 L7.48505263,12.9214667 L6.56989474,11.996 L6.54189474,12.0106667 L6.54189474,12.0106667 Z M4.69978947,10.1626667 C3.03452632,11.8493333 2.00294737,14.1666667 2.00294737,16.7333333 C2.00294737,19.3 3.03452632,21.6173333 4.69978947,23.304 L4.72778947,23.3333333 L5.64294737,22.4093333 L5.62673684,22.38 C4.184,20.928 3.29831579,18.9333333 3.29831579,16.7348 C3.29831579,14.5348 4.184,12.5416 5.62673684,11.0881333 L5.64294737,11.0573333 L4.72778947,10.1333333 L4.69978947,10.1626667 L4.69978947,10.1626667 Z M10.2261053,16.7201333 C10.2261053,17.3053333 10.6976842,17.7746667 11.2724211,17.7746667 C11.8471579,17.7746667 12.3187368,17.3068 12.3187368,16.7201333 C12.3187368,16.1466667 11.8471579,15.6626667 11.2724211,15.6626667 C10.6976842,15.6626667 10.2261053,16.1466667 10.2261053,16.7201333 Z M16.4141053,6.87733333 C18.1972632,5.41066667 20.6730526,5.63066667 22.8098947,6.02813333 C25.1707368,6.6588 27.8498947,7.39213333 29.1732632,9.59213333 C30.4111579,12.1441333 30.1606316,15.1654667 29.0258947,17.7028 C28.4821053,18.8937333 27.6701053,19.9174667 27.0084211,21.0174667 C27.4932632,22.4254667 28.8343158,23.3494667 29.3943158,24.7149333 C26.9332632,25.2590667 24.4722105,25.6976 22.0258947,26.2710667 C21.1564211,24.6724 20.4623158,22.8684 19.0490526,21.6364 C17.9290526,21.1670667 16.6027368,21.4457333 15.5269474,20.8004 L15.8658947,19.2926667 L15.1437895,19.1592 C15.3943158,18.574 15.8658947,18.134 16.2490526,17.6324 L14.908,16.9753333 C15.4090526,15.7858667 14.1711579,15.3326667 13.3768421,14.8046667 C14.1564211,13.998 14.9669474,13.2206667 15.7347368,12.3846667 C15.3810526,10.8886667 16.7221053,9.86346667 17.3410526,8.64613333 C17.0050526,8.06533333 16.7103158,7.47866667 16.4141053,6.87733333 Z" id="interc"></path>
            </g>
        </g>
    </g>
</svg>