<?xml version="1.0" encoding="UTF-8"?>
<svg width="32px" height="32px" viewBox="0 0 32 32" version="1.1" xmlns="http://www.w3.org/2000/svg" xmlns:xlink="http://www.w3.org/1999/xlink">
    <!-- Generator: Sketch 41.1 (35376) - http://www.bohemiancoding.com/sketch -->
    <title>ironed</title>
    <desc>Created with Sketch.</desc>
    <defs></defs>
    <g id="Ãtomos" stroke="none" stroke-width="1" fill="none" fill-rule="evenodd">
        <g id="Iconos" transform="translate(-575.000000, -4880.000000)" fill="#666666">
            <g id="ico-ironed" transform="translate(560.000000, 4880.000000)">
                <path d="M39.6210526,20.7115 L45,19 L41.7873684,9.055 C39.9747368,8.56 38.0589474,8.29 36.068,8.29 C33.5642105,8.29 31.1768421,8.71 28.9957895,9.475 L27.2273684,7 L23.4547368,9.7 L24.7515789,10.975 C20.7136842,13.555 17.8989474,17.485 17.1768421,22 L40.0498947,22 L39.6210526,20.7115 Z M41.2258947,16.72 C41.7726316,16.72 42.1985263,17.155 42.1985263,17.68 C42.1985263,18.22 41.7726316,18.6535 41.2258947,18.6535 C40.6968421,18.6535 40.2694737,18.22 40.2694737,17.68 C40.2694737,17.155 40.6968421,16.72 41.2258947,16.72 Z M33.8,16.075 C30.5873684,16.075 27.9789474,16.495 27.9789474,15.415 C27.9789474,14.35 30.5888421,12.175 33.8,12.175 C37.0111579,12.175 39.6195789,14.35 39.6195789,15.415 C39.6210526,16.495 37.0126316,16.075 33.8,16.075 Z M17.0294737,23.5 C17.0147368,23.815 17,24.01 17,24.3415 L17,25 L40.9046316,25 L40.4757895,23.5 L17.0294737,23.5 Z" id="ironed"></path>
            </g>
        </g>
    </g>
</svg>