<?xml version="1.0" encoding="UTF-8"?>
<svg width="32px" height="32px" viewBox="0 0 32 32" version="1.1" xmlns="http://www.w3.org/2000/svg" xmlns:xlink="http://www.w3.org/1999/xlink">
    <!-- Generator: Sketch 41.1 (35376) - http://www.bohemiancoding.com/sketch -->
    <title>jacz</title>
    <desc>Created with Sketch.</desc>
    <defs></defs>
    <g id="Ãtomos" stroke="none" stroke-width="1" fill="none" fill-rule="evenodd">
        <g id="Iconos" transform="translate(-429.000000, -4800.000000)" fill="#666666">
            <g id="ico-jacz" transform="translate(429.000000, 4800.000000)">
                <path d="M15.65,13.375 C15.65,13.375 14.5708333,10.1520833 18.1452083,8.13958333 C22.9125,5.44166667 20.6229167,0.25 20.6229167,0.25 C20.6229167,0.25 21.0895833,4.81458333 17.3125,6.38958333 C11.6541667,8.76666667 12.3395833,13.375 12.3395833,13.375 L15.65,13.375 Z M18.975,13.375 L21.4541667,13.375 C21.4541667,13.375 20.9875,12.3395833 22.2854167,10.7645833 C23.5672917,9.175 23.1020833,7.23541667 23.1020833,7.23541667 C23.1020833,7.23541667 23.1020833,9.11666667 21.4541667,9.88958333 C19.2229167,10.911875 18.975,13.375 18.975,13.375 Z M14.9791667,19.15 C10.5895833,18.7547917 6.47854167,17.9833333 2.84729167,16.9479167 C2.83270833,17.1958333 2.81666667,17.4583333 2.81666667,17.7208333 C2.81666667,21.2252083 4.38291667,23.7422917 6.983125,25.331875 C6.781875,25.550625 6.6025,25.8102083 6.4625,26.10625 C5.92291667,27.24375 6.09791667,28.5416667 6.82708333,29.125 C7.586875,29.7229167 8.750625,29.3889583 9.46666667,28.2645833 C9.791875,27.7483333 9.95083333,27.169375 9.96541667,26.6225 C11.655625,27.1197917 13.5733333,27.375 15.6645833,27.375 C18.1175,27.375 20.4289583,27.405625 22.43125,27.1008333 C22.505625,27.4960417 22.6470833,27.8985417 22.8877083,28.2660417 C23.58625,29.3904167 24.7514583,29.724375 25.5258333,29.1264583 C26.255,28.5460417 26.416875,27.2452083 25.8904167,26.110625 C25.8729167,26.0770833 25.8525,26.045 25.835,26.014375 C27.7789583,24.8710417 29.02,22.7754167 29.1716667,18.935625 C24.955625,19.5145833 20.1125,19.6152083 14.9791667,19.15 Z M14.9791667,14.8625 C10.5735417,14.46875 5.77708333,13.6972917 2.14583333,12.6458333 L2.14583333,14.7910417 C5.77708333,15.838125 10.5735417,16.6139583 14.9791667,17.0077083 C20.1139583,17.4729167 25.6395833,17.3722917 29.8541667,16.7889583 L29.8541667,14.64375 C25.638125,15.2270833 20.1125,15.3291667 14.9791667,14.8625 Z" id="jacz"></path>
            </g>
        </g>
    </g>
</svg>