<?xml version="1.0" encoding="UTF-8"?>
<svg width="32px" height="32px" viewBox="0 0 32 32" version="1.1" xmlns="http://www.w3.org/2000/svg" xmlns:xlink="http://www.w3.org/1999/xlink">
    <!-- Generator: Sketch 41.1 (35376) - http://www.bohemiancoding.com/sketch -->
    <title>kit</title>
    <desc>Created with Sketch.</desc>
    <defs></defs>
    <g id="Ãtomos" stroke="none" stroke-width="1" fill="none" fill-rule="evenodd">
        <g id="Iconos" transform="translate(-215.000000, -4800.000000)" fill="#666666">
            <g id="ico-kit" transform="translate(215.000000, 4800.000000)">
                <path d="M25.95,20.1585 L25.95,17.85 L8.4,17.85 L8.3271,20.1585 L5.5191,19.3215 C4.8981,19.3215 4.2771,19.84935 4.2771,20.4825 C4.2771,21.12915 4.8981,21.657 5.5191,21.657 L8.3271,22.49265 L8.3271,26.31315 C8.3271,27.6105 9.3396,28.6473 10.5816,28.6473 L23.62125,28.6473 C24.9375,28.6473 25.95,27.60645 25.95,26.31315 L25.95,22.49265 L28.758,21.657 C29.379,21.657 30,21.12915 30,20.4825 C30,19.848 29.379,19.3215 28.758,19.3215 L25.95,20.1585 Z M9.03585,11.37 L8.6295,13.4895 L26.058,16.4055 L26.47785,14.07 L21.63,12.82665 C21.63,12.82665 21.87975,9.45435 18.3495,8.8185 C14.8044,8.1786 13.962,11.64 13.962,11.64 L9.03585,11.37 Z M20.01,12.48915 L15.5145,11.802 C15.67785,10.8975 16.81185,10.3035 18.04035,10.479 C19.29585,10.6545 20.18685,11.559 20.01,12.48915 Z M4.6875,12.909 C4.6875,9.939 6.8205,7.4955 9.588,7.131 C10.3305,5.3895 12.018,4.161 13.9755,4.161 C14.583,4.161 15.177,4.2825 15.717,4.512 C14.8395,3.5805 13.6245,3 12.2745,3 C10.3305,3 8.643,4.215 7.9005,5.9565 C5.133,6.3345 3,8.778 3,11.748 C3,14.151 4.404,16.20165 6.402,17.1075 C5.35035,16.041 4.6875,14.556 4.6875,12.909 Z" id="kit"></path>
            </g>
        </g>
    </g>
</svg>