<?xml version="1.0" encoding="UTF-8" standalone="no"?>
<svg width="32px" height="32px" viewBox="0 0 32 32" version="1.1" xmlns="http://www.w3.org/2000/svg" xmlns:xlink="http://www.w3.org/1999/xlink">
    <!-- Generator: Sketch 3.8.3 (29802) - http://www.bohemiancoding.com/sketch -->
    <title>kms-limited</title>
    <desc>Created with Sketch.</desc>
    <defs></defs>
    <g id="Ãtomos" stroke="none" stroke-width="1" fill="none" fill-rule="evenodd">
        <g id="03_Iconos" transform="translate(-258.000000, -732.000000)" fill="#666666">
            <g id="ico-kmlimitados" transform="translate(258.000000, 732.000000)">
                <path d="M2,7.49589226 L2,24.6522559 C2,27.8022559 4.2925,30.0740741 7.47166667,30.0740741 L24.5283333,30.0740741 C27.7075,30.0740741 30,27.8022559 30,24.6522559 L30,7.49589226 C30,4.34589226 27.7075,2.07407407 24.5283333,2.07407407 L7.47166667,2.07407407 C4.2925,2.07407407 2,4.34589226 2,7.49589226 L2,7.49589226 Z M15.6208333,16.9717364 L15.4166667,16.9717364 L15.4166667,8.69900914 L17.75,8.69900914 L17.75,9.78628187 C18.3858333,9.06537278 19.1616667,8.69900914 20.0541667,8.69900914 C20.5325,8.69900914 21.145,8.81719096 21.4891667,9.0476455 C21.8391667,9.27810005 22.1191667,9.6326455 22.3466667,10.0935546 C22.685,9.6326455 23.0466667,9.27810005 23.4491667,9.0476455 C23.8516667,8.81719096 24.2716667,8.69900914 24.7266667,8.69900914 C25.2983333,8.69900914 25.7825,8.81719096 26.185,9.05946368 C26.5758333,9.30173641 26.675,9.65628187 26.8733333,10.1231 C27.0133333,10.4717364 27.0833333,11.027191 27.0833333,11.8012819 L27.0833333,16.9717364 L24.75,16.9717364 L24.75,12.4394637 C24.75,11.6653728 24.6858333,11.157191 24.5575,10.9149182 C24.3883333,10.6194637 24.3241667,10.4717364 23.98,10.4717364 C23.7233333,10.4717364 23.4783333,10.5662819 23.2566667,10.7376455 C23.0291667,10.9267364 22.6616667,11.1808273 22.5625,11.5353728 C22.4633333,11.8840091 22.4166667,12.4276455 22.4166667,13.1662819 L22.4166667,16.9717364 L20.0833333,16.9717364 L20.0833333,12.6344637 C20.0833333,11.8544637 20.0483333,11.3581 19.9841667,11.1335546 C19.92,10.9149182 20.025,10.7494637 19.885,10.637191 C19.7508333,10.5249182 19.57,10.4717364 19.3425,10.4717364 C19.0566667,10.4717364 18.8,10.5662819 18.5841667,10.7376455 C18.3566667,10.9149182 17.9891667,11.1631 17.8958333,11.4881 C17.7966667,11.8190091 17.75,12.3626455 17.75,13.1190091 L17.75,16.9717364 L15.6208333,16.9717364 L15.6208333,16.9717364 Z M7.83333333,16.9717364 L5.5,16.9717364 L5.5,5.74446368 L7.83333333,5.74446368 L7.83333333,10.4008273 L12.1441667,5.74446368 L14.9208333,5.74446368 L10.7733333,10.2235546 L14.9208333,16.9717364 L12.2841667,16.9717364 L9.18666667,11.9194637 L7.83333333,13.6094637 L7.83333333,16.9717364 Z M24.5565133,25.3980057 C23.264898,25.3980057 22.2234235,24.3523834 22.2234235,23.0576638 C22.2234235,21.761772 23.264898,20.717908 24.5565133,20.717908 C25.8481287,20.717908 26.8896031,21.761772 26.8896031,23.0576638 C26.8896031,24.3523834 25.8481287,25.3980057 24.5565133,25.3980057 Z M19.8897493,23.9368305 L18.3339664,23.9368305 C17.850049,23.9368305 17.4573044,23.5429638 17.4573044,23.0576638 C17.4573044,22.5723637 17.850049,22.178497 18.3339664,22.178497 L19.8897493,22.178497 C20.3736667,22.178497 20.7664113,22.5723637 20.7664113,23.0576638 C20.7664113,23.5429638 20.3736667,23.9368305 19.8897493,23.9368305 Z M13.6666179,23.9368305 L12.1114195,23.9368305 C11.6269177,23.9368305 11.2347575,23.5429638 11.2347575,23.0576638 C11.2347575,22.5723637 11.6269177,22.178497 12.1114195,22.178497 L13.6666179,22.178497 C14.1511198,22.178497 14.5432799,22.5723637 14.5432799,23.0576638 C14.5432799,23.5429638 14.1505353,23.9368305 13.6666179,23.9368305 Z M7.44465547,25.3980057 C6.15304012,25.3980057 5.11156567,24.3523834 5.11156567,23.0576638 C5.11156567,21.761772 6.15304012,20.717908 7.44465547,20.717908 C8.73568638,20.717908 9.77716084,21.761772 9.77716084,23.0576638 C9.77774528,24.3523834 8.73568638,25.3980057 7.44465547,25.3980057 Z" id="kmlimitados"></path>
            </g>
        </g>
    </g>
</svg>