<?xml version="1.0" encoding="UTF-8" standalone="no"?>
<svg width="32px" height="32px" viewBox="0 0 32 32" version="1.1" xmlns="http://www.w3.org/2000/svg" xmlns:xlink="http://www.w3.org/1999/xlink">
    <!-- Generator: Sketch 3.8.3 (29802) - http://www.bohemiancoding.com/sketch -->
    <title>kms-unlimited</title>
    <desc>Created with Sketch.</desc>
    <defs></defs>
    <g id="Ãtomos" stroke="none" stroke-width="1" fill="none" fill-rule="evenodd">
        <g id="03_Iconos" transform="translate(-310.000000, -732.000000)" fill="#666666">
            <g id="ico-kmilimitados" transform="translate(310.000000, 732.000000)">
                <path d="M2,7.49589226 L2,24.6522559 C2,27.8022559 4.2925,30.0740741 7.47166667,30.0740741 L24.5283333,30.0740741 C27.7075,30.0740741 30,27.8022559 30,24.6522559 L30,7.49589226 C30,4.34589226 27.7075,2.07407407 24.5283333,2.07407407 L7.47166667,2.07407407 C4.2925,2.07407407 2,4.34589226 2,7.49589226 L2,7.49589226 Z M15.6208333,17.9292929 L15.4166667,17.9292929 L15.4166667,9.68013468 L17.75,9.68013468 L17.75,10.7643098 C18.3858333,10.0454545 19.1616667,9.68013468 20.0541667,9.68013468 C20.5325,9.68013468 21.145,9.7979798 21.4891667,10.0277778 C21.8391667,10.2575758 22.1191667,10.6111111 22.3466667,11.0707071 C22.685,10.6111111 23.0466667,10.2575758 23.4491667,10.0277778 C23.8516667,9.7979798 24.2716667,9.68013468 24.7266667,9.68013468 C25.2983333,9.68013468 25.7825,9.7979798 26.185,10.0395623 C26.5758333,10.2811448 26.675,10.6346801 26.8733333,11.1001684 C27.0133333,11.4478114 27.0833333,12.0016835 27.0833333,12.773569 L27.0833333,17.9292929 L24.75,17.9292929 L24.75,13.4099327 C24.75,12.6380471 24.6858333,12.1313131 24.5575,11.8897306 C24.3883333,11.5951178 24.3241667,11.4478114 23.98,11.4478114 C23.7233333,11.4478114 23.4783333,11.5420875 23.2566667,11.712963 C23.0291667,11.9015152 22.6616667,12.1548822 22.5625,12.5084175 C22.4633333,12.8560606 22.4166667,13.3981481 22.4166667,14.1346801 L22.4166667,17.9292929 L20.0833333,17.9292929 L20.0833333,13.6043771 C20.0833333,12.8265993 20.0483333,12.3316498 19.9841667,12.1077441 C19.92,11.8897306 20.025,11.7247475 19.885,11.6127946 C19.7508333,11.5008418 19.57,11.4478114 19.3425,11.4478114 C19.0566667,11.4478114 18.8,11.5420875 18.5841667,11.712963 C18.3566667,11.8897306 17.9891667,12.1372054 17.8958333,12.4612795 C17.7966667,12.7912458 17.75,13.3333333 17.75,14.0875421 L17.75,17.9292929 L15.6208333,17.9292929 L15.6208333,17.9292929 Z M7.83333333,17.9292929 L5.5,17.9292929 L5.5,6.73400673 L7.83333333,6.73400673 L7.83333333,11.3771044 L12.1441667,6.73400673 L14.9208333,6.73400673 L10.7733333,11.2003367 L14.9208333,17.9292929 L12.2841667,17.9292929 L9.18666667,12.8914141 L7.83333333,14.5765993 L7.83333333,17.9292929 Z M19.8897493,24.8773925 L18.3339664,24.8773925 C17.850049,24.8773925 17.4573044,24.4846479 17.4573044,24.0007305 C17.4573044,23.5168131 17.850049,23.1240685 18.3339664,23.1240685 L19.8897493,23.1240685 C20.3736667,23.1240685 20.7664113,23.5168131 20.7664113,24.0007305 C20.7664113,24.4846479 20.3736667,24.8773925 19.8897493,24.8773925 Z M13.6666179,24.8773925 L12.1114195,24.8773925 C11.6269177,24.8773925 11.2347575,24.4846479 11.2347575,24.0007305 C11.2347575,23.5168131 11.6269177,23.1240685 12.1114195,23.1240685 L13.6666179,23.1240685 C14.1511198,23.1240685 14.5432799,23.5168131 14.5432799,24.0007305 C14.5432799,24.4846479 14.1505353,24.8773925 13.6666179,24.8773925 Z M25.6666179,24.8773925 L24.1114195,24.8773925 C23.6269177,24.8773925 23.2347575,24.4846479 23.2347575,24.0007305 C23.2347575,23.5168131 23.6269177,23.1240685 24.1114195,23.1240685 L25.6666179,23.1240685 C26.1511198,23.1240685 26.5432799,23.5168131 26.5432799,24.0007305 C26.5432799,24.4846479 26.1505353,24.8773925 25.6666179,24.8773925 Z M7.44465547,26.3344047 C6.15304012,26.3344047 5.11156567,25.2917614 5.11156567,24.0007305 C5.11156567,22.7085307 6.15304012,21.6676407 7.44465547,21.6676407 C8.73568638,21.6676407 9.77716084,22.7085307 9.77716084,24.0007305 C9.77774528,25.2917614 8.73568638,26.3344047 7.44465547,26.3344047 Z" id="kmilimitados"></path>
            </g>
        </g>
    </g>
</svg>