<?xml version="1.0" encoding="UTF-8" standalone="no"?>
<svg width="32px" height="32px" viewBox="0 0 32 32" version="1.1" xmlns="http://www.w3.org/2000/svg" xmlns:xlink="http://www.w3.org/1999/xlink">
    <!-- Generator: Sketch 3.8.3 (29802) - http://www.bohemiancoding.com/sketch -->
    <title>kms</title>
    <desc>Created with Sketch.</desc>
    <defs></defs>
    <g id="Ãtomos" stroke="none" stroke-width="1" fill="none" fill-rule="evenodd">
        <g id="03_Iconos" transform="translate(-206.000000, -733.000000)" fill="#666666">
            <g id="ico-kilometres" transform="translate(206.000000, 733.000000)">
                <path d="M2,7.49589226 L2,24.6522559 C2,27.8022559 4.2925,30.0740741 7.47166667,30.0740741 L24.5283333,30.0740741 C27.7075,30.0740741 30,27.8022559 30,24.6522559 L30,7.49589226 C30,4.34589226 27.7075,2.07407407 24.5283333,2.07407407 L7.47166667,2.07407407 C4.2925,2.07407407 2,4.34589226 2,7.49589226 L2,7.49589226 Z M15.6208333,20.9292929 L15.4166667,20.9292929 L15.4166667,12.6801347 L17.75,12.6801347 L17.75,13.7643098 C18.3858333,13.0454545 19.1616667,12.6801347 20.0541667,12.6801347 C20.5325,12.6801347 21.145,12.7979798 21.4891667,13.0277778 C21.8391667,13.2575758 22.1191667,13.6111111 22.3466667,14.0707071 C22.685,13.6111111 23.0466667,13.2575758 23.4491667,13.0277778 C23.8516667,12.7979798 24.2716667,12.6801347 24.7266667,12.6801347 C25.2983333,12.6801347 25.7825,12.7979798 26.185,13.0395623 C26.5758333,13.2811448 26.675,13.6346801 26.8733333,14.1001684 C27.0133333,14.4478114 27.0833333,15.0016835 27.0833333,15.773569 L27.0833333,20.9292929 L24.75,20.9292929 L24.75,16.4099327 C24.75,15.6380471 24.6858333,15.1313131 24.5575,14.8897306 C24.3883333,14.5951178 24.3241667,14.4478114 23.98,14.4478114 C23.7233333,14.4478114 23.4783333,14.5420875 23.2566667,14.712963 C23.0291667,14.9015152 22.6616667,15.1548822 22.5625,15.5084175 C22.4633333,15.8560606 22.4166667,16.3981481 22.4166667,17.1346801 L22.4166667,20.9292929 L20.0833333,20.9292929 L20.0833333,16.6043771 C20.0833333,15.8265993 20.0483333,15.3316498 19.9841667,15.1077441 C19.92,14.8897306 20.025,14.7247475 19.885,14.6127946 C19.7508333,14.5008418 19.57,14.4478114 19.3425,14.4478114 C19.0566667,14.4478114 18.8,14.5420875 18.5841667,14.712963 C18.3566667,14.8897306 17.9891667,15.1372054 17.8958333,15.4612795 C17.7966667,15.7912458 17.75,16.3333333 17.75,17.0875421 L17.75,20.9292929 L15.6208333,20.9292929 L15.6208333,20.9292929 Z M7.83333333,20.9292929 L5.5,20.9292929 L5.5,9.73400673 L7.83333333,9.73400673 L7.83333333,14.3771044 L12.1441667,9.73400673 L14.9208333,9.73400673 L10.7733333,14.2003367 L14.9208333,20.9292929 L12.2841667,20.9292929 L9.18666667,15.8914141 L7.83333333,17.5765993 L7.83333333,20.9292929 L7.83333333,20.9292929 Z" id="Kilometers"></path>
            </g>
        </g>
    </g>
</svg>