<?xml version="1.0" encoding="UTF-8"?>
<svg width="32px" height="32px" viewBox="0 0 32 32" version="1.1" xmlns="http://www.w3.org/2000/svg" xmlns:xlink="http://www.w3.org/1999/xlink">
    <!-- Generator: Sketch 41.1 (35376) - http://www.bohemiancoding.com/sketch -->
    <title>laptop</title>
    <desc>Created with Sketch.</desc>
    <defs></defs>
    <g id="Ãtomos" stroke="none" stroke-width="1" fill="none" fill-rule="evenodd">
        <g id="Iconos" transform="translate(-285.000000, -4960.000000)" fill="#666666">
            <g id="ico-laptop" transform="translate(272.000000, 4960.000000)">
                <path d="M19.6666667,6 C19.0574074,6 18.4294523,6.21819941 17.9895833,6.66176471 C17.5497144,7.10533 17.3333333,7.73856212 17.3333333,8.35294118 L17.3333333,20.1176471 C17.3333333,20.7320259 17.5497144,21.3652576 17.9895833,21.8088235 C18.4294523,22.2523894 19.0574074,22.4705882 19.6666667,22.4705882 L15,22.4705882 L15,23.6470588 C15,24.9411765 16.05,26 17.3333333,26 L40.6666667,26 C41.95,26 43,24.9411765 43,23.6470588 L43,22.4705882 L38.3333333,22.4705882 C38.9425923,22.4705882 39.5705472,22.2523894 40.0104167,21.8088235 C40.4502862,21.3652576 40.6666667,20.7320259 40.6666667,20.1176471 L40.6666667,8.35294118 C40.6666667,7.73856212 40.4502862,7.10533 40.0104167,6.66176471 C39.5705472,6.21819941 38.9425923,6 38.3333333,6 L19.6666667,6 Z M19.6666667,8.35294118 L38.3333333,8.35294118 L38.3333333,20.1176471 L19.6666667,20.1176471 L19.6666667,8.35294118 Z" id="Laptop"></path>
            </g>
        </g>
    </g>
</svg>