<?xml version="1.0" encoding="UTF-8" standalone="no"?>
<svg width="32px" height="32px" viewBox="0 0 32 32" version="1.1" xmlns="http://www.w3.org/2000/svg" xmlns:xlink="http://www.w3.org/1999/xlink">
    <!-- Generator: Sketch 3.8.3 (29802) - http://www.bohemiancoding.com/sketch -->
    <title>lock</title>
    <desc>Created with Sketch.</desc>
    <defs></defs>
    <g id="Ãtomos" stroke="none" stroke-width="1" fill="none" fill-rule="evenodd">
        <g id="03_Iconos" transform="translate(-1131.000000, -732.000000)" fill="#666666">
            <g id="ico-insurance" transform="translate(1131.000000, 732.000000)">
                <path d="M19.5647059,13.2408333 L12.4294118,13.2408333 L12.4294118,8.335 C12.4294118,6.33416667 14.0294118,4.7125 16,4.7125 C17.9705882,4.7125 19.5647059,6.33416667 19.5647059,8.335 L19.5647059,13.2408333 L19.5647059,13.2408333 Z M17.3058824,25.8991667 L14.6941176,25.8991667 L14.2,21.6816667 C14.2,20.6783333 15.0058824,19.8616667 16,19.8616667 C16.9882353,19.8616667 17.7941176,20.6783333 17.7941176,21.6816667 L17.3058824,25.8991667 L17.3058824,25.8991667 Z M23.5058824,13.2408333 L22.2411765,13.2408333 L22.2411765,8.335 C22.2411765,4.84083333 19.4411765,2 16,2 C12.5588235,2 9.75882353,4.84083333 9.75882353,8.335 L9.75882353,13.2408333 L8.49411765,13.2408333 C7.11764706,13.2408333 6,14.3783333 6,15.7725 L6,27.4683333 C6,28.8625 7.11764706,30 8.49411765,30 L23.5058824,30 C24.8823529,30 26,28.8625 26,27.4683333 L26,15.7725 C26,14.3783333 24.8823529,13.2408333 23.5058824,13.2408333 L23.5058824,13.2408333 Z" id="insurance"></path>
            </g>
        </g>
    </g>
</svg>