<?xml version="1.0" encoding="UTF-8" standalone="no"?>
<svg width="16px" height="16px" viewBox="0 0 16 16" version="1.1" xmlns="http://www.w3.org/2000/svg" xmlns:xlink="http://www.w3.org/1999/xlink">
    <!-- Generator: Sketch 3.7 (28169) - http://www.bohemiancoding.com/sketch -->
    <title>logo</title>
    <desc>Created with Sketch.</desc>
    <defs></defs>
    <g id="Ãtomos" stroke="none" stroke-width="1" fill="none" fill-rule="evenodd">
        <g id="03_Iconos" transform="translate(-200.000000, -269.000000)" fill="#666666">
            <g id="logo" transform="translate(200.000000, 269.000000)">
                <g id="Group" transform="translate(1.000000, 2.200012)">
                    <path d="M6.1450017,5.82875326 L6.10126655,6.03691895 L6.07939898,6.18263835 C5.97006112,6.68224284 5.8388438,7.14021647 5.66390323,7.53574382 C5.48896265,7.93127116 5.29214261,8.28515625 5.07345501,8.57659505 C4.8547674,8.86803385 4.63609168,9.1178418 4.41740407,9.30519206 C4.19871647,9.49254232 3.98004075,9.63826172 3.78322071,9.74235026 C3.58640068,9.8464388 3.4114601,9.88806966 3.25837521,9.88806966 L3.23650764,9.88806966 C3.03968761,9.88806966 2.86474703,9.80479655 2.7335416,9.61744629 C2.60233616,9.43009603 2.53672156,9.1178418 2.53672156,8.70149902 C2.53672156,8.41006022 2.55858913,8.11862142 2.62419185,7.80636719 C2.68979457,7.49411296 2.79914431,7.18185872 2.93034975,6.91123535 C3.06155518,6.61979655 3.23650764,6.34917318 3.43331579,6.12019206 C3.63012394,5.89121094 3.89254669,5.70384928 4.15496944,5.55812988 C4.43925976,5.43322591 4.74541766,5.34996419 5.11717827,5.34996419 C5.35773345,5.34996419 5.5545416,5.39159505 5.72949406,5.45405273 C5.90444652,5.51651042 6.03565195,5.59977214 6.14498981,5.70386068 L6.14498981,5.82876465 L6.1450017,5.82875326 Z M6.95412564,0.22898112 C6.95412564,0.374700521 6.64796774,2.58129557 6.64796774,2.58129557 C6.58236503,2.8935498 6.40741256,3.91358561 6.36367742,4.08012044 C6.18872496,3.99684733 5.27026316,3.80949707 4.98597284,3.80949707 C4.37365705,3.80949707 3.80508829,3.91358561 3.28024278,4.08012044 C2.75539728,4.2674707 2.31803396,4.51727865 1.9025382,4.85034831 C1.50891002,5.2042334 1.18088455,5.59976074 0.896594228,6.03691895 C0.612303905,6.47407715 0.415495756,6.95286621 0.262410866,7.4524707 C0.109337861,7.9520752 0.0437232598,8.47250651 0.0437232598,9.01374186 C0.0437232598,9.57580404 0.131193548,10.0545931 0.284278438,10.4292936 C0.437351443,10.824821 0.656039049,11.1370752 0.940329372,11.3452409 C1.24648727,11.5534066 1.57451273,11.6574951 1.96814092,11.6574951 L1.99000849,11.6574951 C2.42737182,11.6574951 2.8866146,11.574222 3.32397793,11.428514 C3.76134126,11.282806 4.17683701,11.0746289 4.54860951,10.7831901 C4.94223769,10.4917513 5.27026316,10.1378662 5.53268591,9.72152344 C5.53268591,9.72152344 5.46708319,10.6374707 5.46708319,10.8040055 C5.46708319,10.9497249 5.51081834,11.4493294 5.53268591,11.5326025 C5.55455348,11.6158757 5.59828862,11.6575065 5.6201562,11.6575065 L7.26028353,11.6575065 C7.52270628,11.6575065 7.63204414,11.6575065 7.76324958,11.6366911 L7.76324958,10.8040169 C7.78511715,10.554209 7.87258744,9.30519206 7.91632258,8.9721224 C7.93819015,8.82640299 9.31589474,0.728608398 9.31589474,0.728608398 C9.35962988,0.499627279 9.38149745,0.312265625 9.35962988,0.208188477 C9.33776231,0.0624690755 9.27215959,2.27864583e-05 9.16280985,2.27864583e-05 C9.03160441,2.27864583e-05 8.87851952,2.27864583e-05 8.68171138,0.0208382161 L6.95411375,0.229003906 L6.95412564,0.22898112 Z" id="Shape"></path>
                    <path d="M13.9519864,8.70148763 C13.9519864,8.55576823 13.820781,8.3892334 13.6895637,8.243514 C13.3834058,8.3892334 12.7929576,8.49332194 11.961966,8.51413737 L11.961966,8.51413737 C11.1309745,8.51413737 10.5623939,8.3892334 10.2343684,8.243514 C10.103163,8.41004883 9.97194567,8.57658366 9.97194567,8.70148763 C9.97194567,8.93046875 10.6717317,9.22190755 11.9400985,9.22190755 L11.9400985,9.22190755 C13.2522003,9.22190755 13.9519864,8.95128418 13.9519864,8.70148763 L13.9519864,8.70148763 L13.9519864,8.70148763 Z M10.3655857,8.11862142 C10.6936112,8.24352539 11.2403243,8.32678711 11.9619779,8.32678711 L11.9619779,8.32678711 C12.7054992,8.32678711 13.2303447,8.22269857 13.5583701,8.11862142 L13.5583701,8.11862142 C13.5583701,6.97369303 12.0713277,6.72388509 12.005725,6.72388509 C12.005725,6.61979655 12.0713277,6.57816569 12.0713277,6.57816569 L12.2025331,6.49489258 L12.1806655,6.36998861 L11.7433022,6.36998861 L11.6995671,6.49489258 L11.8307725,6.57816569 C11.8307725,6.57816569 11.8963752,6.61979655 11.8963752,6.72388509 C11.8526401,6.70306966 10.4530679,6.93205078 10.3655976,8.11862142 L10.3655976,8.11862142 L10.3655976,8.11862142 L10.3655857,8.11862142 Z" id="Shape"></path>
                    <path d="M9.64393209,4.08012044 L9.86261969,3.89277018 L10.5186706,3.95521647 L11.5464822,2.81028809 L9.66581154,1.99842936 L10.0813073,1.72780599 L12.2462683,2.16496419 C12.2462683,2.16496419 13.4271528,1.16575521 13.7333107,1.43636719 C14.017601,1.70699056 12.9023192,2.76865723 12.9023192,2.76865723 L13.2740798,4.66299805 L13.011657,4.99606771 L12.2025331,3.37233887 L10.9122988,4.28828613 L10.956034,4.89197917 L10.7373463,5.10014486 L10.3655857,4.4131901 L9.64393209,4.08012044 L9.64393209,4.08012044 Z" id="Shape"></path>
                    <path d="M9.42524448,7.78554036 C9.42524448,8.07295736 9.18047029,8.30596029 8.87853141,8.30596029 C8.57659253,8.30596029 8.33181834,8.07295736 8.33181834,7.78554036 C8.33181834,7.49812337 8.57659253,7.26512044 8.87853141,7.26512044 C9.18047029,7.26512044 9.42524448,7.49812337 9.42524448,7.78554036 L9.42524448,7.78554036 Z" id="Shape"></path>
                    <path d="M10.2781036,5.03770996 C10.2781036,5.03770996 9.6439202,5.64140299 9.40336503,6.93205078 C9.40336503,6.93205078 9.09720713,6.76551595 8.72544652,6.84877767 C8.72544652,6.84877767 8.98786927,5.70384928 9.53457046,5.03769857 L10.2780917,5.03769857 L10.2781036,5.03770996 Z" id="Shape"></path>
                    <path d="M9.75326995,10.6791016 C9.75326995,10.6791016 9.2503039,9.82560059 9.1846893,8.8263916 C9.1846893,8.8263916 8.92226655,8.95129557 8.48490323,8.78476074 C8.48490323,8.78476074 8.5067708,9.82561198 9.0316163,10.6791016 L9.75326995,10.6791016 L9.75326995,10.6791016 Z" id="Shape"></path>
                </g>
            </g>
        </g>
    </g>
</svg>