<?xml version="1.0" encoding="UTF-8" standalone="no"?>
<svg width="32px" height="32px" viewBox="0 0 32 32" version="1.1" xmlns="http://www.w3.org/2000/svg" xmlns:xlink="http://www.w3.org/1999/xlink">
    <!-- Generator: Sketch 3.8.3 (29802) - http://www.bohemiancoding.com/sketch -->
    <title>manual-transmision</title>
    <desc>Created with Sketch.</desc>
    <defs></defs>
    <g id="Ãtomos" stroke="none" stroke-width="1" fill="none" fill-rule="evenodd">
        <g id="03_Iconos" transform="translate(-466.000000, -732.000000)" fill="#666666">
            <g id="ico-transmisionmanual" transform="translate(466.000000, 732.000000)">
                <path d="M23.6608965,30 L8.34027429,30 C4.84437197,30 2,27.1568582 2,23.6604436 L2,8.34014174 C2,4.8443125 4.84437197,2 8.34027429,2 L23.6608965,2 C27.1567988,2 30,4.8443125 30,8.34014174 L30,23.6604436 C30,27.1568582 27.1567988,30 23.6608965,30 Z M11,21.998368 L11,10 L13.2957385,10 L16.0241817,18.49558 C16.2755475,19.2865497 16.4594993,19.878961 16.5744691,20.2722698 C16.7051166,19.8354413 16.9104946,19.1957024 17.1879899,18.3497892 L19.9472659,10.001088 L22,10.001088 L22,22 L20.5299539,22 L20.5299539,11.9556644 L17.1801511,21.998368 L15.8052164,21.998368 L12.4716139,11.7837617 L12.4716139,21.998368 L11,21.998368 L11,21.998368 Z M8.34027429,3.17073987 C6.3043151,3.17073987 3.17076434,5.16685134 3.17076434,8.34014174 L3.17076434,23.6604436 C3.17252049,26.1593879 5.75581201,28.8520896 8.34027429,28.8292601 L23.6608965,28.8292601 C26.4783409,28.7426254 28.8959692,26.1043631 28.8292357,23.6604436 L28.8292357,8.34014174 C28.8292357,5.87690507 26.4777555,3.23922815 23.6608965,3.17073987 L8.34027429,3.17073987 Z" id="Combined-Shape"></path>
            </g>
        </g>
    </g>
</svg>