<?xml version="1.0" encoding="UTF-8"?>
<svg width="32px" height="32px" viewBox="0 0 32 32" version="1.1" xmlns="http://www.w3.org/2000/svg" xmlns:xlink="http://www.w3.org/1999/xlink">
    <!-- Generator: Sketch 41.1 (35376) - http://www.bohemiancoding.com/sketch -->
    <title>massage</title>
    <desc>Created with Sketch.</desc>
    <defs></defs>
    <g id="Ãtomos" stroke="none" stroke-width="1" fill="none" fill-rule="evenodd">
        <g id="Iconos" transform="translate(-719.000000, -4800.000000)" fill="#666666">
            <g id="ico-massage" transform="translate(707.000000, 4800.000000)">
                <path d="M24.2532995,27 L33.6398542,27 L38.240607,14.2661362 C39.3388339,11.2545636 36.6569611,10.56699 35.6512588,13.3997934 C34.9271531,15.4487628 34.3907786,15.7237923 34.3907786,15.7237923 C34.3907786,15.7237923 33.2925517,15.7237923 33.4682144,14.5136627 C33.7203104,12.8909889 34.0555445,10.9107768 34.5570547,7.89920425 C34.8761976,6.02900395 31.9663656,5.75397449 31.7129286,7.29413945 C31.4594917,8.84805588 30.8694796,12.9734977 30.7072263,13.9223493 C30.5342455,14.8574495 29.4735649,15.6412835 29.3662899,13.3172845 C29.3005841,11.7633681 29.1933092,9.48062363 29.1933092,6.44154814 C29.1933092,4.37882721 26.013949,4.6401052 26.013949,6.52405697 C26.013949,7.84419836 26.1212239,13.2347757 26.0957461,14.2661362 C26.0823367,15.2974966 25.6398277,15.6124054 25.0082467,14.1698759 C24.3377785,12.6297109 23.6284231,10.800765 22.9968421,9.27435154 C22.0729369,7.04661294 19.5774543,8.57302642 20.1419885,10.1406943 C20.6502034,11.5020901 21.8570462,14.5136627 22.8238613,16.8376616 C23.3320762,18.0216634 23.9636572,20.3855416 22.4068301,19.1602853 C21.3193307,18.2939426 20.9049813,17.4413512 19.6431602,16.5750085 C18.3840209,15.7224171 17.1235407,17.5678648 17.6049369,18.1839308 C18.6924363,19.5590781 20.6086344,21.7180593 21.8557052,23.7945317 C22.7635192,25.3498233 24.2532995,27 24.2532995,27 Z" id="Shape"></path>
            </g>
        </g>
    </g>
</svg>