<?xml version="1.0" encoding="UTF-8"?>
<svg width="32px" height="32px" viewBox="0 0 32 32" version="1.1" xmlns="http://www.w3.org/2000/svg" xmlns:xlink="http://www.w3.org/1999/xlink">
    <!-- Generator: Sketch 41.1 (35376) - http://www.bohemiancoding.com/sketch -->
    <title>maximize</title>
    <desc>Created with Sketch.</desc>
    <defs></defs>
    <g id="Ãtomos" stroke="none" stroke-width="1" fill="none" fill-rule="evenodd">
        <g id="Iconos" transform="translate(-586.000000, -3479.000000)" fill="#666666">
            <g id="ico-maximize" transform="translate(586.000000, 3479.000000)">
                <path d="M25.8495225,13.3068312 L25.2791874,13.3141103 C24.8072596,13.3235278 24.4448674,12.9418817 24.4542848,12.469954 L24.5867312,9.96462866 C24.6158301,9.49312857 24.3674595,9.37953461 24.0401448,9.70684935 L19.6791573,14.0678369 C19.3518425,14.3951516 18.8711432,14.4535589 18.6197789,14.2021946 L17.7048129,13.2872286 C17.4534486,13.0358643 17.5118559,12.555165 17.8391706,12.2278502 L19.4757443,10.5912766 L22.2001582,7.86686273 C22.5274729,7.53954799 22.4138789,7.29117737 21.9423788,7.3202763 L19.426999,7.44266811 C18.9651258,7.46214013 18.5834797,7.09974788 18.5928972,6.62782013 L18.6001763,6.05748501 C18.6095937,5.58555726 19.0042968,5.19085419 19.4762246,5.18143674 L26.0723031,5.00017492 C26.5442309,4.99075747 26.91625,5.36277662 26.9068326,5.83470437 L26.7255708,12.4307829 C26.7161533,12.9027107 26.3214502,13.2974138 25.8495225,13.3068312 L25.8495225,13.3068312 Z M13.3098926,6.00514229 L13.3271243,6.57526352 C13.3447766,7.04695503 12.9695133,7.41595273 12.4974931,7.41477299 L9.99023785,7.32607073 C9.51830174,7.30520505 9.40905974,7.55552033 9.74203705,7.87707278 L14.1784701,12.1612864 C14.5114474,12.4828388 14.5782352,12.9624456 14.3312961,13.2181585 L13.4324378,14.1489535 C13.1854987,14.4046664 12.7038532,14.3546574 12.3708759,14.0331049 L10.7059893,12.4253427 L7.93444287,9.74889136 C7.60146555,9.4273389 7.35511525,9.54525023 7.39243855,10.0161707 L7.55871116,12.5290314 C7.58624101,12.9904944 7.2305646,13.3784069 6.75854437,13.3772272 L6.18816907,13.3799029 C5.71614884,13.3787232 5.31461737,12.9909687 5.29696508,12.5192772 L5.00061342,5.92736673 C4.98296113,5.45567521 5.34843099,5.07722009 5.82045122,5.07839983 L12.4186886,5.14451661 C12.8907089,5.14569635 13.2922403,5.53345078 13.3098926,6.00514229 L13.3098926,6.00514229 Z M6.18816907,18.5204376 L6.75854437,18.5231133 C7.2305646,18.5219336 7.58624101,18.9098461 7.56858872,19.3815376 L7.39243855,21.8841699 C7.35511525,22.3550903 7.60146555,22.4730016 7.93444287,22.1514492 L12.3708759,17.8672356 C12.7038532,17.5456831 13.1854987,17.4956741 13.4324378,17.751387 L14.3312961,18.682182 C14.5782352,18.937895 14.5114474,19.4175017 14.1784701,19.7390542 L12.5135835,21.3468164 L9.74203705,24.0232677 C9.40905974,24.3448202 9.51830174,24.5951355 9.99023785,24.5742698 L12.5073707,24.4957961 C12.9695133,24.4843878 13.3447766,24.8533855 13.3271243,25.325077 L13.3098926,25.8951982 C13.2922403,26.3668897 12.8907089,26.7546442 12.4186886,26.7558239 L5.82045122,26.8219407 C5.34843099,26.8231204 4.98296113,26.4446653 5.00061342,25.9729738 L5.29696508,19.3810633 C5.31461737,18.9093718 5.71614884,18.5216173 6.18816907,18.5204376 L6.18816907,18.5204376 Z M18.6901074,25.8951982 L18.6728757,25.325077 C18.6552234,24.8533855 19.0304867,24.4843878 19.5025069,24.4855675 L22.0097621,24.5742698 C22.4816983,24.5951355 22.5909403,24.3448202 22.2579629,24.0232677 L17.8215299,19.7390542 C17.4885526,19.4175017 17.4217648,18.937895 17.6687039,18.682182 L18.5675622,17.751387 C18.8145013,17.4956741 19.2961468,17.5456831 19.6291241,17.8672356 L21.2940107,19.4749979 L24.0655571,22.1514492 C24.3985344,22.4730016 24.6448848,22.3550903 24.6075614,21.8841699 L24.4412888,19.3713091 C24.413759,18.9098461 24.7694354,18.5219336 25.2414556,18.5231133 L25.8118309,18.5204376 C26.2838512,18.5216173 26.6853826,18.9093718 26.7030349,19.3810633 L26.9993866,25.9729738 C27.0170389,26.4446653 26.651569,26.8231204 26.1795488,26.8219407 L19.5813114,26.7558239 C19.1092911,26.7546442 18.7077597,26.3668897 18.6901074,25.8951982 L18.6901074,25.8951982 Z" id="Combined-Shape"></path>
            </g>
        </g>
    </g>
</svg>