<?xml version="1.0" encoding="UTF-8"?>
<svg width="32px" height="32px" viewBox="0 0 32 32" version="1.1" xmlns="http://www.w3.org/2000/svg" xmlns:xlink="http://www.w3.org/1999/xlink">
    <!-- Generator: Sketch 41.1 (35376) - http://www.bohemiancoding.com/sketch -->
    <title>minimize</title>
    <desc>Created with Sketch.</desc>
    <defs></defs>
    <g id="Ãtomos" stroke="none" stroke-width="1" fill="none" fill-rule="evenodd">
        <g id="Iconos" transform="translate(-658.000000, -3479.000000)" fill="#666666">
            <g id="ico-minimize" transform="translate(658.000000, 3479.000000)">
                <path d="M18.9167701,5.73531679 L19.4868913,5.71808506 C19.9585829,5.70043277 20.3275806,6.07569609 20.3264008,6.54771632 L20.2376986,9.05497156 C20.2168329,9.52690767 20.4671482,9.63614967 20.7887006,9.30317236 L25.0729142,4.86673933 C25.3944666,4.53376201 25.8740734,4.46697424 26.1297863,4.71391334 L27.0605813,5.61277165 C27.3162943,5.85971075 27.2662852,6.3413562 26.9447328,6.67433351 L25.3369705,8.33922008 L22.6605192,11.1107665 C22.3389667,11.4437439 22.4568781,11.6900942 22.9277985,11.6527709 L25.4406592,11.4864983 C25.9021222,11.4589684 26.2900348,11.8146448 26.288855,12.286665 L26.2915307,12.8570403 C26.290351,13.3290606 25.9025966,13.730592 25.4309051,13.7482443 L18.8389946,14.044596 C18.367303,14.0622483 17.9888479,13.6967784 17.9900277,13.2247582 L18.0561444,6.62652077 C18.0573242,6.15450054 18.4450786,5.75296908 18.9167701,5.73531679 L18.9167701,5.73531679 Z M5.79887942,13.0039703 L5.78164769,12.433849 C5.7639954,11.9621575 6.13925872,11.5931598 6.61127895,11.5943396 L9.11853419,11.6830418 C9.5904703,11.7039075 9.6997123,11.4535922 9.36673499,11.1320398 L4.93030196,6.8478262 C4.59732464,6.52627375 4.53053687,6.04666699 4.77747597,5.79095407 L5.67633428,4.86015904 C5.92327338,4.60444612 6.40491883,4.65445517 6.73789614,4.97600763 L8.40278271,6.5837699 L11.1743292,9.2602212 C11.5073065,9.58177366 11.7536568,9.46386233 11.7163335,8.99294191 L11.5500609,6.48008117 C11.522531,6.01861817 11.8782074,5.63070562 12.3502277,5.63188536 L12.920603,5.62920964 C13.3926232,5.63038939 13.7941547,6.01814382 13.811807,6.48983533 L14.1081586,13.0817458 C14.1258109,13.5534374 13.760341,13.9318925 13.2883208,13.9307127 L6.6900834,13.864596 C6.21806317,13.8634162 5.81653171,13.4756618 5.79887942,13.0039703 L5.79887942,13.0039703 Z M12.920603,26.2711309 L12.3502277,26.2684552 C11.8782074,26.2696349 11.522531,25.8817224 11.5401833,25.4100308 L11.7163335,22.9073986 C11.7536568,22.4364782 11.5073065,22.3185669 11.1743292,22.6401193 L6.73789614,26.9243329 C6.40491883,27.2458854 5.92327338,27.2958944 5.67633428,27.0401815 L4.77747597,26.1093864 C4.53053687,25.8536735 4.59732464,25.3740668 4.93030196,25.0525143 L6.59518852,23.444752 L9.36673499,20.7683007 C9.6997123,20.4467483 9.5904703,20.196433 9.11853419,20.2172987 L6.60140138,20.2957724 C6.13925872,20.3071807 5.7639954,19.938183 5.78164769,19.4664915 L5.79887942,18.8963703 C5.81653171,18.4246787 6.21806317,18.0369243 6.6900834,18.0357446 L13.2883208,17.9696278 C13.760341,17.968448 14.1258109,18.3469032 14.1081586,18.8185947 L13.811807,25.4105052 C13.7941547,25.8821967 13.3926232,26.2699511 12.920603,26.2711309 L12.920603,26.2711309 Z M26.3209606,19.0295673 L26.3182849,19.5999426 C26.3194646,20.0719628 25.9315521,20.4276392 25.4598606,20.4099869 L22.9572284,20.2338368 C22.4863079,20.1965135 22.3683966,20.4428638 22.6899491,20.7758411 L26.9741626,25.2122741 C27.2957151,25.5452514 27.3457241,26.0268969 27.0900112,26.273836 L26.1592162,27.1726943 C25.9035033,27.4196334 25.4238965,27.3528456 25.1023441,27.0198683 L23.4945818,25.3549817 L20.8181305,22.5834353 C20.496578,22.250458 20.2462627,22.3597 20.2671284,22.8316361 L20.3456022,25.3487689 C20.3570104,25.8109115 19.9880127,26.1861749 19.5163212,26.1685226 L18.9462,26.1512908 C18.4745085,26.1336386 18.086754,25.7321071 18.0855743,25.2600869 L18.0194575,18.6618494 C18.0182778,18.1898292 18.3967329,17.8243593 18.8684244,17.8420116 L25.4603349,18.1383633 C25.9320264,18.1560156 26.3197809,18.5575471 26.3209606,19.0295673 L26.3209606,19.0295673 Z" id="Combined-Shape"></path>
            </g>
        </g>
    </g>
</svg>