<?xml version="1.0" encoding="UTF-8"?>
<svg width="32px" height="32px" viewBox="0 0 32 32" version="1.1" xmlns="http://www.w3.org/2000/svg" xmlns:xlink="http://www.w3.org/1999/xlink">
    <!-- Generator: Sketch 43.1 (39012) - http://www.bohemiancoding.com/sketch -->
    <title>minibar</title>
    <desc>Created with Sketch.</desc>
    <defs></defs>
    <g id="Ãtomos" stroke="none" stroke-width="1" fill="none" fill-rule="evenodd">
        <g id="Iconos" transform="translate(-494.000000, -4960.000000)">
            <g id="ico-grill-copy-3" transform="translate(482.000000, 4960.000000)"></g>
            <g id="fri" transform="translate(498.000000, 4964.000000)" fill="#666666">
                <g id="Group">
                    <path d="M24.21875,0.130208333 L0.78125,0.130208333 C0.421875,0.130208333 0.130208333,0.421875 0.130208333,0.78125 L0.130208333,24.21875 C0.130208333,24.578125 0.421875,24.8697917 0.78125,24.8697917 L24.21875,24.8697917 C24.578125,24.8697917 24.8697917,24.578125 24.8697917,24.21875 L24.8697917,0.78125 C24.8697917,0.421875 24.578125,0.130208333 24.21875,0.130208333 L24.21875,0.130208333 Z M23.5677083,23.5677083 L1.43229167,23.5677083 L1.43229167,1.43229167 L23.5677083,1.43229167 L23.5677083,23.5677083 L23.5677083,23.5677083 Z" id="Shape"></path>
                    <path d="M3.75,22.9166667 L6.92708333,22.9166667 C7.83854167,22.9166667 8.59375,22.1354167 8.59375,21.1588542 L8.59375,12.1223958 C8.59375,10.46875 7.68880208,9.453125 6.50390625,8.84114583 L6.50390625,3.38541667 L3.89973958,3.38541667 L3.89973958,8.84114583 C2.54557292,9.34895833 2.08333333,10.3125 2.08333333,12.1223958 L2.08333333,21.1588542 C2.08333333,22.1354167 2.83854167,22.9166667 3.75,22.9166667 L3.75,22.9166667 Z M3.38541667,12.5 L3.8671875,12.5 L7.29166667,12.5 L7.29166667,13.8020833 L3.38541667,13.8020833 L3.38541667,12.5 L3.38541667,12.5 Z" id="Shape"></path>
                    <path d="M15.1041667,21.6145833 L11.5664063,21.6145833 C10.6276042,21.6145833 10.6158854,22.9166667 11.5664063,22.9166667 L19.9739583,22.9166667 C20.9244792,22.9166667 20.9114583,21.6145833 19.9739583,21.6145833 L16.40625,21.6145833 L16.40625,17.6432292 L21.4973958,11.1979167 L9.921875,11.1979167 L15.1041667,17.6432292 L15.1041667,21.6145833 L15.1041667,21.6145833 Z M17.3177083,13.7643229 C17.8255208,13.7643229 18.2291667,14.1666667 18.2291667,14.6614583 C18.2291667,15.1692708 17.8216146,15.5716146 17.3177083,15.5716146 C16.8229167,15.5716146 16.4192708,15.1653646 16.4192708,14.6614583 C16.4192708,14.1653646 16.8229167,13.7643229 17.3177083,13.7643229 L17.3177083,13.7643229 Z" id="Shape"></path>
                </g>
            </g>
        </g>
    </g>
</svg>