<?xml version="1.0" encoding="UTF-8"?>
<svg width="32px" height="32px" viewBox="0 0 32 32" version="1.1" xmlns="http://www.w3.org/2000/svg" xmlns:xlink="http://www.w3.org/1999/xlink">
    <!-- Generator: Sketch 39.1 (31720) - http://www.bohemiancoding.com/sketch -->
    <title>night</title>
    <desc>Created with Sketch.</desc>
    <defs></defs>
    <g id="Ãtomos" stroke="none" stroke-width="1" fill="none" fill-rule="evenodd">
        <g id="03_Iconos" transform="translate(-379.000000, -1263.000000)" fill="#666666">
            <g id="ico-nocturno" transform="translate(379.000000, 1263.000000)">
                <path d="M18.5433383,6.84517262 L17.2287858,8.62215651 C16.3454898,8.24805464 15.2231841,8.24805464 14.5944852,9.15733003 C13.9969613,10.0198427 14.0489199,11.0953856 14.6568355,11.7500638 L13.9553945,12.6957102 C13.825498,12.8671736 13.8670648,13.111379 14.0489199,13.2360796 C14.121662,13.2828424 14.2047957,13.3088216 14.2827336,13.3088216 C14.4074342,13.3088216 14.5321348,13.2516672 14.6152686,13.1425541 L15.3167096,12.1917119 C16.189614,12.5242469 17.2859403,12.1605367 17.8990517,11.2720448 C18.4809879,10.4303156 18.4446169,9.74446213 17.8730724,9.08978386 L19.5357474,6.84517262 L25.0953169,6.84517262 L15.6856156,17.7045187 L6.53051144,6.84517262 L18.5433383,6.84517262 L18.5433383,6.84517262 Z M22.6228179,4.76682888 L27.2931654,4.76682888 C27.6880507,4.76682888 28.046565,4.99025083 28.2076367,5.33317755 C28.3739042,5.67610426 28.5401717,5.8631552 28.2855745,6.15412332 L16.9118384,19.1853386 L16.9118384,27.1090241 L22.7312009,27.1090241 C23.2923537,27.1090241 23.7391976,28.0182995 23.7391976,28.553473 C23.7391976,29.0886465 23.2923537,29.1873678 22.7312009,29.1873678 L8.6192469,29.1873678 C8.06328995,29.1873678 7.61125018,29.0886465 7.61125018,28.553473 C7.61125018,28.0182995 8.22955745,27.1090241 8.7855144,27.1090241 L14.8334947,27.1090241 L14.8334947,18.8424119 L3.76111841,6.1437316 C3.51171716,5.85276348 3.2882952,5.66571254 3.4545627,5.32798169 C3.6208302,4.98505497 3.9793445,4.76682888 4.36903395,4.76682888 L20.7465283,4.76682888 L23.1907573,1.8718589 C23.4275837,1.58665745 23.9111042,1.02489704 24.2564759,1.23231627 C24.6018477,1.4397355 24.6807898,2.3299097 24.4340957,2.62375361 L22.6228179,4.76682888 Z" id="nocturno"></path>
            </g>
        </g>
    </g>
</svg>