<?xml version="1.0" encoding="UTF-8"?>
<svg width="32px" height="32px" viewBox="0 0 32 32" version="1.1" xmlns="http://www.w3.org/2000/svg" xmlns:xlink="http://www.w3.org/1999/xlink">
    <!-- Generator: Sketch 41.1 (35376) - http://www.bohemiancoding.com/sketch -->
    <title>notification</title>
    <desc>Created with Sketch.</desc>
    <defs></defs>
    <g id="Ãtomos" stroke="none" stroke-width="1" fill="none" fill-rule="evenodd">
        <g id="Iconos" transform="translate(-83.000000, -3393.000000)" fill="#666666">
            <g id="ico-notification" transform="translate(83.000000, 3393.000000)">
                <path d="M13.5965248,25.6869084 C8.49626104,25.698243 4,25.7082353 4,25.7082353 L4,22.9546503 C13.2553453,15.8795455 5.80212489,6.80620565 13.4454753,5.14792911 C14.0789441,2.38130554 17.3088308,2.3281442 18.064258,5.07180564 C25.7762267,6.4870589 18.436855,16.1815377 28,22.9546503 C28,22.9546503 28,25.6548987 28,25.6548987 C28,25.6548987 23.4961773,25.6649078 18.3906132,25.6762542 C18.3891721,25.9634611 18.3880459,26.3656436 18.3924263,26.564054 C18.4186049,27.8575276 17.3856804,28.7725559 15.9941888,28.7725559 C14.6026972,28.7725559 13.6300259,27.8597613 13.5983971,26.564054 C13.5944773,26.3738084 13.595269,25.9749327 13.5965248,25.6869084 Z" id="notification"></path>
            </g>
        </g>
    </g>
</svg>