<?xml version="1.0" encoding="UTF-8" standalone="no"?>
<svg width="32px" height="32px" viewBox="0 0 32 32" version="1.1" xmlns="http://www.w3.org/2000/svg" xmlns:xlink="http://www.w3.org/1999/xlink">
    <!-- Generator: Sketch 3.7.2 (28276) - http://www.bohemiancoding.com/sketch -->
    <title>order</title>
    <desc>Created with Sketch.</desc>
    <defs></defs>
    <g id="Ãtomos" stroke="none" stroke-width="1" fill="none" fill-rule="evenodd">
        <g id="03_Iconos" transform="translate(-354.000000, -529.000000)" fill="#666666">
            <g id="ico-order" transform="translate(354.000000, 529.000000)">
                <path d="M2.4538871,21.6629277 C2.4538871,21.6629277 1.37438572,20.6437405 2.54497388,20.6437405 L6.54294479,20.6437405 L6.54294479,18.9007827 L6.54294479,8.16362133 C6.54294479,8.16362133 6.38415838,7.55555556 7.29994975,7.55555556 L12.9276354,7.55555556 C13.5873991,7.55555556 13.5726283,8.06761094 13.5726283,8.06761094 L13.5726283,18.8281595 L13.5726283,20.3864819 L17.2628736,20.3864819 C18.6833349,20.3864819 17.6136807,21.4536743 17.6136807,21.4536743 C17.6136807,21.4536743 11.5773355,29.4668487 10.7353983,30.307555 C10.1297943,30.9168517 9.54880839,30.2361627 9.54880839,30.2361627 L2.4538871,21.6629277 Z" id="Shape"></path>
                <path d="M22.4988267,24.8633286 L15.4039054,16.2900936 C15.4039054,16.2900936 14.324404,15.2709064 15.4949922,15.2709064 L19.4929631,15.2709064 L19.4929631,13.5279487 L19.4929631,2.79078724 C19.4929631,2.79078724 19.3341767,2.18272147 20.249968,2.18272147 L25.8776537,2.18272147 C26.5374174,2.18272147 26.5226465,2.69477685 26.5226465,2.69477685 L26.5226465,13.4553254 L26.5226465,15.0136478 L30.2128919,15.0136478 C31.6333532,15.0136478 30.563699,16.0808402 30.563699,16.0808402 C30.563699,16.0808402 24.5273538,24.0940146 23.6854166,24.934721 C23.0798126,25.5440176 22.4988267,24.8633286 22.4988267,24.8633286 L22.4988267,24.8633286 Z" id="Shape" transform="translate(22.950018, 13.685448) rotate(-180.000000) translate(-22.950018, -13.685448) "></path>
            </g>
        </g>
    </g>
</svg>