<?xml version="1.0" encoding="UTF-8" standalone="no"?>
<svg width="16px" height="16px" viewBox="0 0 16 16" version="1.1" xmlns="http://www.w3.org/2000/svg" xmlns:xlink="http://www.w3.org/1999/xlink">
    <!-- Generator: Sketch 3.7 (28169) - http://www.bohemiancoding.com/sketch -->
    <title>ico_packages</title>
    <desc>Created with Sketch.</desc>
    <defs></defs>
    <g id="Ãtomos" stroke="none" stroke-width="1" fill="none" fill-rule="evenodd">
        <g id="03_Iconos" transform="translate(-200.000000, -320.000000)" fill="#666666">
            <g id="packages" transform="translate(200.000000, 320.000000)">
                <path d="M5.84494388,3.63831837 C6.16746436,3.33218751 6.60491095,3.22445645 7.09491239,3.22445645 L8.59494022,3.22445645 C9.08494166,3.22445645 9.52248395,3.33217412 9.84490873,3.63831837 C10.0573703,3.84157972 10.202402,4.16970142 10.2799217,4.44889951 L5.40993089,4.44889951 C5.48745065,4.16968803 5.63491592,3.84157972 5.84494388,3.63831837 L5.84494388,3.63831837 L5.84494388,3.63831837 Z M12.6375478,4.44899326 L11.5725466,4.44899326 C11.342503,3.07266333 10.1025423,2 8.59503592,2 L7.09500809,2 C5.58750172,2 4.34752739,3.07266333 4.11749741,4.44899326 L3.36247958,4.44899326 C2.16497021,4.44899326 1,5.62452609 1,6.83431751 L1,11.8130889 C1,13.0228804 1.96999503,14 3.1675044,14 L12.8324956,14 C14.030005,14 15,13.0228804 15,11.8130889 L15,6.83431751 C15,5.62452609 13.8350435,4.44899326 12.6375204,4.44899326 L12.6375204,4.44899326 L12.6375478,4.44899326 Z M10.2499939,5.91832225 L11.4999624,5.91832225 L11.4999624,13.0203357 L10.2499939,13.0203357 L10.2499939,5.91832225 L10.2499939,5.91832225 Z M4.75001489,5.91832225 L5.9999834,5.91832225 L5.9999834,13.0203357 L4.75001489,13.0203357 L4.75001489,5.91832225 L4.75001489,5.91832225 Z" id="Shape"></path>
            </g>
        </g>
    </g>
</svg>