<?xml version="1.0" encoding="UTF-8"?>
<svg width="32px" height="32px" viewBox="0 0 32 32" version="1.1" xmlns="http://www.w3.org/2000/svg" xmlns:xlink="http://www.w3.org/1999/xlink">
    <!-- Generator: Sketch 41.1 (35376) - http://www.bohemiancoding.com/sketch -->
    <title>parking-not-available</title>
    <desc>Created with Sketch.</desc>
    <defs></defs>
    <g id="Ãtomos" stroke="none" stroke-width="1" fill="none" fill-rule="evenodd">
        <g id="Iconos" transform="translate(-141.000000, -4960.000000)" fill="#666666">
            <g id="ico-parking-not-available" transform="translate(125.000000, 4960.000000)">
                <path d="M34.3896205,16.2683001 L40.7663212,22.6450008 C42.1680171,20.7987794 43,18.4964038 43,16.0001115 C43,9.92549019 38.0735882,5.00011148 31.9992197,5.00011148 C29.5023521,5.00011148 27.2001306,5.83162402 25.3542389,7.23291857 L27,8.87867966 L27,8 L36.6673833,8 L36.6673833,10.0580614 L29.5928192,10.0580614 L29.5928192,11.4714989 L32.2174917,14.0961714 L35.3488268,14.0961714 L35.3488268,16.2683001 L34.3896205,16.2683001 Z M36.8731234,22.9944437 L38.6450557,24.766376 C36.7989578,26.1681223 34.4967779,27.0001115 32.0007803,27.0001115 C25.9250626,27.0001115 21,22.0749442 21,16.0001115 C21,13.5029201 21.8315653,11.2003746 23.2329486,9.35426892 L27,13.1213203 L27,23.7466307 L36.8731234,23.7466307 L36.8731234,22.9944437 Z M35.71845,21.8397704 L30.1469798,16.2683001 L29.5928192,16.2683001 L29.5928192,21.8397704 L35.71845,21.8397704 Z M31.9992197,2.00011148 C39.7292236,2.00011148 46,8.26741724 46,16.0001115 C46,23.7312451 39.7307842,30.0001115 32.0007803,30.0001115 C24.2676551,30.0001115 18,23.7312451 18,16.0001115 C18,8.26741724 24.2660944,2.00011148 31.9992197,2.00011148 Z" id="Combined-Shape"></path>
            </g>
        </g>
    </g>
</svg>