<?xml version="1.0" encoding="UTF-8"?>
<svg width="32px" height="32px" viewBox="0 0 32 32" version="1.1" xmlns="http://www.w3.org/2000/svg" xmlns:xlink="http://www.w3.org/1999/xlink">
    <!-- Generator: Sketch 39.1 (31720) - http://www.bohemiancoding.com/sketch -->
    <title>partly-cloudy</title>
    <desc>Created with Sketch.</desc>
    <defs></defs>
    <g id="Ãtomos" stroke="none" stroke-width="1" fill="none" fill-rule="evenodd">
        <g id="03_Iconos" transform="translate(-815.000000, -1041.000000)" fill="#666666">
            <g id="ico-parcialmente-nublado" transform="translate(815.000000, 1041.000000)">
                <path d="M10.1939815,9.75625 L8.68726852,8.24953704 C8.27199074,7.83425926 8.27199074,7.15810185 8.68726852,6.74282407 C9.1025463,6.3275463 9.7787037,6.3275463 10.1939815,6.74282407 L11.7006944,8.24953704 C12.1159722,8.66481481 12.1159722,9.34097222 11.7006944,9.75625 C11.2854167,10.1715278 10.6092593,10.1715278 10.1939815,9.75625 L10.1939815,9.75625 Z M17.7222222,7.25925926 C17.1365741,7.25925926 16.6574074,6.78009259 16.6574074,6.19444444 L16.6574074,4.06481481 C16.6574074,3.47916667 17.1365741,3 17.7222222,3 C18.3078704,3 18.787037,3.47916667 18.787037,4.06481481 L18.787037,6.19444444 C18.787037,6.78009259 18.3078704,7.25925926 17.7222222,7.25925926 L17.7222222,7.25925926 Z M17.7222222,11.5185185 C16.5456019,11.5185185 15.475463,11.9976852 14.7087963,12.7696759 C15.9546296,13.5363426 16.9875,14.6064815 17.70625,15.8895833 C18.0576389,15.8256944 18.4143519,15.7777778 18.787037,15.7777778 C19.9210648,15.7777778 20.9805556,16.0759259 21.9016204,16.5923611 C21.9548611,16.3261574 21.9814815,16.0546296 21.9814815,15.7777778 C21.9814815,13.424537 20.075463,11.5185185 17.7222222,11.5185185 L17.7222222,11.5185185 Z M3.87962963,20.037037 C3.87962963,23.5668981 6.73865741,26.4259259 10.2685185,26.4259259 L18.787037,26.4259259 C21.1402778,26.4259259 23.0462963,24.5199074 23.0462963,22.1666667 C23.0462963,19.8134259 21.1402778,17.9074074 18.787037,17.9074074 C17.9351852,17.9074074 17.1472222,18.162963 16.481713,18.594213 C15.8215278,15.7618056 13.2979167,13.6481481 10.2685185,13.6481481 C6.73865741,13.6481481 3.87962963,16.5071759 3.87962963,20.037037 L3.87962963,20.037037 Z M23.6798611,18.0671296 C24.6115741,19.174537 25.1759259,20.606713 25.1759259,22.1666667 C25.1759259,25.6965278 22.3168981,28.5555556 18.787037,28.5555556 L10.2685185,28.5555556 C5.56203704,28.5555556 1.75,24.7435185 1.75,20.037037 C1.75,15.3305556 5.56203704,11.5185185 10.2685185,11.5185185 C11.1043981,11.5185185 11.9136574,11.6409722 12.675,11.8699074 C13.8462963,10.3631944 15.6671296,9.38888889 17.7222222,9.38888889 C21.2520833,9.38888889 24.1111111,12.2479167 24.1111111,15.7777778 C24.1111111,16.587037 23.956713,17.3537037 23.6798611,18.0671296 L23.6798611,18.0671296 Z M25.250463,9.75625 C24.8351852,10.1715278 24.1590278,10.1715278 23.74375,9.75625 C23.3284722,9.34097222 23.3284722,8.66481481 23.74375,8.24953704 L25.250463,6.74282407 C25.6657407,6.3275463 26.3418981,6.3275463 26.7571759,6.74282407 C27.1724537,7.15810185 27.1724537,7.83425926 26.7571759,8.24953704 L25.250463,9.75625 L25.250463,9.75625 Z M29.4351852,16.8425926 L27.3055556,16.8425926 C26.7199074,16.8425926 26.2407407,16.3634259 26.2407407,15.7777778 C26.2407407,15.1921296 26.7199074,14.712963 27.3055556,14.712963 L29.4351852,14.712963 C30.0208333,14.712963 30.5,15.1921296 30.5,15.7777778 C30.5,16.3634259 30.0208333,16.8425926 29.4351852,16.8425926 L29.4351852,16.8425926 Z" id="parcialmente-nublado"></path>
            </g>
        </g>
    </g>
</svg>