<?xml version="1.0" encoding="UTF-8"?>
<svg width="32px" height="32px" viewBox="0 0 32 32" version="1.1" xmlns="http://www.w3.org/2000/svg" xmlns:xlink="http://www.w3.org/1999/xlink">
    <!-- Generator: Sketch 41.1 (35376) - http://www.bohemiancoding.com/sketch -->
    <title>pet</title>
    <desc>Created with Sketch.</desc>
    <defs></defs>
    <g id="Ãtomos" stroke="none" stroke-width="1" fill="none" fill-rule="evenodd">
        <g id="Iconos" transform="translate(-216.000000, -4720.000000)" fill="#666666">
            <g id="ico-pet" transform="translate(216.000000, 4720.000000)">
                <path d="M19.644375,23.1645833 L19.644375,28.4583333 C19.644375,29.1 20.1402083,29.625 20.76875,29.625 L21.4410417,29.625 C22.068125,29.625 22.5639583,29.1014583 22.5639583,28.4583333 L22.5639583,22.7402083 L22.5639583,17.97 L22.5639583,17.5208333 L16.5104167,13.5833333 L6.34583333,13.5833333 L4.0125,10.3910417 C3.73541667,9.89520833 3.12291667,9.5 2.65625,9.82083333 C2.18958333,10.143125 2.01458333,10.7833333 2.24791667,11.2791667 L3.37083333,13.5979167 C3.80833333,15.1145833 4.5375,16.5145833 5.52916667,17.76875 L2.14583333,22.1583333 L2.14583333,28.938125 C2.14583333,29.31875 2.64166667,29.625 3.26875,29.625 L3.93958333,29.625 C4.56666667,29.625 5.0625,29.31875 5.0625,28.938125 L5.0625,23.2375 L8.44583333,20.5527083 L19.644375,23.1645833 L19.644375,23.1645833 Z M23.9027083,7.82291667 C23.5964583,7.61875 23.249375,7.51666667 22.899375,7.48895833 L22.0214583,5.5625 C21.9222917,5.32916667 21.5985417,5.155625 21.3097917,5.155625 L20.7833333,5.155625 C20.4785417,5.155625 20.2875,5.32916667 20.3472917,5.5625 L20.8577083,7.83895833 C20.886875,7.93958333 20.930625,8.043125 20.9889583,8.12916667 L18.200625,11.9791667 L23.363125,15.8729167 L24.631875,13.8895833 L26.10625,14.7791667 C27.1110417,15.3916667 28.4089583,14.938125 29.006875,13.8166667 L29.6777083,13.30625 C30.258125,12.1964583 29.2985417,11.3360417 28.3535417,10.7235417 L23.9027083,7.82291667 L23.9027083,7.82291667 Z M6.52083333,5.3875 L15.4895833,12.1395833 L16.6125,10.9729167 L6.52083333,3.375 L6.52083333,5.3875 L6.52083333,5.3875 Z" id="pet"></path>
            </g>
        </g>
    </g>
</svg>