<?xml version="1.0" encoding="UTF-8"?>
<svg width="32px" height="32px" viewBox="0 0 32 32" version="1.1" xmlns="http://www.w3.org/2000/svg" xmlns:xlink="http://www.w3.org/1999/xlink">
    <!-- Generator: Sketch 41.1 (35376) - http://www.bohemiancoding.com/sketch -->
    <title>pets-not-allowed</title>
    <desc>Created with Sketch.</desc>
    <defs></defs>
    <g id="Ãtomos" stroke="none" stroke-width="1" fill="none" fill-rule="evenodd">
        <g id="Iconos" transform="translate(-216.000000, -4960.000000)" fill="#666666">
            <g id="ico-pets-not-allowed" transform="translate(203.000000, 4960.000000)">
                <g id="Group-5" transform="translate(15.000000, 2.000000)">
                    <path d="M9.68464723,7.56332688 L7.35423892,5.23291857 C9.20013056,3.83162402 11.5023521,3.00011148 13.9992197,3.00011148 C20.0735882,3.00011148 25,7.92549019 25,14.0001115 C25,16.4964038 24.1680171,18.7987794 22.7663212,20.6450008 L19.5274051,17.4060848 L19.5274051,15.896 L19.5274051,15.6222222 L15.8134439,13.2222222 L15.3435426,13.2222222 L12.3163565,10.1950361 L15.1871435,12.3422222 L15.8760739,11.6311111 L9.68464723,7 L9.68464723,7.56332688 Z M7.00050272,22.4859242 C4.55717523,20.4682923 3,17.4159488 3,14.0001115 C3,11.5029201 3.83156535,9.20037459 5.23294857,7.35426892 L11.1009019,13.2222222 L9.57728145,13.2222222 L8.14573771,11.2764444 C7.97574189,10.9742222 7.59996166,10.7333333 7.31365291,10.9288889 C7.02734416,11.1253333 6.91997838,11.5155556 7.06313276,11.8177778 L7.75206318,13.2311111 C8.02047763,14.1555556 8.46783505,15.0088889 9.07624114,15.7733333 L7.00050272,18.4488889 L7.00050272,22.4859242 Z M7.67392105,22.9998986 C9.463424,24.2600741 11.6456556,25.0001115 14.0007803,25.0001115 C16.4967779,25.0001115 18.7989578,24.1681223 20.6450557,22.766376 L19.5274051,21.6487255 L19.5274051,22.2888889 C19.5274051,22.6808889 19.2232021,23 18.8384747,23 L18.4260112,23 C18.0403891,23 17.736186,22.68 17.736186,22.2888889 L17.736186,19.8575064 L16.7010442,18.8223645 L10.8656708,17.4702222 L8.78993239,19.1066667 L8.78993239,22.5813333 C8.78993239,22.8133333 8.48572935,23 8.10100197,23 L7.68943314,23 C7.68424763,23 7.67907675,22.9999661 7.67392105,22.9998986 Z M13.9992197,0.000111476506 C21.7292236,0.000111476506 28,6.26741724 28,14.0001115 C28,21.7312451 21.7307842,28.0001115 14.0007803,28.0001115 C6.26765509,28.0001115 0,21.7312451 0,14.0001115 C0,6.26741724 6.26609442,0.000111476506 13.9992197,0.000111476506 Z M20.3487534,9.71111111 C20.1608632,9.58666667 19.9479211,9.52444444 19.7331896,9.50755556 L19.1945712,8.33333333 C19.1337306,8.19111111 18.9351039,8.08533333 18.7579504,8.08533333 L18.4349583,8.08533333 C18.2479629,8.08533333 18.1307553,8.19111111 18.1674386,8.33333333 L18.4805888,9.72088889 C18.4984831,9.78222222 18.5253245,9.84533333 18.5611131,9.89777778 L16.8504184,12.2444444 L20.0177089,14.6177778 L20.7961108,13.4088889 L21.7006675,13.9511111 C22.317126,14.3244444 23.1134222,14.048 23.4802553,13.3644444 L23.8918241,13.0533333 C24.2479206,12.3768889 23.6591983,11.8524444 23.079423,11.4791111 L20.3487534,9.71111111 Z" id="Combined-Shape"></path>
                </g>
            </g>
        </g>
    </g>
</svg>