<?xml version="1.0" encoding="UTF-8"?>
<svg width="32px" height="32px" viewBox="0 0 32 32" version="1.1" xmlns="http://www.w3.org/2000/svg" xmlns:xlink="http://www.w3.org/1999/xlink">
    <!-- Generator: Sketch 41.1 (35376) - http://www.bohemiancoding.com/sketch -->
    <title>phone</title>
    <desc>Created with Sketch.</desc>
    <defs></defs>
    <g id="Ãtomos" stroke="none" stroke-width="1" fill="none" fill-rule="evenodd">
        <g id="Iconos" transform="translate(-368.000000, -3403.000000)" fill="#666666">
            <g id="ico-phone" transform="translate(368.000000, 3403.000000)">
                <path d="M29.3577498,19.7136536 C28.3529391,18.7408588 27.3442885,17.7719015 26.3311578,16.8074213 C25.502349,16.0181848 24.4860183,16.0392908 23.6917699,16.8573082 C23.0856835,17.4808946 22.4776771,18.1051205 21.8850309,18.7414984 C21.7231091,18.9141839 21.5835877,18.953198 21.3755855,18.8457493 C20.9717412,18.636608 20.5442167,18.4696787 20.1563726,18.2368731 C18.3425935,17.1483152 16.8129773,15.7297361 15.4529629,14.1237613 C14.7771158,13.3249312 14.1723094,12.4736558 13.7479849,11.5059777 C13.660944,11.3096279 13.6711841,11.179794 13.8318258,11.0192605 C14.4385522,10.4103844 15.0299185,9.78551882 15.6244848,9.16449074 C16.4539335,8.29850514 16.4328133,7.29948778 15.5668841,6.46036436 C15.075999,5.98451998 14.5812737,5.51251306 14.0884685,5.03858741 C13.5803032,4.55059109 13.0759778,4.05811774 12.5626924,3.57523803 C11.7332437,2.79175771 10.7162729,2.80902625 9.91882451,3.62448537 C9.31017808,4.24615302 8.09096521,5.51890882 7.47335869,6.13098284 C6.8973526,6.70020528 6.61126958,7.38327221 6.56710912,8.1808232 C6.49606837,9.47148712 6.83655196,10.6847624 7.30247688,11.8666984 C8.26504705,14.3098779 9.69866218,16.4620504 11.4209204,18.4319437 C13.750545,21.0951373 16.5140941,23.1846313 19.7275681,24.6684471 C20.5781371,25.0611467 21.4472662,25.3950052 22.3464757,25.616938 C21.8875909,26.3729166 21.1842235,26.9709199 20.3317345,27.2881495 C18.9890003,27.7889374 17.4721843,27.5247926 16.3649726,26.5948494 L8.7060117,20.3225297 C7.61608019,19.3113604 6.0634238,18.9922121 4.66116899,19.4878834 C3.25443414,19.9841942 2.25282356,21.2057839 2.04098133,22.6793665 C1.8297791,24.1523095 2.44738562,25.607984 3.60579785,26.4426304 L6.28422613,28.7009724 C6.71047063,29.0495412 7.33767725,28.9868628 7.68712094,28.5615449 C8.03592463,28.136227 7.97320396,27.5088032 7.54759947,27.1602344 L4.8224507,24.8667156 C4.21764431,24.430525 3.90916105,23.7001294 4.01540217,22.9633381 C4.11844326,22.2271864 4.62276859,21.6119145 5.32357599,21.3656778 C6.02630341,21.1175224 6.80583164,21.2774164 7.39591787,21.8223349 L15.0932791,28.1279125 C16.7406565,29.5106754 19.0107605,29.9059332 21.0255018,29.1550712 C22.0347924,28.7809194 22.9045616,28.1464602 23.5650486,27.3412343 C23.9215324,26.9069624 24.2108154,26.4196056 24.4341778,25.8983514 C25.4812288,25.9066659 26.3938785,25.5996695 27.1151661,24.7618252 C27.6348516,24.1574261 28.8483044,22.9780484 29.3987102,22.401151 C30.2134388,21.5466778 30.2006387,20.5297523 29.3577498,19.7136536" id="phone"></path>
            </g>
        </g>
    </g>
</svg>