<?xml version="1.0" encoding="UTF-8" standalone="no"?>
<svg width="16px" height="16px" viewBox="0 0 16 16" version="1.1" xmlns="http://www.w3.org/2000/svg" xmlns:xlink="http://www.w3.org/1999/xlink">
    <!-- Generator: Sketch 3.7 (28169) - http://www.bohemiancoding.com/sketch -->
    <title>picture</title>
    <desc>Created with Sketch.</desc>
    <defs></defs>
    <g id="Ãtomos" stroke="none" stroke-width="1" fill="none" fill-rule="evenodd">
        <g id="03_Iconos" transform="translate(-356.000000, -346.000000)" fill="#666666">
            <g id="picture" transform="translate(356.000000, 346.000000)">
                <g id="Group" transform="translate(1.000000, 2.500000)">
                    <path d="M2.32097627,9.89865973 L2.12440454,8.82070046 L5.49619431,9.31044572 L2.32097627,9.89865973 L2.32097627,9.89865973 Z M1.04050774,2.913852 L2.27457424,2.68404599 L1.71488389,6.58819511 L1.04050774,2.913852 L1.04050774,2.913852 Z M11.1395454,1.04522514 L11.2269017,1.52402943 L9.72529569,1.30789965 L11.1395567,1.04527073 L11.1395454,1.04522514 Z M12.6930125,4.18332387 L12.2616556,7.17640912 L12.1305926,8.0820025 L11.985882,9.09156929 L11.9613162,9.26940568 L11.4371097,9.19555412 L2.49839579,7.89872982 L3.41847524,1.49119512 L3.43485242,1.37353408 L3.78432339,1.42276846 L12.8977728,2.74420994 L12.6930125,4.18331247 L12.6930125,4.18332387 Z M13.8288159,2.04655202 C13.752389,1.9425672 13.6377032,1.87418613 13.5120993,1.85777467 L12.2316308,1.67173256 L11.9968456,0.396790199 C11.9504436,0.134161282 11.6992357,-0.040939858 11.4371552,0.00829451625 L6.746638,0.875594489 L3.09634507,0.347555825 C2.8342646,0.309262423 2.59124534,0.492569292 2.55303191,0.755198209 L2.41923939,1.6744678 L0.393426897,2.04928727 C0.267822974,2.07390445 0.15864173,2.14505496 0.084898898,2.25174084 C0.0139310893,2.35572566 -0.016139245,2.48701732 0.00847202712,2.61288409 L1.46094651,10.5470491 C1.48551229,10.6729159 1.55651422,10.7850608 1.66297731,10.858958 C1.74213371,10.9136628 1.83771279,10.9437505 1.93599865,10.9437505 C1.96329397,10.9437505 1.99331881,10.9410153 2.02335502,10.9355448 L8.47482925,9.7426711 L12.2998577,10.295327 C12.3244234,10.2980622 12.3462597,10.3007974 12.3680959,10.3007974 C12.6028811,10.3007974 12.810371,10.1284315 12.8459004,9.88768457 L12.9851519,8.90823963 L13.0643083,8.89182817 C13.3263888,8.84532904 13.4983948,8.59359551 13.4519927,8.33096659 L13.2363143,7.15727382 L13.918879,2.40497143 C13.9379858,2.27636942 13.9052314,2.147813 13.8287818,2.04656342 L13.8287818,2.04656342 L13.8288159,2.04655202 Z" id="Shape"></path>
                    <path d="M6.09802044,5.03113713 C6.60312017,5.1049887 7.0726905,4.75206257 7.1437038,4.2432048 C7.21740114,3.73704808 6.86794155,3.2664951 6.36287594,3.19259795 C5.85504668,3.11874639 5.38820587,3.47167252 5.31446304,3.97779505 C5.2407657,4.48668701 5.59295483,4.95723998 6.09802044,5.03113713 L6.09802044,5.03113713 Z" id="Shape"></path>
                    <path d="M10.791908,5.52144858 L9.9127715,6.43524768 L8.80703845,4.24377098 L6.70751724,6.66778893 C6.70751724,6.66778893 3.94454938,5.55153625 3.18282823,7.48855558 L11.3680096,8.67593597 L11.3079599,8.3394099 L10.7919421,5.52142578 L10.791908,5.52144858 Z" id="Shape"></path>
                </g>
            </g>
        </g>
    </g>
</svg>