<?xml version="1.0" encoding="UTF-8" standalone="no"?>
<svg width="32px" height="32px" viewBox="0 0 32 32" version="1.1" xmlns="http://www.w3.org/2000/svg" xmlns:xlink="http://www.w3.org/1999/xlink">
    <!-- Generator: Sketch 3.7.2 (28276) - http://www.bohemiancoding.com/sketch -->
    <title>pig-offer</title>
    <desc>Created with Sketch.</desc>
    <defs></defs>
    <g id="Ãtomos" stroke="none" stroke-width="1" fill="none" fill-rule="evenodd">
        <g id="03_Iconos" transform="translate(-507.000000, -478.000000)" fill="#666666">
            <g id="pig-offer" transform="translate(507.000000, 478.000000)">
                <path d="M18.5007729,10.2185002 L15.1019179,10.2185002 C14.7138759,10.2185002 14.3993697,9.90333773 14.3993697,9.51364102 C14.3993697,9.1239443 14.7138759,8.80840346 15.1019179,8.80840346 L18.5007729,8.80840346 C18.8888148,8.80840346 19.2040753,9.1239443 19.2040753,9.51364102 C19.2040753,9.90333773 18.8888148,10.2185002 18.5007729,10.2185002 M9.30504678,13.0844736 C8.80575864,13.0844736 8.40150117,12.678508 8.40150117,12.1779558 C8.40150117,11.6770253 8.80575864,11.2710597 9.30504678,11.2710597 C9.80395781,11.2710597 10.2085924,11.6770253 10.2085924,12.1779558 C10.2085924,12.678508 9.80395781,13.0844736 9.30504678,13.0844736 M29.9259487,11.191607 C29.7521029,10.8423933 29.3293672,10.7027835 28.982807,10.8760661 L26.7691956,11.9853776 C25.063923,8.6241488 21.3343462,6.28559016 17.0153529,6.28559016 L15.4639395,6.28559016 C15.0125438,6.28559016 14.5690673,6.31547952 14.1323787,6.36579958 C13.7582897,5.86070723 12.2445869,4 10.2504511,4 C10.0626524,4 9.88239583,4.07566927 9.75040878,4.20998221 C9.61804463,4.34505185 9.5452632,4.52703643 9.54752584,4.71469621 L9.5901388,7.89431874 C7.99196422,8.85153495 6.68604667,10.1799089 5.83152482,11.7526946 C5.62411661,11.8094465 4.98680772,11.8972229 3.38486209,11.3437022 C2.96137222,11.1969038 2.52392944,11.32819 2.26825167,11.6705934 C1.55552162,12.6251612 2.39722187,16.2308017 3.22911737,19.0854247 C3.44105086,19.8171465 4.17301331,20.3668837 4.93250448,20.3668837 L5.79833951,20.3668837 C6.78899657,22.2207807 8.40150117,23.7481649 10.3858321,24.7235417 L10.3858321,27.1582003 C10.3858321,27.9916973 11.0612287,28.6693155 11.89237,28.6693155 L13.6508146,28.6693155 C14.4808245,28.6693155 15.1565982,27.9916973 15.1565982,27.1582003 L15.1565982,25.8805248 C15.259171,25.8831732 15.3606125,25.8914968 15.4639395,25.8914968 L17.0153529,25.8914968 C17.1209426,25.8914968 17.225778,25.8865783 17.3309905,25.8831732 L17.3309905,27.1582003 C17.3309905,27.9916973 18.0063871,28.6693155 18.8375284,28.6693155 L20.5959729,28.6693155 C21.42636,28.6693155 22.1017566,27.9916973 22.1017566,27.1582003 L22.1017566,24.7201366 C25.4670492,23.0626013 27.7590985,19.8156331 27.7590985,16.0885435 C27.7590985,15.1165718 27.600714,14.1782729 27.3107196,13.2918074 L29.6114424,12.1378511 C29.9583798,11.9638118 30.0990403,11.5404423 29.9259487,11.191607"></path>
            </g>
        </g>
    </g>
</svg>