<?xml version="1.0" encoding="UTF-8"?>
<svg width="32px" height="32px" viewBox="0 0 32 32" version="1.1" xmlns="http://www.w3.org/2000/svg" xmlns:xlink="http://www.w3.org/1999/xlink">
    <!-- Generator: Sketch 39.1 (31720) - http://www.bohemiancoding.com/sketch -->
    <title>purchases</title>
    <desc>Created with Sketch.</desc>
    <defs></defs>
    <g id="Ãtomos" stroke="none" stroke-width="1" fill="none" fill-rule="evenodd">
        <g id="03_Iconos" transform="translate(-809.000000, -1263.000000)" fill="#666666">
            <g id="ico-compras" transform="translate(809.000000, 1263.000000)">
                <path d="M15.1294995,4.74190111 L15.2030289,4.74190111 C16.8598917,4.74190111 18.2275387,6.64494111 18.4285191,8.54190111 L11.9040093,8.54190111 C12.1049897,6.64494111 13.4726368,4.74190111 15.1294995,4.74190111 L15.1294995,4.74190111 Z M20.6834211,24.9428815 C20.6393035,24.9624893 20.6000878,24.9771952 20.5559701,24.9820972 L20.5265584,24.9869991 L20.4971466,24.9919011 C20.4628329,24.9919011 20.4285191,24.9869991 20.3991074,24.9771952 L20.3893035,24.9722933 C20.3500878,24.9624893 20.315774,24.9428815 20.2814603,24.9183717 L20.2569505,24.8987639 C20.2226368,24.874254 20.193225,24.8399403 20.1687152,24.8056266 L16.5853819,18.5262148 C16.5363623,18.4477835 16.5216564,18.3448423 16.5510682,18.2468031 L17.6540093,14.2468031 C17.6834211,14.1487639 17.7471466,14.0654305 17.8304799,14.0164109 C17.8696956,13.9968031 17.9138133,13.9820972 17.9579309,13.9771952 L17.9824407,13.9722933 L18.0167544,13.9673913 C18.0510682,13.9673913 18.0853819,13.9722933 18.1196956,13.9820972 L21.8745976,15.011509 L22.1393035,15.0801364 C22.2373427,15.1095482 22.7226368,15.1683717 22.7716564,15.256607 L24.1589113,17.3644501 L24.1589113,8.76641091 C24.1589113,8.30072464 23.4187152,7.8056266 22.948127,7.8056266 L20.1245976,7.8056266 C19.9187152,5.50660699 17.7961662,3.20758738 15.2030289,3.20758738 L15.1294995,3.20758738 C12.5363623,3.20758738 10.4138133,5.50660699 10.2079309,7.8056266 L7.56087208,7.8056266 C7.09028385,7.8056266 7.00204855,8.30072464 7.00204855,8.76641091 L7.00204855,27.0605286 C7.00204855,27.5262148 7.09028385,27.9036658 7.56087208,27.9036658 L22.948127,27.9036658 C23.4187152,27.9036658 24.1589113,27.5262148 24.1589113,27.0605286 L24.1589113,23.3056266 L22.2814603,24.2664109 L20.6834211,24.9428815 Z M25.1000878,21.1389599 L23.1736172,17.7664109 L22.198127,16.0654305 C22.1589113,15.9919011 22.0951858,15.9428815 22.0167544,15.9232737 L21.8010682,15.8644501 L18.7618525,15.0311168 C18.7373427,15.0262148 18.7079309,15.0213129 18.6785191,15.0213129 L18.6540093,15.0262148 L18.6294995,15.0262148 C18.5951858,15.0311168 18.5608721,15.0409207 18.5265584,15.0605286 C18.4628329,15.0997442 18.4089113,15.1634697 18.3844015,15.2468031 L17.4922446,18.4820972 C17.4726368,18.5605286 17.4824407,18.6438619 17.5216564,18.7124893 L20.4236172,23.7860188 C20.443225,23.8154305 20.4677348,23.8448423 20.4922446,23.8644501 L20.5167544,23.879156 C20.5412642,23.8987639 20.570676,23.9183717 20.6000878,23.9232737 L20.6098917,23.9281756 C20.6344015,23.9379795 20.6589113,23.9379795 20.6883231,23.9379795 L20.7128329,23.9379795 L20.7373427,23.9330776 C20.7716564,23.9281756 20.8010682,23.9183717 20.8402838,23.8987639 L21.8010682,23.3546462 L23.1736172,22.5752344 L24.9824407,21.5507246 C25.1294995,21.4673913 25.1834211,21.2811168 25.1000878,21.1389599 Z M20.0853819,18.0229258 C20.0314603,18.0631946 19.9726368,18.0862053 19.9138133,18.1034634 L19.8598917,18.1207215 C19.820676,18.1322269 19.7814603,18.1322269 19.7373427,18.1379795 L19.6834211,18.1379795 C19.6294995,18.1379795 19.575578,18.1322269 19.5216564,18.1149688 L19.5020486,18.1092161 C19.448127,18.091958 19.3942054,18.0631946 19.3402838,18.0344312 L19.2961662,17.999915 L19.193225,17.907872 L19.1491074,17.8618505 C19.1098917,17.8100763 19.070676,17.7525494 19.0412642,17.6892699 C18.8304799,17.2578182 18.9579309,16.7113129 19.325578,16.4697 C19.3794995,16.4294312 19.4383231,16.4064204 19.4971466,16.3891623 L19.5461662,16.377657 C19.5853819,16.3661516 19.6294995,16.3546462 19.6687152,16.3546462 L19.7275387,16.3546462 C19.7814603,16.3546462 19.8304799,16.3661516 19.8844015,16.377657 L19.9040093,16.3834096 C19.9579309,16.4006677 20.0167544,16.4236785 20.065774,16.4581946 L20.1098917,16.4927107 C20.1491074,16.5157215 20.1834211,16.5502376 20.2177348,16.5905064 L20.2569505,16.6307752 C20.3010682,16.6825494 20.3402838,16.7343236 20.3745976,16.8033559 C20.5804799,17.2290548 20.4530289,17.7813129 20.0853819,18.0229258 Z" id="compras"></path>
            </g>
        </g>
    </g>
</svg>