<?xml version="1.0" encoding="UTF-8" standalone="no"?>
<svg width="16px" height="16px" viewBox="0 0 16 16" version="1.1" xmlns="http://www.w3.org/2000/svg" xmlns:xlink="http://www.w3.org/1999/xlink">
    <!-- Generator: Sketch 3.7 (28169) - http://www.bohemiancoding.com/sketch -->
    <title>question-circle</title>
    <desc>Created with Sketch.</desc>
    <defs></defs>
    <g id="Ãtomos" stroke="none" stroke-width="1" fill="none" fill-rule="evenodd">
        <g id="03_Iconos" transform="translate(-356.000000, -320.000000)" fill="#666666">
            <g id="question-circle" transform="translate(356.000000, 320.000000)">
                <g id="Group" transform="translate(1.000000, 1.000000)">
                    <path d="M9.75041211,5.69916211 C9.63957422,5.91791211 9.49666211,6.1075 9.33041211,6.26791211 C9.16416211,6.4225 8.98332422,6.56541211 8.79375,6.685 C8.61,6.80166211 8.43791211,6.93 8.28041211,7.06125 C8.12582422,7.18958789 7.9975,7.33541211 7.89832422,7.49 C7.80207422,7.63875 7.75541211,7.82541211 7.75541211,8.04416211 L7.75541211,8.26 C7.75541211,8.40291211 7.68541211,8.55458789 7.54541211,8.70625 C7.40541211,8.86375 7.21582422,8.94541211 6.98832422,8.95708789 L6.93873633,8.95708789 C6.70539844,8.95708789 6.51582422,8.89 6.37582422,8.75875 C6.22416211,8.61583789 6.14832422,8.45833789 6.14832422,8.28625 C6.14832422,7.88375 6.20373633,7.5425 6.31457422,7.26833789 C6.42248633,6.99708789 6.55957422,6.76375 6.71707422,6.56833789 C6.87457422,6.37583789 7.05248633,6.20667578 7.24498633,6.06667578 C7.42873633,5.93542578 7.59789844,5.80417578 7.74957422,5.67876367 C7.89541211,5.55626367 8.02082422,5.42501367 8.12291211,5.29085156 C8.21625,5.16835156 8.26291211,5.01960156 8.26291211,4.83293945 C8.26291211,4.52960156 8.17832422,4.31377734 8.00916211,4.17085156 C7.83707422,4.02501367 7.59791211,3.94918945 7.30041211,3.94918945 C7.10207422,3.94918945 6.93291211,3.96377734 6.79582422,3.98710156 C6.66166211,4.01043945 6.53916211,4.05126367 6.42832422,4.10668945 C6.31748633,4.15918945 6.21541211,4.23502734 6.12207422,4.32835156 C6.02291211,4.42751367 5.92082422,4.55293945 5.81291211,4.69876367 C5.71666211,4.83292578 5.57666211,4.93501367 5.39291211,5.00210156 C5.20332422,5.06918945 4.99332422,5.05168945 4.77457422,4.94668945 C4.57916211,4.85043945 4.45957422,4.72210156 4.41873633,4.56752734 C4.38082422,4.42461523 4.38082422,4.27586523 4.41873633,4.12418945 C4.44498633,3.99293945 4.52373633,3.83543945 4.65498633,3.64002734 C4.78332422,3.45043945 4.96707422,3.26377734 5.19748633,3.08877734 C5.43082422,2.91377734 5.72539844,2.76211523 6.07248633,2.63668945 C6.41957422,2.50835156 6.83957422,2.44418945 7.31498633,2.44418945 C7.78457422,2.44418945 8.18998633,2.51710156 8.52248633,2.65710156 C8.85789844,2.79710156 9.13207422,2.98668945 9.33623633,3.21710156 C9.53748633,3.44751367 9.68914844,3.71001367 9.78248633,4.00168945 C9.87289844,4.29043945 9.91957422,4.59085156 9.91957422,4.89710156 C9.91957422,5.20918945 9.86416211,5.48043945 9.75041211,5.69918945 L9.75041211,5.69918945 L9.75041211,5.69916211 Z M7.85458789,10.8558379 C7.85458789,11.0541758 7.76708789,11.235 7.59792578,11.3925 C7.43167578,11.5470879 7.20708789,11.6258379 6.93292578,11.6258379 C6.65001367,11.6258379 6.41667578,11.5470879 6.24167578,11.3925 C6.06083789,11.2379121 5.97042578,11.0541621 5.97042578,10.8558379 L5.97042578,10.5116758 C5.97042578,10.3104258 6.06083789,10.1295879 6.24167578,9.97208789 C6.41667578,9.82042578 6.65001367,9.74167578 6.93292578,9.74167578 C7.20708789,9.74167578 7.43167578,9.82042578 7.59792578,9.97501367 C7.76708789,10.1325137 7.85458789,10.3133516 7.85458789,10.5116758 L7.85458789,10.8558379 L7.85458789,10.8558379 Z M7,0 C3.14125,0 0,3.14125 0,7 C0,10.85875 3.14125,14 7,14 C10.85875,14 14,10.85875 14,7 C14,3.14125 10.85875,0 7,0 L7,0 L7,0 Z" id="Shape"></path>
                </g>
            </g>
        </g>
    </g>
</svg>