<?xml version="1.0" encoding="UTF-8"?>
<svg width="32px" height="32px" viewBox="0 0 32 32" version="1.1" xmlns="http://www.w3.org/2000/svg" xmlns:xlink="http://www.w3.org/1999/xlink">
    <!-- Generator: Sketch 41.1 (35376) - http://www.bohemiancoding.com/sketch -->
    <title>faqs</title>
    <desc>Created with Sketch.</desc>
    <defs></defs>
    <g id="Ãtomos" stroke="none" stroke-width="1" fill="none" fill-rule="evenodd">
        <g id="Iconos" transform="translate(-155.000000, -3393.000000)" fill="#666666">
            <g id="ico-faqs" transform="translate(155.000000, 3393.000000)">
                <path d="M21.3486639,13.1952027 C21.1036538,13.6787553 20.7877429,14.0978444 20.4202429,14.4524396 C20.0527429,14.7941602 19.6529959,15.1100711 19.2339371,15.3744233 C18.8277529,15.632308 18.4473481,15.9160023 18.0991902,16.2061338 C17.7574696,16.4898281 17.4738056,16.8121764 17.2545749,17.153897 C17.0418117,17.4827128 16.9386639,17.8953343 16.9386639,18.3788869 L16.9386639,18.8560023 C16.9386639,19.1719132 16.7839271,19.5071965 16.4744534,19.8424496 C16.1649797,20.1906075 15.7458907,20.3711238 15.2429959,20.3969334 L15.1333806,20.3969334 C14.6175811,20.3969334 14.1985223,20.2486338 13.8890486,19.9585023 C13.5537955,19.6425913 13.3861538,19.2944334 13.3861538,18.9140286 C13.3861538,18.0242917 13.5086438,17.2699496 13.7536538,16.6639071 C13.9921964,16.0643018 14.2952328,15.5485023 14.6433907,15.1165387 C14.9915486,14.6910123 15.384828,14.317075 15.8103543,14.0076014 C16.2165385,13.7174698 16.5904758,13.4273382 16.9257591,13.1501114 C17.2481376,12.879322 17.5253644,12.5891904 17.7510323,12.2926215 C17.9573582,12.021832 18.060506,11.6930162 18.060506,11.2803947 C18.060506,10.6098583 17.8735223,10.1327732 17.499585,9.81683203 C17.1191802,9.49445354 16.590506,9.32684211 15.9328744,9.32684211 C15.4944433,9.32684211 15.120506,9.35908902 14.8174696,9.41064782 C14.5209008,9.46223684 14.2501113,9.55247985 14.0051012,9.675 C13.7600911,9.79105263 13.5344534,9.95869428 13.3281275,10.1649899 C13.1089271,10.3841904 12.8832591,10.6614474 12.6447165,10.9837956 C12.4319534,11.2803645 12.1224797,11.5060325 11.7162955,11.654332 C11.2972065,11.8026316 10.8329959,11.7639474 10.3494433,11.5318421 C9.9174797,11.3190789 9.65312752,11.0353847 9.56285429,10.6936943 C9.47904857,10.3777833 9.47904857,10.0489675 9.56285429,9.71368421 C9.6208806,9.42355263 9.79495955,9.07539474 10.0850911,8.64343113 C10.3687854,8.22434211 10.7749696,7.8117206 11.2843017,7.4248785 C11.8001012,7.03803639 12.4512653,6.70278331 13.2185122,6.42552632 C13.9857591,6.14183203 14.9141802,6 15.9650911,6 C17.0031275,6 17.8993017,6.16117414 18.6343017,6.47064782 C19.3757389,6.7801215 19.9818117,7.19921053 20.4331174,7.70854256 C20.8779859,8.21787459 21.2132389,8.79813775 21.4195648,9.44289474 C21.6194232,10.0811842 21.7226012,10.7452531 21.7226012,11.4222268 C21.7226012,12.1121053 21.6001113,12.7117105 21.3486639,13.1952632 L21.3486639,13.1952027 Z M16.9807794,25.041832 C16.9807794,25.4802632 16.7873583,25.8799799 16.4134211,26.2281377 C16.0459211,26.5698583 15.5494636,26.7439373 14.9434211,26.7439373 C14.3180364,26.7439373 13.8022368,26.5698583 13.4153947,26.2281377 C13.0156478,25.8864171 12.8157895,25.4802329 12.8157895,25.041832 L12.8157895,24.2810526 C12.8157895,23.8361842 13.0156478,23.4364373 13.4153947,23.0882794 C13.8022368,22.7530263 14.3180364,22.5789474 14.9434211,22.5789474 C15.5494636,22.5789474 16.0459211,22.7530263 16.4134211,23.0947469 C16.7873583,23.4429048 16.9807794,23.8426517 16.9807794,24.2810526 L16.9807794,25.041832 L16.9807794,25.041832 Z" id="faqs"></path>
            </g>
        </g>
    </g>
</svg>