<?xml version="1.0" encoding="UTF-8" standalone="no"?>
<svg width="32px" height="32px" viewBox="0 0 32 32" version="1.1" xmlns="http://www.w3.org/2000/svg" xmlns:xlink="http://www.w3.org/1999/xlink">
    <!-- Generator: Sketch 39.1 (31720) - http://www.bohemiancoding.com/sketch -->
    <title>question-circle-outline</title>
    <desc>Created with Sketch.</desc>
    <defs></defs>
    <g id="Ãtomos" stroke="none" stroke-width="1" fill="none" fill-rule="evenodd">
        <g id="03_Iconos" transform="translate(-933.000000, -592.000000)" fill="#666666">
            <g id="ico-question-outline" transform="translate(933.000000, 592.000000)">
                <path d="M16,27.91568 C9.435792,27.91568 4.084656,22.564432 4.084656,16 C4.084656,9.466368 9.435792,4.115344 16,4.115344 C22.533632,4.115344 27.884768,9.466368 27.884768,16 C27.884768,22.564432 22.533632,27.91568 16,27.91568 M16,2 C8.284432,2 2,8.284432 2,16 C2,23.715456 8.284432,29.999888 16,29.999888 C23.71568,29.999888 30,23.715456 30,16 C30,8.284432 23.71568,2 16,2" id="info-circle-outline"></path>
                <g id="Group" transform="translate(10.500000, 7.000000)">
                    <path d="M10.7202197,6.50994531 C10.4985439,6.94744531 10.2127197,7.32662109 9.88021973,7.64744531 C9.54771973,7.95662109 9.18604395,8.24244531 8.80689551,8.48162109 C8.43939551,8.71494531 8.09521973,8.97162109 7.78021973,9.23412109 C7.47104395,9.49079687 7.21439551,9.78244531 7.01604395,10.0916211 C6.82354395,10.3891211 6.73021973,10.7624453 6.73021973,11.1999453 L6.73021973,11.6316211 C6.73021973,11.9174453 6.59021973,12.2207969 6.31021973,12.5241211 C6.03021973,12.8391211 5.65104395,13.0024453 5.19604395,13.0257969 L5.09686816,13.0257969 C4.63019238,13.0257969 4.25104395,12.8916211 3.97104395,12.6291211 C3.66771973,12.3432969 3.51604395,12.0282969 3.51604395,11.6841211 C3.51604395,10.8791211 3.62686816,10.1966211 3.84854395,9.64829687 C4.06436816,9.10579687 4.33854395,8.63912109 4.65354395,8.24829687 C4.96854395,7.86329687 5.32436816,7.52497266 5.70936816,7.24497266 C6.07686816,6.98247266 6.41519238,6.71997266 6.71854395,6.46914844 C7.01021973,6.22414844 7.26104395,5.96164844 7.46521973,5.69332422 C7.65189551,5.44832422 7.74521973,5.15082422 7.74521973,4.7775 C7.74521973,4.17082422 7.57604395,3.73917578 7.23771973,3.45332422 C6.89354395,3.16164844 6.41521973,3.01 5.82021973,3.01 C5.42354395,3.01 5.08521973,3.03917578 4.81104395,3.08582422 C4.54271973,3.1325 4.29771973,3.21414844 4.07604395,3.325 C3.85436816,3.43 3.65021973,3.58167578 3.46354395,3.76832422 C3.26521973,3.96664844 3.06104395,4.2175 2.84521973,4.50914844 C2.65271973,4.77747266 2.37271973,4.98164844 2.00521973,5.11582422 C1.62604395,5.25 1.20604395,5.215 0.768543945,5.005 C0.377719727,4.8125 0.138543945,4.55582422 0.0568681641,4.24667578 C-0.0189560547,3.96085156 -0.0189560547,3.66335156 0.0568681641,3.36 C0.109368164,3.0975 0.266868164,2.7825 0.529368164,2.39167578 C0.786043945,2.0125 1.15354395,1.63917578 1.61436816,1.28917578 C2.08104395,0.939175781 2.67019238,0.635851563 3.36436816,0.385 C4.05854395,0.128324219 4.89854395,0 5.84936816,0 C6.78854395,0 7.59936816,0.145824219 8.26436816,0.425824219 C8.93519238,0.705824219 9.48354395,1.085 9.89186816,1.54582422 C10.2943682,2.00664844 10.5976924,2.53164844 10.7843682,3.115 C10.9651924,3.6925 11.0585439,4.29332422 11.0585439,4.90582422 C11.0585439,5.53 10.9477197,6.0725 10.7202197,6.51 L10.7202197,6.51 L10.7202197,6.50994531 Z" id="Path"></path>
                    <path d="M6.76832422,17.2283242 C6.76832422,17.625 6.59332422,17.9866484 6.255,18.3016484 C5.9225,18.6108242 5.47332422,18.7683242 4.925,18.7683242 C4.35917578,18.7683242 3.8925,18.6108242 3.5425,18.3016484 C3.18082422,17.9924727 3,17.6249727 3,17.2283242 L3,16.54 C3,16.1375 3.18082422,15.7758242 3.5425,15.4608242 C3.8925,15.1575 4.35917578,15 4.925,15 C5.47332422,15 5.9225,15.1575 6.255,15.4666758 C6.59332422,15.7816758 6.76832422,16.1433516 6.76832422,16.54 L6.76832422,17.2283242 L6.76832422,17.2283242 Z" id="Path"></path>
                </g>
            </g>
        </g>
    </g>
</svg>