<?xml version="1.0" encoding="UTF-8"?>
<svg width="32px" height="32px" viewBox="0 0 32 32" version="1.1" xmlns="http://www.w3.org/2000/svg" xmlns:xlink="http://www.w3.org/1999/xlink">
    <!-- Generator: Sketch 39.1 (31720) - http://www.bohemiancoding.com/sketch -->
    <title>rainy</title>
    <desc>Created with Sketch.</desc>
    <defs></defs>
    <g id="Ãtomos" stroke="none" stroke-width="1" fill="none" fill-rule="evenodd">
        <g id="03_Iconos" transform="translate(-505.000000, -1041.000000)" fill="#666666">
            <g id="ico-lluvioso" transform="translate(505.000000, 1041.000000)">
                <path d="M15.75,19.95625 L13.5375,22.1625 C12.31875,23.3875 12.31875,25.3625 13.5375,26.5875 C14.7625,27.80625 16.7375,27.80625 17.9625,26.5875 C19.18125,25.3625 19.18125,23.3875 17.9625,22.1625 L15.75,19.95625 L15.75,19.95625 Z M22,22.5 L20.75,22.5 L20.75,25 L22,25 C26.14375,25 29.5,21.64375 29.5,17.5 C29.5,13.35625 26.14375,10 22,10 C21.5625,10 21.14375,10.05625 20.73125,10.13125 C19.01875,7.06875 15.75,5 12,5 C6.475,5 2,9.475 2,15 C2,20.1 5.81875,24.30625 10.75,24.925 L10.75,22.39375 C7.2,21.8 4.5,18.71875 4.5,15 C4.5,10.85625 7.85625,7.5 12,7.5 C15.55625,7.5 18.51875,9.98125 19.29375,13.30625 C20.075,12.8 21,12.5 22,12.5 C24.7625,12.5 27,14.7375 27,17.5 C27,20.2625 24.7625,22.5 22,22.5 L22,22.5 Z" id="lluvioso"></path>
            </g>
        </g>
    </g>
</svg>