<?xml version="1.0" encoding="UTF-8" standalone="no"?>
<svg width="32px" height="32px" viewBox="0 0 32 32" version="1.1" xmlns="http://www.w3.org/2000/svg" xmlns:xlink="http://www.w3.org/1999/xlink">
    <!-- Generator: Sketch 39.1 (31720) - http://www.bohemiancoding.com/sketch -->
    <title>rentals</title>
    <desc>Created with Sketch.</desc>
    <defs></defs>
    <g id="Ãtomos" stroke="none" stroke-width="1" fill="none" fill-rule="evenodd">
        <g id="03_Iconos" transform="translate(-809.000000, -406.000000)" fill="#666666">
            <g id="ico-rentals" transform="translate(809.000000, 406.000000)">
                <path d="M16.9922886,7.40967267 L27.5390302,16.4367108 C27.8075111,16.654535 28.1469115,16.7761112 28.4711149,16.7761112 C28.8966319,16.7761112 29.3322802,16.5785498 29.6311552,16.229018 C30.1883797,15.5755456 30.1022632,14.5826727 29.4538564,14.0355795 L16.9922886,3.37232733 C16.4148013,2.87589089 15.5738988,2.87589089 14.9964115,3.37232733 L2.53990936,14.0355795 C1.89150258,14.5877384 1.82058309,15.5755456 2.36261063,16.229018 C2.87424411,16.8470307 3.76073775,16.9382129 4.40407886,16.4823019 L14.9964115,7.40967267 C15.5738988,6.91830191 16.4148013,6.91830191 16.9922886,7.40967267 Z M14.9964115,8.62036971 L4.70801953,17.4295837 L4.70801953,28.5183528 C4.70801953,29.065446 5.14366784,29.490963 5.67049835,29.490963 L12.4990323,29.490963 L12.4990323,19.7901896 L19.4997992,19.7901896 L19.4997992,29.490963 L26.3232674,29.490963 C26.8450323,29.490963 27.2857463,29.065446 27.2857463,28.5183528 L27.2857463,17.4295837 L16.9922886,8.62036971 C16.4148013,8.12393327 15.5738988,8.12393327 14.9964115,8.62036971 Z" id="rentals"></path>
            </g>
        </g>
    </g>
</svg>