<?xml version="1.0" encoding="UTF-8"?>
<svg width="32px" height="32px" viewBox="0 0 32 32" version="1.1" xmlns="http://www.w3.org/2000/svg" xmlns:xlink="http://www.w3.org/1999/xlink">
    <!-- Generator: Sketch 41.1 (35376) - http://www.bohemiancoding.com/sketch -->
    <title>room-service</title>
    <desc>Created with Sketch.</desc>
    <defs></defs>
    <g id="Ãtomos" stroke="none" stroke-width="1" fill="none" fill-rule="evenodd">
        <g id="Iconos" transform="translate(-645.000000, -4800.000000)" fill="#666666">
            <g id="ico-room-service" transform="translate(633.000000, 4800.000000)">
                <path d="M35.2407407,28.04 L35.0987654,26.36 C35.0987654,26.08 34.8148148,25.8 34.5308642,25.8 L32.5432099,25.8 C32.6851852,25.8 32.8271605,25.66 32.9691358,25.52 C32.9691358,25.38 33.1111111,24.96 33.1111111,24.54 C33.1111111,23.7 33.537037,23 33.6790123,22.3 C33.962963,21.6 34.1049383,20.76 34.3888889,20.06 C34.5308642,19.64 34.6728395,19.36 34.6728395,18.8 C34.6728395,18.52 34.6728395,18.1 34.3888889,18.1 C34.1049383,17.96 33.6790123,17.96 33.3950617,18.24 L31.5493827,20.76 C31.1234568,21.32 30.6975309,22.3 29.845679,22.3 C29.4197531,22.3 28.9938272,22.02 28.7098765,21.6 L26.2962963,17.96 C26.154321,17.68 25.7283951,17.68 25.4444444,17.96 C25.1604938,18.38 24.8765432,18.8 25.0185185,19.08 L26.154321,20.9 L23.0308642,18.38 C22.7469136,18.1 22.1790123,18.24 21.8950617,18.66 C21.6111111,19.08 21.6111111,19.5 21.8950617,19.78 L23.882716,21.46 L27.1481481,24.26 L27.7160494,24.82 C27.8580247,24.96 28.1419753,25.52 28.2839506,25.66 C28.4259259,25.8 28.5679012,26.08 28.8518519,26.08 L26.4382716,26.08 C26.154321,26.08 25.8703704,26.36 25.8703704,26.64 L25.8703704,27.2 C25.8703704,27.48 26.154321,27.76 26.4382716,27.76 L26.4382716,28.18 L27.2901235,28.6 L27.2901235,29.44 C27.2901235,29.72 27.5740741,30 27.8580247,30 L35.0987654,30 C35.382716,30 35.6666667,29.72 35.6666667,29.44 L35.6666667,28.6 C35.6666667,28.32 35.5246914,28.18 35.2407407,28.04 Z M29.845679,21.6 C30.2716049,21.46 30.5555556,21.18 30.4135802,21.04 L29.9876543,18.66 C29.9876543,18.38 29.5617284,18.24 29.1358025,18.38 C28.7098765,18.52 28.4259259,18.8 28.5679012,18.94 L28.9938272,21.18 C29.1358025,21.46 29.4197531,21.6 29.845679,21.6 Z M36.9444444,15.02 C36.9444444,14.6 37.0864198,14.18 37.0864198,13.9 C37.0864198,9.28 33.6790123,5.22 29.1358025,4.66 C29.2777778,4.38 29.4197531,3.96 29.4197531,3.54 C29.4197531,2.7 28.8518519,2 28,2 C27.1481481,2 26.4382716,2.7 26.4382716,3.54 C26.4382716,3.96 26.5802469,4.38 27.0061728,4.66 C22.6049383,5.22 19.1975309,9.28 19.1975309,13.76 C19.1975309,14.18 19.1975309,14.6 19.3395062,14.88 L16.5,14.88 C16.5,15.44 16.9259259,16.28 17.3518519,16.28 L38.6481481,16.28 C39.2160494,16.28 39.5,15.44 39.5,14.88 L36.9444444,14.88 L36.9444444,15.02 Z M24.4506173,12.22 L22.3209877,12.22 L22.3209877,11.66 C22.3209877,9.7 24.0246914,7.88 26.2962963,7.32 C25.1604938,8.16 24.308642,9.84 24.308642,11.66 C24.308642,11.8 24.308642,12.08 24.4506173,12.22 Z M33.8209877,12.22 L31.8333333,12.22 L31.8333333,11.52 C31.8333333,9.7 31.1234568,8.16 29.9876543,7.32 C32.2592593,7.88 33.962963,9.7 33.962963,11.66 C33.962963,11.8 33.962963,12.08 33.8209877,12.22 Z" id="room-service"></path>
            </g>
        </g>
    </g>
</svg>