<?xml version="1.0" encoding="UTF-8" standalone="no"?>
<svg width="32px" height="32px" viewBox="0 0 32 32" version="1.1" xmlns="http://www.w3.org/2000/svg" xmlns:xlink="http://www.w3.org/1999/xlink">
    <!-- Generator: Sketch 3.8.3 (29802) - http://www.bohemiancoding.com/sketch -->
    <title>room</title>
    <desc>Created with Sketch.</desc>
    <defs></defs>
    <g id="Átomos" stroke="none" stroke-width="1" fill="none" fill-rule="evenodd">
        <g id="03_Iconos" transform="translate(-191.000000, -592.000000)" fill="#666666">
            <g id="ico-room" transform="translate(191.000000, 592.000000)">
                <path d="M25.8653541,11.4804516 C27.6654805,8.18307721 27.0654384,4.53710692 23.7109171,2.88556238 C20.4535455,1.27973534 16.4361206,2.47410492 14.6245648,5.54860651 C14.1216724,6.40009487 14.4131214,7.47445602 15.2760391,7.94306035 C16.1503863,8.41166469 17.2818943,8.08592753 17.7847867,7.21729511 C18.601987,5.79433805 20.4535455,5.25715748 21.9336495,6.01721084 C23.4366121,6.7829789 24.0137955,8.60596404 23.1965953,10.0803533 C22.3165335,11.6633216 20.2306728,12.440519 18.4876932,11.8519062 L17.7104958,11.4290194 C15.6532085,10.7318276 11.4872017,9.32029992 9.13275065,13.2920074 L4.29812548,21.4640097 C3.74380084,22.3955037 3.98381769,23.612732 4.84102074,24.178486 L13.4816274,29.8531702 C14.4302655,30.4760711 15.6646379,30.1560486 16.2189625,29.144549 L25.3453176,12.4290896 L25.8653541,11.4804516" id="Habitación---Room"></path>
            </g>
        </g>
    </g>
</svg>