<?xml version="1.0" encoding="UTF-8"?>
<svg width="32px" height="32px" viewBox="0 0 32 32" version="1.1" xmlns="http://www.w3.org/2000/svg" xmlns:xlink="http://www.w3.org/1999/xlink">
    <!-- Generator: Sketch 43.1 (39012) - http://www.bohemiancoding.com/sketch -->
    <title>sauna</title>
    <desc>Created with Sketch.</desc>
    <defs></defs>
    <g id="Ãtomos" stroke="none" stroke-width="1" fill="none" fill-rule="evenodd">
        <g id="Iconos" transform="translate(-574.000000, -4960.000000)">
            <g id="ico-grill-copy-4" transform="translate(562.000000, 4960.000000)"></g>
            <g id="saun" transform="translate(582.000000, 4963.000000)" fill="#666666">
                <g id="Group">
                    <path d="M3.65466667,8.54685 C4.97466667,8.54685 6.04,7.46685 6.04,6.14385 C6.04,4.82085 4.976,3.74085 3.65466667,3.74085 C2.33333333,3.74085 1.268,4.82085 1.268,6.14385 C1.268,7.46685 2.33333333,8.54685 3.65466667,8.54685 L3.65466667,8.54685 Z" id="Shape"></path>
                    <path d="M10.2786667,16.8399 C10.0253333,16.6104 9.70533333,16.45785 9.34666667,16.45785 L4.05466667,16.45785 L4.05466667,11.13885 C4.05466667,10.30185 3.416,9.61335 2.60133333,9.61335 L1.45333333,9.61335 C0.653333333,9.61335 0,10.30185 0,11.13885 L0,18.77985 C0,19.6155 0.653333333,20.30535 1.45333333,20.30535 L2.212,20.30535 C2.37466667,20.37015 2.548,20.41335 2.73333333,20.41335 L8.844,20.41335 L9.96133333,25.71885 C10.1333333,26.56935 10.988,27.12285 11.868,26.9757 C12.7346667,26.8272 13.308,26.02935 13.1333333,25.1937 L11.6546667,18.0792 C11.516,17.4123 10.9466667,16.94385 10.2786667,16.8399 L10.2786667,16.8399 Z" id="Shape"></path>
                    <rect id="Rectangle-path" x="0" y="21.73635" width="8.11866667" height="1.31085"></rect>
                    <path d="M10.8,13.89285 C10.8,13.89285 9.828,10.152 11.3333333,7.48035 C12.828,4.80735 12.6533333,1.51335 10.268,0.00135 C10.268,0.00135 12.0386667,1.68885 9.74666667,6.94035 C7.45333333,12.20535 10.8,13.89285 10.8,13.89285 L10.8,13.89285 Z" id="Shape"></path>
                    <path d="M13.9733333,3.20085 C13.9733333,3.20085 15.7466667,4.90185 13.452,10.152 C11.16,15.40485 14.5066667,17.09235 14.5066667,17.09235 C14.5066667,17.09235 13.5333333,13.35285 15.0373333,10.67985 C16.5333333,8.02035 16.36,4.72635 13.9733333,3.20085 L13.9733333,3.20085 Z" id="Shape"></path>
                </g>
            </g>
        </g>
    </g>
</svg>