<?xml version="1.0" encoding="UTF-8"?>
<svg width="32px" height="32px" viewBox="0 0 32 32" version="1.1" xmlns="http://www.w3.org/2000/svg" xmlns:xlink="http://www.w3.org/1999/xlink">
    <!-- Generator: Sketch 41.1 (35376) - http://www.bohemiancoding.com/sketch -->
    <title>search</title>
    <desc>Created with Sketch.</desc>
    <defs></defs>
    <g id="Ãtomos" stroke="none" stroke-width="1" fill="none" fill-rule="evenodd">
        <g id="Iconos" transform="translate(-440.000000, -3479.000000)" fill="#666666">
            <g id="ico-search" transform="translate(440.000000, 3479.000000)">
                <path d="M6.3538687,10.6776211 C6.3538687,7.2277562 9.10776089,4.41986612 12.4976282,4.41986612 C15.8814957,4.41986612 18.6413877,7.2277562 18.6413877,10.6776211 C18.6413877,14.1274861 15.8814957,16.9353762 12.4976282,16.9353762 C9.10776089,16.9353762 6.3538687,14.1274861 6.3538687,10.6776211 L6.3538687,10.6776211 Z M28.187014,27.7829515 L21.0472935,18.0993306 L20.5313137,18.0993306 L20.0153339,18.6273099 L19.2533637,17.4633555 C20.9452975,15.7174238 21.9952564,13.3235176 21.9952564,10.6776211 C21.9952564,5.34382995 17.7354231,1 12.4976282,1 C7.25983324,1 3,5.34382995 3,10.6776211 C3,16.0114123 7.25983324,20.3552423 12.4976282,20.3552423 C14.0455676,20.3552423 15.5095103,19.9652575 16.8054595,19.2932839 L17.7534224,20.3972406 L17.1834447,20.9792179 L17.1834447,21.2552071 C17.1834447,21.2552071 24.2091697,30.248855 24.6471526,30.6928376 C25.0791356,31.1368202 26.0630971,30.9688268 26.0630971,30.9688268 C26.0630971,30.9688268 27.4790417,30.1348594 28.187014,29.4148876 C28.8889865,28.6949158 28.187014,27.7829515 28.187014,27.7829515 L28.187014,27.7829515 Z" id="search"></path>
            </g>
        </g>
    </g>
</svg>