<?xml version="1.0" encoding="UTF-8" standalone="no"?>
<svg width="32px" height="32px" viewBox="0 0 32 32" version="1.1" xmlns="http://www.w3.org/2000/svg" xmlns:xlink="http://www.w3.org/1999/xlink">
    <!-- Generator: Sketch 39.1 (31720) - http://www.bohemiancoding.com/sketch -->
    <title>seat</title>
    <desc>Created with Sketch.</desc>
    <defs></defs>
    <g id="Ãtomos" stroke="none" stroke-width="1" fill="none" fill-rule="evenodd">
        <g id="03_Iconos" transform="translate(-685.000000, -592.000000)" fill="#666666">
            <g id="ico-seat" transform="translate(685.000000, 592.000000)">
                <path d="M22.9149786,23.4167066 C23.1273535,22.8688045 23.2413793,22.2582867 23.2413793,21.6 L23.2413793,10.4 C23.2413793,9.74171331 23.1273535,9.13119548 22.9149786,8.58329344 C22.6301283,8.84320461 22.3143084,9 22,9 L8,9 C7.00753498,9 6,7.43666667 6,6 C6,5.92917094 6.00085132,5.85907981 6.00252883,5.78974354 C3.61071892,6.12495837 2,7.92479888 2,10.4 L2,21.6 C2,24.0752011 3.61071892,25.8750416 6.00252883,26.2102565 C6.00085132,26.1409202 6,26.0708291 6,26 C6,24.5633333 7.00753498,23 8,23 L22,23 C22.3143084,23 22.6301283,23.1567954 22.9149786,23.4167066 Z M9.72413793,2 L22.2758621,2 C23.2881482,2 24.2068966,3.25066667 24.2068966,4.8 C24.2068966,6.34933333 23.2881482,7.6 22.2758621,7.6 L9.72413793,7.6 C8.71185182,7.6 7.79310345,6.34933333 7.79310345,4.8 C7.79310345,3.25066667 8.71185182,2 9.72413793,2 Z M9.72413793,24.4 L22.2758621,24.4 C23.2881482,24.4 24.2068966,25.6506667 24.2068966,27.2 C24.2068966,28.7493333 23.2881482,30 22.2758621,30 L9.72413793,30 C8.71185182,30 7.79310345,28.7493333 7.79310345,27.2 C7.79310345,25.6506667 8.71185182,24.4 9.72413793,24.4 Z M30.29,8.52998047 L30.29,23.4633138 C30.29,25.0997582 29.001258,26.2633138 27.395,26.2633138 C25.8055516,26.2633138 24.5,25.0997582 24.5,23.4633138 L24.5,8.52998047 C24.5,6.87642491 25.8055516,5.72998047 27.395,5.72998047 C29.001258,5.72998047 30.29,6.87642491 30.29,8.52998047 Z" id="seat"></path>
            </g>
        </g>
    </g>
</svg>