<?xml version="1.0" encoding="UTF-8" standalone="no"?>
<svg width="16px" height="16px" viewBox="0 0 16 16" version="1.1" xmlns="http://www.w3.org/2000/svg" xmlns:xlink="http://www.w3.org/1999/xlink">
    <!-- Generator: Sketch 3.7 (28169) - http://www.bohemiancoding.com/sketch -->
    <title>ico_smile</title>
    <desc>Created with Sketch.</desc>
    <defs></defs>
    <g id="Ãtomos" stroke="none" stroke-width="1" fill="none" fill-rule="evenodd">
        <g id="03_Iconos" transform="translate(-330.000000, -320.000000)" fill="#666666">
            <g id="smile" transform="translate(330.000000, 320.000000)">
                <g id="Group" transform="translate(1.000000, 1.000000)">
                    <path d="M7,11.375 C4.71916211,11.375 2.82333789,9.46166211 2.625,7.02333789 C3.90541211,7.76417578 5.41625,8.18708789 7,8.18708789 C8.58375,8.18708789 10.0945879,7.76417578 11.375,7.02333789 C11.1766621,9.46458789 9.28083789,11.375 7,11.375 L7,11.375 L7,11.375 Z M4.8125,3.13833789 C5.15375,3.13833789 5.43083789,3.6925 5.43083789,4.375 C5.43083789,5.0575 5.15375,5.61166211 4.8125,5.61166211 C4.47125,5.61166211 4.19416211,5.0575 4.19416211,4.375 C4.19416211,3.6925 4.47125,3.13833789 4.8125,3.13833789 L4.8125,3.13833789 L4.8125,3.13833789 Z M9.1875,3.13833789 C9.52875,3.13833789 9.80583789,3.6925 9.80583789,4.375 C9.80583789,5.0575 9.52875,5.61166211 9.1875,5.61166211 C8.84625,5.61166211 8.56916211,5.0575 8.56916211,4.375 C8.56916211,3.6925 8.84625,3.13833789 9.1875,3.13833789 L9.1875,3.13833789 L9.1875,3.13833789 Z M7,0 C3.1325,0 0,3.1325 0,7 C0,10.8675 3.1325,14 7,14 C10.8675,14 14,10.8675 14,7 C14,3.1325 10.8675,0 7,0 L7,0 L7,0 Z" id="Shape"></path>
                </g>
            </g>
        </g>
    </g>
</svg>