<?xml version="1.0" encoding="UTF-8"?>
<svg width="32px" height="32px" viewBox="0 0 32 32" version="1.1" xmlns="http://www.w3.org/2000/svg" xmlns:xlink="http://www.w3.org/1999/xlink">
    <!-- Generator: Sketch 39.1 (31720) - http://www.bohemiancoding.com/sketch -->
    <title>snowing</title>
    <desc>Created with Sketch.</desc>
    <defs></defs>
    <g id="Ãtomos" stroke="none" stroke-width="1" fill="none" fill-rule="evenodd">
        <g id="03_Iconos" transform="translate(-443.000000, -1041.000000)" fill="#666666">
            <g id="ico-nieve" transform="translate(443.000000, 1041.000000)">
                <path d="M15.75,25 C16.4375,25 17,24.4375 17,23.75 C17,23.0625 16.4375,22.5 15.75,22.5 C15.0625,22.5 14.5,23.0625 14.5,23.75 C14.5,24.4375 15.0625,25 15.75,25 L15.75,25 Z M11.41875,21.25 C11.7625,20.65 12.53125,20.45 13.125,20.79375 L14.5,21.5875 L14.5,20 C14.5,19.3125 15.0625,18.75 15.75,18.75 C16.4375,18.75 17,19.3125 17,20 L17,21.5875 L18.375,20.79375 C18.96875,20.45 19.7375,20.65 20.08125,21.25 C20.425,21.85 20.21875,22.6125 19.625,22.95625 L18.25,23.75 L19.625,24.54375 C20.21875,24.8875 20.425,25.65 20.08125,26.25 C19.7375,26.85 18.96875,27.05 18.375,26.70625 L17,25.9125 L17,27.5 C17,28.1875 16.4375,28.75 15.75,28.75 C15.0625,28.75 14.5,28.1875 14.5,27.5 L14.5,25.9125 L13.125,26.70625 C12.53125,27.05 11.7625,26.85 11.41875,26.25 C11.075,25.65 11.28125,24.8875 11.875,24.54375 L13.25,23.75 L11.875,22.95625 C11.28125,22.6125 11.075,21.85 11.41875,21.25 L11.41875,21.25 Z M23.25,24.8875 L23.25,22.3375 C25.40625,21.78125 27,19.83125 27,17.5 C27,14.7375 24.7625,12.5 22,12.5 C21,12.5 20.075,12.8 19.29375,13.30625 C18.51875,9.98125 15.55625,7.5 12,7.5 C7.85625,7.5 4.5,10.85625 4.5,15 C4.5,17.775 6.0125,20.19375 8.25,21.4875 L8.25,24.26875 C4.5875,22.78125 2,19.19375 2,15 C2,9.475 6.475,5 12,5 C15.75,5 19.01875,7.06875 20.73125,10.125 C21.14375,10.05625 21.5625,10 22,10 C26.14375,10 29.5,13.35625 29.5,17.5 C29.5,21.2125 26.79375,24.29375 23.25,24.8875 L23.25,24.8875 Z" id="nieve"></path>
            </g>
        </g>
    </g>
</svg>