<?xml version="1.0" encoding="UTF-8" standalone="no"?>
<svg width="16px" height="16px" viewBox="0 0 16 16" version="1.1" xmlns="http://www.w3.org/2000/svg" xmlns:xlink="http://www.w3.org/1999/xlink">
    <!-- Generator: Sketch 3.7 (28169) - http://www.bohemiancoding.com/sketch -->
    <title>social-twitter</title>
    <desc>Created with Sketch.</desc>
    <defs></defs>
    <g id="Ãtomos" stroke="none" stroke-width="1" fill="none" fill-rule="evenodd">
        <g id="03_Iconos" transform="translate(-252.000000, -346.000000)" fill="#666666">
            <g id="social-twitter" transform="translate(252.000000, 346.000000)">
                <g id="Group" transform="translate(0.500000, 2.000000)">
                    <path d="M14.5528372,1.421875 C14.0162418,1.6625 13.4426398,1.825 12.838199,1.9 C13.4549753,1.525 13.9298931,0.93125 14.1519326,0.225 C13.5752467,0.571875 12.9368832,0.825 12.2553454,0.959375 C11.7094984,0.36875 10.9323602,-8.8817842e-16 10.0750411,-8.8817842e-16 C8.42516447,-8.8817842e-16 7.08984375,1.35625 7.08984375,3.028125 C7.08984375,3.265625 7.1145148,3.496875 7.16694079,3.71875 C4.68441612,3.59375 2.48252467,2.3875 1.01151316,0.553125 C0.755550987,1 0.607524671,1.521875 0.607524671,2.075 C0.607524671,3.125 1.1379523,4.053125 1.93976151,4.596875 C1.44634046,4.584375 0.983758224,4.446875 0.582853618,4.21875 L0.582853618,4.25625 C0.582853618,5.725 1.61287007,6.946875 2.97902961,7.225 C2.7292352,7.29375 2.46402138,7.33125 2.1926398,7.33125 C2.00143914,7.33125 1.81332237,7.3125 1.63137336,7.275 C2.01069079,8.478125 3.11472039,9.353125 4.42228618,9.378125 C3.40152138,10.190625 2.11245888,10.675 0.712376645,10.675 C0.471833882,10.675 0.234375,10.659375 8.8817842e-16,10.63125 C1.31681743,11.5 2.88651316,12 4.5703125,12 C10.0688734,12 13.072574,7.384375 13.072574,3.38125 C13.072574,3.25 13.0694901,3.11875 13.0633224,2.990625 C13.646176,2.5625 14.1519326,2.03125 14.5528372,1.421875 L14.5528372,1.421875 Z" id="Shape"></path>
                </g>
            </g>
        </g>
    </g>
</svg>