<?xml version="1.0" encoding="UTF-8" standalone="no"?>
<svg width="16px" height="16px" viewBox="0 0 16 16" version="1.1" xmlns="http://www.w3.org/2000/svg" xmlns:xlink="http://www.w3.org/1999/xlink">
    <!-- Generator: Sketch 3.7 (28169) - http://www.bohemiancoding.com/sketch -->
    <title>social-google</title>
    <desc>Created with Sketch.</desc>
    <defs></defs>
    <g id="Ãtomos" stroke="none" stroke-width="1" fill="none" fill-rule="evenodd">
        <g id="03_Iconos" transform="translate(-226.000000, -346.000000)" fill="#666666">
            <g id="social-google" transform="translate(226.000000, 346.000000)">
                <g id="Group" transform="translate(1.000000, 1.000000)">
                    <path d="M4.83857203,0.394717811 C3.12573256,0.981058343 1.66582044,2.26276373 0.852518657,3.88461594 C0.568858701,4.44479366 0.364095737,5.03806454 0.240212025,5.65474425 C-0.0702008807,7.18264336 0.144670098,8.81222789 0.848554136,10.2041379 C1.30565431,11.1121947 1.96374965,11.921532 2.7578341,12.5528744 C3.51068451,13.1505183 4.38365083,13.5969052 5.31451125,13.8423121 C6.4869956,14.1564928 7.73519928,14.1487605 8.91462911,13.8797783 C9.98087338,13.6343866 10.9906157,13.1237654 11.7961851,12.383202 C12.6469531,11.6004209 13.2552953,10.5716429 13.5778136,9.46339288 C13.9286737,8.25642324 13.9744624,6.96698552 13.7552183,5.72730103 L7.13757045,5.72730103 L7.13757045,8.47288306 L10.9721852,8.47288306 C10.8247111,9.35041916 10.3025897,10.1522208 9.5657941,10.6473774 C9.10037145,10.9615581 8.56674997,11.1617664 8.01490984,11.2602741 C7.46305459,11.3550292 6.88821419,11.3657274 6.33635894,11.2565063 C5.7722167,11.1433208 5.23959391,10.9088239 4.77099359,10.5793752 C4.02269784,10.0534861 3.45103512,9.2869717 3.15983955,8.42013375 C2.86171363,7.53963182 2.85715897,6.55982015 3.15983955,5.68308603 C3.37233484,5.06245693 3.72001727,4.49156592 4.18108197,4.02298074 C4.74899202,3.44060473 5.48657448,3.02473859 6.28303462,2.8542642 C6.96413023,2.71055788 7.68248023,2.73731083 8.34830789,2.93751913 C8.91541596,3.10719155 9.43753731,3.42137226 9.86470686,3.8295212 C10.2958409,3.39838712 10.726975,2.96725304 11.1579124,2.53711766 C11.3848736,2.30619188 11.6225482,2.08378529 11.8419738,1.84453704 C11.1876463,1.23996274 10.4165621,0.752326673 9.5772791,0.441913767 C8.06384595,-0.119852789 6.36250662,-0.130550943 4.83837532,0.394536229 L4.83857203,0.394717811 Z" id="Shape"></path>
                </g>
            </g>
        </g>
    </g>
</svg>