<?xml version="1.0" encoding="UTF-8"?>
<svg width="32px" height="32px" viewBox="0 0 32 32" version="1.1" xmlns="http://www.w3.org/2000/svg" xmlns:xlink="http://www.w3.org/1999/xlink">
    <!-- Generator: Sketch 41.1 (35376) - http://www.bohemiancoding.com/sketch -->
    <title>social-google-plus</title>
    <desc>Created with Sketch.</desc>
    <defs></defs>
    <g id="Ãtomos" stroke="none" stroke-width="1" fill="none" fill-rule="evenodd">
        <g id="Iconos" transform="translate(-78.000000, -4428.000000)">
            <g id="ico-social-google-plus" transform="translate(78.000000, 4428.000000)" fill="#666666">
                <g id="Group-7" transform="translate(1.000000, 6.000000)">
                    <path d="M6.82421185,0.546364352 C4.35660431,1.37985542 2.25337735,3.20181712 1.08169158,5.50730216 C0.67303598,6.30360244 0.378043575,7.14694509 0.199570118,8.02356371 C-0.247627207,10.1954931 0.0619273419,12.5119698 1.07598008,14.4905888 C1.73450289,15.7814041 2.68258999,16.931888 3.82659024,17.8293498 C4.91118654,18.6789089 6.1688282,19.3134539 7.50987518,19.6623032 C9.19901843,20.1089153 10.997247,20.0979237 12.6963962,19.7155619 C14.2324844,19.3667342 15.6871728,18.6408792 16.8477189,17.5881582 C18.0733806,16.4754243 18.9497905,15.0130023 19.4144275,13.4376097 C19.9198952,11.7218859 19.9858609,9.8889326 19.6700062,8.12670417 L10.1362711,8.12670417 L10.1362711,12.0295865 L15.6606208,12.0295865 C15.4481618,13.277016 14.695966,14.416788 13.6344991,15.1206598 C12.9639865,15.567272 12.1952231,15.8518708 11.4002129,15.9919009 C10.6051809,16.1265966 9.77703525,16.1418041 8.98200326,15.986545 C8.16926997,15.8256501 7.40194528,15.4923096 6.72685477,15.0239939 C5.64882015,14.2764353 4.82525246,13.1868246 4.40574065,11.9546026 C3.97624461,10.7029571 3.96968292,9.31014146 4.40574065,8.06385194 C4.71187265,7.18161921 5.21276243,6.37008985 5.87699674,5.70398962 C6.69515813,4.87613417 7.75775861,4.28497479 8.90518141,4.0426431 C9.88640393,3.83836261 10.9212971,3.8763923 11.8805238,4.16099113 C12.6975298,4.40218279 13.4497256,4.84879496 14.0651287,5.42898424 C14.6862434,4.81612127 15.3073581,4.20325829 15.9281893,3.59181497 C16.2551618,3.26355083 16.5975683,2.94739682 16.9136846,2.60730218 C15.9710256,1.74789156 14.8601607,1.05471023 13.651045,0.613454049 C11.4707128,-0.185104777 9.01967299,-0.200312348 6.82392846,0.546106232 L6.82421185,0.546364352 Z" id="Shape-Copy-4"></path>
                    <polyline id="Shape-Copy-2" points="30.2118227 8.35164835 27.3457232 8.35164835 27.3457232 5.56776557 24.4796238 5.56776557 24.4796238 8.35164835 21.6135244 8.35164835 21.6135244 11.1355311 24.4796238 11.1355311 24.4796238 13.9194139 27.3457232 13.9194139 27.3457232 11.1355311 30.2118227 11.1355311"></polyline>
                </g>
            </g>
            <g id="Group-6" transform="translate(100.000000, 4440.000000)"></g>
        </g>
    </g>
</svg>