<?xml version="1.0" encoding="UTF-8" standalone="no"?>
<svg width="16px" height="16px" viewBox="0 0 16 16" version="1.1" xmlns="http://www.w3.org/2000/svg" xmlns:xlink="http://www.w3.org/1999/xlink">
    <!-- Generator: Sketch 3.7 (28169) - http://www.bohemiancoding.com/sketch -->
    <title>social-facebook</title>
    <desc>Created with Sketch.</desc>
    <defs></defs>
    <g id="Ãtomos" stroke="none" stroke-width="1" fill="none" fill-rule="evenodd">
        <g id="03_Iconos" transform="translate(-278.000000, -346.000000)" fill="#666666">
            <g id="social-facebook" transform="translate(278.000000, 346.000000)">
                <g id="Group" transform="translate(1.500000, 1.500000)">
                    <path d="M12.2423574,1.36021205e-05 L0.715131487,1.36021205e-05 C0.3200851,1.36021205e-05 0,0.320153111 0,0.715145089 L0,12.2424118 C0,12.6373629 0.3200851,12.9575432 0.715131487,12.9575432 L6.92100377,12.9575432 L6.92100377,7.93972098 L5.23240932,7.93972098 L5.23240932,5.98415771 L6.92100377,5.98415771 L6.92100377,4.54199289 C6.92100377,2.86834717 7.94316232,1.9570323 9.43615827,1.9570323 C10.1512898,1.9570323 10.7659696,2.0102846 10.9451231,2.03407471 L10.9451231,3.78311698 L9.90956648,3.78360665 C9.0976287,3.78360665 8.94042899,4.1694308 8.94042899,4.73560547 L8.94042899,5.98414411 L10.8769221,5.98414411 L10.6247524,7.93970738 L8.94042899,7.93970738 L8.94042899,12.9575296 L12.242371,12.9575296 C12.6372677,12.9575296 12.9575024,12.6372949 12.9575024,12.2423982 L12.9575024,0.715131487 C12.9575024,0.320139509 12.6372677,0 12.242371,0 L12.2423574,1.36021205e-05 Z" id="Shape"></path>
                </g>
            </g>
        </g>
    </g>
</svg>