<?xml version="1.0" encoding="UTF-8"?>
<svg width="32px" height="32px" viewBox="0 0 32 32" version="1.1" xmlns="http://www.w3.org/2000/svg" xmlns:xlink="http://www.w3.org/1999/xlink">
    <!-- Generator: Sketch 41.1 (35376) - http://www.bohemiancoding.com/sketch -->
    <title>spa</title>
    <desc>Created with Sketch.</desc>
    <defs></defs>
    <g id="Ãtomos" stroke="none" stroke-width="1" fill="none" fill-rule="evenodd">
        <g id="Iconos" transform="translate(-645.000000, -4409.000000)" fill="#666666">
            <g id="ico-spa" transform="translate(645.000000, 4409.000000)">
                <path d="M5.01484321,25.0161628 C5.32255213,27.157304 10.3484645,28.4394245 16.2462188,27.8611882 C22.1580764,27.2983373 26.6955008,25.09309 26.3877919,22.9506667 C26.0941863,20.7967042 21.0541706,19.527405 15.1576985,20.1056413 C9.25866205,20.6672101 4.70585217,22.8750216 5.01484321,25.0161628 L5.01484321,25.0161628 Z M8.8612047,23.9879022 C8.78427747,23.4365903 9.93818591,22.8750216 11.4523702,22.719885 C12.9652724,22.5801339 14.2602141,22.900664 14.3371413,23.4494115 C14.4140686,23.9981591 13.2460568,24.5776776 11.7344367,24.7187108 C10.2202524,24.8700011 8.93813193,24.539214 8.8612047,23.9879022 Z M5.97643358,14.6925286 C5.92643088,16.3849276 9.61765579,17.9773213 14.2204684,18.2452845 C18.8361022,18.5158119 22.6298967,17.3619034 22.6824636,15.6682223 C22.7465697,13.9758232 19.0553448,12.3859938 14.4384289,12.1167485 C9.82279507,11.8462211 6.04053961,12.9873083 5.97643358,14.6925286 Z M9.06634398,14.3591772 C9.09198639,13.9232563 10.0535768,13.6283686 11.2318455,13.6924746 C12.4254997,13.7552985 13.3601655,14.165577 13.3473443,14.601498 C13.3345231,15.037419 12.3601115,15.3451279 11.1818428,15.2694828 C10.0022919,15.2053768 9.05352277,14.7950982 9.06634398,14.3591772 Z M6.42389364,7.83318391 C6.36106973,9.20505284 9.41123439,10.1666432 13.2332356,9.94868273 C17.0411335,9.74354345 20.0784769,8.44860175 20.0528345,7.08955403 C20.0271921,5.75614871 17.0154911,4.83302195 13.2973416,5.02534003 C9.56637097,5.2176581 6.47646058,6.47413619 6.42389364,7.83318391 Z M8.96377434,7.28315422 C8.97659554,6.93569957 9.77279237,6.60234824 10.7343827,6.55234554 C11.6959731,6.50106072 12.4652454,6.74466361 12.4652454,7.09083615 C12.4524242,7.44854776 11.6703307,7.76907789 10.694637,7.82164483 C9.71894331,7.87164753 8.95095313,7.62804463 8.96377434,7.28315422 Z" id="spa"></path>
            </g>
        </g>
    </g>
</svg>