<?xml version="1.0" encoding="UTF-8"?>
<svg width="32px" height="32px" viewBox="0 0 32 32" version="1.1" xmlns="http://www.w3.org/2000/svg" xmlns:xlink="http://www.w3.org/1999/xlink">
    <!-- Generator: Sketch 41.1 (35376) - http://www.bohemiancoding.com/sketch -->
    <title>special-requests</title>
    <desc>Created with Sketch.</desc>
    <defs></defs>
    <g id="Page-1" stroke="none" stroke-width="1" fill="none" fill-rule="evenodd">
        <g id="Artboard" transform="translate(-36.000000, -48.000000)" fill="#666666">
            <g id="ico_specialrequests" transform="translate(36.000000, 48.000000)">
                <path d="M7.53565839,13.9140948 L8.05435425,13.3433302 C8.23412145,13.1283857 8.55670765,13.1000654 8.76631762,13.27144 L9.66017981,13.9721879 L11.8273338,11.7849829 C12.0937871,11.5141239 12.5385866,11.5141239 12.8071716,11.7849829 L13.1262051,12.0994118 C13.2533921,12.2439184 13.3230253,12.415293 13.3230253,12.6004647 C13.3230253,12.7994336 13.2533921,12.9715344 13.1262051,13.1145886 L10.4019859,15.8718321 C10.06661,16.2138552 9.53583491,16.2429018 9.15711587,15.9415438 L7.60671262,14.6998039 C7.49444694,14.6133905 7.42481379,14.4725147 7.40989241,14.3294605 C7.3963921,14.1733353 7.4383141,14.0288287 7.53565839,13.9140948 Z M13.1262051,18.4722242 L10.4019859,21.2432648 C10.06661,21.5860141 9.53583491,21.6136083 9.15711587,21.3144289 L7.60671262,20.0712367 C7.49444694,19.9855493 7.42481379,19.8424951 7.40989241,19.6856437 C7.3963921,19.5425895 7.4383141,19.3995353 7.53565839,19.2855276 L8.05435425,18.7133106 C8.23412145,18.4990923 8.55670765,18.4722242 8.76631762,18.6428727 L9.66017981,19.3421683 L11.8273338,17.1571418 C12.0937871,16.8717595 12.5385866,16.8717595 12.8071716,17.1571418 L13.1262051,17.4708445 C13.2533921,17.6001017 13.3230253,17.7859996 13.3230253,17.9711713 C13.3230253,18.1570692 13.2533921,18.3429671 13.1262051,18.4722242 Z M23.6941004,9.72558275 L23.6941004,8.37201365 C23.6941004,7.6712657 23.0951133,7.08525162 22.3952291,7.08525162 L20.2714182,7.08525162 L20.2714182,6.52828408 C20.2714182,5.41434899 19.3896353,4.51535836 18.3003739,4.51535836 L17.3645898,4.51535836 C17.3354575,2.57069203 15.7694223,1 13.8403,1 C11.9260991,1 10.3593534,2.57069203 10.3309317,4.51535836 L9.39514754,4.51535836 C8.30588622,4.51535836 7.42481379,5.41434899 7.42481379,6.52828408 L7.42481379,7.08525162 L5.29958183,7.08525162 C4.60040823,7.08525162 4,7.6712657 4,8.37201365 L4,29.700167 C4,30.4139859 4.60040823,31 5.29958183,31 L22.3952291,31 C23.0951133,31 23.6941004,30.4139859 23.6941004,29.700167 L23.6941004,21.1169124 L22.0726429,22.7602208 L22.0726429,29.4140585 L5.62074694,29.4140585 L5.62074694,8.67191925 L7.42481379,8.67191925 L7.42481379,10.1300559 L20.2714182,10.1300559 L20.2714182,8.67191925 L22.0726429,8.67191925 L22.0726429,11.3826883 L23.6941004,9.72558275 Z M13.8403,2.8713238 C14.7483731,2.8713238 15.4908898,3.60039213 15.5186009,4.51535836 L12.17621,4.51535836 C12.2046317,3.60039213 12.9329376,2.8713238 13.8403,2.8713238 Z M27.8287459,8.08735749 C27.6376101,7.8912933 27.3818148,7.801249 27.1125193,7.801249 C26.7799855,7.801249 26.4211617,7.94430325 26.1532872,8.2311379 L24.5524355,9.83959044 L28.9926142,14.3512454 L30.5799656,12.730448 C31.0794769,12.219955 31.1427151,11.4618401 30.7199425,11.0290465 L27.8287459,8.08735749 Z M24.048661,19.4677946 L28.2515186,15.0962893 L23.8994471,10.6746787 L23.3743564,11.1474112 L22.5650487,11.975964 L21.3876802,13.1508968 L18.1135013,16.4992375 L17.0633198,17.5441871 L15.6685253,18.9696464 L15.1448557,19.5062813 C15.0929861,19.5578389 14.9537198,19.6885484 14.9139294,19.8860649 L14.8883499,19.9521458 L13.1226523,25.5610341 C13.0722038,25.7178854 13.1098626,25.8747368 13.2114701,25.9800305 C13.2761295,26.0439329 13.3784476,26.0838719 13.4807657,26.0838719 C13.5184244,26.0838719 13.5710045,26.0700748 13.6221636,26.0584562 L19.1359717,24.2800813 L19.1999205,24.2532133 C19.393188,24.2009295 19.5196645,24.0571491 19.5708235,24.0048653 L22.5650487,20.9716796 L24.048661,19.4677946 Z M19.2255,17.5441871 L17.3070358,19.5062813 C17.2175075,19.5839808 17.1144789,19.624646 17.0128713,19.624646 C16.9098427,19.624646 16.8075246,19.5839808 16.7314966,19.5062813 C16.5773089,19.3508823 16.5773089,19.0872849 16.7314966,18.9318858 L18.0865007,17.5441871 L20.9535388,14.6431632 L21.477919,14.118873 L22.1785137,13.4036018 L22.5650487,13.0085687 L23.0837446,12.3898773 C23.1590621,12.3114516 23.2620907,12.2722388 23.3629877,12.2722388 C23.4645952,12.2722388 23.5683344,12.3114516 23.6457835,12.3898773 C23.7985501,12.5474548 23.7985501,12.8088737 23.6457835,12.9657251 L23.1675886,13.5473822 L22.5650487,14.1580858 L19.2255,17.5441871 Z" id="specialrequests"></path>
            </g>
        </g>
    </g>
</svg>