<?xml version="1.0" encoding="UTF-8"?>
<svg width="32px" height="32px" viewBox="0 0 32 32" version="1.1" xmlns="http://www.w3.org/2000/svg" xmlns:xlink="http://www.w3.org/1999/xlink">
    <!-- Generator: Sketch 41.1 (35376) - http://www.bohemiancoding.com/sketch -->
    <title>square-meter </title>
    <desc>Created with Sketch.</desc>
    <defs></defs>
    <g id="Ãtomos" stroke="none" stroke-width="1" fill="none" fill-rule="evenodd">
        <g id="Iconos" transform="translate(-155.000000, -3481.000000)" fill="#666666">
            <g id="ico-square-meter-" transform="translate(143.000000, 3481.000000)">
                <path d="M37.2039849,7.27 L36.3536737,12.7 C36.3237857,12.88 36.1892902,13.03 36.0249065,13.09 L35.8769613,13.105 L35.7708592,13.105 L35.7409712,13.09 L35.6513076,13.06 L35.622914,13.045 L35.5317558,12.97 L34.694894,12.13 L34.0523038,11.485 L30.5404732,14.98 C30.1056039,15.43 29.3897882,15.43 28.9564134,14.98 C28.5080946,14.545 28.5080946,13.825 28.9564134,13.39 L32.4533,9.895 L30.9589041,8.395 C30.837858,8.27499999 30.7945205,8.08 30.837858,7.91499999 L30.8991282,7.81 L30.9589041,7.73500001 C31.0201743,7.65999999 31.1232876,7.6 31.2264009,7.58499999 L36.6525529,6.73 C36.8169364,6.7 36.9663759,6.74499999 37.0709837,6.865 C37.1755915,6.97000001 37.2353672,7.12 37.2039849,7.27 L37.2039849,7.27 Z M27.0435865,18.4135 L23.5466998,21.925 L25.0410959,23.41 C25.1606475,23.5285 25.2054794,23.725 25.1606475,23.905 L25.1008717,23.9950001 L25.0410959,24.0699999 C24.98132,24.16 24.8767123,24.2065 24.7721046,24.235 L19.3474471,25.0899999 C19.1980075,25.1049999 19.0336239,25.0599999 18.9290162,24.9565 C18.8244085,24.8499999 18.7646326,24.685 18.7945205,24.5349999 L19.6463263,19.105 C19.6762142,18.925 19.8107098,18.775 19.9750934,18.73 C20.0199253,18.715 20.0797011,18.7 20.124533,18.7 L20.2291407,18.715 L20.2590286,18.715 L20.3486924,18.76 L20.3785803,18.775 L20.4682441,18.8365 L21.3051058,19.675 L21.9626401,20.32 L25.4595267,16.825 C25.8929016,16.39 26.6102117,16.39 27.0435865,16.825 C27.4919053,17.26 27.4919053,17.98 27.0435865,18.4135 L27.0435865,18.4135 Z M39.2229141,4 L16.7770859,4 C16.358655,4 16,4.34499999 16,4.77999999 L16,27.22 C16,27.6535 16.358655,28 16.7770859,28 L39.2229141,28 C39.6413449,28 40,27.6535 40,27.22 L40,4.77999999 C40,4.34499999 39.6413449,4 39.2229141,4 L39.2229141,4 Z" id="Imported-Layers-Copy"></path>
            </g>
        </g>
    </g>
</svg>