<?xml version="1.0" encoding="UTF-8" standalone="no"?>
<svg width="32px" height="32px" viewBox="0 0 32 32" version="1.1" xmlns="http://www.w3.org/2000/svg" xmlns:xlink="http://www.w3.org/1999/xlink">
    <!-- Generator: Sketch 3.7 (28169) - http://www.bohemiancoding.com/sketch -->
    <title>stairs</title>
    <desc>Created with Sketch.</desc>
    <defs></defs>
    <g id="Ãtomos" stroke="none" stroke-width="1" fill="none" fill-rule="evenodd">
        <g id="03_Iconos" transform="translate(-227.000000, -652.000000)" fill="#666666">
            <g id="ico-amenitie-stairs" transform="translate(243.000000, 668.000000) rotate(-180.000000) translate(-243.000000, -668.000000) translate(227.000000, 652.000000)">
                <path d="M19,4 L29,4 L29,6 L19,6 L19,4 Z M19,9 L29,9 L29,11 L19,11 L19,9 Z M19,14 L29,14 L29,16 L19,16 L19,14 Z M11,19 L11,29 L9,29 L9,19 L11,19 Z M6,19 L6,29 L4,29 L4,19 L6,19 Z M16,19 L16,29 L14,29 L14,19 L16,19 Z M19,19 L29,19 L29,29 L19,29 L19,19 Z" id="stairs"></path>
            </g>
        </g>
    </g>
</svg>