<?xml version="1.0" encoding="UTF-8"?>
<svg width="32px" height="32px" viewBox="0 0 32 32" version="1.1" xmlns="http://www.w3.org/2000/svg" xmlns:xlink="http://www.w3.org/1999/xlink">
    <!-- Generator: Sketch 41.1 (35376) - http://www.bohemiancoding.com/sketch -->
    <title>store</title>
    <desc>Created with Sketch.</desc>
    <defs></defs>
    <g id="Ãtomos" stroke="none" stroke-width="1" fill="none" fill-rule="evenodd">
        <g id="Iconos" transform="translate(-429.000000, -4880.000000)" fill="#666666">
            <g id="ico-store" transform="translate(417.000000, 4880.000000)">
                <path d="M36.6186717,21.5573529 L19.3341753,21.5573529 L19.3341753,15.2058824 C18.8037049,15.6617647 18.1406168,15.9852941 17.4185875,16.0897059 L17.4185875,28.0294118 C17.4185875,28.5588235 17.845911,29 18.3763814,29 L37.5764656,29 C38.1054626,29 38.5342596,28.5588235 38.5342596,28.0294118 L38.5342596,16.0897059 C37.8122303,15.9720588 37.1491422,15.6323529 36.6171982,15.1617647 L36.6171982,21.5573529 L36.6186717,21.5573529 Z M38.1364067,5.99852941 C38.2852331,5.99852941 38.4163772,6.02941176 38.5357331,6.07352941 L38.5357331,4.97058824 C38.5357331,4.44117647 38.1069361,4 37.5794127,4 L18.3763814,4 C17.845911,4 17.4185875,4.44117647 17.4185875,4.97058824 L17.4185875,6.08823529 C17.5512051,6.02941176 17.698558,5.99852941 17.8606462,5.99852941 L38.1364067,5.99852941 Z M38.1364067,7.16176471 L36.6186717,7.16176471 L19.3341753,7.16176471 L17.8606462,7.16176471 L14,11.3529412 C14,12.9264706 15.2524997,14.1911765 16.7997053,14.1911765 C17.1238817,14.1911765 17.4333228,14.1338235 17.7132933,14.0308824 L17.7427639,14.0161765 L18.0079992,13.9132353 L18.0374697,13.8985294 L18.2879697,13.75 L18.302705,13.7352941 C18.656352,13.5161765 18.9657931,13.2058824 19.1868224,12.8382353 L19.3341753,12.5455882 C19.5109988,12.1779412 19.5994106,11.7794118 19.5994106,11.3529412 C19.5994106,12.9264706 20.8519103,14.1911765 22.3991159,14.1911765 C23.9463214,14.1911765 25.1988212,12.9264706 25.1988212,11.3529412 C25.1988212,12.9264706 26.4527944,14.1911765 27.9985265,14.1911765 C29.5442585,14.1911765 30.7982318,12.9279412 30.7982318,11.3529412 C30.7982318,12.9264706 32.0507315,14.1911765 33.59499,14.1911765 C35.1392485,14.1911765 36.3946953,12.9279412 36.3946953,11.3529412 C36.3946953,11.8529412 36.5273129,12.3235294 36.7453952,12.7338235 L36.7807599,12.7941176 L36.9133775,13 L36.9723187,13.0588235 L37.1196716,13.25 L37.165351,13.2941176 L37.3701716,13.5 L37.3878539,13.5161765 C37.6206715,13.7205882 37.9065362,13.8838235 38.2145037,14 L38.229239,14.0161765 L38.5401537,14.1044118 C38.758236,14.1632353 38.9822124,14.1926471 39.2017682,14.1926471 C40.7504473,14.1926471 42,12.9294118 42,11.3544118 L38.1364067,7.16176471 Z" id="store"></path>
            </g>
        </g>
    </g>
</svg>