<?xml version="1.0" encoding="UTF-8"?>
<svg width="32px" height="32px" viewBox="0 0 32 32" version="1.1" xmlns="http://www.w3.org/2000/svg" xmlns:xlink="http://www.w3.org/1999/xlink">
    <!-- Generator: Sketch 39.1 (31720) - http://www.bohemiancoding.com/sketch -->
    <title>stormy</title>
    <desc>Created with Sketch.</desc>
    <defs></defs>
    <g id="Ãtomos" stroke="none" stroke-width="1" fill="none" fill-rule="evenodd">
        <g id="03_Iconos" transform="translate(-629.000000, -1041.000000)" fill="#666666">
            <g id="ico-tormenta" transform="translate(629.000000, 1041.000000)">
                <path d="M14.875,16.25 L21.125,16.25 L17.375,22.5 L21.75,22.5 L13.625,32.5 L15.875,25 L11.75,25 L14.875,16.25 L14.875,16.25 Z M22.375,25 L21.7125,25 L23.95,22.24375 C25.9375,21.58125 27.375,19.7125 27.375,17.5 C27.375,14.7375 25.1375,12.5 22.375,12.5 C21.375,12.5 20.45,12.8 19.66875,13.30625 C18.89375,9.98125 15.93125,7.5 12.375,7.5 C8.23125,7.5 4.875,10.85625 4.875,15 C4.875,18.40625 7.14375,21.275 10.25625,22.19375 L9.4125,24.55 C5.3375,23.2875 2.375,19.4875 2.375,15 C2.375,9.475 6.85,5 12.375,5 C16.125,5 19.39375,7.06875 21.10625,10.13125 C21.51875,10.05625 21.9375,10 22.375,10 C26.51875,10 29.875,13.35625 29.875,17.5 C29.875,21.64375 26.51875,25 22.375,25 L22.375,25 Z" id="tormenta"></path>
            </g>
        </g>
    </g>
</svg>