<?xml version="1.0" encoding="UTF-8"?>
<svg width="32px" height="32px" viewBox="0 0 32 32" version="1.1" xmlns="http://www.w3.org/2000/svg" xmlns:xlink="http://www.w3.org/1999/xlink">
    <!-- Generator: Sketch 39.1 (31720) - http://www.bohemiancoding.com/sketch -->
    <title>sunny</title>
    <desc>Created with Sketch.</desc>
    <defs></defs>
    <g id="Ãtomos" stroke="none" stroke-width="1" fill="none" fill-rule="evenodd">
        <g id="03_Iconos" transform="translate(-691.000000, -1041.000000)" fill="#666666">
            <g id="ico-soleado" transform="translate(691.000000, 1041.000000)">
                <path d="M24.8375,23.06875 L26.60625,24.8375 C27.09375,25.325 27.09375,26.11875 26.60625,26.60625 C26.11875,27.09375 25.325,27.09375 24.8375,26.60625 L23.06875,24.8375 C22.58125,24.35 22.58125,23.55625 23.06875,23.06875 C23.55625,22.58125 24.35,22.58125 24.8375,23.06875 L24.8375,23.06875 Z M16,26 C16.6875,26 17.25,26.5625 17.25,27.25 L17.25,29.75 C17.25,30.4375 16.6875,31 16,31 C15.3125,31 14.75,30.4375 14.75,29.75 L14.75,27.25 C14.75,26.5625 15.3125,26 16,26 L16,26 Z M7.1625,23.06875 C7.65,22.58125 8.44375,22.58125 8.93125,23.06875 C9.41875,23.55625 9.41875,24.35 8.93125,24.8375 L7.1625,26.60625 C6.675,27.09375 5.88125,27.09375 5.39375,26.60625 C4.90625,26.11875 4.90625,25.325 5.39375,24.8375 L7.1625,23.06875 L7.1625,23.06875 Z M6,16 C6,16.6875 5.4375,17.25 4.75,17.25 L2.25,17.25 C1.5625,17.25 1,16.6875 1,16 C1,15.3125 1.5625,14.75 2.25,14.75 L4.75,14.75 C5.4375,14.75 6,15.3125 6,16 L6,16 Z M7.1625,8.93125 L5.39375,7.1625 C4.90625,6.675 4.90625,5.88125 5.39375,5.39375 C5.88125,4.90625 6.675,4.90625 7.1625,5.39375 L8.93125,7.1625 C9.41875,7.65 9.41875,8.44375 8.93125,8.93125 C8.44375,9.41875 7.65,9.41875 7.1625,8.93125 L7.1625,8.93125 Z M16,6 C15.3125,6 14.75,5.4375 14.75,4.75 L14.75,2.25 C14.75,1.5625 15.3125,1 16,1 C16.6875,1 17.25,1.5625 17.25,2.25 L17.25,4.75 C17.25,5.4375 16.6875,6 16,6 L16,6 Z M16,11 C13.2375,11 11,13.2375 11,16 C11,18.7625 13.2375,21 16,21 C18.7625,21 21,18.7625 21,16 C21,13.2375 18.7625,11 16,11 L16,11 Z M16,23.5 C11.85625,23.5 8.5,20.14375 8.5,16 C8.5,11.85625 11.85625,8.5 16,8.5 C20.14375,8.5 23.5,11.85625 23.5,16 C23.5,20.14375 20.14375,23.5 16,23.5 L16,23.5 Z M24.8375,8.93125 C24.35,9.41875 23.55625,9.41875 23.06875,8.93125 C22.58125,8.44375 22.58125,7.65 23.06875,7.1625 L24.8375,5.39375 C25.325,4.90625 26.11875,4.90625 26.60625,5.39375 C27.09375,5.88125 27.09375,6.675 26.60625,7.1625 L24.8375,8.93125 L24.8375,8.93125 Z M29.75,17.25 L27.25,17.25 C26.5625,17.25 26,16.6875 26,16 C26,15.3125 26.5625,14.75 27.25,14.75 L29.75,14.75 C30.4375,14.75 31,15.3125 31,16 C31,16.6875 30.4375,17.25 29.75,17.25 L29.75,17.25 Z" id="soleado"></path>
            </g>
        </g>
    </g>
</svg>