<?xml version="1.0" encoding="UTF-8"?>
<svg width="32px" height="32px" viewBox="0 0 32 32" version="1.1" xmlns="http://www.w3.org/2000/svg" xmlns:xlink="http://www.w3.org/1999/xlink">
    <!-- Generator: Sketch 41.1 (35376) - http://www.bohemiancoding.com/sketch -->
    <title>swimming-pool</title>
    <desc>Created with Sketch.</desc>
    <defs></defs>
    <g id="Ãtomos" stroke="none" stroke-width="1" fill="none" fill-rule="evenodd">
        <g id="Iconos" transform="translate(-719.000000, -4409.000000)" fill="#666666">
            <g id="ico-swimming-pool" transform="translate(719.000000, 4409.000000)">
                <path d="M18.237982,10.0439998 C18.237982,11.8623602 19.6367208,13.2610989 21.4550812,13.2610989 C23.2734415,13.2610989 24.6721803,11.8623602 24.6721803,10.0439998 C24.6721803,8.22563942 23.2734415,6.82690066 21.4550812,6.82690066 C19.6367208,6.82690066 18.237982,8.22563942 18.237982,10.0439998 L18.237982,10.0439998 Z M3.97084668,13.8205944 C3.55122505,14.1003422 3.41135118,14.7997116 3.8309728,15.3592071 L3.97084668,15.499081 C4.39046831,16.0585765 5.08983769,16.0585765 5.50945931,15.7788287 L10.1252972,12.4218557 C10.6847927,12.4218557 12.5031531,12.2819818 11.9436576,14.6598377 L11.1044143,15.0794593 L7.18794582,18.0168107 L25.0918019,18.0168107 L12.2234054,9.06488267 C11.9436576,8.50538717 11.1044143,8.50538717 10.6847927,8.9250088 L3.97084668,13.8205944 Z M9.84554946,25.0105045 C9.70567559,25.0105045 8.30693683,23.7516396 6.48857645,23.7516396 C4.67021606,23.7516396 3.13160343,24.8706306 3.13160343,24.8706306 C2.85185567,25.1503784 2.43223405,25.0105045 2.1524863,24.7307568 C1.87273854,24.451009 2.01261242,24.0313874 2.29236017,23.7516396 C2.43223405,23.7516396 4.11072056,22.213027 6.48857645,22.213027 C8.86643233,22.213027 10.5449188,23.6117658 10.6847927,23.7516396 C10.6847927,23.7516396 11.6639099,24.3111351 12.7829009,24.3111351 L12.9227747,24.3111351 C13.9018919,24.3111351 15.5803784,23.4718919 16,23.1921441 C16.1398739,23.0522703 17.8183604,22.213027 19.2170991,22.213027 C20.475964,22.213027 20.8955857,22.4927747 22.4341983,23.1921441 L22.9936938,23.4718919 C24.6721803,24.3111351 25.9310452,24.1712613 25.9310452,24.1712613 C25.9310452,24.1712613 27.6095317,23.8915135 28.8683966,23.0522703 C29.1481443,22.7725225 29.567766,22.9123964 29.8475137,23.1921441 C30.1272615,23.4718919 29.9873876,23.8915135 29.7076398,24.1712613 C28.1690272,25.2902523 26.2458767,25.6600003 26.0709191,25.7098739 C25.9310452,25.7098739 24.5323064,25.8497478 22.4341983,24.8706306 L21.8747028,24.5908829 C20.475964,23.8915135 20.1962163,23.7516396 19.2170991,23.7516396 C18.3778559,23.7516396 17.118991,24.3111351 16.8392433,24.451009 C16.4196216,24.451009 14.3215135,25.7098739 12.643027,25.7098739 C11.1044143,25.7098739 9.84554946,25.0105045 9.84554946,25.0105045 Z M9.84554946,22.0831102 C9.70567559,22.0831102 8.30693683,20.8242454 6.48857645,20.8242454 C4.67021606,20.8242454 3.13160343,21.9432364 3.13160343,21.9432364 C2.85185567,22.2229841 2.43223405,22.0831102 2.1524863,21.8033625 C1.87273854,21.5236147 2.01261242,21.1039931 2.29236017,20.8242454 C2.43223405,20.8242454 4.11072056,19.2856327 6.48857645,19.2856327 C8.86643233,19.2856327 10.5449188,20.6843715 10.6847927,20.8242454 C10.6847927,20.8242454 11.6639099,21.3837409 12.7829009,21.3837409 L12.9227747,21.3837409 C13.9018919,21.3837409 15.5803784,20.5444976 16,20.2647499 C16.1398739,20.124876 17.8183604,19.2856327 19.2170991,19.2856327 C20.475964,19.2856327 20.8955857,19.5653805 22.4341983,20.2647499 L22.9936938,20.5444976 C24.6721803,21.3837409 25.9310452,21.243867 25.9310452,21.243867 C25.9310452,21.243867 27.6095317,20.9641192 28.8683966,20.124876 C29.1481443,19.8451282 29.567766,19.9850021 29.8475137,20.2647499 C30.1272615,20.5444976 29.9873876,20.9641192 29.7076398,21.243867 C28.1690272,22.362858 26.2458767,22.732606 26.0709191,22.7824796 C25.9310452,22.7824796 24.5323064,22.9223535 22.4341983,21.9432364 L21.8747028,21.6634886 C20.475964,20.9641192 20.1962163,20.8242454 19.2170991,20.8242454 C18.3778559,20.8242454 17.118991,21.3837409 16.8392433,21.5236147 C16.4196216,21.5236147 14.3215135,22.7824796 12.643027,22.7824796 C11.1044143,22.7824796 9.84554946,22.0831102 9.84554946,22.0831102 Z" id="swimming-pool"></path>
            </g>
        </g>
    </g>
</svg>