<?xml version="1.0" encoding="UTF-8" standalone="no"?>
<svg width="32px" height="32px" viewBox="0 0 32 32" version="1.1" xmlns="http://www.w3.org/2000/svg" xmlns:xlink="http://www.w3.org/1999/xlink">
    <!-- Generator: Sketch 3.8.3 (29802) - http://www.bohemiancoding.com/sketch -->
    <title> teddy-bear</title>
    <desc>Created with Sketch.</desc>
    <defs></defs>
    <g id="Ãtomos" stroke="none" stroke-width="1" fill="none" fill-rule="evenodd">
        <g id="03_Iconos" transform="translate(-1030.000000, -732.000000)" fill="#666666">
            <g id="ico-babysit" transform="translate(1030.000000, 732.000000)">
                <path d="M27.8183194,15.8499324 L20.630793,14.8436787 C21.7807973,13.6936745 22.3557994,12.2561692 22.3557994,10.6749134 C22.3557994,10.2436619 22.3557994,9.9561608 22.2120488,9.52490922 C23.7933046,9.09365763 24.9433089,7.65615235 24.9433089,5.93114602 C24.9433089,3.63113758 23.2183025,1.90613124 21.0620446,1.90613124 C19.3370383,1.90613124 17.7557825,3.05613546 17.3245309,4.63739127 C16.8932793,4.49364074 16.4620277,4.49364074 16.1745267,4.49364074 C15.7432751,4.49364074 15.3120235,4.49364074 15.0245224,4.63739127 C14.3057698,3.05613546 12.8682645,1.90613124 10.9995077,1.90613124 C8.84324975,1.90613124 7.11824341,3.63113758 7.11824341,5.78739549 C7.11824341,7.51240183 8.26824764,8.9499071 9.84950344,9.38115869 C9.84950344,9.81241027 9.70575291,10.0999113 9.70575291,10.5311629 C9.70575291,12.1124187 10.4245056,13.6936745 11.5745098,14.8436787 L4.24323286,15.8499324 C3.09322863,15.993683 2.374476,16.9999367 2.51822652,18.0061904 L2.66197705,18.8686935 C2.80572758,19.8749472 3.81198127,20.4499493 4.9619855,20.3061988 L11.7182603,20.3061988 C12.724514,20.3061988 13.8745182,19.7311967 14.3057698,18.8686935 C15.3120235,18.724943 16.0307761,17.7186893 15.8870256,16.7124356 L15.8870256,16.5686851 L16.1745267,16.5686851 L16.1745267,16.7124356 C16.0307761,17.7186893 16.7495288,18.724943 17.7557825,18.8686935 C18.0432835,19.7311967 19.3370383,20.3061988 20.343292,20.3061988 L27.0995668,20.3061988 C28.249571,20.4499493 29.2558247,19.8749472 29.3995752,18.8686935 L29.5433258,18.0061904 C29.6870763,16.9999367 28.8245731,15.993683 27.8183194,15.8499324 L27.8183194,15.8499324 Z M10.280755,8.08740394 C9.56200239,7.65615235 9.1307508,6.93739971 9.1307508,6.07489655 C9.1307508,4.7811418 10.1370045,3.7748881 11.4307592,3.7748881 C12.2932624,3.7748881 13.0120151,4.20613969 13.4432666,4.92489233 C12.0057614,5.64364496 10.9995077,6.64989866 10.280755,8.08740394 L10.280755,8.08740394 Z M16.0307761,15.993683 C14.0182687,15.993683 12.4370129,14.4124272 12.4370129,12.5436703 C12.4370129,10.6749134 14.0182687,8.9499071 16.0307761,8.9499071 C18.0432835,8.9499071 19.6245393,10.5311629 19.6245393,12.3999198 C19.6245393,14.2686766 18.0432835,15.993683 16.0307761,15.993683 L16.0307761,15.993683 Z M18.6182856,5.06864285 C19.0495372,4.34989021 19.7682899,3.91863863 20.630793,3.91863863 C21.9245478,3.91863863 22.9308015,4.92489233 22.9308015,6.21864708 C22.9308015,7.08115024 22.3557994,7.79990288 21.6370467,8.23115447 C21.0620446,6.64989866 20.0557909,5.64364496 18.6182856,5.06864285 Z M16.0307761,10.2436619 C15.168273,10.2436619 14.4495203,10.9624145 14.4495203,11.8249177 C14.4495203,12.6874208 15.168273,13.4061735 16.0307761,13.4061735 C16.8932793,13.4061735 17.7557825,12.6874208 17.7557825,11.8249177 C17.7557825,10.9624145 16.8932793,10.2436619 16.0307761,10.2436619 Z M10.9995077,21.7437041 C8.84324975,21.7437041 6.97449289,23.7562115 6.97449289,26.1999704 C7.11824341,28.6437294 8.84324975,30.6562368 10.9995077,30.6562368 C13.1557656,30.6562368 15.0245224,28.6437294 15.0245224,26.1999704 C15.0245224,23.7562115 13.2995161,21.7437041 10.9995077,21.7437041 Z M21.0620446,21.7437041 C18.9057867,21.7437041 17.0370298,23.7562115 17.0370298,26.1999704 C17.0370298,28.6437294 18.7620362,30.6562368 21.0620446,30.6562368 C23.2183025,30.6562368 25.0870594,28.6437294 25.0870594,26.1999704 C24.9433089,23.7562115 23.2183025,21.7437041 21.0620446,21.7437041 Z" id="babysit"></path>
            </g>
        </g>
    </g>
</svg>