<?xml version="1.0" encoding="UTF-8"?>
<svg width="32px" height="32px" viewBox="0 0 32 32" version="1.1" xmlns="http://www.w3.org/2000/svg" xmlns:xlink="http://www.w3.org/1999/xlink">
    <!-- Generator: Sketch 41.1 (35376) - http://www.bohemiancoding.com/sketch -->
    <title>tennis</title>
    <desc>Created with Sketch.</desc>
    <defs></defs>
    <g id="Ãtomos" stroke="none" stroke-width="1" fill="none" fill-rule="evenodd">
        <g id="Iconos" transform="translate(-645.000000, -4880.000000)" fill="#666666">
            <g id="ico-tennis" transform="translate(630.000000, 4880.000000)">
                <path d="M39.6931737,16.1440576 C39.6931737,20.4081633 35.9882635,23.8641056 31.4167665,23.8641056 C26.8467066,23.8641056 23.1389222,20.4081633 23.1389222,16.1440576 L23.1389222,6.78031212 C20.4931737,8.98295318 19,12.2977191 19,16 C19,22.6266507 24.3748503,28 31,28 C37.6237126,28 43,22.6266507 43,16 C43,12.7731092 41.7626347,9.84729892 39.6931737,7.68643457 L39.6931737,16.1440576 Z M37.2083832,5.7272509 C35.3990419,4.63241297 33.2706587,4 31,4 C29.0742515,4 27.2491018,4.45954382 25.6251497,5.26626651 L25.6251497,15.8559424 C25.6251497,18.909964 28.211976,21.3733493 31.4167665,21.3733493 C34.6201198,21.3733493 37.2083832,18.909964 37.2083832,15.8559424 L37.2083832,5.7272509 Z" id="tennis"></path>
            </g>
        </g>
    </g>
</svg>