<?xml version="1.0" encoding="UTF-8"?>
<svg width="33px" height="32px" viewBox="0 0 33 32" version="1.1" xmlns="http://www.w3.org/2000/svg" xmlns:xlink="http://www.w3.org/1999/xlink">
    <!-- Generator: Sketch 41.1 (35376) - http://www.bohemiancoding.com/sketch -->
    <title>thumbs-down</title>
    <desc>Created with Sketch.</desc>
    <defs></defs>
    <g id="Ãtomos" stroke="none" stroke-width="1" fill="none" fill-rule="evenodd">
        <g id="Iconos" transform="translate(-780.000000, -3321.000000)" fill="#666666">
            <g id="thumbs-down" transform="translate(780.000000, 3321.000000)">
                <path d="M21.2663948,2.50251458 C21.3176525,2.30253429 21.4201678,2 22.2915481,2 C24.5776398,2 25.6335477,4.05620762 25.6335477,6.39443872 C25.6335477,9.16339661 22.5683395,13.8244757 23.3167013,13.8654973 C25.3260017,13.9629236 30.1698508,13.9475405 30.1698508,18.1676374 C30.1698508,19.2393267 29.8315503,20.1674404 29.1600749,21.044277 C30.0007006,22.4031175 28.498851,24.6900716 27.9401425,24.8490303 C27.9401425,25.8643148 27.2379125,27.6077328 25.8385783,27.8230962 C25.8385783,29.0229779 24.0855663,31.3355705 21.0203581,30.1408165 C20.1694809,30.386946 18.7086375,30.6074371 17.6527296,30.4433507 C17.1760334,30.3664352 13.9314233,28.2435675 13.0344142,26.6539806 L12.5008514,26.6193886 L12.6294787,15.629426 C12.6294787,15.629426 13.4393497,15.5576382 13.6392546,15.3986796 C13.6392546,15.3986796 17.6988615,10.558131 20.3796373,6.8764425 C20.9793519,6.05601054 21.2663948,2.50251458 21.2663948,2.50251458 Z M3.58492542,15.4707823 C3.58492542,14.9173752 4.03062608,14.46875 4.57562615,14.46875 L9.7192247,14.46875 C10.2663736,14.46875 10.7099254,14.9108502 10.7099254,15.4707823 L10.7099254,27.7167177 C10.7099254,28.2701248 10.2642248,28.71875 9.7192247,28.71875 L4.57562615,28.71875 C4.02847725,28.71875 3.58492542,28.2766498 3.58492542,27.7167177 L3.58492542,15.4707823 Z" id="Combined-Shape-Copy" transform="translate(16.877388, 16.250000) scale(1, -1) translate(-16.877388, -16.250000) "></path>
            </g>
        </g>
    </g>
</svg>