<?xml version="1.0" encoding="UTF-8"?>
<svg width="32px" height="32px" viewBox="0 0 32 32" version="1.1" xmlns="http://www.w3.org/2000/svg" xmlns:xlink="http://www.w3.org/1999/xlink">
    <!-- Generator: Sketch 41.1 (35376) - http://www.bohemiancoding.com/sketch -->
    <title>thumbs-up</title>
    <desc>Created with Sketch.</desc>
    <defs></defs>
    <g id="Ãtomos" stroke="none" stroke-width="1" fill="none" fill-rule="evenodd">
        <g id="Iconos" transform="translate(-727.000000, -3321.000000)">
            <path d="M746.681469,3323.50251 C746.732727,3323.30253 746.835242,3323 747.706623,3323 C749.992714,3323 751.048622,3325.05621 751.048622,3327.39444 C751.048622,3330.1634 747.983414,3334.82448 748.731776,3334.8655 C750.741076,3334.96292 755.584925,3334.94754 755.584925,3339.16764 C755.584925,3340.23933 755.246625,3341.16744 754.575149,3342.04428 C755.415775,3343.40312 753.913926,3345.69007 753.355217,3345.84903 C753.355217,3346.86431 752.652987,3348.60773 751.253653,3348.8231 C751.253653,3350.02298 749.500641,3352.33557 746.435433,3351.14082 C745.584555,3351.38695 744.123712,3351.60744 743.067804,3351.44335 C742.591108,3351.36644 739.346498,3349.24357 738.449489,3347.65398 L737.915926,3347.61939 L738.044553,3336.62943 C738.044553,3336.62943 738.854424,3336.55764 739.054329,3336.39868 C739.054329,3336.39868 743.113936,3331.55813 745.794712,3327.87644 C746.394427,3327.05601 746.681469,3323.50251 746.681469,3323.50251 Z M729,3336.47078 C729,3335.91738 729.445701,3335.46875 729.990701,3335.46875 L735.134299,3335.46875 C735.681448,3335.46875 736.125,3335.91085 736.125,3336.47078 L736.125,3348.71672 C736.125,3349.27012 735.679299,3349.71875 735.134299,3349.71875 L729.990701,3349.71875 C729.443552,3349.71875 729,3349.27665 729,3348.71672 L729,3336.47078 Z" id="Combined-Shape" fill="#666666"></path>
            <g id="ico-thumbs-up" transform="translate(727.000000, 3321.000000)"></g>
        </g>
    </g>
</svg>