<?xml version="1.0" encoding="UTF-8" standalone="no"?>
<svg width="32px" height="32px" viewBox="0 0 32 32" version="1.1" xmlns="http://www.w3.org/2000/svg" xmlns:xlink="http://www.w3.org/1999/xlink">
    <!-- Generator: Sketch 3.7.2 (28276) - http://www.bohemiancoding.com/sketch -->
    <title>tickets</title>
    <desc>Created with Sketch.</desc>
    <defs></defs>
    <g id="Ãtomos" stroke="none" stroke-width="1" fill="none" fill-rule="evenodd">
        <g id="03_Iconos" transform="translate(-250.000000, -426.000000)" fill="#666666">
            <g id="ico-tickets" transform="translate(250.000000, 426.000000)">
                <path d="M16.077572,26.8322604 L30.6583678,12.1139581 C31.0556092,11.7116238 31.0505163,11.0597406 30.6430893,10.6624992 L29.0031954,9.05825514 C28.1475986,9.89348061 26.9558744,10.1583082 25.8710999,9.86801642 C25.4483943,10.637035 24.8881821,11.4315177 24.4909407,12.2056291 C23.8899858,13.3362392 23.1769885,14.5228705 22.5149195,15.6585734 C21.964893,16.6822339 21.3639381,17.7058944 20.7578903,18.7295549 C19.2504102,21.4236663 17.6308877,24.1177777 16.077572,26.8322604 L16.077572,26.8322604 Z M23.8441503,5.07565567 C23.9714712,4.86175647 24.1293492,4.65804294 24.3126914,4.46960793 L22.5760336,2.76859997 C22.1736994,2.37645143 21.5218161,2.38154427 21.1194818,2.77878565 L18.2980495,5.59512517 C18.6494553,5.92666894 19.1230893,6.11459467 19.5508877,6.11459467 C21.0329036,6.11459467 20.9208612,4.55109334 22.4079699,4.55109334 C22.9121609,4.55109334 23.2788452,4.8261066 23.8441503,5.07565567 L23.8441503,5.07565567 Z M1.11990625,22.9158679 C0.839800147,23.4098732 1.00786381,24.0413851 1.50186911,24.3214912 L3.55937574,25.5081225 C4.47608662,23.9242498 6.49794338,23.3793162 8.0869089,24.2909342 C9.67587442,25.2025522 10.2259009,27.2345947 9.30919007,28.8235602 L11.3870681,30.0203772 C11.891259,30.3055761 12.522771,30.1375124 12.8079699,29.6384143 L24.8525322,8.56424984 C25.1326383,8.07024453 24.954389,7.4387326 24.4552909,7.1586265 L22.4283413,6.02801642 C21.5065375,7.58133207 19.5152378,8.08093949 17.9313651,7.19427636 C16.3525853,6.3086318 15.7720017,4.372844 16.6530627,2.799157 L14.5140707,1.60743286 C14.0200654,1.3324196 13.3885535,1.5055761 13.1084474,1.9995814 L1.11990625,22.9158679 L1.11990625,22.9158679 Z" id="tickets"></path>
            </g>
        </g>
    </g>
</svg>