<?xml version="1.0" encoding="UTF-8"?>
<svg width="32px" height="32px" viewBox="0 0 32 32" version="1.1" xmlns="http://www.w3.org/2000/svg" xmlns:xlink="http://www.w3.org/1999/xlink">
    <!-- Generator: Sketch 41.1 (35376) - http://www.bohemiancoding.com/sketch -->
    <title>ticket</title>
    <desc>Created with Sketch.</desc>
    <defs></defs>
    <g id="Ãtomos" stroke="none" stroke-width="1" fill="none" fill-rule="evenodd">
        <g id="Iconos" transform="translate(-85.000000, -3559.000000)" fill="#666666">
            <g id="ico-ticket" transform="translate(85.000000, 3559.000000)">
                <path d="M4.11990625,22.9158679 C3.83980015,23.4098732 4.00786381,24.0413851 4.50186911,24.3214912 L6.55937574,25.5081225 C7.47608662,23.9242498 9.49794338,23.3793162 11.0869089,24.2909342 C12.6758744,25.2025522 13.2259009,27.2345947 12.3091901,28.8235602 L14.3870681,30.0203772 C14.891259,30.3055761 15.522771,30.1375124 15.8079699,29.6384143 L27.8525322,8.56424984 C28.1326383,8.07024453 27.954389,7.4387326 27.4552909,7.1586265 L25.4283413,6.02801642 C24.5065375,7.58133207 22.5152378,8.08093949 20.9313651,7.19427636 C19.3525853,6.3086318 18.7720017,4.372844 19.6530627,2.799157 L17.5140707,1.60743286 C17.0200654,1.3324196 16.3885535,1.5055761 16.1084474,1.9995814 L4.11990625,22.9158679 L4.11990625,22.9158679 Z" id="ticket"></path>
            </g>
        </g>
    </g>
</svg>