<?xml version="1.0" encoding="UTF-8" standalone="no"?>
<svg width="32px" height="32px" viewBox="0 0 32 32" version="1.1" xmlns="http://www.w3.org/2000/svg" xmlns:xlink="http://www.w3.org/1999/xlink">
    <!-- Generator: Sketch 3.8.3 (29802) - http://www.bohemiancoding.com/sketch -->
    <title>time</title>
    <desc>Created with Sketch.</desc>
    <defs></defs>
    <g id="Ãtomos" stroke="none" stroke-width="1" fill="none" fill-rule="evenodd">
        <g id="03_Iconos" transform="translate(-741.000000, -478.000000)" fill="#666666">
            <g id="ico-time" transform="translate(741.000000, 478.000000)">
                <path d="M31.2577893,14.2460087 L29.5103292,14.2460087 C29.4747704,14.2460087 29.3680941,14.6371553 29.3680941,14.6930334 L29.3680941,15.2619739 L28.6315193,15.2619739 C28.0320999,8.95283019 22.6271652,4 16.0589504,4 C9.06911005,4 3.40002441,9.68432511 3.40002441,16.54209 C3.40002441,23.394775 9.06911005,29.0689405 16.0589504,29.0689405 C22.6271652,29.0689405 28.0524192,24.1110305 28.6518386,17.8018868 L29.3680941,17.8018868 L29.3680941,18.6959361 C29.3680941,18.7467344 29.4747704,18.817852 29.5103292,18.817852 L31.2577893,18.817852 C31.2933481,18.817852 31.4000244,18.6603774 31.4000244,18.6044993 L31.4000244,14.4593614 C31.4000244,14.4034833 31.2933481,14.2460087 31.2577893,14.2460087 Z M20.8644656,16.277939 L16.1605469,16.277939 L16.1605469,9.4658926 C16.1605469,9.07474601 15.7084424,8.7394775 15.3020563,8.7394775 C14.8956703,8.7394775 14.6365992,9.07474601 14.6365992,9.4658926 L14.6365992,16.8417997 C14.6365992,17.5682148 15.164901,17.8018868 15.6576442,17.8018868 L20.9355832,17.8018868 C21.4842044,17.8018868 21.9210694,17.5936139 21.9210694,17.0602322 C21.9210694,16.5268505 21.408007,16.277939 20.8644656,16.277939 Z M16.0589504,26.2953556 C10.5828981,26.2953556 6.12789089,21.9216255 6.12789089,16.54209 C6.12789089,11.1574746 10.5828981,6.78374456 16.0589504,6.78374456 C21.5350026,6.78374456 25.9747704,11.1574746 25.9747704,16.54209 C25.9747704,21.9216255 21.5350026,26.2953556 16.0589504,26.2953556 Z" id="time"></path>
            </g>
        </g>
    </g>
</svg>