<?xml version="1.0" encoding="UTF-8"?>
<svg width="32px" height="32px" viewBox="0 0 32 32" version="1.1" xmlns="http://www.w3.org/2000/svg" xmlns:xlink="http://www.w3.org/1999/xlink">
    <!-- Generator: Sketch 41.1 (35376) - http://www.bohemiancoding.com/sketch -->
    <title>towels</title>
    <desc>Created with Sketch.</desc>
    <defs></defs>
    <g id="Ãtomos" stroke="none" stroke-width="1" fill="none" fill-rule="evenodd">
        <g id="Iconos" transform="translate(-215.000000, -4880.000000)" fill="#666666">
            <g id="ico-towels" transform="translate(203.000000, 4880.000000)">
                <path d="M39.648,8.03575949 L38.36,8.03575949 L38.36,7.3943605 C38.36,6.28725009 37.4612,5.38650282 36.358,5.38650282 L21.574,5.38650282 C21.2478,5.38650282 20.9426,5.47295225 20.6696,5.61378115 C19.1184,5.73927226 18.1454,6.65256864 18.13,7.9995065 C18.13,8.01205561 18.1356,8.02321038 18.137,8.03436514 L16.408,8.03436514 C16.0692,5.38092544 14,4.68514698 14,5.12018281 L14,11.8688156 C14,12.822548 16.0398,11.6763959 16.4024,9.42871076 L18.5682,9.42871076 C18.2952,10.0115472 18.13,10.6543406 18.13,11.3389642 L18.13,23.4962637 C18.13,25.9795932 20.1404,28 22.61,28 L32.424,28 C34.3392,28 35.9646,26.7799476 36.603,25.0746629 C37.59,24.9519605 38.36,24.1153531 38.36,23.0919034 L38.36,9.42731641 L39.6704,9.42731641 C40.0484,11.9984897 42,12.6608039 42,12.2313454 L42,5.45482575 C42,4.48296686 39.9392,5.69604755 39.648,8.03575949 Z M19.53,11.3389642 C19.53,10.6292423 19.7764,9.98087162 20.1754,9.45659767 L34.8586,9.45659767 C34.9174,9.53468102 34.9748,9.61137003 35.0266,9.69503077 L35.0266,19.1054693 L19.53,19.1054693 L19.53,11.3389642 Z M36.9348,7.26329202 C36.9446,7.30791108 36.96,7.3483471 36.96,7.3943605 L36.96,8.03575949 L36.4434,8.03575949 C36.5862,7.39993789 36.7836,7.28560155 36.9348,7.26329202 Z M32.424,26.6070487 L22.61,26.6070487 C20.9118,26.6070487 19.53,25.2127031 19.53,23.497658 L19.53,22.4811801 L35.028,22.4811801 L35.028,24.4039827 C35.028,24.5699098 35.0952,24.7177104 35.1918,24.8376241 C34.6934,25.8805947 33.6448,26.6070487 32.424,26.6070487 Z M36.96,23.0946921 C36.96,23.1839302 36.9362,23.2689853 36.9026,23.3456743 L36.9026,11.3403586 C36.9026,10.6557349 36.7374,10.0129416 36.4644,9.4301051 L36.96,9.4301051 L36.96,23.0946921 Z" id="towels"></path>
            </g>
        </g>
    </g>
</svg>