<?xml version="1.0" encoding="UTF-8" standalone="no"?>
<svg width="32px" height="32px" viewBox="0 0 32 32" version="1.1" xmlns="http://www.w3.org/2000/svg" xmlns:xlink="http://www.w3.org/1999/xlink">
    <!-- Generator: Sketch 3.8.3 (29802) - http://www.bohemiancoding.com/sketch -->
    <title>transmision</title>
    <desc>Created with Sketch.</desc>
    <defs></defs>
    <g id="Ãtomos" stroke="none" stroke-width="1" fill="none" fill-rule="evenodd">
        <g id="03_Iconos" transform="translate(-362.000000, -732.000000)" fill="#666666">
            <g id="ico-transmision" transform="translate(362.000000, 732.000000)">
                <path d="M15.9012408,1.90096154 C8.16600832,1.90096154 1.90096154,8.16600832 1.90096154,15.9006822 C1.90096154,23.6359148 8.1665669,29.900403 15.9012408,29.900403 C23.6359148,29.900403 29.9009615,23.6353562 29.9009615,15.9006822 C29.900403,8.16600832 23.6359148,1.90096154 15.9012408,1.90096154 L15.9012408,1.90096154 Z M22.9008219,15.9006822 L22.9008219,17.6512757 L21.150787,17.6512757 L17.6501586,17.6512757 L17.6501586,22.9002633 L15.9006822,22.9002633 L15.9006822,17.6512757 L12.4006124,17.6512757 L12.4006124,22.9002633 L10.6500189,22.9002633 L10.6500189,17.6512757 L10.6500189,15.9006822 L10.6500189,10.6505775 L12.4006124,10.6505775 L12.4006124,15.9006822 L15.9006822,15.9006822 L15.9006822,10.6505775 L17.6501586,10.6505775 L17.6501586,15.9006822 L21.150787,15.9006822 L21.150787,10.6505775 L22.9008219,10.6505775 L22.9008219,15.9006822 L22.9008219,15.9006822 Z" id="transmision"></path>
            </g>
        </g>
    </g>
</svg>