<?xml version="1.0" encoding="UTF-8" standalone="no"?>
<svg width="16px" height="16px" viewBox="0 0 16 16" version="1.1" xmlns="http://www.w3.org/2000/svg" xmlns:xlink="http://www.w3.org/1999/xlink">
    <!-- Generator: Sketch 3.7 (28169) - http://www.bohemiancoding.com/sketch -->
    <title>ico_traslate</title>
    <desc>Created with Sketch.</desc>
    <defs></defs>
    <g id="Ãtomos" stroke="none" stroke-width="1" fill="none" fill-rule="evenodd">
        <g id="03_Iconos" transform="translate(-330.000000, -295.000000)" fill="#676767">
            <g id="translates" transform="translate(330.000000, 295.000000)">
                <path d="M11.9139577,10.4278742 C11.362831,10.4278742 10.922662,9.95269845 10.922662,9.36779659 C10.922662,8.77396355 11.362831,8.29915229 11.9139577,8.29915229 C12.4553803,8.29915229 12.9052535,8.77396355 12.9052535,9.36779659 C12.9052535,9.95251618 12.4553803,10.4278742 11.9139577,10.4278742 L11.9139577,10.4278742 Z M3.54269014,6.96494176 C3.77229577,6.27979185 4.36919718,4.72631148 4.47026761,4.54386001 C4.57170423,4.35211281 4.7185493,4.12372951 5.00271831,4.11425151 C5.12191549,4.10532032 9.996,4.10532032 10.1329577,4.11425151 C10.408338,4.12372951 10.5553662,4.15088762 10.6557042,4.33370362 C10.7576901,4.52563309 11.3536761,6.27979185 11.5832817,6.96494176 L3.54269014,6.96494176 L3.54269014,6.96494176 Z M3.27756338,10.4278742 C2.73614085,10.4278742 2.29523944,9.95269845 2.29523944,9.36779659 C2.29523944,8.77396355 2.73614085,8.29915229 3.27756338,8.29915229 C3.82777465,8.29915229 4.27783099,8.77396355 4.27783099,9.36779659 C4.27783099,9.95251618 3.82777465,10.4278742 3.27756338,10.4278742 L3.27756338,10.4278742 Z M5.44288732,2.31452545 L6.26042254,2.31452545 L6.26042254,1.48301337 L7.13160563,1.48301337 L7.13160563,2.31452545 L7.9945493,2.31452545 L7.9945493,1.48301337 L8.85785915,1.48301337 L8.85785915,2.31452545 L9.70212676,2.31452545 L9.70212676,3.12726381 L8.85785915,3.12726381 L8.85785915,2.31452545 L7.9945493,2.31452545 L7.9945493,3.12726381 L7.13160563,3.12726381 L7.13160563,2.31452545 L6.26042254,2.31452545 L6.26042254,3.12726381 L5.44288732,3.12726381 L5.44288732,2.31452545 L5.44288732,2.31452545 Z M12.7673803,7.22048318 C12.5839155,6.75478538 11.7943944,4.7445384 11.5836479,4.18734146 C11.3439718,3.55705457 10.9774085,3.12744607 10.3905775,3.12744607 L10.1609718,3.12744607 L10.1609718,1.81182701 C10.1609718,1.37328732 9.82132394,1.00783758 9.39030986,1.00783758 L5.75488732,1.00783758 C5.32369014,1.00783758 4.98404225,1.37328732 4.98404225,1.81182701 L4.98404225,3.12744607 L4.73649296,3.12744607 C4.14856338,3.12744607 3.79097183,3.55705457 3.54250704,4.18734146 L2.35969014,7.22996117 C1.66226761,7.43082183 1.14794366,8.12526747 1.14794366,8.9387349 L1.14794366,12.2367138 L2.29523944,12.2367138 L2.29523944,13.5794909 C2.29523944,14.2010289 2.79088732,14.7126585 3.36892958,14.7126585 C3.95685915,14.7126585 4.36022535,14.2010289 4.36022535,13.5794909 L4.36022535,12.2367138 L10.7846056,12.2367138 L10.7846056,13.515879 C10.7846056,14.1463481 11.1432958,14.7126585 11.7204225,14.7126585 C12.3083521,14.7126585 12.8497746,14.2010289 12.8497746,13.5794909 L12.8497746,12.2367138 L13.9970704,12.2367138 L13.9970704,8.8742116 C13.9970704,8.05217752 13.4735915,7.42170837 12.7673803,7.22048318 L12.7673803,7.22048318 Z" id="Shape"></path>
            </g>
        </g>
    </g>
</svg>