<?xml version="1.0" encoding="UTF-8" standalone="no"?>
<svg width="32px" height="32px" viewBox="0 0 32 32" version="1.1" xmlns="http://www.w3.org/2000/svg" xmlns:xlink="http://www.w3.org/1999/xlink">
    <!-- Generator: Sketch 3.8.3 (29802) - http://www.bohemiancoding.com/sketch -->
    <title>delete</title>
    <desc>Created with Sketch.</desc>
    <defs></defs>
    <g id="Ãtomos" stroke="none" stroke-width="1" fill="none" fill-rule="evenodd">
        <g id="03_Iconos" transform="translate(-439.000000, -592.000000)" fill="#666666">
            <g id="ico-delete" transform="translate(439.000000, 592.000000)">
                <path d="M13.9704949,3.12762476 C13.9704949,2.81333904 14.2230459,2.56078802 14.5373316,2.56078802 L17.8934541,2.56078802 C18.2077398,2.56078802 18.4602908,2.81333904 18.4602908,3.12762476 L18.4602908,4.23884925 C18.4602908,4.55313496 18.2077398,4.80568598 17.8934541,4.80568598 L14.5373316,4.80568598 C14.2230459,4.80568598 13.9704949,4.55313496 13.9704949,4.23884925 L13.9704949,3.12762476 Z M5.5577398,8.17303292 C5.24345408,8.17303292 4.99090306,7.9204819 4.99090306,7.60619618 L4.99090306,6.49497169 C4.99090306,6.18068598 5.24345408,5.92813496 5.5577398,5.92813496 L26.8730459,5.92813496 C27.1873316,5.92813496 27.4398827,6.18068598 27.4398827,6.49497169 L27.4398827,7.60619618 C27.4398827,7.9204819 27.1873316,8.17303292 26.8730459,8.17303292 L5.5577398,8.17303292 Z M6.67457653,10.5638492 L6.67457653,28.5061962 C6.67457653,29.4434411 6.75314796,29.4995635 7.69039286,29.4995635 L24.7628418,29.4995635 C25.6944745,29.4995635 25.7562092,29.4434411 25.7562092,28.5061962 L25.7562092,10.5638492 C25.7562092,10.2271146 25.1893724,10.0026248 25.13325,9.85670639 L7.24141327,9.85670639 C7.18529082,10.0026248 6.67457653,10.2271146 6.67457653,10.5638492 Z M15.6541684,11.5403799 L17.3378418,11.5403799 L17.3378418,27.2546656 L15.6541684,27.2546656 L15.6541684,11.5403799 Z M20.1439643,11.5403799 L21.8276378,11.5403799 L21.8276378,27.2546656 L20.1439643,27.2546656 L20.1439643,11.5403799 Z M10.603148,11.5403799 L12.2868214,11.5403799 L12.2868214,27.2546656 L10.603148,27.2546656 L10.603148,11.5403799 Z" id="delete"></path>
            </g>
        </g>
    </g>
</svg>