<?xml version="1.0" encoding="UTF-8"?>
<svg width="32px" height="32px" viewBox="0 0 32 32" version="1.1" xmlns="http://www.w3.org/2000/svg" xmlns:xlink="http://www.w3.org/1999/xlink">
    <!-- Generator: Sketch 43.1 (39012) - http://www.bohemiancoding.com/sketch -->
    <title>trips</title>
    <desc>Created with Sketch.</desc>
    <defs>
        <path d="M2.66666667,11.6619201 C2.66666667,8.90311779 4.90581495,6.66666667 7.66681305,6.66666667 L24.3331869,6.66666667 C27.0946915,6.66666667 29.3333333,8.90270463 29.3333333,11.6619201 L29.3333333,21.6714133 C29.3333333,24.4302155 27.094185,26.6666667 24.3331869,26.6666667 L7.66681305,26.6666667 C4.90530846,26.6666667 2.66666667,24.4306287 2.66666667,21.6714133 L2.66666667,11.6619201 Z M13.3333333,26.6666667 C13.3333333,28.1389896 12.1388031,29.3333333 10.6663825,29.3333333 C9.19339371,29.3333333 8,28.1389896 8,26.6666667 L13.3333333,26.6666667 Z M24,26.6666667 C24,28.1389896 22.8054697,29.3333333 21.3330492,29.3333333 C19.8600604,29.3333333 18.6666667,28.1389896 18.6666667,26.6666667 L24,26.6666667 Z" id="path-1"></path>
    </defs>
    <g id="Ãtomos" stroke="none" stroke-width="1" fill="none" fill-rule="evenodd">
        <g id="Iconos" transform="translate(-303.000000, -3559.000000)">
            <g id="ico-trips" transform="translate(303.000000, 3559.000000)">
                <g id="trips">
                    <use fill="#666666" fill-rule="evenodd" xlink:href="#path-1"></use>
                    <path stroke="#666666" stroke-width="1.33333333" d="M3.33333333,11.6619201 C3.33333333,9.27163901 5.27367339,7.33333333 7.66681305,7.33333333 L24.3331869,7.33333333 C26.7267991,7.33333333 28.6666667,9.27119188 28.6666667,11.6619201 L28.6666667,21.6714133 C28.6666667,24.0616943 26.7263266,26 24.3331869,26 L7.66681305,26 C5.2732009,26 3.33333333,24.0621415 3.33333333,21.6714133 L3.33333333,11.6619201 Z M12.552732,27.3333333 C12.2779783,28.1099226 11.5368884,28.6666667 10.6663825,28.6666667 C9.7956661,28.6666667 9.05498092,28.110083 8.7804631,27.3333333 L12.552732,27.3333333 Z M23.2193986,27.3333333 C22.944645,28.1099226 22.2035551,28.6666667 21.3330492,28.6666667 C20.4623328,28.6666667 19.7216476,28.110083 19.4471298,27.3333333 L23.2193986,27.3333333 Z"></path>
                </g>
                <path d="M10.6666667,4.66666667 C10.6666667,3.19390733 11.8695343,2 13.3308018,2 L18.6691982,2 C20.1405594,2 21.3333333,3.1969041 21.3333333,4.66666667 L21.3333333,7.33333333 L10.6666667,7.33333333 L10.6666667,4.66666667 Z" id="trips" stroke="#666666" stroke-width="1.33333333"></path>
            </g>
        </g>
    </g>
</svg>