<?xml version="1.0" encoding="UTF-8" standalone="no"?>
<svg width="32px" height="32px" viewBox="0 0 32 32" version="1.1" xmlns="http://www.w3.org/2000/svg" xmlns:xlink="http://www.w3.org/1999/xlink">
    <!-- Generator: Sketch 39.1 (31720) - http://www.bohemiancoding.com/sketch -->
    <title>trolley</title>
    <desc>Created with Sketch.</desc>
    <defs>
        <polygon id="path-1" points="22.2590323 12.1644194 22.2590323 0.793451613 0.0584516129 0.793451613 0.0584516129 12.1644194 22.2590323 12.1644194"></polygon>
        <polygon id="path-3" points="0.599709677 3.87096774 4.17164516 3.87096774 4.17164516 0.465 0.599709677 0.465 0.599709677 3.87096774"></polygon>
        <polygon id="path-5" points="0.542129032 3.87096774 4.11309677 3.87096774 4.11309677 0.465 0.542129032 0.465"></polygon>
    </defs>
    <g id="Ãtomos" stroke="none" stroke-width="1" fill="none" fill-rule="evenodd">
        <g id="03_Iconos" transform="translate(-1057.000000, -592.000000)">
            <g id="ico-trolley" transform="translate(1057.000000, 592.000000)">
                <g transform="translate(1.000000, 7.000000)">
                    <path d="M8.42903226,8.23722581 C8.79677419,8.23722581 9.42580645,8.16948387 9.50322581,7.3856129 C9.54193548,6.93077419 8.79677419,6.59206452 8.41935484,6.59206452 L5.82580645,6.59206452 L0.687096774,6.59206452 L0.6,6.60174194 L0.541935484,6.61141935 L0.464516129,6.64045161 L0.416129032,6.65980645 L0.338709677,6.70819355 L0.3,6.73722581 L0.222580645,6.81464516 L0.203225806,6.834 L0.135483871,6.93077419 L0.116129032,6.95980645 L0.0774193548,7.03722581 L0.0580645161,7.09529032 C0.0193548387,7.20174194 0,7.30819355 0,7.42432258 C0,7.64690323 0.0774193548,7.85980645 0.203225806,8.00496774 C0.261290323,8.0823871 0.338709677,8.14045161 0.416129032,8.18883871 L0.44516129,8.19851613 L0.541935484,8.23722581 L0.6,8.23722581 L0.687096774,8.23722581 L5.66129032,8.23722581 L8.42903226,8.23722581 Z" id="Fill-1" fill="#5D5D5D"></path>
                    <path d="M9.64858065,11.5373226 C9.6776129,11.5373226 9.69696774,11.3728065 9.726,11.3728065 L9.79374194,11.363129 L9.85180645,11.3447419 L9.91954839,11.3244194 L9.98729032,11.2953871 L10.0356774,11.2673226 L10.1034194,11.2082903 L10.1324516,11.1899032 L10.2001935,11.1115161 L10.2195484,11.0824839 L10.2679355,11.0050645 L10.2776129,10.9760323 L10.3066452,10.8792581 L10.3163226,10.8502258 C10.326,10.8018387 10.3356774,10.763129 10.3356774,10.7147419 L10.3163226,10.5792581 L10.2969677,10.5018387 L10.2776129,10.4534516 L10.2582581,10.4050645 L10.2195484,10.3373226 L10.1905161,10.3082903 L10.1324516,10.2405484 L10.0840645,10.2018387 L10.0356774,10.163129 L9.9776129,10.1340968 L9.91954839,10.0953871 L9.85180645,10.0760323 L9.78406452,10.0566774 L9.71632258,10.0566774 C9.69696774,10.047 9.6776129,9.89216129 9.64858065,9.89216129 L8.33245161,9.89216129 L5.41954839,9.89216129 C5.04212903,9.89216129 4.73245161,10.1824839 4.73245161,10.5502258 C4.73245161,10.7437742 4.80987097,11.2179677 4.93567742,11.3447419 C5.05180645,11.4599032 5.226,11.5373226 5.41954839,11.5373226 L8.30341935,11.5373226 L9.64858065,11.5373226 Z" id="Fill-3" fill="#5D5D5D"></path>
                    <path d="M10.7807419,14.1400645 C10.7807419,13.5894194 10.5388065,13.1829677 10.1904194,13.1829677 L9.94848387,13.1829677 L8.60332258,13.1829677 C8.25493548,13.1829677 8.00332258,13.5313548 7.97429032,14.0432903 C7.95493548,14.3152258 8.04203226,14.3539355 8.15816129,14.5368387 C8.2646129,14.7216774 8.42912903,14.828129 8.60332258,14.828129 L9.98719355,14.828129 L10.1904194,14.828129 C10.5388065,14.828129 10.7807419,14.7013548 10.7807419,14.1400645" id="Fill-5" fill="#5D5D5D"></path>
                    <path d="M16.926,5.01503226 L26.1292258,4.986 C26.312129,4.97632258 26.4669677,4.88922581 26.5540645,4.7343871 C26.6411613,4.58922581 26.6227742,4.40535484 26.526,4.26987097 L23.6227742,0.205354839 C23.5453548,0.0989032258 23.4389032,0.0311612903 23.3130968,0.0118064516 C23.1872903,-0.0172258065 23.0614839,0.0118064516 22.9550323,0.0795483871 L16.6550323,4.17309677 C16.479871,4.28922581 16.4034194,4.49245161 16.4614839,4.686 C16.5292258,4.87954839 16.712129,5.01503226 16.926,5.01503226" id="Fill-7" fill="#5D5D5D"></path>
                    <g id="Group-11" transform="translate(6.774194, 2.905161)">
                        <mask id="mask-2" fill="white">
                            <use xlink:href="#path-1"></use>
                        </mask>
                        <g id="Clip-10"></g>
                        <path d="M21.638129,1.79990323 C21.2132903,1.70312903 20.7778065,1.95474194 20.6810323,2.36119355 L20.4487742,3.29990323 L5.73909677,3.29990323 L5.31329032,1.39345161 C5.23587097,1.04506452 4.91651613,0.793451613 4.52941935,0.793451613 L0.861677419,0.793451613 C0.416516129,0.793451613 0.0584516129,1.13216129 0.0584516129,1.55796774 C0.0584516129,1.97409677 0.416516129,2.31280645 0.861677419,2.31280645 L3.89070968,2.31280645 L5.952,11.5644194 C6.02941935,11.9137742 6.35748387,12.1644194 6.73587097,12.1644194 L19.2865161,12.1644194 C19.6552258,12.1644194 19.9745806,11.9224839 20.0616774,11.5740968 L22.2390968,2.70958065 C22.335871,2.30312903 22.0745806,1.89667742 21.638129,1.79990323 L21.638129,1.79990323 Z M7.38425806,10.6353871 L6.07683871,4.81925806 L6.66812903,4.81925806 L6.69716129,4.86764516 L10.8187742,10.6353871 L7.38425806,10.6353871 Z M18.6478065,10.6353871 L11.7487742,10.6353871 L19.9552258,5.30312903 L18.6478065,10.6353871 Z" id="Fill-9" fill="#5D5D5D" mask="url(#mask-2)"></path>
                    </g>
                    <g id="Group-14" transform="translate(13.548387, 16.453548)">
                        <mask id="mask-4" fill="white">
                            <use xlink:href="#path-3"></use>
                        </mask>
                        <g id="Clip-13"></g>
                        <path d="M2.391,0.465 C1.40293548,0.465 0.599709677,1.22854839 0.599709677,2.16822581 C0.599709677,3.10596774 1.40293548,3.87145161 2.391,3.87145161 C3.37809677,3.87145161 4.17164516,3.10596774 4.17164516,2.16822581 C4.17164516,1.22854839 3.37809677,0.465 2.391,0.465" id="Fill-12" fill="#5D5D5D" mask="url(#mask-4)"></path>
                    </g>
                    <g id="Group-17" transform="translate(21.290323, 16.453548)">
                        <mask id="mask-6" fill="white">
                            <use xlink:href="#path-5"></use>
                        </mask>
                        <g id="Clip-16"></g>
                        <path d="M2.33245161,0.465 C1.34535484,0.465 0.542129032,1.22854839 0.542129032,2.16822581 C0.542129032,3.10596774 1.34535484,3.87145161 2.33245161,3.87145161 C3.31954839,3.87145161 4.11309677,3.10596774 4.11309677,2.16822581 C4.11309677,1.22854839 3.31954839,0.465 2.33245161,0.465" id="Fill-15" fill="#5D5D5D" mask="url(#mask-6)"></path>
                    </g>
                </g>
            </g>
        </g>
    </g>
</svg>