<?xml version="1.0" encoding="UTF-8" standalone="no"?>
<svg width="32px" height="32px" viewBox="0 0 32 32" version="1.1" xmlns="http://www.w3.org/2000/svg" xmlns:xlink="http://www.w3.org/1999/xlink">
    <!-- Generator: Sketch 3.7 (28169) - http://www.bohemiancoding.com/sketch -->
    <title>tv</title>
    <desc>Created with Sketch.</desc>
    <defs></defs>
    <g id="Ãtomos" stroke="none" stroke-width="1" fill="none" fill-rule="evenodd">
        <g id="03_Iconos" transform="translate(-185.000000, -652.000000)" fill="#666666">
            <g id="ico-amenitie-tv" transform="translate(185.000000, 652.000000)">
                <path d="M2,6.99477117 C2,6.44537422 2.43981314,6 2.99653482,6 L29.0034652,6 C29.5538362,6 30,6.45092539 30,6.99477117 L30,24.0052288 C30,24.5546258 29.5601869,25 29.0034652,25 L2.99653482,25 C2.44616384,25 2,24.5490746 2,24.0052288 L2,6.99477117 Z M5,9 L27,9 L27,22 L5,22 L5,9 Z M10,26 L22,26 L22,28 L10,28 L10,26 Z" id="tv"></path>
            </g>
        </g>
    </g>
</svg>