<?xml version="1.0" encoding="UTF-8" standalone="no"?>
<svg width="32px" height="32px" viewBox="0 0 32 32" version="1.1" xmlns="http://www.w3.org/2000/svg" xmlns:xlink="http://www.w3.org/1999/xlink">
    <!-- Generator: Sketch 39.1 (31720) - http://www.bohemiancoding.com/sketch -->
    <title>two-cards</title>
    <desc>Created with Sketch.</desc>
    <defs></defs>
    <g id="Ãtomos" stroke="none" stroke-width="1" fill="none" fill-rule="evenodd">
        <g id="03_Iconos" transform="translate(-1119.000000, -592.000000)" fill="#666666">
            <g id="ico-two-cards" transform="translate(1119.000000, 592.000000)">
                <g transform="translate(1.000000, 5.000000)">
                    <path d="M0.747988602,7.96578947 L0.747988602,19.6657895 C0.747988602,21.0157895 1.85325176,22.1052632 3.2111465,22.1052632 L21.9690412,22.1052632 C23.326936,22.1052632 24.4321991,21.0157895 24.4321991,19.6657895 L24.4321991,7.96578947 C24.4321991,6.61578947 23.326936,5.52631579 21.9690412,5.52631579 L3.2111465,5.52631579 C1.85325176,5.52631579 0.747988602,6.61578947 0.747988602,7.96578947 Z M2.23219913,9.42631579 L22.9479886,9.42631579 L22.9479886,12.8368421 L2.23219913,12.8368421 L2.23219913,9.42631579 Z M18.0216728,17.7157895 L22.9479886,17.7157895 L22.9479886,18.6947368 L18.0216728,18.6947368 L18.0216728,17.7157895 Z" id="Fill-1-Copy-3"></path>
                    <path d="M6,2.43947368 L6,5.05509722 L7.48712158,5.0550971 L7.48712158,3.90484619 L28.1790771,3.90484619 L28.1790771,7.32330322 L25.0095159,7.32330322 L25.0095163,12.2061157 L28.1790771,12.2061157 L28.1790771,13.1934814 L25.0095163,13.1934814 L25.0095166,16.5789474 L27.2210526,16.5789474 C28.5789474,16.5789474 29.6842105,15.4894737 29.6842105,14.1394737 L29.6842105,2.43947368 C29.6842105,1.08947368 28.5789474,0 27.2210526,0 L8.46315789,0 C7.10526316,0 6,1.08947368 6,2.43947368 Z" id="Fill-1-Copy-4"></path>
                </g>
            </g>
        </g>
    </g>
</svg>