<?xml version="1.0" encoding="UTF-8" standalone="no"?>
<svg width="16px" height="16px" viewBox="0 0 16 16" version="1.1" xmlns="http://www.w3.org/2000/svg" xmlns:xlink="http://www.w3.org/1999/xlink">
    <!-- Generator: Sketch 3.7 (28169) - http://www.bohemiancoding.com/sketch -->
    <title>ico_user</title>
    <desc>Created with Sketch.</desc>
    <defs></defs>
    <g id="Ãtomos" stroke="none" stroke-width="1" fill="none" fill-rule="evenodd">
        <g id="03_Iconos" transform="translate(-252.000000, -295.000000)" fill="#666666">
            <g id="user" transform="translate(252.000000, 295.000000)">
                <path d="M4.55263158,7.37458564 C4.79501385,8.69171271 5.96814404,10 7.49030471,10 C9.03185596,10 10.1943213,8.69171271 10.4473684,7.37458564 C10.767313,7.23314917 11,6.92375691 11,6.56132597 C11,6.34917127 10.9127424,6.13701657 10.7576177,5.97790055 C10.8254848,5.73038674 10.8545706,5.47403315 10.8545706,5.21767956 C10.8545706,3.44088398 9.35180055,2 7.49030471,2 C5.64819945,2 4.14542936,3.44088398 4.14542936,5.21767956 C4.14542936,5.47403315 4.17451524,5.73038674 4.24238227,5.97790055 C4.08725762,6.13701657 4,6.34917127 4,6.56132597 C4,6.92375691 4.23268698,7.23314917 4.55263158,7.37458564 Z M14.8265306,13.1719902 C13.5612245,12.1302211 11.8877551,11.3842752 10.2234694,11.0285012 C10.1734694,11.009828 9.75510204,11.009828 9.68367347,11.039312 C9.21428571,11.2457002 8.56122449,11.3734644 7.8877551,11.3734644 C7.2244898,11.3734644 6.58163265,11.2457002 6.10204082,11.039312 C6.04081633,11.009828 5.69387755,11 5.69387755,11 C3.97959184,11.3439803 2.46938776,12.1007371 1.17346939,13.1719902 C1.06122449,13.2604423 1,13.3882064 1,13.5257985 L1,14.5469287 C1,14.8034398 1.21428571,15 1.47959184,15 L14.5204082,15 C14.7857143,15 15,14.792629 15,14.5469287 L15,13.5257985 C15,13.3882064 14.9397959,13.2604423 14.8265306,13.1719902 Z" id="ico-user"></path>
            </g>
        </g>
    </g>
</svg>