<?xml version="1.0" encoding="UTF-8" standalone="no"?>
<svg width="16px" height="16px" viewBox="0 0 16 16" version="1.1" xmlns="http://www.w3.org/2000/svg" xmlns:xlink="http://www.w3.org/1999/xlink">
    <!-- Generator: Sketch 3.7 (28169) - http://www.bohemiancoding.com/sketch -->
    <title>video</title>
    <desc>Created with Sketch.</desc>
    <defs></defs>
    <g id="Ãtomos" stroke="none" stroke-width="1" fill="none" fill-rule="evenodd">
        <g id="03_Iconos" transform="translate(-330.000000, -346.000000)" fill="#666666">
            <g id="video" transform="translate(330.000000, 346.000000)">
                <g id="Group" transform="translate(1.000000, 3.000000)">
                    <path d="M9.07254627,5.31144068 L6.2478263,7.43716102 C6.18745129,7.48 6.11604349,7.50288136 6.04744478,7.50288136 C5.99529347,7.50288136 5.94037379,7.49144068 5.89371852,7.46572034 C5.77842383,7.40572034 5.70705674,7.28288136 5.70705674,7.15144068 L5.70705674,2.9 C5.70705674,2.76572034 5.77842383,2.64572034 5.89371852,2.58572034 C6.00628555,2.52572034 6.14352369,2.53716102 6.2478263,2.61427966 L9.07254627,4.74 C9.16040147,4.80572034 9.21255278,4.91144068 9.21255278,5.02572034 C9.21255278,5.13716102 9.16312914,5.24288136 9.07254627,5.31144068 L9.07254627,5.31144068 L9.07254627,5.31144068 Z M13.7584185,1.56572034 C13.7501948,1.51144068 13.7392028,1.45716102 13.725483,1.40572034 L13.7035396,1.33144068 C13.5251015,0.782881356 13.0254912,0.385720339 12.4352979,0.385720339 L12.5286492,0.385720339 C12.5286492,0.385720339 10.1568843,0.014279661 7,0 C3.8431157,0.014279661 1.4713508,0.385720339 1.4713508,0.385720339 L1.56470205,0.385720339 C0.974508846,0.385720339 0.474898512,0.782881356 0.296460434,1.33144068 L0.274516988,1.40572034 C0.260797246,1.45716102 0.249805167,1.51144068 0.241581464,1.56572034 C0.153726257,2.20288136 0.0137197427,3.47427966 8.8817842e-16,5 C0.0137197427,6.52572034 0.153726257,7.79427966 0.241581464,8.43427966 C0.249805167,8.48855932 0.260797246,8.54283898 0.274516988,8.59427966 L0.296460434,8.66855932 C0.474898512,9.21711864 0.974508846,9.61427966 1.56470205,9.61427966 L1.4713508,9.61427966 C1.4713508,9.61427966 3.8431157,9.98572034 7,10 C10.1568843,9.98572034 12.5286492,9.61427966 12.5286492,9.61427966 L12.4352979,9.61427966 C13.0254912,9.61427966 13.5251015,9.21711864 13.7035396,8.66855932 L13.725483,8.59427966 C13.7392028,8.54283898 13.7501948,8.48855932 13.7584185,8.43427966 C13.8462737,7.79427966 13.9862803,6.52572034 14,5 C13.9862803,3.47427966 13.8462737,2.20288136 13.7584185,1.56572034 L13.7584185,1.56572034 L13.7584185,1.56572034 Z" id="Shape"></path>
                </g>
            </g>
        </g>
    </g>
</svg>