<?xml version="1.0" encoding="UTF-8" standalone="no"?>
<svg width="32px" height="32px" viewBox="0 0 32 32" version="1.1" xmlns="http://www.w3.org/2000/svg" xmlns:xlink="http://www.w3.org/1999/xlink">
    <!-- Generator: Sketch 3.7.2 (28276) - http://www.bohemiancoding.com/sketch -->
    <title>view-360</title>
    <desc>Created with Sketch.</desc>
    <defs></defs>
    <g id="Ãtomos" stroke="none" stroke-width="1" fill="none" fill-rule="evenodd">
        <g id="03_Iconos" transform="translate(-666.000000, -529.000000)" fill="#666666">
            <g id="ico-view-360" transform="translate(666.000000, 529.000000)">
                <g id="shape" transform="translate(2.000000, 9.000000)">
                    <path d="M23.5454012,7.24644314 C24.3144261,7.61257595 24.8120857,8.02450955 24.9025458,8.43644314 C25.354892,9.8553559 21.23816,11.5945855 14.6332968,11.5945855 C13.8642719,11.5945855 13.2309145,12.0065191 13.2309145,12.5099631 C13.2309145,13.0134071 13.9094793,13.4253407 14.7238175,13.4253407 C22.9120742,13.4253407 28.4764866,11.0910655 27.4811826,8.43636719 C27.1192815,7.42938802 25.4906958,6.0105816 23.7263367,5.55284722 L23.5453406,7.24636719 L23.5454012,7.24644314 Z M10.1999315,11.4115495 L10.1999315,11.3200391 C10.1999315,11.2285286 10.154709,11.1369271 10.0642489,11.0912174 L6.98798279,8.75694227 C6.85230015,8.66543186 6.62608161,8.61963108 6.44508557,8.66543186 C6.21886703,8.66543186 6.03796189,8.80274306 5.99273939,8.89425347 L5.67606071,10.4046615 C3.86647904,9.80961589 2.87123564,9.03154948 3.00699404,8.2992079 C3.09743903,7.84147352 3.68555875,7.3838303 4.59035716,6.9718967 L4.59035716,5.3699783 C2.23796917,6.10233507 0.65457575,7.1092079 0.383165013,8.29929905 C0.0212638302,9.76392144 1.60462695,11.182819 4.7713532,12.1439974 L4.09278848,13.425599 C4.00234349,13.5629102 4.09278848,13.7460221 4.22847113,13.8375326 C4.40946717,13.929043 4.63559481,13.9748437 4.86181334,13.8833333 L9.83812125,12.6017318 C10.0191173,12.5102214 10.1547999,11.5032422 10.2000224,11.4117318 L10.2000224,11.4117318 L10.1999315,11.4115495 Z" id="Shape"></path>
                    <path d="M5.72129835,5.73601997 L7.12368058,5.55290799 C7.16890308,5.9190408 7.30467663,6.14795356 7.48558177,6.33097439 C7.66648691,6.51399523 7.89270545,6.60559679 8.20938413,6.60559679 C8.52606282,6.60559679 8.75228136,6.51408637 8.97840899,6.28517361 C9.15940504,6.056352 9.29508768,5.7817296 9.29508768,5.36979601 C9.29508768,5.00366319 9.20464268,4.7290408 9.02364664,4.54592882 C8.8426506,4.3171072 8.57130046,4.22550564 8.29984428,4.22550564 C8.11884824,4.22550564 7.8927206,4.27130642 7.62127956,4.31701606 L7.8022756,3.17272569 C8.20939928,3.17272569 8.48084032,3.08121528 8.70707401,2.94390408 C8.93329255,2.7607921 9.02375269,2.53197049 9.02375269,2.25734809 C9.02375269,2.02852648 8.9333077,1.79961372 8.79753415,1.66230252 C8.66176061,1.52499132 8.43563297,1.4334809 8.20941443,1.4334809 C7.98319589,1.4334809 7.75706825,1.52499132 7.57607221,1.66230252 C7.39507617,1.8454145 7.30463118,2.07423611 7.25939353,2.39465929 L5.94747144,2.16583767 C6.03791644,1.7081033 6.17368998,1.38777127 6.35459512,1.11314887 C6.53550026,0.838526476 6.8069413,0.655414497 7.12361999,0.472393663 C7.44029867,0.335082465 7.84742235,0.243572049 8.25463693,0.243572049 C8.97843929,0.243572049 9.52132137,0.472393663 9.97366755,0.884327257 C10.1998861,1.34206163 10.3807912,1.75399523 10.3807912,2.16592882 C10.3807912,2.80668403 10.01889,3.31021918 9.29508768,3.72213759 C9.70221136,3.813648 10.0641125,3.99675998 10.3355536,4.31718316 C10.6069946,4.63760634 10.7426773,5.00373915 10.7426773,5.46147352 C10.7426773,6.10222873 10.5164587,6.65147352 10.0188749,7.10919271 C9.52129107,7.56691189 8.93317135,7.7957487 8.20929323,7.7957487 C7.53072852,7.7957487 6.98783129,7.61263672 6.53548511,7.20070312 C6.03782554,6.83457031 5.81168275,6.37683594 5.72114685,5.73608073 L5.72114685,5.73608073 L5.72129835,5.73601997 Z" id="Shape"></path>
                    <path d="M16.4429239,2.12014323 L15.0405416,2.25745443 C14.9953192,1.98283203 14.904859,1.75401042 14.7691006,1.61669922 C14.6333422,1.47938802 14.4524219,1.43358724 14.2262034,1.43358724 C13.9095247,1.43358724 13.6833062,1.57089844 13.4571785,1.84552083 C13.2310509,2.12014323 13.0952773,2.66938802 13.0500548,3.5390408 C13.411956,3.1271072 13.8643931,2.89828559 14.3619769,2.89828559 C14.9500967,2.89828559 15.4929939,3.1271072 15.9001176,3.58484158 C16.3072412,4.04257595 16.5334598,4.59182075 16.5334598,5.32407118 C16.5334598,6.05642795 16.3072412,6.69718316 15.8548951,7.15490234 C15.4025489,7.61262153 14.8144292,7.84145833 14.1358644,7.84145833 C13.3668396,7.84145833 12.7787199,7.56683594 12.2810603,6.97179036 C11.7834007,6.37674479 11.5572579,5.46138238 11.5572579,4.13407118 C11.5572579,2.80675998 11.828699,1.79979601 12.3262828,1.20475043 C12.8238666,0.609704861 13.5025222,0.28937283 14.3167696,0.28937283 C14.9048893,0.28937283 15.3572355,0.426684028 15.7191518,0.747107205 C16.1262755,1.06753038 16.352494,1.52517361 16.4429542,2.12021918 L16.4429542,2.12021918 L16.4429239,2.12014323 Z M13.1856617,5.18677517 C13.1856617,5.64450955 13.2761067,6.01064236 13.5023404,6.23946398 C13.7285741,6.46828559 13.9546866,6.60559679 14.2261428,6.60559679 C14.4975838,6.60559679 14.7238024,6.51408637 14.9047075,6.28517361 C15.0857035,6.10206163 15.1761485,5.73592882 15.1761485,5.27819444 C15.1761485,4.82046007 15.0857035,4.45432726 14.9047075,4.22550564 C14.7237115,3.99668403 14.4975838,3.90508247 14.1809051,3.90508247 C13.9094641,3.90508247 13.6832456,3.99659288 13.5023404,4.22550564 C13.3213444,4.50012804 13.1856617,4.77475043 13.1856617,5.18668403 L13.1856617,5.18668403 L13.1856617,5.18677517 Z" id="Shape"></path>
                    <path d="M19.8358232,0.289327257 C20.5596256,0.289327257 21.1477453,0.563949653 21.5548538,1.06739366 C22.0525134,1.66243924 22.2786562,2.66931207 22.2786562,4.04242405 C22.2786562,5.41553602 22.0524377,6.4225 21.5548538,7.06325521 C21.1477302,7.56669922 20.6048329,7.79561198 19.8358232,7.79561198 C19.1120209,7.79561198 18.5239011,7.52098958 18.0714641,6.97174479 C17.619027,6.4225 17.3928993,5.46133681 17.3928993,4.04242405 C17.3928993,2.66931207 17.6191179,1.66234809 18.1167017,1.06739366 C18.5690479,0.563949653 19.1119451,0.289327257 19.8357323,0.289327257 L19.8357323,0.289327257 L19.8358232,0.289327257 Z M19.8358232,1.47938802 C19.6548272,1.47938802 19.5191445,1.5251888 19.383477,1.6625 C19.2477944,1.75401042 19.1572585,1.98292318 19.0667984,2.25754557 C18.9763534,2.62367839 18.9311157,3.21872396 18.9311157,4.08837674 C18.9311157,4.95802951 18.9763382,5.55299913 19.0667984,5.87340712 C19.1572433,6.1938303 19.2477944,6.42265191 19.383477,6.51416233 C19.5191597,6.60567274 19.6549181,6.69727431 19.8358232,6.69727431 C20.0168193,6.69727431 20.1525019,6.65147352 20.2881694,6.51416233 C20.423852,6.42265191 20.5143879,6.19373915 20.6048481,5.91911675 C20.6952931,5.55298394 20.7405307,4.95793837 20.7405307,4.08828559 C20.7405307,3.21863281 20.6953082,2.62366319 20.6048481,2.30325521 C20.5144031,1.98283203 20.423852,1.75401042 20.333407,1.61669922 C20.1977244,1.5251888 20.0167284,1.47938802 19.8357475,1.47938802 L19.8357475,1.47938802 L19.8358232,1.47938802 Z" id="Shape"></path>
                </g>
            </g>
        </g>
    </g>
</svg>