<?xml version="1.0" encoding="UTF-8"?>
<svg width="32px" height="32px" viewBox="0 0 32 32" version="1.1" xmlns="http://www.w3.org/2000/svg" xmlns:xlink="http://www.w3.org/1999/xlink">
    <!-- Generator: Sketch 43.1 (39012) - http://www.bohemiancoding.com/sketch -->
    <title>visa</title>
    <desc>Created with Sketch.</desc>
    <defs>
        <path d="M0.99225,0 L19.632375,0 C20.179425,0 20.624625,0.44496 20.624625,0.99414 L20.624625,25.5231 C20.624625,26.0739 20.179425,26.51886 19.632375,26.51886 L0.99225,26.51886 C0.444675,26.51886 0,26.33958 0,25.78932 L0,20.31318 L1.28835,20.31318 C1.965075,20.31318 2.506875,19.66302 2.506875,18.98046 C2.506875,18.30438 2.100525,17.48844 1.4301,17.48844 L0,17.48844 L0,14.67126 L1.28835,14.67126 C1.965075,14.67126 2.506875,13.95576 2.506875,13.2786 C2.506875,12.5955 2.100525,11.84706 1.4301,11.84706 L0,11.84706 L0,9.0288 L1.28835,9.0288 C1.965075,9.0288 2.506875,8.24742 2.506875,7.57026 C2.506875,6.89472 2.100525,6.20514 1.4301,6.20514 L0,6.20514 L0,1.13346 C0,0.58374 0.444675,0 0.99225,0 Z M8.44305,12.08574 C8.64255,13.25268 9.57705,14.40612 10.78875,14.40612 C12.007275,14.40612 12.93495,13.25268 13.1418,12.08574 C13.399575,11.96586 13.580175,11.68668 13.580175,11.3697 C13.580175,11.17692 13.5093,10.9917 13.385925,10.85238 C13.444725,10.63368 13.4631,10.4085 13.4631,10.18332 C13.4631,8.61192 12.264525,7.33212 10.78875,7.33212 C9.319275,7.33212 8.121225,8.61192 8.121225,10.18332 C8.121225,10.4085 8.1396,10.63368 8.1984,10.85238 C8.075025,10.9917 8.004675,11.17692 8.004675,11.3697 C8.004675,11.68668 8.190525,11.96586 8.44305,12.08574 Z M5.57445,17.69364 C5.57445,17.89236 5.72985,18.05274 5.936175,18.05274 L15.8025,18.05274 C16.009875,18.05274 16.164225,17.89236 16.164225,17.69364 L16.164225,16.87878 C16.164225,16.7724 16.119075,16.67412 16.0356,16.60014 C15.08115,15.77178 13.8117,15.17508 12.554325,14.89698 C12.516525,14.87592 12.201525,14.87592 12.1422,14.90346 C11.79465,15.06924 11.2917,15.16806 10.78875,15.16806 C10.286325,15.16806 9.7965,15.06924 9.435825,14.90346 C9.38385,14.87592 9.126075,14.86944 9.126075,14.86944 C7.8246,15.14808 6.68325,15.74532 5.70465,16.60014 C5.620125,16.67412 5.57445,16.7724 5.57445,16.87878 L5.57445,17.69364 Z" id="path-1"></path>
    </defs>
    <g id="Ãtomos" stroke="none" stroke-width="1" fill="none" fill-rule="evenodd">
        <g id="Iconos" transform="translate(-385.000000, -3728.000000)">
            <g id="ico_visa" transform="translate(385.000000, 3728.000000)">
                <g id="Page-1" transform="translate(6.000000, 3.000000)">
                    <mask id="mask-2" fill="white">
                        <use xlink:href="#path-1"></use>
                    </mask>
                    <use id="Clip-2" fill="#666666" xlink:href="#path-1"></use>
                </g>
            </g>
        </g>
    </g>
</svg>