<?xml version="1.0" encoding="UTF-8"?>
<svg width="32px" height="32px" viewBox="0 0 32 32" version="1.1" xmlns="http://www.w3.org/2000/svg" xmlns:xlink="http://www.w3.org/1999/xlink">
    <!-- Generator: Sketch 43.1 (39012) - http://www.bohemiancoding.com/sketch -->
    <title>visa_vaccines</title>
    <desc>Created with Sketch.</desc>
    <defs>
        <path d="M16.37064,1.19035714 L16.86852,0.718928571 L20.59128,4.03071429 L20.0934,4.51392857 L19.01988,3.55607143 L17.06616,5.44285714 L20.23272,8.30357143 L19.72944,8.7975 L18.13644,7.35214286 L8.46612,16.7539286 L3.68928,16.8567857 L0.6966,19.7442857 L0.4374,19.4925 L3.5262,16.5289286 L3.67308,12.1971429 L13.35096,3.01607143 L11.76012,1.57714286 L12.2634,1.10571429 L15.471,4.00178571 L17.42904,2.13642857 L16.37064,1.19035714 Z M9.31392,8.8275 C9.31392,8.8275 8.58492,10.3371429 10.22112,10.3371429 C11.8584,10.3328571 11.4588,11.7953571 11.4588,11.7953571 L16.56504,6.86571429 L13.90176,4.45178571 L9.31392,8.8275 Z" id="path-1"></path>
        <path d="M0.73448,0.759642857 L13.69448,0.759642857 C14.07572,0.759642857 14.3846,1.06178571 14.3846,1.43571429 L14.3846,12.6460714 L8.1854,18.7971429 L0.73448,18.7971429 C0.35432,18.7971429 0.04544,18.675 0.04544,18.3010714 L0.04544,14.5757143 L0.94076,14.5757143 C1.41164,14.5757143 1.78856,14.1342857 1.78856,13.6692857 C1.78856,13.2096429 1.5056,12.6557143 1.04012,12.6557143 L0.04544,12.6557143 L0.04544,10.7389286 L0.94076,10.7389286 C1.41164,10.7389286 1.78856,10.2525 1.78856,9.79178571 C1.78856,9.32678571 1.5056,8.81785714 1.04012,8.81785714 L0.04544,8.81785714 L0.04544,6.90107143 L0.94076,6.90107143 C1.41164,6.90107143 1.78856,6.36964286 1.78856,5.90785714 C1.78856,5.45035714 1.5056,4.98 1.04012,4.98 L0.04544,4.98 L0.04544,1.53107143 C0.04544,1.15714286 0.35432,0.759642857 0.73448,0.759642857 Z M5.91524,8.98071429 C6.05456,9.77357143 6.70364,10.5578571 7.54604,10.5578571 C8.39276,10.5578571 9.0386,9.77357143 9.18116,8.98071429 C9.3626,8.89928571 9.48788,8.70964286 9.48788,8.49321429 C9.48788,8.36142857 9.43712,8.23714286 9.3518,8.14071429 C9.39284,7.99178571 9.4058,7.83857143 9.4058,7.68535714 C9.4058,6.61821429 8.57204,5.74714286 7.54604,5.74714286 C6.52436,5.74714286 5.69168,6.61821429 5.69168,7.68535714 C5.69168,7.83857143 5.70464,7.99178571 5.74568,8.14071429 C5.65928,8.23714286 5.61068,8.36142857 5.61068,8.49321429 C5.61068,8.70964286 5.7392,8.89928571 5.91524,8.98071429 Z M3.92048,12.7939286 C3.92048,12.93 4.02848,13.0392857 4.17212,13.0392857 L11.03228,13.0392857 C11.17592,13.0392857 11.28284,12.93 11.28284,12.7939286 L11.28284,12.24 C11.28284,12.1671429 11.25152,12.1007143 11.1932,12.0503571 C10.53008,11.4878571 9.64772,11.0828571 8.77292,10.8921429 C8.747,10.8782143 8.52776,10.8782143 8.4878,10.8964286 C8.2448,11.01 7.89488,11.0764286 7.54604,11.0764286 C7.19612,11.0764286 6.85592,11.01 6.60536,10.8964286 C6.56864,10.8782143 6.38936,10.8739286 6.38936,10.8739286 C5.4854,11.0625 4.6916,11.4696429 4.01012,12.0503571 C3.95288,12.1007143 3.92048,12.1671429 3.92048,12.24 L3.92048,12.7939286 Z" id="path-3"></path>
    </defs>
    <g id="Ãtomos" stroke="none" stroke-width="1" fill="none" fill-rule="evenodd">
        <g id="Iconos" transform="translate(-507.000000, -3728.000000)">
            <g id="ico_visa-copy-2" transform="translate(507.000000, 3728.000000)">
                <g id="Page-1" transform="translate(4.000000, 2.000000)">
                    <g id="Group-3" transform="translate(4.400000, 8.723571)">
                        <mask id="mask-2" fill="white">
                            <use xlink:href="#path-1"></use>
                        </mask>
                        <use id="Clip-2" fill="#666666" xlink:href="#path-1"></use>
                    </g>
                    <g id="Group-6" transform="translate(0.000000, 0.152143)">
                        <mask id="mask-4" fill="white">
                            <use xlink:href="#path-3"></use>
                        </mask>
                        <use id="Clip-5" fill="#666666" xlink:href="#path-3"></use>
                    </g>
                </g>
            </g>
        </g>
    </g>
</svg>