<?xml version="1.0" encoding="UTF-8"?>
<svg width="32px" height="32px" viewBox="0 0 32 32" version="1.1" xmlns="http://www.w3.org/2000/svg" xmlns:xlink="http://www.w3.org/1999/xlink">
    <!-- Generator: Sketch 41.1 (35376) - http://www.bohemiancoding.com/sketch -->
    <title>voucher-rentals</title>
    <desc>Created with Sketch.</desc>
    <defs></defs>
    <g id="Ãtomos" stroke="none" stroke-width="1" fill="none" fill-rule="evenodd">
        <g id="Iconos" transform="translate(-323.000000, -3728.000000)" fill="#666666">
            <g id="ico-voucher-buses-copy" transform="translate(323.000000, 3728.000000)">
                <path d="M3.17371299,7.89720227 C1.42073185,7.89720227 0,9.318705 0,11.0709153 L0,24.6468831 C0,26.3990933 1.42073185,27.8213669 3.17371299,27.8213669 L28.826287,27.8213669 C30.5784973,27.8213669 32,26.3990933 32,24.6468831 L32,11.0709153 C32,9.318705 30.5784973,7.89720227 28.826287,7.89720227 L3.17371299,7.89720227 Z M19.2789381,10.7178522 L29.2672304,10.7178522 L29.2672304,24.8234146 L19.2789381,24.8234146 L19.2789381,10.7178522 Z M20.6009973,13.7158046 L28.0160921,13.7158046 L28.0160921,14.8451438 L20.6009973,14.8451438 L20.6009973,13.7158046 Z M20.6009973,15.8326411 L28.0160921,15.8326411 L28.0160921,16.9604385 L20.6009973,16.9604385 L20.6009973,15.8326411 Z M20.6009973,18.2115768 L28.0160921,18.2115768 L28.0160921,19.3416869 L20.6009973,19.3416869 L20.6009973,18.2115768 Z M20.6009973,20.4124392 L24.9449062,20.4124392 L24.9449062,21.5425493 L20.6009973,21.5425493 L20.6009973,20.4124392 Z M29.789887,6.90662146 C29.789887,3.65890399 25.4282479,4.01119615 25.4282479,4.01119615 L3.32403459,6.90662146 L3.28163619,7.18490914 L29.6542121,7.18490914 C29.789887,6.90662146 29.789887,7.18490914 29.789887,6.90662146 Z M9.45385125,14.358548 L5.13640105,18.0552717 L5.13640105,22.7085945 C5.13640105,22.9381782 5.31921775,23.1167434 5.54029841,23.1167434 L8.40584389,23.1167434 L8.40584389,19.0458832 L11.3436657,19.0458832 L11.3436657,23.1167434 L14.2070854,23.1167434 C14.4260403,23.1167434 14.6109828,22.9381782 14.6109828,22.7085945 L14.6109828,18.0552717 L10.2914068,14.358548 C10.0490684,14.150222 9.69618967,14.150222 9.45385125,14.358548 Z M10.2914068,13.8504876 L14.7172716,17.6386197 C14.8299377,17.7300281 14.9723647,17.7810467 15.1084143,17.7810467 C15.2869794,17.7810467 15.4697961,17.6981414 15.5952169,17.5514629 C15.8290522,17.2772379 15.792914,16.8605859 15.5208148,16.6310021 L10.2914068,12.1562445 C10.0490684,11.9479185 9.69618967,11.9479185 9.45385125,12.1562445 L4.22656911,16.6310021 C3.95446983,16.8627116 3.92470898,17.2772379 4.15216696,17.5514629 C4.3668703,17.8108075 4.73888102,17.8490715 5.00885452,17.6577517 L9.45385125,13.8504876 C9.69618967,13.6442874 10.0490684,13.6442874 10.2914068,13.8504876 Z" id="voucher-rentals"></path>
            </g>
        </g>
    </g>
</svg>