<?xml version="1.0" encoding="UTF-8" standalone="no"?>
<svg width="32px" height="32px" viewBox="0 0 32 32" version="1.1" xmlns="http://www.w3.org/2000/svg" xmlns:xlink="http://www.w3.org/1999/xlink">
    <!-- Generator: Sketch 39.1 (31720) - http://www.bohemiancoding.com/sketch -->
    <title>voucher-buses</title>
    <desc>Created with Sketch.</desc>
    <defs></defs>
    <g id="Ãtomos" stroke="none" stroke-width="1" fill="none" fill-rule="evenodd">
        <g id="03_Iconos" transform="translate(-809.000000, -592.000000)" fill="#666666">
            <g id="ico-voucher-buses" transform="translate(809.000000, 592.000000)">
                <path d="M28.0246441,8.73481884 L3.97535593,8.73481884 C2.33193611,8.73481884 1,10.0970923 1,11.7762938 L1,24.7865963 C1,26.4657978 2.33193611,27.82881 3.97535593,27.82881 L28.0246441,27.82881 C29.6673412,27.82881 31,26.4657978 31,24.7865963 L31,11.7762938 C31,10.0970923 29.6673412,8.73481884 28.0246441,8.73481884 L28.0246441,8.73481884 Z M19.0740045,11.4379417 L28.4380285,11.4379417 L28.4380285,24.9557723 L19.0740045,24.9557723 L19.0740045,11.4379417 Z M20.313435,14.3109794 L27.2650864,14.3109794 L27.2650864,15.3932628 L20.313435,15.3932628 L20.313435,14.3109794 Z M20.313435,16.3396144 L27.2650864,16.3396144 L27.2650864,17.4204202 L20.313435,17.4204202 L20.313435,16.3396144 Z M20.313435,18.6194277 L27.2650864,18.6194277 L27.2650864,19.7024499 L20.313435,19.7024499 L20.313435,18.6194277 Z M20.313435,20.7285876 L24.3858495,20.7285876 L24.3858495,21.8116097 L20.313435,21.8116097 L20.313435,20.7285876 Z M28.9280191,7.78551223 C28.9280191,4.67311632 24.8389824,5.01072964 24.8389824,5.01072964 L4.11628243,7.78551223 L4.07653393,8.05220459 L28.8008239,8.05220459 C28.9280191,7.78551223 28.9280191,8.05220459 28.9280191,7.78551223 Z M13.2425648,19.0187729 L7.49645918,19.0187729 C6.79799772,19.0187729 6.53877491,18.7443342 6.53877491,18.1607906 L6.53877491,15.5868438 C6.53877491,15.0033003 6.79799772,14.7288615 7.49645918,14.7288615 L13.2425648,14.7288615 C13.9410263,14.7288615 14.2002491,15.0033003 14.2002491,15.5868438 L14.2002491,18.1607906 C14.2002491,18.7443342 13.9410263,19.0187729 13.2425648,19.0187729 Z M13.3489742,21.5927198 C12.8795796,21.5927198 12.4976993,21.2062413 12.4976993,20.7347375 C12.4976993,20.2632337 12.8795796,19.8767552 13.3489742,19.8767552 C13.8263246,19.8767552 14.2002491,20.2632337 14.2002491,20.7347375 C14.2002491,21.2062413 13.8183688,21.5927198 13.3489742,21.5927198 L13.3489742,21.5927198 Z M7.39004982,21.5927198 C6.92065524,21.5927198 6.53877491,21.2062413 6.53877491,20.7347375 C6.53877491,20.2632337 6.92065524,19.8767552 7.39004982,19.8767552 C7.85944439,19.8767552 8.24132473,20.2632337 8.24132473,20.7347375 C8.24132473,21.2062413 7.85944439,21.5927198 7.39004982,21.5927198 L7.39004982,21.5927198 Z M8.24132473,13.0128969 C6.67072252,13.0128969 5.6875,14.0167362 5.6875,15.5868438 L5.6875,21.5927198 C5.6875,22.0869173 5.77203369,22.4507021 6.53877491,22.4507021 L6.53877491,23.3086844 C6.53877491,24.244141 7.03859489,24.1666667 7.39004982,24.1666667 L7.74593687,24.1666664 C7.70702145,24.1666664 8.24132466,24.1666664 8.24132473,23.3086844 L8.24132473,22.4507021 L12.4976993,22.4507021 L12.4976993,23.3086844 C12.4976993,24.1666664 12.8838933,24.1666664 12.8516665,24.1666664 L13.3489742,24.1666667 C13.6937405,24.1666667 14.2002487,24.2696537 14.2002487,23.3086847 L14.2002491,22.4507021 C14.8326416,22.4507021 15.051524,22.2180375 15.051524,21.5927198 L15.051524,15.5868438 C15.051524,14.0167362 14.0683015,13.0128969 12.4976993,13.0128969 L8.24132473,13.0128969 Z" id="voucher-buses"></path>
            </g>
        </g>
    </g>
</svg>