<?xml version="1.0" encoding="UTF-8" standalone="no"?>
<svg width="16px" height="16px" viewBox="0 0 16 16" version="1.1" xmlns="http://www.w3.org/2000/svg" xmlns:xlink="http://www.w3.org/1999/xlink">
    <!-- Generator: Sketch 3.7.2 (28276) - http://www.bohemiancoding.com/sketch -->
    <title>ico_warning</title>
    <desc>Created with Sketch.</desc>
    <defs></defs>
    <g id="Ãtomos" stroke="none" stroke-width="1" fill="none" fill-rule="evenodd">
        <g id="03_Iconos" transform="translate(-304.000000, -320.000000)" fill="#666666">
            <g id="warning" transform="translate(304.000000, 320.000000)">
                <g id="Group" transform="translate(1.000000, 1.500000)">
                    <path d="M7.6733789,3.29998779 L7.6733789,5.18748877 L7.41004532,8.29998584 L6.59609534,8.29998584 L6.34339236,5.18748877 L6.34339236,3.29998779 L7.6733789,3.29998779 Z M6.99839025,10.8571429 C6.48313511,10.8571429 6.06339025,10.4417634 6.06339025,9.92747768 C6.06339025,9.41539062 6.48313511,9 6.99839025,9 C7.51364539,9 7.93339025,9.41537946 7.93339025,9.92747768 C7.93339025,10.4417634 7.51364539,10.8571429 6.99839025,10.8571429 Z M13.2294589,9.67749707 L8.77947472,1.56 C8.75525035,1.56 8.00146501,0 7.03501923,0 L6.86003506,0 C5.89628238,0 5.13711082,1.48249512 5.11557956,1.56 L0.63598475,9.67749707 C-0.87695848,12.1324912 0.660209121,13 1.62397546,13 L12.2683994,13 C13.232152,13 15.0331493,12.190001 13.2294726,9.67749707 L13.2294726,9.67749707 L13.2294589,9.67749707 Z" id="Shape"></path>
                </g>
            </g>
        </g>
    </g>
</svg>