<?xml version="1.0" encoding="UTF-8" standalone="no"?>
<svg width="32px" height="32px" viewBox="0 0 32 32" version="1.1" xmlns="http://www.w3.org/2000/svg" xmlns:xlink="http://www.w3.org/1999/xlink">
    <!-- Generator: Sketch 39.1 (31720) - http://www.bohemiancoding.com/sketch -->
    <title>warning-outline</title>
    <desc>Created with Sketch.</desc>
    <defs></defs>
    <g id="Ãtomos" stroke="none" stroke-width="1" fill="none" fill-rule="evenodd">
        <g id="03_Iconos" transform="translate(-129.000000, -654.000000)" fill="#666666">
            <g id="ico-warning-outline" transform="translate(129.000000, 654.000000)">
                <path d="M17.3467578,9.59997559 L17.3467578,13.3749775 L16.8200906,19.5999717 L15.1921907,19.5999717 L14.6867847,13.3749775 L14.6867847,9.59997559 L17.3467578,9.59997559 Z M15.9967805,24.7142857 C14.9662702,24.7142857 14.1267805,23.8835268 14.1267805,22.8549554 C14.1267805,21.8307813 14.9662702,21 15.9967805,21 C17.0272908,21 17.8667805,21.8307589 17.8667805,22.8549554 C17.8667805,23.8835268 17.0272908,24.7142857 15.9967805,24.7142857 L15.9967805,24.7142857 L15.9967805,24.7142857 Z" id="warning"></path>
                <path d="M26.7051522,23.3164025 L17.8051838,7.08140835 L19.5589494,6.12 L19.5589494,8.12 C17.9175182,7.451734 17.9175182,7.451734 17.9377737,7.29434899 C17.8655547,7.19100543 17.8655547,7.19100543 17.8334489,7.13922033 C17.7839902,7.05757927 17.7839902,7.05757927 17.745691,6.9916966 C17.645797,6.81999743 17.6187175,6.77396912 17.557577,6.67369624 C17.3670913,6.36129211 17.1703596,6.07282544 16.9599695,5.81007368 C16.5204934,5.26122127 16.15085,5 16.0700385,5 L15.7200701,5 C15.6129224,5 15.2430181,5.25048101 14.8132964,5.77269378 C14.6039777,6.02706527 14.4075683,6.3120493 14.2417836,6.59043448 C14.1810463,6.6924243 14.1294095,6.78535797 14.0923624,6.85727957 C14.1158546,6.81167275 14.1130819,6.81767868 14.1581813,6.6553367 L14.0954534,6.88113517 L13.9822255,7.08631604 L4.97461167,23.4042842 C3.95648791,25.056354 3.83523348,26.02152 4.11539933,26.486401 C4.2876397,26.7722006 4.77487648,27 5.24795093,27 L26.5367988,27 C27.0944378,27 27.716919,26.74037 27.9106574,26.4505062 C27.9945654,26.3249664 28.0292809,26.1532537 27.9774014,25.8339284 C27.8842077,25.2603088 27.5245835,24.4829689 26.8342176,23.5213342 L26.7634695,23.4227828 L26.7051522,23.3164025 Z M28.4589179,22.3549941 C32.0662986,27.380002 28.4643041,29 26.5367988,29 L5.24795093,29 C3.32041824,29 0.24608304,27.2649824 3.2719695,22.3549941 L12.2311591,6.12 C12.2742216,5.96499023 13.7925648,3 15.7200701,3 L16.0700385,3 C18.00293,3 19.5105007,6.12 19.5589494,6.12 L28.4589179,22.3549941 Z" id="Path"></path>
            </g>
        </g>
    </g>
</svg>