<?xml version="1.0" encoding="UTF-8" standalone="no"?>
<svg width="32px" height="32px" viewBox="0 0 32 32" version="1.1" xmlns="http://www.w3.org/2000/svg" xmlns:xlink="http://www.w3.org/1999/xlink">
    <!-- Generator: Sketch 3.8.3 (29802) - http://www.bohemiancoding.com/sketch -->
    <title>wifi</title>
    <desc>Created with Sketch.</desc>
    <defs></defs>
    <g id="Ãtomos" stroke="none" stroke-width="1" fill="none" fill-rule="evenodd">
        <g id="03_Iconos" transform="translate(-1080.000000, -732.000000)" fill="#666666">
            <g id="ico-wifi" transform="translate(1080.000000, 732.000000)">
                <path d="M22.1468421,19.3570789 C20.5010526,17.6165789 18.2481842,16.5312895 15.75,16.5312895 C13.2518158,16.5312895 10.9973947,17.6165789 9.35315789,19.3570789 L9.29105263,19.4176316 L11.3715789,21.6223684 L11.4181579,21.5773421 C12.5360526,20.3973421 14.0576316,19.6676053 15.75,19.6676053 C17.4423684,19.6676053 18.9639474,20.3988947 20.0818421,21.5773421 L20.1284211,21.6223684 L22.2089474,19.4176316 L22.1468421,19.3570789 L22.1468421,19.3570789 Z M26.3078947,14.9305263 C23.5907895,12.0426316 19.8660263,10.2726316 15.75,10.2726316 C11.6339737,10.2726316 7.90921053,12.0426316 5.19210526,14.9305263 L5.14552632,14.9771053 L7.22605263,17.1973684 L7.27263158,17.1523421 C9.44476316,14.8389211 12.4428947,13.4105 15.75,13.4105 C19.0571053,13.4105 22.0552368,14.8389211 24.2273684,17.1523421 L24.2739474,17.1973684 L26.3544737,14.9771053 L26.3078947,14.9305263 L26.3078947,14.9305263 Z M30.4549737,10.5039737 C26.6805263,6.48421053 21.4776579,4 15.75,4 C10.0223421,4 4.81947368,6.48421053 1.04502632,10.5039737 L1,10.5536579 L3.08052632,12.7739211 L3.12710526,12.7102632 C6.37210526,9.26497368 10.8281579,7.13631579 15.75,7.13631579 C20.6718421,7.13631579 25.1278947,9.26497368 28.3728947,12.7102632 L28.4194737,12.7739211 L30.5,10.5536579 L30.4549737,10.5039737 L30.4549737,10.5039737 Z M15.7655263,23.7960526 C14.4613158,23.7960526 13.4055263,24.9294737 13.4055263,26.3268421 C13.4055263,27.7086842 14.4613158,28.8421053 15.7655263,28.8421053 C17.0697368,28.8421053 18.1255263,27.7086842 18.1255263,26.3268421 C18.1239737,24.9294737 17.0697368,23.7960526 15.7655263,23.7960526 L15.7655263,23.7960526 Z" id="wifi"></path>
            </g>
        </g>
    </g>
</svg>