<?xml version="1.0" encoding="UTF-8"?>
<svg width="32px" height="32px" viewBox="0 0 32 32" version="1.1" xmlns="http://www.w3.org/2000/svg" xmlns:xlink="http://www.w3.org/1999/xlink">
    <!-- Generator: Sketch 41.1 (35376) - http://www.bohemiancoding.com/sketch -->
    <title>wma</title>
    <desc>Created with Sketch.</desc>
    <defs></defs>
    <g id="Ãtomos" stroke="none" stroke-width="1" fill="none" fill-rule="evenodd">
        <g id="Iconos" transform="translate(-289.000000, -4720.000000)" fill="#666666">
            <g id="ico-wma" transform="translate(289.000000, 4720.000000)">
                <path d="M26.6228571,2 L4.50057143,2 C3.66857143,2 3,2.69977143 3,3.54514286 L3,28.6834286 C3,29.5288 3.66857143,30.2285714 4.50057143,30.2285714 L26.7565714,30.2285714 C27.5885714,30.2285714 28.2571429,29.5288 28.2571429,28.6834286 L28.2571429,3.54514286 C28.2571429,2.69977143 27.4548571,2 26.6228571,2 L26.6228571,2 Z M21.512,16.6342857 C21.2148571,16.6491429 20.9905143,16.872 20.9622857,17.1557714 C20.9622857,17.1557714 20.9444571,18.4186286 19.6102857,18.4186286 C18.2761143,18.4186286 18.2582857,17.1557714 18.2582857,17.1557714 C18.2152,16.8586286 17.9774857,16.6342857 17.6788571,16.6342857 C17.3802286,16.6342857 17.144,16.8571429 17.0994286,17.1557714 C17.0994286,17.1557714 17.1365714,18.4186286 15.7474286,18.4186286 C14.3582857,18.4186286 14.3954286,17.1542857 14.3954286,17.1542857 C14.3523429,16.8571429 14.1131429,16.6342857 13.816,16.6342857 C13.5188571,16.6342857 13.2811429,16.8571429 13.2380571,17.1542857 C13.2380571,17.1542857 13.2202286,18.4171429 11.8860571,18.4171429 C10.5518857,18.4171429 10.5325714,17.1542857 10.5325714,17.1542857 C10.5028571,16.872 10.28,16.6476571 9.98285714,16.6328 C9.71394286,17.3325714 9.56685714,18.1036571 9.56685714,18.9059429 C9.56685714,22.3528 12.3897143,25.1459429 15.7474286,25.1459429 C19.1051429,25.1459429 21.928,22.3528 21.928,18.9059429 C21.928,18.1051429 21.7809143,17.3325714 21.512,16.6342857 L21.512,16.6342857 Z M23.8148571,3.70857143 C22.8491429,3.70857143 22.0765714,4.49451429 22.0765714,5.48994286 C22.0765714,6.47051429 22.8491429,7.2728 23.8148571,7.2728 C24.7672,7.2728 25.5531429,6.47051429 25.5531429,5.48994286 C25.5531429,4.496 24.7657143,3.70857143 23.8148571,3.70857143 Z M18.6,7.27428571 C19.5523429,7.27428571 20.3382857,6.472 20.3382857,5.49142857 C20.3382857,4.496 19.5523429,3.6952 18.6,3.6952 C17.6342857,3.6952 16.8617143,4.496 16.8617143,5.49142857 C16.8617143,6.472 17.6342857,7.27428571 18.6,7.27428571 Z M15.8514286,27.0788571 C11.4522286,27.0788571 7.90137143,23.424 7.90137143,18.9074286 C7.90137143,14.4057143 11.4522286,10.7523429 15.8514286,10.7523429 C20.2476571,10.7523429 23.8133714,14.4057143 23.8133714,18.9074286 C23.8148571,23.424 20.2476571,27.0788571 15.8514286,27.0788571 Z" id="wma"></path>
            </g>
        </g>
    </g>
</svg>